<?xml version="1.0" encoding="utf-8"?>
<!-- Generator: Adobe Illustrator 19.2.0, SVG Export Plug-In . SVG Version: 6.00 Build 0)  -->
<svg version="1.1" id="Layer_1" xmlns="http://www.w3.org/2000/svg" xmlns:xlink="http://www.w3.org/1999/xlink" x="0px" y="0px"
	 viewBox="0 0 24 24" style="enable-background:new 0 0 24 24;" xml:space="preserve">
<style type="text/css">
	.st0{fill-rule:evenodd;clip-rule:evenodd;}
</style>
<g>
	<g>
		<path d="M14.6,10.9c0-0.9-0.8-1.1-1.3-1.2c-0.3-0.1-0.6-0.1-0.6-0.2c0-0.1,0.2-0.2,0.5-0.2c0.2,0,0.4,0,0.7,0.1c0,0,0.1,0,0.1,0
			c0.2,0,0.4-0.2,0.4-0.4c0-0.2-0.1-0.4-0.3-0.4c-0.3-0.1-0.6-0.2-1-0.2c-0.9,0-1.4,0.5-1.4,1.2c0,0.8,0.8,1,1.3,1.2
			c0.2,0,0.5,0.1,0.5,0.2c0,0.1,0,0.2-0.5,0.2c-0.3,0-0.6-0.1-0.8-0.2c-0.3-0.1-0.6,0.1-0.6,0.4c0,0.1,0.1,0.3,0.2,0.4
			c0.4,0.2,0.8,0.3,1.2,0.3C14.2,12.1,14.6,11.5,14.6,10.9z"/>
		<path d="M15.2,9.3h0.2V11c0,0.4,0.1,1,1.1,1c0.2,0,0.4,0,0.6-0.1c0.2-0.1,0.3-0.2,0.3-0.4c0-0.2-0.2-0.4-0.4-0.4
			c-0.1,0-0.1,0-0.2,0c-0.1,0-0.1,0-0.2,0c-0.2,0-0.2,0-0.2-0.2V9.3h0.5c0.2,0,0.4-0.2,0.4-0.4c0-0.2-0.2-0.4-0.4-0.4h-0.5V8.1
			c0-0.2-0.1-0.3-0.3-0.3c-0.1,0-0.2,0.1-0.2,0.1L15,8.7c-0.1,0.1-0.1,0.2-0.1,0.3C14.8,9.2,15,9.3,15.2,9.3z"/>
	</g>
	<path d="M6.9,10.4c0.2,0.5,0.8,0.7,1.3,0.4l0.6-0.3v6.3c0.4,0.3,0.9,0.6,1.2,1c0.5-0.1,0.8-0.5,0.8-1V9c0-0.3-0.2-0.7-0.5-0.9
		c-0.3-0.2-0.7-0.2-1,0l-2,1C6.9,9.4,6.7,10,6.9,10.4z"/>
</g>
<path class="st0" d="M2.4,13.6c-0.5-0.5-0.7-1.1-1.1-1.7c0.6,0.1,1.4,0.6,1.8,1c0.8,0.8,0.6,0.9,1,1.8C3.6,14.6,2.8,14,2.4,13.6z
	 M5,6.5L5,7.4C5.6,7.2,6.1,6,6.1,5.3V4.7c0-0.3-0.1-0.7-0.2-0.9C5.4,4.2,4.9,5.5,5,6.5z M5.9,6.7c1.2-0.3,2.5-1.6,2.6-3
	C7.2,4,6.2,5.5,5.9,6.7z M7.2,18.1v-0.5c0-1.3-1-2.6-1.7-3.2C5.4,15.9,6.1,17.8,7.2,18.1z M3.8,13c0-1.5-0.7-3-1.9-3.3
	C1.9,10.9,2.8,12.8,3.8,13z M8.1,6.3C7.4,6.3,6.4,6.7,6,7C5.3,7.5,5,7.9,4.7,8.6C5.9,8.6,7.9,7.2,8.1,6.3z M3.6,7.6v0.5
	C3.6,8.4,3.9,9,4,9.2C4.4,9,4.8,7.7,4.8,7V6.2c0-0.3-0.2-0.7-0.3-0.9C4.1,5.6,3.6,6.9,3.6,7.6z M2.7,14.5C2.8,15.5,4.5,17,5.8,17
	C5.3,16,4.1,14.5,2.7,14.5z M3.7,10.7l0.1-0.5V9.8c0-1-0.6-2.3-1.3-2.7c0,0.2-0.1,0.2-0.1,0.4v1C2.4,9.2,3.2,10.6,3.7,10.7z
	 M16.3,20.6c0.7,0,0.9-0.1,1.4-0.2c-0.2-0.4-1.4-0.8-2-0.8h-0.5c-0.3,0-2.9,0.8-3.2,1c-0.4-0.2-1-0.4-1.6-0.5
	c-0.5-0.1-0.8-0.5-1.6-0.5H8.5c-0.7,0-1.9,0.4-2.2,0.8c0.5,0.1,0.7,0.2,1.4,0.2h0.6c0.5,0,1.5-0.3,1.9-0.4l1.5,0.5
	c-0.2,0.3-1.6,0.9-2.1,1.7l0.5,0.5c0.3-0.5,1.4-1.9,2-1.9c0.7,0,1.7,1.7,2,1.9l0.5-0.4c-0.2-0.4-0.6-0.7-1-1
	c-0.2-0.2-1.1-0.6-1.2-0.8c0.3-0.1,1.3-0.5,1.5-0.5c0.2,0,1.2,0.4,2,0.4H16.3z M7.5,17c0.9,1.8,1.2,1.9,2.9,2.9
	C10.3,18.6,8.7,17,7.5,17z M4.9,15.2c0.1-0.6,0.3-0.8,0.3-1.6v-0.5c0-0.6-0.2-1.2-0.6-1.5c-0.2,0.5-0.4,0.8-0.4,1.5v0.2
	C4.2,14,4.4,15.1,4.9,15.2z M5.1,10.6c0.2-0.3,0.6-1.4,0.6-1.9c0-0.1-0.1-0.1-0.1-0.1c-0.4,0-1.7,1.4-1.7,2.8v0.4
	C4.3,11.7,4.9,11,5.1,10.6z M5.8,18.3h0.6c0.2,0,0.2,0,0.3-0.1c-0.2-0.6-2.1-1.4-3-1.4H3.6l-1,0.1C3,17.6,4.7,18.3,5.8,18.3z
	 M18.1,3.8C18,4,17.9,4.3,17.9,4.5v0.8c0,0.6,0.5,2,1.1,2L19,6.7V6.3C19,5.3,18.7,4.2,18.1,3.8z M15.5,3.7c0,1.4,1.3,2.7,2.6,3
	C17.8,5.5,16.7,4,15.5,3.7z M16.5,17c-1.3,0-2.8,1.6-2.9,2.9C15.4,18.9,15.6,18.8,16.5,17z M15.9,6.3c0.2,0.9,2.2,2.3,3.5,2.3
	C18.7,7.4,17.6,6.3,15.9,6.3z M19.8,14.6c0.7-0.1,1.3-0.6,1.7-1c0.6-0.6,0.7-0.9,1.1-1.7c-0.6,0.1-1.4,0.6-1.8,1
	C20.1,13.6,20.3,13.7,19.8,14.6z M17.8,18.5h-0.5c-0.7,0-1.5,0.3-2,0.5c0.2,0.3,1.1,0.5,1.6,0.5h0.3c1.1,0,1.6-0.3,2.4-0.5
	C19.4,18.8,18.4,18.5,17.8,18.5z M20.1,11.4c0-1.6-1.4-2.8-1.8-2.8c0,0-0.1,0-0.1,0.1c0,1.1,1,2.9,1.9,3.1V11.4z M7.2,19.6
	c0.5,0,1.3-0.2,1.5-0.5c-0.5-0.4-1.4-0.5-2.3-0.5H6.3c-0.7,0-1.6,0.2-1.9,0.6c0.9,0.2,1.4,0.5,2.6,0.5H7.2z M20.5,16.8
	c0,0-0.1,0-0.1,0c-1.1,0-2.9,0.8-3.1,1.4c0.1,0,0.1,0.1,0.3,0.1h0.5c1.1,0,3.1-0.7,3.3-1.4L20.5,16.8z M22.1,9.7
	c-1.2,0.3-1.9,1.8-1.9,3.3C21.2,12.8,22.1,10.9,22.1,9.7z M19.8,12.9c0-0.5-0.2-0.9-0.4-1.3c-0.4,0.2-0.6,0.9-0.6,1.5V14
	c0,0.5,0.2,0.8,0.3,1.2c0.5-0.1,0.7-1.2,0.7-1.9V12.9z M19.2,6.2v0.7c0,0.8,0.4,2,0.8,2.3c0.1-0.2,0.4-0.8,0.4-1.1V7.6
	c0-0.7-0.5-2.1-0.8-2.3C19.4,5.5,19.2,6,19.2,6.2z M20.2,10L20.2,10l0.1,0.7c0.5-0.1,1.3-1.5,1.3-2.2V7.4c0-0.2,0-0.2-0.1-0.3
	C20.8,7.6,20.2,8.7,20.2,10z M18.6,14.5c-0.8,0.5-1.7,1.8-1.7,3.2v0.5C17.9,17.8,18.6,15.9,18.6,14.5z M18.2,17c1.2,0,3-1.5,3.1-2.6
	C19.8,14.5,18.8,16,18.2,17z"/>
</svg>
