<?xml version="1.0" encoding="utf-8"?>
<!-- Generator: Adobe Illustrator 19.2.0, SVG Export Plug-In . SVG Version: 6.00 Build 0)  -->
<svg version="1.1" id="Layer_1" xmlns="http://www.w3.org/2000/svg" xmlns:xlink="http://www.w3.org/1999/xlink" x="0px" y="0px"
	 viewBox="0 0 24 24" style="enable-background:new 0 0 24 24;" xml:space="preserve">
<g>
	<g>
		<path d="M11.3,17.7h-5c-0.4,0-0.8-0.2-0.9-0.6c-0.2-0.4-0.1-0.8,0.2-1.1l4-4c0.3-0.3,0.4-0.6,0.4-1s-0.1-0.7-0.4-0.9
			c-0.5-0.5-1.4-0.5-1.9,0c-0.3,0.3-0.4,0.6-0.4,0.9c0,0.6-0.4,1-1,1s-1-0.4-1-1c0-0.9,0.3-1.7,1-2.4c1.3-1.3,3.5-1.3,4.7,0
			c0.6,0.6,1,1.5,1,2.4s-0.3,1.7-1,2.4l-2.3,2.3h2.6c0.6,0,1,0.4,1,1S11.9,17.7,11.3,17.7z"/>
	</g>
	<g>
		<path d="M13.4,11.3V9.8c0.2-0.3,0.4-0.4,0.6-0.4c0.2,0,0.4,0.1,0.4,0.4v1.4c0,0.2,0.2,0.4,0.4,0.4s0.4-0.2,0.4-0.4V9.9
			c0-0.7-0.5-1.2-1.1-1.2c-0.3,0-0.6,0.1-0.8,0.3c-0.1-0.1-0.2-0.2-0.4-0.2S12.5,9,12.5,9.2v2.2c0,0.2,0.2,0.4,0.4,0.4
			C13.2,11.8,13.4,11.6,13.4,11.3z"/>
		<path d="M18.1,7.5c-0.2,0-0.4,0.2-0.4,0.4v0.9c-0.2-0.1-0.4-0.2-0.7-0.2c-0.7,0-1.5,0.5-1.5,1.6c0,1,0.7,1.6,1.5,1.6
			c0.3,0,0.5-0.1,0.8-0.2c0.1,0.1,0.2,0.2,0.4,0.2c0.2,0,0.4-0.2,0.4-0.4V8C18.5,7.7,18.4,7.5,18.1,7.5z M16.4,10.2
			c0-0.5,0.2-0.7,0.6-0.7c0.3,0,0.5,0.1,0.6,0.3v0.9C17.5,10.8,17.3,11,17,11C16.7,10.9,16.4,10.7,16.4,10.2z"/>
	</g>
</g>
</svg>
