<?xml version="1.0" encoding="utf-8"?>
<!-- Generator: Adobe Illustrator 19.2.0, SVG Export Plug-In . SVG Version: 6.00 Build 0)  -->
<svg version="1.1" id="Layer_1" xmlns="http://www.w3.org/2000/svg" xmlns:xlink="http://www.w3.org/1999/xlink" x="0px" y="0px"
	 viewBox="0 0 24 24" style="enable-background:new 0 0 24 24;" xml:space="preserve">
<g>
	<g>
		<path d="M11.7,12.1c0.3-0.5,0.5-1,0.5-1.6c0-1.5-1.2-2.8-2.8-2.8c-1,0-2,0.6-2.4,1.5c-0.2,0.5,0,1.1,0.5,1.3
			c0.5,0.3,1.1,0.1,1.3-0.4C9,9.9,9.3,9.7,9.5,9.7c0.4,0,0.8,0.3,0.8,0.8s-0.3,0.8-0.8,0.8c-0.6,0-1,0.4-1,1s0.4,1,1,1
			c0.7,0,1.2,0.6,1.2,1.2s-0.6,1.2-1.2,1.2s-1.2-0.6-1.2-1.2c0-0.6-0.4-1-1-1s-1,0.4-1,1c0,1.8,1.5,3.3,3.2,3.3s3.2-1.5,3.2-3.3
			C12.8,13.5,12.4,12.7,11.7,12.1z"/>
	</g>
	<g>
		<path d="M14.6,8.9c-0.2,0-0.5,0.1-0.7,0.2c-0.1-0.1-0.2-0.2-0.4-0.2s-0.4,0.2-0.4,0.4v2.2c0,0.2,0.2,0.4,0.4,0.4s0.4-0.2,0.4-0.4
			V10c0.1-0.1,0.3-0.3,0.6-0.3c0.2,0,0.4-0.2,0.4-0.4C15,9.1,14.8,8.9,14.6,8.9z"/>
		<path d="M17.5,7.8C17.2,7.8,17,8,17,8.2V9c-0.2-0.1-0.4-0.2-0.7-0.2c-0.7,0-1.4,0.5-1.4,1.6s0.7,1.6,1.4,1.6
			c0.3,0,0.5-0.1,0.7-0.2c0.1,0.1,0.2,0.2,0.4,0.2c0.2,0,0.4-0.2,0.4-0.4V8.2C17.9,8,17.7,7.8,17.5,7.8z M15.8,10.5
			c0-0.5,0.2-0.7,0.6-0.7c0.3,0,0.5,0.1,0.6,0.3V11c-0.1,0.1-0.3,0.3-0.6,0.3C16,11.2,15.8,10.9,15.8,10.5z"/>
	</g>
</g>
</svg>
