<?xml version="1.0" encoding="utf-8"?>
<!-- Generator: Adobe Illustrator 16.0.0, SVG Export Plug-In . SVG Version: 6.00 Build 0)  -->
<svg version="1.2" baseProfile="tiny" xmlns="http://www.w3.org/2000/svg" xmlns:xlink="http://www.w3.org/1999/xlink" x="0px"
	 y="0px" width="512px" height="154px" viewBox="0 0 512 154" xml:space="preserve">
<g id="Background">
	<rect x="-64" y="-243" fill="#005493" width="640" height="640"/>
</g>
<g id="Foreground">
	<g>
		<path fill="#FFFFFF" d="M119.6,1.28h18.338v25.792h20.682V1.28h18.334v69.278h-18.334V43.062h-20.682v27.497H119.6V1.28z"/>
		<path fill="#FFFFFF" d="M296.884,0c8.742,0,16.205,4.266,21.108,9.169l-10.021,11.295c-3.411-2.982-6.398-4.688-10.871-4.688
			c-8.317,0-15.353,7.46-15.353,20.036c0,13.004,5.97,20.25,14.922,20.25c5.33,0,9.172-2.343,12.153-5.541l10.021,11.085
			c-5.864,6.821-13.859,10.232-22.388,10.232c-18.12,0-33.474-11.724-33.474-35.387C262.983,13.218,278.975,0,296.884,0z"/>
		<path fill="#FFFFFF" d="M332.065,1.28h18.337v25.792h0.425L368.312,1.28h20.04l-20.682,28.139l24.731,41.139H372.36
			l-15.352-26.646l-6.606,9.38v17.266h-18.337V1.28z"/>
		<path fill="#FFFFFF" d="M251.152,70.559h-19.403L219.383,20.12h-0.426c-1.918,7.461-12.152,50.439-12.152,50.439h-18.764
			L208.512,1.28h22.172L251.152,70.559z"/>
		<path fill="#CCCCCC" d="M119.6,83.442h18.403v37.943c0,12.363,3.21,16.838,10.485,16.838c7.28,0,10.703-4.475,10.703-16.838
			V83.442h17.762v35.815c0,23.656-8.986,34.742-28.465,34.742c-19.47,0-28.889-11.086-28.889-34.742V83.442z"/>
		<path fill="#CCCCCC" d="M285.319,83.442h18.333v69.276h-18.333V83.442z"/>
		<path fill="#CCCCCC" d="M368.202,82.165c8.743,0,16.207,4.262,21.11,9.164l-10.02,11.299c-3.411-2.986-6.397-4.69-10.874-4.69
			c-8.316,0-15.353,7.459-15.353,20.037c0,13,5.97,20.249,14.923,20.249c5.33,0,9.17-2.343,12.153-5.543l10.021,11.088
			c-5.86,6.82-13.856,10.231-22.386,10.231c-18.122,0-33.471-11.725-33.471-35.385C334.307,95.381,350.294,82.165,368.202,82.165z"
			/>
		<path fill="#CCCCCC" d="M188.041,83.442h19.405l12.366,50.44h0.426c1.918-7.46,12.152-50.44,12.152-50.44h18.762l-20.469,69.276
			h-22.172L188.041,83.442z"/>
		<polygon fill="#CCCCCC" points="54.945,76.998 0,57.057 0,96.942 101.242,154 101.242,93.805 		"/>
		<polygon fill="#FFFFFF" points="0,57.057 0,96.942 54.945,76.998 101.242,60.197 101.242,0 		"/>
		<polygon fill="#FFFFFF" points="512,96.944 512,57.058 457.058,77.002 410.762,93.805 410.762,154 		"/>
		<polygon fill="#CCCCCC" points="457.058,77.002 512,96.944 512,57.058 410.762,0 410.762,60.197 		"/>
	</g>
</g>
</svg>
