<svg id="Layer_1" xmlns="http://www.w3.org/2000/svg" viewBox="0 0 394.3 77.5"><style>.st0{fill:#fff}.st1{fill:#3084c6}.st2{fill:#3896d2}</style><path class="st0" d="M125 53.4h8.2c0 2.2-.3 4-.9 5.6-1 2.5-2.5 4.6-4.4 6.2-2.6 2.2-5.8 3.3-9.5 3.3-4.6 0-8.3-1.7-11-5.2-2.2-2.8-3.4-6.1-3.4-9.9V24c0-3.9 1.2-7.2 3.6-10.1 2.9-3.5 6.5-5.2 10.9-5.2 3.6 0 6.8 1.2 9.6 3.7 3.4 3 5.1 6.8 5.1 11.6H125v-.9c0-1.6-.5-3.1-1.5-4.4-1.3-1.7-2.9-2.5-4.9-2.5-2.5 0-4.4 1.1-5.6 3.4-.6 1.1-.8 2.2-.8 3.5v31.2c0 1.8.5 3.3 1.5 4.5 1.3 1.6 2.9 2.4 4.9 2.4 1.3 0 2.5-.4 3.5-1.1 1-.7 1.8-1.7 2.4-3 .3-1 .5-2.1.5-3.7m20.3-43.9v18.4c2-1.8 4.3-2.6 6.8-2.6 1.6 0 3.1.4 4.6 1.1 1.5.8 2.7 1.8 3.6 3.1 1.4 1.9 2 4 2 6.5v31.7H155V37.3c0-1.3-.4-2.4-1.2-3.5-1-1.2-2.2-1.8-3.7-1.8-1.8 0-3.2.8-4.1 2.4-.4.8-.7 1.8-.7 2.9v30.4H138V9.5h7.3zm28.4 38.7v7.5c0 1.9.4 3.4 1.3 4.5 1 1.2 2.2 1.8 3.7 1.8 2.1 0 3.5-1 4.3-3.1.3-.8.4-1.8.4-2.9v-.3h7.3c-.1 1.2-.1 2.2-.2 2.9-.3 2.5-1.5 4.8-3.6 6.8-2.3 2.2-5.1 3.2-8.4 3.2-4.1 0-7.3-1.6-9.7-4.9-1.6-2.3-2.4-4.9-2.4-8V38.1c0-3 1-5.7 2.9-8.1 2.5-3 5.5-4.5 9.1-4.5 2.8 0 5.3.9 7.6 2.6 3.1 2.3 4.6 5.7 4.6 10v10.1h-16.9zm9.7-6.7v-4.3c0-1.1-.3-2.1-1-3.1-.9-1.4-2.2-2-3.8-2-2 0-3.4.9-4.4 2.8-.4.7-.5 1.5-.5 2.3v4.3h9.7zm27.3 14.3h7.5c0 1.8-.2 3.4-.7 4.7-.8 2.1-2 3.8-3.5 5.2-2.2 1.9-4.9 2.9-7.9 2.9-2.1 0-4-.5-5.7-1.4-1.8-.9-3.2-2.2-4.3-3.9-1.4-2.2-2.1-4.6-2.1-7.5V37.9c0-3.1.9-5.7 2.7-8 2.4-3 5.5-4.5 9.2-4.5 3.1 0 5.8 1 8.2 3 2.5 2.1 3.8 5.3 4.1 9.5h-7.5V37c0-1.4-.4-2.5-1.4-3.4-1-1-2.1-1.5-3.4-1.5-1.7 0-3 .8-4 2.3-.5.8-.8 1.7-.8 2.7v19.7c0 1.5.4 2.8 1.2 3.7.9 1 2.1 1.6 3.5 1.6 1.8 0 3.2-.8 4.1-2.3.5-.8.7-1.8.7-2.9l.1-1.1zm11.4 11.9V9.5h7.3v31.2l10-14.5h8.2l-13.5 19.7 13.5 21.8h-8.2l-10-16.3v16.3zm37.3-34.6v34.7h-7.3V33.1h-3.6v-6.7h3.7v-8.7c0-1.7.6-3.5 1.8-5.4 1.2-1.8 3-2.8 5.5-2.9 2.4 0 4.7 1 6.7 3.1l-3.2 5.2c-.4-.8-1.1-1.1-1.9-1.1-1.1.1-1.6.9-1.6 2.3v7.4h5.2V33l-5.3.1zm7.7 34.6V26.4h7.3v3.3c1-2.3 2.8-3.4 5.2-3.5 2.7 0 4.9 1 6.8 3.1l-3.9 5.9c-.8-1.2-1.8-1.8-3-1.8-1.6 0-2.8.6-3.8 1.8-.8 1.2-1.2 2.6-1.2 4.4v28.1h-7.4zM287 55.9v-18c0-2.5.7-4.9 2-6.9 1.1-1.8 2.6-3.1 4.4-4.1s3.7-1.5 5.8-1.5c3.9 0 7 1.5 9.4 4.6 1.8 2.3 2.7 5 2.7 8v18c0 2.7-.7 5.1-2 7.2-2.4 3.7-5.9 5.5-10.5 5.5-4 0-7.1-1.6-9.4-4.8-1.6-2.3-2.4-5-2.4-8m17 .8V37c0-1.5-.5-2.7-1.6-3.7-1-.9-2.1-1.3-3.3-1.3-1.7 0-3.1.8-3.9 2.4-.5.9-.8 1.8-.8 2.7v19.7c0 1.3.4 2.4 1.2 3.4 1 1.2 2.2 1.8 3.7 1.8 1.6 0 2.8-.7 3.8-2 .5-1 .9-2 .9-3.3m11.8 11V26.1h7.3V28c2.1-1.8 4.4-2.7 6.8-2.7 3.2 0 5.8 1.2 7.8 3.7 1.6 2 2.4 4.2 2.4 6.7v32.1h-7.3V37.1c0-1.3-.4-2.3-1-3.2-1-1.2-2.2-1.8-3.8-1.8-1.7 0-3 .7-3.9 2-.6.9-.9 1.9-.9 3v30.7l-7.4-.1zm38.9-34.5V59c0 .8.2 1.3.6 1.7.4.3 1 .5 1.9.5h3.9v6.6h-6.4c-2.1 0-3.9-.7-5.3-2s-2-2.9-2-4.7V33.2h-3.7v-6.7h3.7V12.3l7.3-2.8v17h7.3v6.6l-7.3.1zM92.6 13.5L58.4 60 38.6 40.6h-.1.1l-.3-.3 4.4-4.3 13.6 4.8L86.9 8.5H38.6c-3.5 0-6.3 2.9-6.3 6.3v47.9c0 3.5 2.9 6.3 6.3 6.3h47.9c3.5 0 6.3-2.9 6.3-6.3V14.8c0-.4-.1-.9-.2-1.3z"/></svg>