<svg id="Layer_1" xmlns="http://www.w3.org/2000/svg" viewBox="0 0 960 159.5"><style>.st0{fill:#fff}</style><path class="st0" d="M607.4 58.3c-1.8 3-2.2 5.9-3 8.7-5.1 18.2-10.2 36.5-15.3 54.7-.5 1.7-1 3.4-1.6 5-.8 2.1-2.3 3.4-4.7 3.4-2.2 0-3.1-1.6-3.7-3.3-1.5-4.3-3.1-8.5-4.3-12.9-6.8-24.2-13.5-48.5-20.2-72.8-.5-1.7-1.2-3.5-.2-5.1 1.1-1.6 2.5-3 4.7-2.9 2.3.1 3.2 1.8 3.8 3.7 4.9 14.9 8.7 30.1 13.1 45.1 2.2 7.6 4.3 15.2 6.4 23 2-1 1.9-2.8 2.3-4.2 5.5-19.4 10.9-38.8 16.3-58.1.4-1.6.8-3.1 1.4-4.6.9-2.5 2.3-4.6 5.2-4.7 3.3-.1 4 2.5 4.7 4.9 4.1 14.7 8.2 29.3 12.4 44 2.1 7.4 4.2 14.8 6.5 22.7 1.8-1.4 1.9-3 2.3-4.5 5.4-19.1 10.7-38.1 16.1-57.2.6-2 1.2-3.9 2-5.8 1.1-2.6 2.6-4.9 5.9-3.8 3.1 1 3.1 3.6 2.5 6.2-1.3 5.6-2.6 11.1-4.2 16.7-6 21.6-12 43.3-18.1 64.9-.4 1.5-1 3.1-1.6 4.5-.8 2-1.5 4.3-4.3 4.4-3 .1-3.8-2.4-4.6-4.6-1.3-3.4-2.5-6.9-3.5-10.4-5-17.5-9.9-35-14.8-52.5-.5-1.4-.9-2.8-1.5-4.5zm-257.8 71.6c-15.9 1.9-33.5-14.3-34.2-31.9-.6-16.1 11.4-34.9 33.1-35.7C366.3 61.6 382 76 383.3 94c.3 3.8-1 6-5.3 6.4-15 1.3-30 .3-44.9.7-2.3.1-5.7-1.4-6.8 1.1-1.1 2.3 1.3 4.9 2.7 7.1 7.2 11.2 21.4 14.5 32.9 7.7 1-.6 2-1.3 3-1.9 2.4-1.5 4.8-1.9 6.6.6 1.9 2.6 1.1 5.1-1.2 7-6.1 5.2-13 7.9-20.7 7.2zm-.2-38.6c6.9 0 13.8-.1 20.7 0 2.8 0 3.2-1.1 2.4-3.5-3.1-8.6-13.1-15.6-22.6-15.7-10.5-.1-19.8 6-23.3 15.1-1 2.6-1 4.2 2.5 4.1 6.8-.1 13.6 0 20.3 0zM483 70.6c7.4-6 14.8-8.2 23.3-7.9 16.2.6 29.7 14.1 29.8 30.4v27.4c0 1.9-.3 3.8-.6 5.7-.3 2.5-1.7 4.1-4.4 3.9-2.6-.2-3.9-1.8-4.1-4.4-.1-2.2-.4-4.4-.4-6.6-.1-8.2 0-16.5-.1-24.7-.2-12.8-9.5-22.3-21.9-22.2-12.5 0-21.6 9.4-21.5 22.4.1 10-.4 20-.7 30-.1 3-.9 5.4-4.3 5.5-3.6.1-4.6-2.3-4.7-5.6-.9-28.4-.5-56.8-.5-85.1 0-3.4 1.4-5.9 4.9-6.2 3.6-.2 4.5 2.5 4.7 5.6.7 8.5.4 17 .4 25.6.1 1.7.1 3.5.1 6.2zM830.1 84c0-16.8.1-30.7-.1-44.7 0-3.6 1.2-5.9 4.7-6.1 3.4-.2 4.2 2.4 4.4 5.4 1.1 14.8.3 29.7.5 44.5 0 1.2.1 2.4 0 3.5-.1 2.3.7 2.5 2.5 1.3 5.4-3.5 10.8-7 16.3-10.5 7.3-4.6 14.7-9.2 22-13.8 2.5-1.6 4.7-1.7 6.5.9 2 2.8 1 5-1.6 6.7-7.6 5.1-15.2 10.1-22.8 15.1-4.5 3-4.5 3-.8 7.3 7.2 8.3 14.5 16.6 21.7 24.9.9 1 1.7 2.1 2.5 3.1 1.9 2.5 2.6 5.1-.1 7.4-2.7 2.3-4.8.7-6.8-1.4-8.9-9.8-17.8-19.6-26.5-29.5-2.3-2.6-3.7-2.8-6.8-1.1-4.9 2.7-6.8 5.9-6.3 11.5.5 5.4 0 10.9-.3 16.3-.1 2.9-1.2 5.3-4.6 5.3-3.4 0-3.7-2.6-3.9-5.2-1-14.6-.3-29.2-.5-40.9zm-666.3-3V39.5c0-4.6 1.3-6.1 5.9-6.3 18.7-.6 37.3-.4 56 0 3.2.1 5.9 1.2 5.7 4.7-.2 3.3-2.4 4.9-6.1 4.9-15.9-.1-31.8.1-47.6-.1-3.5 0-4.4 1-4.4 4.4.2 8.7.2 17.3 0 26-.1 2.9.8 3.7 3.7 3.7 11.2-.1 22.3 0 33.5-.1 3.4 0 6 .8 6.2 4.6.2 3.8-2.8 4.3-5.7 4.6-11.1.9-22.3.7-33.5.7-3.6 0-4.4 1.2-4.3 4.5.2 8.7.1 17.3 0 26 0 2.9-.4 5.9-.6 8.8-.2 2.7-1.8 4-4.3 4.1-2.5.1-3.7-1.5-4.2-3.7-.3-1.6-.4-3.2-.4-4.8.1-13.5.1-27 .1-40.5zm582.3 15.7c0 18.5-15.3 33.5-34.3 33.4-18.5-.1-33.5-15.4-33.5-34.3 0-18.1 15.1-33.2 33.5-33.4 19.3-.1 34.3 14.9 34.3 34.3zm-33.7 23.8c13.7 0 24.1-10.6 24.1-24.4 0-13.5-10.6-24-24.1-24-13.5 0-24.4 10.6-24.4 23.8 0 14 10.5 24.6 24.4 24.6zm221.4-57.8c8.8-.7 16.4 3.3 23 9.7 2.1 2 4.6 4.2 2 7.5-2.7 3.4-5.6 1.7-8-.4-4.8-4.1-10-7.2-16.5-7.3-5.7-.1-11.1.8-15.6 4.8-4.7 4.1-4 8 1.8 10 9.4 3.3 18.8 6.5 28.3 9.7 6.2 2.1 10.5 5.7 11.3 12.6.7 6.4-2.4 10.9-7.2 14.6-12.8 9.9-33.8 7.8-44.5-4.5-2-2.3-3.2-4.6-.6-7.3 2.5-2.7 4.7-1.5 6.8.4 6 5.5 12.7 8.8 21.1 7.9 4.4-.5 8.3-1.9 11.6-4.8 4.6-3.9 3.8-8.1-1.8-10.1-9.4-3.3-18.8-6.6-28.2-9.8-6.2-2.1-10.6-5.9-11.4-12.7-.7-6.6 2.8-11.1 7.8-14.9 5.7-4.2 12.3-5.6 20.1-5.4zm-505.2 67.2c-10.4.9-18.4-3.9-25.4-10.9-2.3-2.2-2.7-4.3-.3-6.8 2.4-2.5 4.7-2.1 6.8.1 7.4 7.4 16.1 9.9 26.2 7.1 2.9-.8 5.4-2.3 7.5-4.5 3.5-3.7 2.7-7.5-2-9.2-8.8-3.1-17.7-6-26.6-9-7-2.4-13.2-5.7-13.6-14.2-.3-8.5 5.2-13.4 12-16.9 12.6-6.4 29.7-3.1 39.2 7.3 2 2.2 4.2 4.8 1.2 7.6-2.7 2.5-5.5 1.2-7.8-1.1-7.2-7-15.7-8.7-25.2-6.2-2.3.6-4.4 1.7-6.2 3.2-2.1 1.7-3.9 3.6-3.5 6.7.4 3.1 3.1 3.2 5.2 3.9 9.8 3.5 19.7 6.7 29.4 10.4 10.9 4.2 13.2 16.5 4.6 24.5-5.9 5.7-13.1 8.7-21.5 8zM259.3 71.8c5.1-3.8 9.6-7.5 15.5-8.3 6.8-.9 13.7-1.8 20.4 1 2.5 1 5 2.3 4.1 5.8-.9 3.5-3.7 3.4-6.4 3.1-4.4-.5-8.6-1.5-13.1-1.1-10.7.9-21.2 12.4-20.7 22.7.5 9.8-.2 19.7-.6 29.5-.1 3-.8 5.4-4.3 5.5-3.6.1-4.6-2.3-4.7-5.6-.6-18.5-.7-37-.1-55.6.1-3.3.8-6.2 4.4-6.4 3.6-.2 4.8 2.8 5.3 5.9.1 1 .1 1.9.2 3.5zm514.5-.5c1.8-.2 2.7-1.5 3.8-2.3 9.2-6.8 19.3-7.9 30.1-5.1 1.5.4 3 1.2 4.3 2.1 1.7 1.1 2.8 2.7 1.9 4.9-.9 2.1-2.5 3.3-4.8 3-2.9-.4-5.8-1.1-8.7-1.4-14.5-1.5-26.3 8.7-26.7 23.3-.2 9.7-.2 19.4-.8 29.1-.2 3-.9 5.4-4.3 5.4-3.5.1-4.4-2.5-4.5-5.3-.5-19.1-.7-38.2-.1-57.2.1-3.1 1.7-4.8 4.5-5 3-.3 4.5 1.7 4.9 4.5.1 1.1.2 2.6.4 4zM44.1 83.1c0 5.6-4.2 9.9-9.6 10-5.6 0-9.7-4.4-9.7-10.3.1-5.5 4.4-9.9 9.7-9.8 5.4.1 9.6 4.6 9.6 10.1zm50.1 2.4c0 5.5-4.2 10-9.4 10.1-5.3.1-9.8-4.4-9.8-9.7 0-5.7 4.4-10.4 9.7-10.4 5.1 0 9.5 4.7 9.5 10zM20 84.1c0 5.5-4.3 9.9-9.7 10-5.4 0-9.6-4.3-9.7-9.9-.1-5.7 4.4-10.4 9.8-10.3 5.4 0 9.6 4.6 9.6 10.2zm22.8-58.5c0-5.5 4.3-10 9.5-10s9.7 4.6 9.8 9.9c.1 5.5-4.6 10.3-9.9 10.2-5.2 0-9.4-4.5-9.4-10.1zm24.6 94.9c0-5.5 4.2-10.1 9.4-10.2 5.1-.1 9.8 4.7 9.8 10 0 5.5-4.4 10.2-9.5 10.2-5.3-.1-9.6-4.5-9.7-10zM11.6 99.1c5.2.1 9.5 4.7 9.4 10.2-.1 5.5-4.5 10-9.7 10-5.4 0-9.8-4.8-9.6-10.5.1-5.5 4.5-9.8 9.9-9.7zm93.2-36.9c5.4 0 9.7 4.2 9.7 9.8.1 5.7-4.3 10.3-9.9 10.2-4.9-.1-9.3-4.7-9.4-9.9 0-5.4 4.4-10 9.6-10.1zM-.1 58.6c.1-5.7 4.1-9.8 9.6-9.8 5.4.1 9.5 4.4 9.5 10s-4.2 10.1-9.5 10.1C4.1 69-.2 64.4-.1 58.6zm104.8-9.5c0 5.5-4.3 10.1-9.5 10.2-5.2.1-9.6-4.4-9.6-10-.1-5.5 4.1-10.1 9.4-10.2 5.2 0 9.7 4.5 9.7 10zM64.1 109c-5.4 0-9.6-4.5-9.5-10 .1-5.5 4.6-10.2 9.7-10 5.1.1 9.5 4.6 9.6 9.7 0 5.7-4.3 10.3-9.8 10.3zm42.9-2.4c.1 5.6-4.1 10.3-9.2 10.3-5.6.1-10.1-4.3-10-10 0-5.4 4.4-10.1 9.5-10.2 5.1-.1 9.6 4.5 9.7 9.9zM73.7 47.4c-5.4 0-9.4-4.3-9.4-10.1.1-5.7 4.1-10 9.5-10 5.1 0 9.6 4.8 9.5 10.2.1 5.6-4.2 10-9.6 9.9zm-42.1.5c0-5.5 4.2-10.1 9.5-10.2 5.1-.1 9.7 4.6 9.8 10 .1 5.6-4.5 10.4-9.8 10.4-5.3-.1-9.5-4.6-9.5-10.2zm25 75.8c5.3 0 9.6 4.5 9.6 9.9 0 5.7-4.5 10.5-9.8 10.3-5-.2-9.6-5.2-9.5-10.3 0-5.2 4.6-9.9 9.7-9.9zM10.4 36.2c0-5.6 4.1-10.1 9.3-10.1 5.5-.1 9.8 4.6 9.7 10.3-.1 5.5-4.4 9.9-9.7 9.9-5.2 0-9.3-4.4-9.3-10.1zm42.5 23c.2-5.5 4.7-9.7 10-9.5 5.2.2 9.4 4.9 9.3 10.3-.2 5.4-4.7 10-9.8 9.9-5.4-.2-9.8-5.1-9.5-10.7zM35.3 98.3c5.4 0 9.5 4.2 9.5 9.9 0 5.8-4.3 10.3-9.8 10.2-5.2-.1-9.4-4.7-9.5-10.2.1-5.3 4.6-9.9 9.8-9.9zm10.4 35.4c-.1 5.5-4.4 9.8-9.8 9.7-5.4-.1-9.6-4.6-9.4-10.1.2-5.5 4.6-10 9.8-9.9 5.1.1 9.5 4.9 9.4 10.3zm36-74.2c3 .4 5 2.2 5 5.2 0 2.9-1.7 5.2-4.9 5.1-2.8-.1-4.7-2-4.7-4.8-.1-2.9 1.5-4.9 4.6-5.5zM37.9 20.9c-.4 2.9-1.8 5.1-5 4.9-2.8-.1-4.6-1.9-4.6-4.8 0-3 1.6-5.2 4.7-5.2 3-.1 4.7 1.9 4.9 5.1zM12 129.1c.2-3.2 1.8-4.9 4.7-4.9 3.2 0 4.8 2.2 4.8 5.1 0 2.9-1.6 5.1-4.9 4.9-3.1-.1-4.5-2.3-4.6-5.1zM33.6 63c-.2 3.1-1.5 5.1-4.6 5.1-3.2 0-4.9-2-4.9-5-.1-2.9 1.6-4.9 4.5-4.9 3.2-.1 4.7 2 5 4.8zm21.7 51.2c-.4 2.9-2 4.8-4.8 4.8-3.1 0-4.8-2.2-4.7-5.1 0-2.9 1.9-4.7 4.7-4.7 3.1-.1 4.4 2.1 4.8 5zm55.6-27.4c3.2.2 4.9 2.3 5 5.1.1 2.8-1.6 4.7-4.5 4.8-3.2.1-4.8-2-4.9-4.9-.1-2.8 1.7-4.4 4.4-5z"/></svg>