<svg id="Layer_1" xmlns="http://www.w3.org/2000/svg" viewBox="0 0 960 159.5"><style>.st0{fill:#fff}</style><path class="st0" d="M504 108.4c.4-1.4.9-2.9 1.3-4.3 6.6-23.9 13.2-47.7 19.9-71.6.3-1.1.6-2.2 1-3.3.9-2.4 2.5-3.5 4.8-3.5 2.5 0 4.3 1.2 5 3.7 1.9 6.6 3.8 13.2 5.7 19.9l15.6 56.1c.3 1.1.7 2.1 1.1 3.2.2 0 .4 0 .6-.1.4-1.3.8-2.7 1.2-4 6.8-24.6 13.6-49.1 20.5-73.7.3-1.2.9-2.4 1.6-3.3 1.5-1.8 4.1-2.3 6.1-1.4 2 .9 3.2 3.1 2.7 5.6-.7 3.4-1.6 6.8-2.6 10.1-7.7 27.7-15.4 55.5-23.1 83.2-.5 1.8-1 3.6-1.6 5.4-.9 2.8-2.6 4.2-5.2 4.2-2.4 0-4.4-1.5-5.2-4.2-1.4-4.6-2.7-9.3-3.9-13.9l-17.1-61.8c-.2-.9-.5-1.7-1.3-2.6-.3 1-.8 1.9-1 2.9-3.1 11-6.1 22.1-9.2 33.1-3.8 13.5-7.5 27-11.3 40.6l-.6 2.1c-.9 2.5-2.8 4-5.1 4-2.1.1-4.1-1.3-5.1-3.8-.6-1.4-1-2.9-1.4-4.3-5-18.2-10.1-36.4-15.1-54.5-3.5-12.6-6.9-25.2-10.4-37.8-.3-.9-.5-1.9-.6-2.9-.4-2.6 1.1-5 3.5-5.6 2.8-.8 5.5.4 6.3 3.1 1.7 5.5 3.3 11.1 4.9 16.7 5.6 20 11.1 40 16.7 59.9l.9 2.7c-.1 0 .2 0 .4.1zm-291.2-6.5c.6 3.9 2.1 7 4 9.8 9.4 14.2 28.1 15.9 39.4 7.2.8-.6 1.6-1.2 2.4-1.7 2.2-1.2 5.1-.5 6.6 1.3 1.4 1.7 1.4 4.6-.1 6.5-.6.8-1.4 1.4-2.1 2-7.9 6-16.9 8.2-26.8 7.5-16.1-1.2-30.7-14.3-33.7-30.4-4.4-23.7 12.2-42.9 32.4-45.5 19.3-2.6 37.9 10.1 42.1 28.7.6 2.7.8 5.5 1 8.2.4 3.8-2.4 6.2-5.5 6.1-3.3-.1-6.6.2-9.9.2-15.4 0-30.8 0-46.2.1h-3.6zm.3-10.8h53.4c.6-9.1-11.9-20.9-23.1-21.9-14.8-1.3-28.6 8.5-30.3 21.9zM814 88.9c1 1.1 1.8 2.1 2.7 3.1 9.3 10.6 18.7 21.2 28.1 31.8.7.8 1.4 1.6 2.1 2.5 1.7 2.2 1.4 5.2-.6 7-2 1.9-5 1.9-7-.2-4.2-4.4-8.2-9-12.3-13.5-6.7-7.5-13.4-15.1-20.2-22.7-.6-.7-1.3-1.4-2.2-2.3-3.6 2.4-7.2 4.6-10.7 6.9-1 .7-.8 1.7-.8 2.7-.1 7.8-.1 15.6-.2 23.4 0 1-.1 2-.2 2.9-.5 2.6-2.5 4.2-5.1 4-2.8-.2-4.6-2.1-4.7-4.8V31.2c0-1 0-2.2.5-3.1.9-2 3-2.8 5.5-2.4 2.1.3 3.4 1.6 3.8 3.9.2 1 .2 2 .3 2.9.1 17.7.1 35.4.2 53.2v3.7c1.3-.8 2.2-1.2 3.1-1.8 13.4-8.7 26.9-17.4 40.3-26.1 1.2-.8 2.4-1.6 3.6-2.3 2.5-1.4 5.4-.7 6.9 1.5 1.5 2.3 1.1 5.2-1.1 7-.8.7-1.7 1.3-2.6 1.8-8.9 5.9-17.8 11.7-26.7 17.6-.9.5-1.7 1.1-2.7 1.8zM390.6 68.1c1-.8 1.6-1.2 2.2-1.7 20-16.4 51.3-6.7 57.2 20.4.3 1.2.3 2.5.3 3.7v39.2c0 2.8-1.8 4.6-4.6 4.9-2.6.2-4.6-1.3-5.1-4-.2-1.1-.3-2.3-.3-3.5-.1-10.8-.1-21.7-.2-32.5 0-2.3 0-4.7-.7-6.9-2.8-9.6-9-16-18.9-18.3-13.2-3.1-27.4 6.1-29.7 19-.4 2.2-.4 4.5-.4 6.7l-.3 33.6c0 1.2-.3 2.5-.9 3.5-1.2 2-3.5 2.8-5.6 2.2-2.2-.7-3.9-2.8-3.8-4.9.2-5.4 0-10.7 0-16.1 0-27.3 0-54.6.1-81.9 0-1.2.1-2.6.7-3.6 1.1-2.1 3.5-2.8 5.8-2.2 2.1.5 3.5 2.3 3.6 4.8l.3 20.4v14.2c.2.9.3 1.8.3 3zM41.1 36.2v38.3c1 0 1.9.1 2.9.1 10.9 0 21.8 0 32.8.1 2.9 0 5.7.1 8.6.3 2.8.2 5 2.4 5 4.9 0 2.8-2.1 5.1-5 5.3-.7.1-1.4 0-2.1 0-12.9 0-25.8.1-38.7.1h-3.5v3.5c-.1 13.5-.1 27-.2 40.6 0 2.4-1.1 4.1-3.1 4.8-3.5 1.4-6.8-.8-6.9-4.6-.2-6.6-.3-13.3-.3-19.9 0-25.9.2-51.8.3-77.6V31c.1-3.7 1.7-5.3 5.5-5.4 3.4-.1 6.8-.2 10.2-.2 18.1 0 36.2 0 54.3.1 1.3 0 2.7.3 3.8.9 1.9 1.1 2.6 3.5 2 5.6-.7 2.3-2.3 3.6-4.7 3.7-2.9.1-5.7.1-8.6.1-16.4.2-32.6.2-48.8.3-1.1 0-2.3.1-3.5.1zm570.5 60.4c-.7-22.1 19.2-37.9 37-38.2 21.7-.4 39.3 17.9 39.2 38.3 0 19.7-16.9 38.1-38.4 38.1-21.3 0-38.8-18.8-37.8-38.2zm10.5 0c-.5 14.5 12.2 27.6 27.4 27.5 15.6-.1 27.7-12.2 27.7-27.8.1-15.5-13.6-27.5-27.6-27.4-14.7.1-28.1 12.9-27.5 27.7zm-292-38.1c9.7-.2 19 4.2 26.7 12.1 1.3 1.3 2.4 2.7 2.3 4.7-.1 2-.9 3.4-2.6 4.4-1.8 1-3.6 1.1-5.3-.2-1.2-.9-2.3-2-3.4-3-8-7.5-17.4-8.9-27.7-6.1-3.4.9-6.4 2.8-8.8 5.4-.8.8-1.5 1.8-1.9 2.9-1.1 3.1-.1 6 3.2 7.1 8.3 2.7 16.6 5.6 24.9 8.4 3.7 1.3 7.5 2.4 11.1 3.9 5.2 2.1 9.2 5.6 10.4 11.4 1.1 5.3.1 10.2-3.5 14.3-4.8 5.5-10.9 8.9-18.1 10.3-9.2 1.8-18 .9-26.3-3.5-4.3-2.3-8-5.4-11.2-9.1-1.4-1.7-1.6-3.9-.6-5.7 1-1.9 3-3 5.2-2.6 1.1.2 2.1.9 3 1.6 1.5 1.2 2.7 2.6 4.2 3.8 8.7 6.8 18.2 7.7 28.3 3.7 2.1-.8 4-2.4 5.8-3.8.8-.6 1.5-1.5 2-2.5 2.1-3.7.9-6.9-3.1-8.3-5.4-1.9-10.8-3.6-16.3-5.5-5.8-2-11.7-3.9-17.5-6-3.2-1.1-6.3-2.6-8.6-5.2-5.5-6.2-5.4-15.4.2-21.5 7.2-7.8 15.9-11.1 27.6-11zm568.2-.1c11.1-.2 20.2 4.1 27.9 11.8.7.7 1.4 1.4 2 2.2 1.4 2 1.1 4.7-.5 6.4-1.7 1.8-4.2 2.2-6.3.8-1-.7-1.9-1.6-2.8-2.5-7.5-7.3-16.4-9.4-26.5-7.3-3.9.8-7.3 2.8-10.3 5.4-.5.4-.9.9-1.3 1.4-2.9 3.8-1.8 7.8 2.8 9.4 9.2 3.1 18.5 6.2 27.7 9.3 2.9 1 5.7 2 8.5 3.2 11.8 4.9 12.8 18.9 5.2 26.3-6.5 6.3-14.2 9.5-23.1 10-12.2.7-22.4-3.5-30.8-12.4-1.6-1.7-2.4-3.5-1.7-5.8 1.1-3.5 5.3-4.8 7.7-2.6 1.3 1.1 2.6 2.2 3.8 3.4 8.7 8.3 22.4 8.6 30.5 4.2 2-1.1 3.8-2.6 5.6-4.1.8-.7 1.4-1.7 1.7-2.7 1.2-3.7.1-6-3.6-7.3-10.1-3.4-20.1-6.8-30.2-10.2-2.1-.7-4.2-1.5-6.3-2.4-10.5-4.3-13-17.3-5.8-25.4 5-5.6 11.3-8.9 18.7-10.3 2.3-.5 4.7-.6 7.1-.8zM138.2 69.5c.7-.5 1.3-1.1 2-1.6 7.1-6.1 15.3-9.4 24.8-9.3 5.2.1 10.2.6 14.9 2.7 1.9.8 3.3 2.2 3.5 4.4.4 3.4-2 6-5.4 5.8-1.2-.1-2.4-.5-3.6-.9-15-4.9-30.4 2.6-35.4 17.5-.9 2.7-1.3 5.8-1.3 8.7-.2 10.9-.1 21.8-.2 32.7 0 4.1-4 6.6-7.5 4.8-1.8-.9-2.9-2.4-2.9-4.5V63.5c.3-2.9 2.4-4.9 5.1-4.9 2.7 0 4.9 1.9 5.2 4.8.1 1 .1 2 .1 2.9v2.9c.3 0 .5.2.7.3zm580.4.4c1.3-1 2.1-1.7 2.9-2.3 11-9.2 23.5-11 37-7.2 1.1.3 2.2.8 3.2 1.3 2.5 1.4 3.4 3.9 2.4 6.4-1 2.5-3.3 3.8-6 3.2-1.3-.3-2.6-.8-3.8-1.2-14.6-4.2-29.6 3.5-34.2 17.7-1 3.1-1.4 6.5-1.5 9.7-.2 9-.1 18.1-.1 27.1 0 1.8 0 3.6-.2 5.4-.2 2.7-2.3 4.6-4.9 4.6-2.9 0-4.9-1.9-5-4.8-.2-4.4-.3-8.8-.3-13.2-.1-17.4 0-34.7-.1-52.1 0-1.6.3-3 1.3-4.2 1.5-1.8 3.4-2.3 5.6-1.7 2 .5 3.2 2 3.4 4 .2 2.2.2 4.4.3 7.3z"/></svg>