<svg id="logo-horizontal-white_1_" xmlns="http://www.w3.org/2000/svg" viewBox="0 0 376.4 111.6"><style>.st0{fill:#fff}</style><path class="st0" d="M97.1 33.8v16.6h16V33.8h9.7v43.1h-9.7v-18h-16v18h-9.7V33.8h9.7zm45.5 36.8c-4.1 0-6.3-4-6.3-9.3 0-4.7 1.8-9.4 6.4-9.4 4.4 0 6.2 4.7 6.2 9.3 0 5.6-2.4 9.4-6.3 9.4zm0 6.9c8.3 0 16.4-5.2 16.4-16.6 0-9.5-6.4-16-15.9-16-10.1 0-16.7 6.5-16.7 16.5-.1 10.1 7 16.1 16.2 16.1zm35.9-6.9c-4.1 0-6.3-4-6.3-9.3 0-4.7 1.8-9.4 6.4-9.4 4.4 0 6.2 4.7 6.2 9.3 0 5.6-2.4 9.4-6.3 9.4zm0 6.9c8.3 0 16.4-5.2 16.4-16.6 0-9.5-6.4-16-15.9-16-10.1 0-16.7 6.5-16.7 16.5-.1 10.1 7 16.1 16.2 16.1zm19.9-24.7v12.8c0 4.4.9 7.4 2.7 9.3 1.6 1.6 4.2 2.7 7.3 2.7 2.7 0 5-.4 6.3-.8l-.1-7.3c-.9.2-1.5.3-2.9.3-2.9 0-3.8-1.7-3.8-5.5V52.8h7v-7.2h-7v-9.4c-5.2 0-9.5 4.2-9.5 9.5v7.1zm99.5 0v12.8c0 4.4.9 7.4 2.7 9.3 1.6 1.6 4.2 2.7 7.3 2.7 2.7 0 5-.4 6.3-.8l-.1-7.3c-.9.2-1.5.3-2.9.3-2.9 0-3.8-1.7-3.8-5.5V52.8h7v-7.2h-7v-9.4c-5.2 0-9.5 4.2-9.5 9.5v7.1zm-79.6 22.5c2.4 1.3 6 2.2 10.1 2.2 8.9 0 13.5-4.3 13.5-10.2-.1-4.5-2.5-7.6-8.4-9.6-3.8-1.3-5-2.1-5-3.6s1.3-2.5 3.7-2.5c2.6 0 5.4 1 6.8 1.7l1.7-6.6c-1.9-1-5.1-1.9-8.8-1.9-7.7 0-12.7 4.4-12.7 10.3-.1 3.6 2.4 7.2 8.9 9.3 3.6 1.2 4.5 2 4.5 3.6s-1.2 2.6-4.2 2.6c-2.9 0-6.6-1.2-8.4-2.3l-1.7 7zM275 45.6h-9.7v18.6c0 .8-.1 1.5-.4 2.1-.6 1.5-2.2 3.4-4.9 3.4-3.4 0-4.9-2.7-4.9-7.3V45.6h-9.7v18.3c0 9.7 4.6 13.6 11 13.6 5.6 0 8.6-3.2 9.8-5.1h.2l.4 4.4h8.4c-.1-2.6-.3-5.9-.3-10V45.6zm6.6 31.3h9.7V45.6h-9.7v31.3zm4.9-35.4c3.4 0 5.5-2.3 5.5-5.2-.1-2.9-2.1-5.2-5.4-5.2-3.3 0-5.5 2.2-5.5 5.2 0 2.9 2.1 5.2 5.4 5.2zm40.1 16.1c.3-2.6 1.9-6.3 6.1-6.3 4.4 0 5.4 4 5.4 6.3h-11.5zm20.2 6.7c.1-.8.3-2.2.3-3.9 0-7.7-3.8-15.6-13.9-15.6-10.8 0-15.8 8.8-15.8 16.7 0 9.8 6.1 16 16.7 16 4.2 0 8.1-.6 11.3-2l-1.3-6.6c-2.6.9-5.3 1.3-8.6 1.3-4.5 0-8.5-1.9-8.8-6l20.1.1zm8.3-18.7v.9h-2.2v6.3h-1.1v-6.3h-2.2v-.9h5.5zm7 7.2l-.3-4.4v-2h-.1l-.6 2.1-1.5 4.2h-.8l-1.5-4.3c-.2-.6-.4-1.3-.5-2h-.1v2l-.3 4.4h-1.1l.6-7.2h1.4l1.4 3.9c.2.5.3 1.1.5 1.8.2-.7.3-1.3.5-1.8l1.4-3.9h1.4l.5 7.2h-.9zM40.5 21c4.6 0 8.9 1.2 12.6 3.4 3.7-2.1 7.9-3.3 12.4-3.3h.1v75.3c-27.7-.1-50.3-22.5-50.2-50.2V21.1h.1c4.5 0 8.8 1.2 12.4 3.3 3.7-2.2 8-3.4 12.6-3.4m0-2.2c-4.4 0-8.7 1.1-12.6 3.1-3.8-2-8.1-3-12.4-3h-2.3v27.3c0 14 5.4 27.1 15.3 37 9.9 9.9 23 15.3 37 15.4h2.2V18.9h-2.3c-4.3 0-8.6 1-12.4 3-3.8-2-8.1-3.1-12.5-3.1z"/><path class="st0" d="M51.3 30.2c-5.6 0-10.2 4.3-10.7 9.8v-.1.1c-.5-5.5-5.1-9.8-10.7-9.8-5.9 0-10.8 4.8-10.8 10.7 0 5.9 4.8 10.8 10.7 10.8 2.1 0 4.1-.6 5.7-1.7l5 5 5-5c1.7 1.1 3.6 1.7 5.7 1.7C57.1 51.7 62 46.9 62 41c0-6-4.8-10.8-10.7-10.8zM29.7 48c-4 0-7.2-3.2-7.2-7.2s3.2-7.2 7.2-7.2c.7 0 1.5.1 2.1.3-1.2.6-2.1 1.8-2.1 3.3 0 2 1.6 3.6 3.6 3.6 1.5 0 2.7-.9 3.3-2.1.2.7.3 1.4.3 2.1 0 4-3.2 7.2-7.2 7.2zm21.5.1c-4 0-7.2-3.2-7.2-7.2 0-.7.1-1.5.3-2.1.6 1.3 1.8 2.1 3.3 2.1 2 0 3.6-1.6 3.6-3.6 0-1.5-.9-2.7-2.1-3.3.7-.2 1.4-.3 2.1-.3 4 0 7.2 3.2 7.2 7.2s-3.2 7.2-7.2 7.2z"/></svg>