<svg id="Full_Colour" xmlns="http://www.w3.org/2000/svg" viewBox="0 0 462.7 95.2"><style>.Arched_x0020_Green{fill:url(#SVGID_1_);stroke:#fff;stroke-width:.25;stroke-miterlimit:1}.st0{fill:#fff}</style><linearGradient id="SVGID_1_" gradientUnits="userSpaceOnUse" x1="-18.649" y1="297.577" x2="-17.942" y2="296.87"><stop offset="0" stop-color="#20ac4b"/><stop offset=".983" stop-color="#19361a"/></linearGradient><g id="Latitude_Geographics_Logo"><path class="st0" d="M102.8 56.7H115v3.5H99V33.3h3.9v23.4zm29.2 2.5c-1.6 1.1-2.3 1.4-3.4 1.4-1.5 0-2.4-.6-2.7-1.8-1.5 1.2-3.2 1.8-4.8 1.8-2.6 0-4.3-2.1-4.3-4.3 0-3.5 3.2-4.6 6-5.6l3.1-1.1v-.9c0-2.2-1.1-3.1-3.2-3.1-1.9 0-3.9.9-5.6 2.9v-3.8c1.4-1.6 3.3-2.4 5.9-2.4 3.6 0 6.4 1.8 6.4 5.8v9.1c0 .7.2.9.7.9.4 0 1.1-.4 1.9-.9v2zm-6-7.8c-3 1-5.6 2.1-5.6 4.1 0 1.5 1.1 2.5 2.5 2.5 1.1 0 2.1-.6 3.1-1.5v-5.1zm13.7-8.9h5.6v3.2h-5.6v9.1c0 2.1 1.5 2.7 2.5 2.7 1.3 0 2.6-.4 4-1.3v3.3c-1.2.7-3.1 1.2-4.3 1.2-3.8 0-5.8-2.4-5.8-5.6v-9.4H133v-.4l6.6-6.4v3.6zm11.3-3.3c-1.1 0-2.1-.9-2.1-2.1 0-1.1.9-2.1 2.1-2.1 1.1 0 2.1.9 2.1 2.1 0 1.1-1 2.1-2.1 2.1zm1.7 21h-3.5V42.5h3.5v17.7zm9.6-17.7h5.6v3.2h-5.6v9.1c0 2.1 1.5 2.7 2.5 2.7 1.3 0 2.6-.4 4-1.3v3.3c-1.2.7-3.1 1.2-4.3 1.2-3.8 0-5.8-2.4-5.8-5.6v-9.4h-3.1v-.4l6.6-6.4v3.6zM183 60.2V58c-1.5 1.6-3.5 2.6-5.3 2.6-3.6 0-6.1-2.6-6.1-7.1v-11h3.5v11.3c0 2.5 1.2 3.9 3.6 3.9 1.6 0 3.1-.9 4.2-2.5V42.5h3.5v17.7H183zm24.2 0h-7.5c-5.3 0-8.6-3.6-8.6-9.3 0-5.1 3.7-8.8 8.8-8.8 1.2 0 2.3.2 3.7.7v-9.6h3.5v27zm-3.6-14.3c-1.2-.5-2.1-.7-3.3-.7-3.4 0-5.7 2.4-5.7 6.2 0 3.3 1.3 5.8 5.4 5.8h3.6V45.9zm23.6 12.6c-2.1 1.4-4.1 2.1-7.1 2.1-5.5 0-8.6-4.5-8.6-9.4 0-5.4 3.4-9 8.3-9 4.7 0 7.7 3.2 7.7 9.8H215c.6 3.5 2.6 5.3 6 5.3 2.1 0 4.1-.8 6.2-2.1v3.3zm-3.2-9c-.1-2.7-1.7-4.4-4.1-4.4-2.7 0-4.3 1.6-4.8 4.4h8.9zm43.2 8.8c-3.6 1.6-6.5 2.2-10.3 2.2-8.3 0-14.3-5.8-14.3-13.7 0-7.9 6.2-14 14.5-14 3.2 0 5.4.5 9.6 2.3V39c-3.2-1.7-6.4-2.6-9.7-2.6-5.8 0-10.4 4.5-10.4 10.3 0 6 4.5 10.2 10.9 10.2 2.1 0 4-.5 5.8-1.1v-5.5h-5.2v-3.5h9v11.5zm20.3.2c-2.1 1.4-4.1 2.1-7.1 2.1-5.5 0-8.6-4.5-8.6-9.4 0-5.4 3.4-9 8.3-9 4.7 0 7.7 3.2 7.7 9.8h-12.5c.6 3.5 2.6 5.3 6 5.3 2.1 0 4.1-.8 6.2-2.1v3.3zm-3.1-9c-.1-2.7-1.7-4.4-4.1-4.4-2.7 0-4.3 1.6-4.8 4.4h8.9zm25.5 1.7c0 5.6-3.9 9.4-9.6 9.4-5.5 0-9.4-4-9.4-9.4 0-5.1 4.1-9 9.4-9 5.6-.1 9.6 3.7 9.6 9zm-15.4 0c0 3.8 2.3 6.2 5.7 6.2 3.7 0 6-2.4 6-6.2 0-3.4-2.5-5.9-6-5.9-3.2 0-5.7 2.5-5.7 5.9zm33.9-6h-3.6c1.4 1.4 1.9 2.4 1.9 3.9s-.8 3.2-1.7 4c-2.4 2.5-7.2 1.3-7.2 3.4 0 1 1.9 1.6 5.4 2.3 3.8.8 5.1 2.7 5.1 4.9 0 3.5-3.1 5.6-8.4 5.6-4.8 0-8.2-2.2-8.2-5.4 0-2.6 1.4-4.1 4.5-4.9-1.2-.7-1.8-1.5-1.8-2.2 0-1.2 1.1-2.1 2.8-2.5v-.1c-1.3-.6-2.3-1.3-3-2.2-.6-.9-.9-2-.9-3.3 0-3.8 3-6.1 7.7-6.1h7.3v2.6zm-9.3 15.9c-2.4 0-4 1.1-4 2.7 0 1.8 1.7 2.7 4.9 2.7 3.1 0 4.9-.9 4.9-2.6 0-2.2-3.7-2.8-5.8-2.8zm.9-15.6c-1.9 0-3.5 1.5-3.5 3.2 0 1.9 1.4 3.2 3.6 3.2 2 0 3.4-1.4 3.4-3.3-.1-1.7-1.7-3.1-3.5-3.1zm15.2-3v4.1h.1c1.8-3.1 3.5-4.4 5.1-4.4 1.4 0 2.8.7 4.2 2.1l-1.9 3c-1.1-1-2.5-1.7-3.3-1.7-2.4 0-4.3 2.4-4.3 5.4v9.3h-3.5V42.5h3.6zm26.1 16.7c-1.6 1.1-2.3 1.4-3.4 1.4-1.5 0-2.4-.6-2.7-1.8-1.5 1.2-3.2 1.8-4.8 1.8-2.6 0-4.3-2.1-4.3-4.3 0-3.5 3.2-4.6 6-5.6l3.1-1.1v-.9c0-2.2-1.1-3.1-3.2-3.1-1.9 0-3.9.9-5.6 2.9v-3.8c1.4-1.6 3.3-2.4 5.9-2.4 3.6 0 6.4 1.8 6.4 5.8v9.1c0 .7.2.9.7.9.4 0 1.1-.4 1.9-.9v2zm-6.1-7.8c-3 1-5.6 2.1-5.6 4.1 0 1.5 1.1 2.5 2.5 2.5 1.1 0 2.1-.6 3.1-1.5v-5.1zm12.5 17.9h-3.5V42.5h6.1c6.5 0 10 3.2 10 9 0 5.3-3.8 9.1-9 9.1-1.1 0-2.2-.2-3.6-.8v9.5zm0-12.7c1.1.5 2.2.8 3.3.8 3.3 0 5.6-2.5 5.6-6 0-3.7-1.9-5.8-5.8-5.8h-3.2v11zM388 44.8c1.4-1.7 3.4-2.7 5.4-2.7 3.5 0 6 2.4 6 7.2v10.9h-3.5v-11c0-2.6-1.3-4.3-3.5-4.3-1.5 0-2.8.7-4.4 2.6v12.7h-3.5V33.3h3.5v11.5zm18.5-5.6c-1.1 0-2.1-.9-2.1-2.1 0-1.1.9-2.1 2.1-2.1 1.1 0 2.1.9 2.1 2.1 0 1.1-.9 2.1-2.1 2.1zm1.8 21h-3.5V42.5h3.5v17.7zm18.5-13.1c-2-1.3-3.4-1.7-4.9-1.7-3.2 0-5.4 2.4-5.4 6 0 3.7 2.4 5.9 6 5.9 1.5 0 2.9-.4 4.7-1.2v3.5c-1.2.6-3.4 1-5.3 1-5.3 0-9-3.7-9-8.9 0-5.8 3.4-9.6 8.8-9.6 2.1 0 3.4.5 5.1 1.2v3.8zm14.9-.1c-2-1.3-3.8-1.9-5.1-1.9-1.4 0-2.3.7-2.3 1.6 0 .8 1.2 1.7 4.3 3.6 2.9 1.9 4 3.2 4 5 0 3.1-2.5 5.2-5.8 5.2-2.2 0-3.9-.4-6.2-1.6v-3.8c2.3 1.6 4.4 2.3 5.8 2.3 1.4-.1 2.6-.7 2.6-2 0-2.5-8.3-3.8-8.3-8.5 0-3 2.3-4.8 5.8-4.8 1.7 0 3.4.5 5.2 1.5V47zm7.7-13.1c.8 0 1.7.2 2.4.6.8.4 1.4 1 1.9 1.8.4.8.7 1.6.7 2.5 0 .9-.2 1.7-.7 2.5-.4.8-1 1.4-1.8 1.8-.8.4-1.6.7-2.5.7-.9 0-1.7-.2-2.5-.7-.8-.4-1.4-1.1-1.8-1.8-.4-.8-.7-1.6-.7-2.5 0-.9.2-1.7.7-2.5.4-.8 1.1-1.4 1.9-1.8.8-.4 1.6-.6 2.4-.6zm0 .8c-.7 0-1.4.2-2 .5-.7.4-1.2.9-1.6 1.5-.4.7-.6 1.4-.6 2.1 0 .7.2 1.4.6 2.1.4.7.9 1.2 1.5 1.5.7.4 1.3.5 2.1.5.7 0 1.4-.2 2.1-.5.7-.4 1.2-.9 1.5-1.5.4-.7.5-1.3.5-2.1 0-.7-.2-1.4-.6-2.1-.4-.7-.9-1.2-1.6-1.5-.5-.3-1.2-.5-1.9-.5zm-2.1 6.9v-5.4h1.8c.6 0 1.1.1 1.4.1.3.1.5.3.7.5.2.2.2.5.2.8 0 .4-.1.7-.4 1-.3.3-.6.4-1.1.5.2.1.3.2.5.3.2.2.5.6.8 1.1l.6 1h-1.1l-.5-.8c-.4-.7-.7-1.1-.9-1.2-.2-.1-.4-.2-.7-.2h-.5v2.3h-.8zm.8-3h1c.5 0 .8-.1 1-.2.2-.2.3-.3.3-.6 0-.2 0-.3-.1-.4-.1-.1-.2-.2-.4-.3-.2-.1-.4-.1-.9-.1h-1v1.6z" id="Text"/><path class="st0" d="M45.7 10.3C25.1 10.3 8.3 27 8.3 47.7 8.3 68.3 25.1 85 45.7 85 66.3 85 83 68.3 83 47.7 83 27 66.3 10.3 45.7 10.3zm9 18.4c-21.9 0-39.9 7.6-41.9 17.2.3-6.1 2.3-11.7 5.4-16.5 7.6-3.4 18.1-5.5 29.6-5.5 8.8 0 16.9 1.2 23.6 3.3.9 1.1 1.7 2.3 2.4 3.6-5.6-1.3-12.2-2.1-19.1-2.1z"/></g></svg>