<svg width="2736" height="378" viewBox="0 0 2736 378" xmlns="http://www.w3.org/2000/svg"><title>Artboard</title><path d="M234.512 221H138.5h43.994C189.4 221 195 226.595 195 233.5c0 6.904-5.602 12.5-12.506 12.5H138.5h96.012v50H103.998C90.192 296 79 284.81 79 271c0-13.807 11.188-25 24.998-25h130.514v-25zm0 75H132.5h27.994C167.4 296 173 301.595 173 308.5c0 6.904-5.602 12.5-12.506 12.5H132.5h102.012-85.504C135.188 321 124 332.193 124 346c0 13.81 11.196 25 25.008 25H422.98c2.37 0 4.233-.677 5.588-2.032 1.355-1.355 2.032-3.217 2.032-5.588v-54.356c0-2.37-.677-4.233-2.032-5.588-1.355-1.355-3.217-2.032-5.588-2.032H313.252V23.02c0-2.37-.677-4.233-2.032-5.588-1.355-1.355-3.217-2.032-5.588-2.032h-63.5c-2.37 0-4.233.677-5.588 2.032-1.355 1.355-2.032 3.217-2.032 5.588v62.648C232.92 91.619 227.496 96 221.039 96h-58.267 71.74-143.51C77.2 96 66 107.193 66 121c0 13.81 11.194 25 25.003 25h143.509H153.5h48.994C209.4 146 215 151.595 215 158.5c0 6.904-5.602 12.5-12.506 12.5H153.5h81.012v50H37.009C23.197 221 12 209.81 12 196c0-13.807 11.196-25 25.01-25h197.502v-25zM82.023 321C92.411 324.035 100 333.631 100 345c0 13.807-11.193 25-25 25s-25-11.193-25-25c0-11.369 7.589-20.965 17.977-24h14.046zM25 296c13.807 0 25-11.193 25-25s-11.193-25-25-25-25 11.193-25 25 11.193 25 25 25zm696.176-171.888c1.355 1.355 2.032 3.217 2.032 5.588v233.68c0 2.37-.677 4.233-2.032 5.588-1.355 1.355-3.217 2.032-5.588 2.032h-55.372c-4.403 0-6.943-2.54-7.62-7.62l-1.524-18.288c-19.304 21.675-43.01 32.512-71.12 32.512-22.69 0-43.18-5.757-61.468-17.272-18.288-11.515-32.597-27.263-42.926-47.244-10.33-19.981-15.494-41.995-15.494-66.04 0-24.045 5.165-46.059 15.494-66.04 10.33-19.981 24.638-35.73 42.926-47.244 18.288-11.515 38.777-17.272 61.468-17.272 27.432 0 51.139 11.345 71.12 34.036l1.524-20.828c.677-5.08 3.217-7.62 7.62-7.62h55.372c2.37 0 4.233.677 5.588 2.032zm-91.694 165.862c10.668-12.023 16.002-26.5 16.002-43.434 0-16.595-5.334-30.903-16.002-42.926-10.668-12.023-23.96-18.034-39.878-18.034-16.256 0-29.718 5.842-40.386 17.526-10.668 11.684-16.002 26.162-16.002 43.434 0 17.61 5.334 32.258 16.002 43.942 10.668 11.684 24.13 17.526 40.386 17.526 15.917 0 29.21-6.011 39.878-18.034zm384.81-165.862c1.355 1.355 2.032 3.217 2.032 5.588v233.68c0 2.37-.677 4.233-2.032 5.588-1.355 1.355-3.217 2.032-5.588 2.032h-58.928c-4.403 0-6.943-2.54-7.62-7.62l-2.032-26.924c-8.805 12.53-19.389 22.521-31.75 29.972-12.361 7.45-25.823 11.176-40.386 11.176-18.288 0-34.629-4.318-49.022-12.954-14.393-8.636-25.654-21.082-33.782-37.338-8.128-16.256-12.192-35.221-12.192-56.896V129.7c0-2.37.677-4.233 2.032-5.588 1.355-1.355 3.217-2.032 5.588-2.032h60.96c2.37 0 4.233.677 5.588 2.032 1.355 1.355 2.032 3.217 2.032 5.588v125.476c0 18.288 4.318 31.411 12.954 39.37 8.636 7.959 18.88 11.938 30.734 11.938 14.901 0 26.5-4.657 34.798-13.97 8.297-9.313 12.446-19.389 12.446-30.226V129.7c0-2.37.677-4.233 2.032-5.588 1.355-1.355 3.217-2.032 5.588-2.032h60.96c2.37 0 4.233.677 5.588 2.032zm253.238 5.334c13.716 8.636 24.553 21.082 32.512 37.338s11.938 35.221 11.938 56.896v139.7c0 2.37-.677 4.233-2.032 5.588-1.355 1.355-3.217 2.032-5.588 2.032h-60.96c-2.37 0-4.233-.677-5.588-2.032-1.355-1.355-2.032-3.217-2.032-5.588V238.92c0-18.288-4.149-31.496-12.446-39.624-8.297-8.128-18.373-12.192-30.226-12.192-10.499 0-19.389 2.794-26.67 8.382-7.281 5.588-12.7 12.023-16.256 19.304-3.556 7.281-5.334 13.293-5.334 18.034V363.38c0 2.37-.677 4.233-2.032 5.588-1.355 1.355-3.217 2.032-5.588 2.032h-60.96c-2.37 0-4.233-.677-5.588-2.032-1.355-1.355-2.032-3.217-2.032-5.588V129.7c0-2.37.677-4.233 2.032-5.588 1.355-1.355 3.217-2.032 5.588-2.032h58.928c4.403 0 6.943 2.54 7.62 7.62l2.032 31.496c8.467-13.885 19.135-24.807 32.004-32.766 12.87-7.959 27.77-11.938 44.704-11.938 16.933 0 32.258 4.318 45.974 12.954zm265.938 158.242c1.693-1.693 3.556-2.54 5.588-2.54 2.37 0 4.233.847 5.588 2.54l36.576 35.052c1.693 1.693 2.54 3.556 2.54 5.588s-.677 3.725-2.032 5.08c-11.853 13.885-26.247 24.723-43.18 32.512-16.933 7.79-35.052 11.684-54.356 11.684-23.368 0-44.789-5.757-64.262-17.272-19.473-11.515-34.883-27.263-46.228-47.244-11.345-19.981-17.018-41.995-17.018-66.04 0-24.045 5.673-46.059 17.018-66.04 11.345-19.981 26.755-35.73 46.228-47.244 19.473-11.515 40.894-17.272 64.262-17.272 18.965 0 36.745 3.895 53.34 11.684 16.595 7.79 30.819 18.627 42.672 32.512 1.355 1.355 2.032 3.048 2.032 5.08s-.847 3.895-2.54 5.588l-36.576 35.56c-1.693 1.693-3.387 2.54-5.08 2.54-2.032 0-4.064-1.016-6.096-3.048-14.563-12.87-29.803-19.304-45.72-19.304-16.256 0-29.718 5.673-40.386 17.018-10.668 11.345-16.002 25.654-16.002 42.926 0 17.272 5.334 31.58 16.002 42.926 10.668 11.345 24.13 17.018 40.386 17.018 16.595 0 32.343-6.435 47.244-19.304zm291.338-158.242c13.716 8.636 24.553 21.082 32.512 37.338s11.938 35.221 11.938 56.896v139.7c0 2.37-.677 4.233-2.032 5.588-1.355 1.355-3.217 2.032-5.588 2.032h-60.96c-2.37 0-4.233-.677-5.588-2.032-1.355-1.355-2.032-3.217-2.032-5.588V238.92c0-18.288-4.149-31.496-12.446-39.624-8.297-8.128-18.373-12.192-30.226-12.192-10.499 0-19.389 2.794-26.67 8.382-7.281 5.588-12.7 12.023-16.256 19.304-3.556 7.281-5.334 13.293-5.334 18.034V363.38c0 2.37-.677 4.233-2.032 5.588-1.355 1.355-3.217 2.032-5.588 2.032h-60.96c-2.37 0-4.233-.677-5.588-2.032-1.355-1.355-2.032-3.217-2.032-5.588V7.78c0-2.37.677-4.233 2.032-5.588 1.355-1.355 3.217-2.032 5.588-2.032h60.96c2.37 0 4.233.677 5.588 2.032 1.355 1.355 2.032 3.217 2.032 5.588v153.416c8.467-13.885 19.135-24.807 32.004-32.766 12.87-7.959 27.77-11.938 44.704-11.938 16.933 0 32.258 4.318 45.974 12.954zm350.266-5.334c1.355 1.355 2.032 3.217 2.032 5.588v233.68c0 2.37-.677 4.233-2.032 5.588-1.355 1.355-3.217 2.032-5.588 2.032h-55.372c-4.403 0-6.943-2.54-7.62-7.62l-1.524-18.288c-19.304 21.675-43.01 32.512-71.12 32.512-22.69 0-43.18-5.757-61.468-17.272-18.288-11.515-32.597-27.263-42.926-47.244-10.33-19.981-15.494-41.995-15.494-66.04 0-24.045 5.165-46.059 15.494-66.04 10.33-19.981 24.638-35.73 42.926-47.244 18.288-11.515 38.777-17.272 61.468-17.272 27.432 0 51.139 11.345 71.12 34.036l1.524-20.828c.677-5.08 3.217-7.62 7.62-7.62h55.372c2.37 0 4.233.677 5.588 2.032zm-91.694 165.862c10.668-12.023 16.002-26.5 16.002-43.434 0-16.595-5.334-30.903-16.002-42.926-10.668-12.023-23.96-18.034-39.878-18.034-16.256 0-29.718 5.842-40.386 17.526-10.668 11.684-16.002 26.162-16.002 43.434 0 17.61 5.334 32.258 16.002 43.942 10.668 11.684 24.13 17.526 40.386 17.526 15.917 0 29.21-6.011 39.878-18.034zm315.214-2.286c1.693-1.693 3.556-2.54 5.588-2.54 2.37 0 4.233.847 5.588 2.54l36.576 35.052c1.693 1.693 2.54 3.556 2.54 5.588s-.677 3.725-2.032 5.08c-11.853 13.885-26.247 24.723-43.18 32.512-16.933 7.79-35.052 11.684-54.356 11.684-23.368 0-44.789-5.757-64.262-17.272-19.473-11.515-34.883-27.263-46.228-47.244-11.345-19.981-17.018-41.995-17.018-66.04 0-24.045 5.673-46.059 17.018-66.04 11.345-19.981 26.755-35.73 46.228-47.244 19.473-11.515 40.894-17.272 64.262-17.272 18.965 0 36.745 3.895 53.34 11.684 16.595 7.79 30.819 18.627 42.672 32.512 1.355 1.355 2.032 3.048 2.032 5.08s-.847 3.895-2.54 5.588l-36.576 35.56c-1.693 1.693-3.387 2.54-5.08 2.54-2.032 0-4.064-1.016-6.096-3.048-14.563-12.87-29.803-19.304-45.72-19.304-16.256 0-29.718 5.673-40.386 17.018-10.668 11.345-16.002 25.654-16.002 42.926 0 17.272 5.334 31.58 16.002 42.926 10.668 11.345 24.13 17.018 40.386 17.018 16.595 0 32.343-6.435 47.244-19.304zm141.478 72.644c-19.812-11.515-35.475-27.263-46.99-47.244-11.515-19.981-17.272-41.995-17.272-66.04 0-24.045 5.757-46.059 17.272-66.04 11.515-19.981 27.178-35.73 46.99-47.244 19.812-11.515 41.571-17.272 65.278-17.272 23.707 0 45.466 5.757 65.278 17.272 19.812 11.515 35.56 27.263 47.244 47.244 11.684 19.981 17.526 41.995 17.526 66.04 0 24.045-5.842 46.059-17.526 66.04-11.684 19.981-27.432 35.73-47.244 47.244-19.812 11.515-41.571 17.272-65.278 17.272-23.707 0-45.466-5.757-65.278-17.272zm105.41-70.358c10.837-11.345 16.256-25.654 16.256-42.926 0-17.272-5.419-31.58-16.256-42.926-10.837-11.345-24.215-17.018-40.132-17.018-15.579 0-28.871 5.673-39.878 17.018-11.007 11.345-16.51 25.654-16.51 42.926 0 17.272 5.503 31.58 16.51 42.926 11.007 11.345 24.3 17.018 39.878 17.018 15.917 0 29.295-5.673 40.132-17.018z" fill="#FFF" fill-rule="evenodd"/></svg>