<svg version="1.2" baseProfile="tiny" xmlns="http://www.w3.org/2000/svg" width="512" height="154" viewBox="0 0 512 154"><path fill="#005493" d="M119.599 1.28h18.338v25.792h20.681V1.28h18.333v69.278h-18.333V43.062h-20.681v27.497h-18.338V1.28zM296.883 0c8.742 0 16.205 4.266 21.108 9.169L307.97 20.464c-3.411-2.982-6.398-4.688-10.871-4.688-8.317 0-15.353 7.46-15.353 20.036 0 13.004 5.97 20.25 14.922 20.25 5.33 0 9.172-2.343 12.153-5.541l10.021 11.085c-5.864 6.821-13.859 10.232-22.388 10.232-18.12 0-33.474-11.724-33.474-35.387C262.982 13.218 278.974 0 296.883 0zm35.181 1.28h18.337v25.792h.425L368.312 1.28h20.04L367.67 29.419l24.731 41.139h-20.042l-15.352-26.646-6.606 9.38v17.266h-18.337V1.28zm-80.912 69.279h-19.404L219.382 20.12h-.426c-1.918 7.461-12.153 50.439-12.153 50.439H188.04L208.51 1.28h22.173l20.469 69.279z"/><path fill="#002754" d="M119.599 83.442h18.403v37.943c0 12.363 3.21 16.838 10.486 16.838 7.28 0 10.703-4.475 10.703-16.838V83.442h17.761v35.815c0 23.656-8.985 34.742-28.464 34.742-19.47 0-28.889-11.086-28.889-34.742V83.442zm165.719 0h18.333v69.276h-18.333V83.442zm82.883-1.277c8.743 0 16.207 4.262 21.11 9.164l-10.02 11.299c-3.411-2.986-6.397-4.69-10.874-4.69-8.316 0-15.353 7.459-15.353 20.037 0 13 5.97 20.249 14.923 20.249 5.33 0 9.17-2.343 12.153-5.543l10.021 11.088c-5.86 6.82-13.856 10.231-22.386 10.231-18.122 0-33.471-11.725-33.471-35.385.002-23.234 15.989-36.45 33.897-36.45zm-180.16 1.277h19.405l12.366 50.44h.426c1.918-7.46 12.152-50.44 12.152-50.44h18.763l-20.469 69.276H208.51l-20.469-69.276zM54.945 76.998L0 57.057v39.885L101.241 154V93.805z"/><path fill="#005493" d="M0 57.057v39.885l54.945-19.944 46.296-16.801V0zm511.999 39.887V57.058l-54.942 19.944-46.296 16.803V154z"/><path fill="#002754" d="M457.057 77.002l54.942 19.942V57.058L410.761 0v60.197z"/></svg>