<svg id="Layer_1" xmlns="http://www.w3.org/2000/svg" viewBox="0 0 1280 800"><style>.st0{fill:#fff}</style><path class="st0" d="M494.5 664.2c-16.6 0-31.6 6.7-42.5 17.6-10.9 10.9-17.6 25.9-17.6 42.5s6.7 31.6 17.6 42.5c10.9 10.9 25.9 17.6 42.5 17.6s31.6-6.7 42.4-17.6c10.9-10.9 17.6-25.9 17.6-42.5s-6.7-31.6-17.6-42.5c-10.9-10.9-25.9-17.6-42.4-17.6m0-7.3c37.2 0 67.3 30.1 67.3 67.3 0 37.2-30.1 67.3-67.3 67.3-37.2 0-67.3-30.1-67.3-67.3-.1-37.1 30.1-67.3 67.3-67.3m-47.4 20"/><path class="st0" d="M462.6 723.7c0-3.9-2.6-6.2-6.3-6.2H454v12.3h2.2c3.5.1 6.4-1.8 6.4-6.1m40.2 4.4l-16.6 13.1-15.2-12c-2.2 5.3-7.5 8.9-13.6 8.9h-13v-29h13c6.8 0 11.7 4.3 13.6 8.9l15.2-12 5.6 4.4-13.9 11 2.7 2.1 13.9-10.9 5.6 4.4-13.9 10.9 2.7 2.1 13.9-10.9v-10h10.1v20.5H523v8.5h-20.2v-10zm32.9 1.6h10.1v8.5h-20.2v-29h10.1v20.5zm129.7-72.4h3.4V792h-3.4zm155.3 65.6h58.2v-51.7l-58.2 8.2zm-1.8 0v-43.3l-44.6 6.3v37zm0 1.7h-44.6v37l44.6 6.2zm1.8 0v43.5l58.2 8.1v-51.6zm183.7-28.1c0 1.3-.5 2.4-1.4 3.3-.9.9-2 1.3-3.3 1.3-1.3 0-2.4-.4-3.3-1.3-.9-.8-1.3-2-1.3-3.4 0-1.2.4-2.3 1.3-3.2.9-.9 2-1.4 3.3-1.4 1.3 0 2.4.4 3.3 1.3 1 1 1.4 2.1 1.4 3.4zm-13.9-3.3L973 755.3h-8.5l-13.8-49.2h-.2l-13.8 49.2h-8.4l-18.1-62.1h7.9l14.3 51.8h.2l14.9-51.8h7l14.1 52h.2l13.8-52h7.9zm12.9 62.1h-7.1V711h7.1v44.3zm47.3 0h-7.1V730c0-9.4-3.4-14.1-10.3-14.1-3.5 0-6.4 1.3-8.7 4-2.3 2.6-3.5 6-3.5 10.1v25.3h-7.1V711h7.1v7.4h.2c3.3-5.6 8.1-8.4 14.5-8.4 4.9 0 8.6 1.6 11.1 4.8 2.5 3.2 3.8 7.7 3.8 13.5v27zm48.7 0h-7.1v-7.5h-.2c-3.3 5.7-8.3 8.6-15.2 8.6-5.6 0-10-2-13.3-6-3.3-4-5-9.4-5-16.1 0-7.3 1.8-13.2 5.5-17.7 3.7-4.4 8.6-6.7 14.7-6.7 6 0 10.4 2.4 13.2 7.2h.2v-27.4h7.1v65.6zm-7.1-20.1v-6.5c0-3.7-1.2-6.7-3.6-9.1-2.4-2.4-5.4-3.6-8.9-3.6-4.3 0-7.6 1.6-10.1 4.7-2.5 3.2-3.8 7.5-3.8 13.1 0 5.1 1.2 9.1 3.5 12.1 2.4 3 5.5 4.4 9.5 4.4 3.9 0 7.1-1.4 9.6-4.2 2.6-2.9 3.8-6.5 3.8-10.9zm59.5-2.3c0 7-2 12.7-6 17-4 4.3-9.3 6.4-16 6.4-6.5 0-11.7-2.1-15.6-6.3-3.9-4.2-5.8-9.7-5.8-16.5 0-7.3 2-13.1 6-17.4 4-4.3 9.5-6.4 16.5-6.4 6.6 0 11.7 2.1 15.4 6.2 3.7 4.2 5.5 9.9 5.5 17zm-7.2.3c0-5.6-1.2-9.8-3.7-12.8s-6-4.5-10.5-4.5-8.1 1.5-10.8 4.6c-2.6 3-4 7.3-4 12.9 0 5.3 1.3 9.5 4 12.4 2.7 3 6.2 4.5 10.8 4.5 4.6 0 8.1-1.5 10.6-4.4 2.4-3 3.6-7.2 3.6-12.7zm71.4-22.3l-13.2 44.3h-7.3l-9.9-34.4h-.2l-10.7 34.4h-7.1l-13.3-44.3h7.4l9.7 35.7h.3l10.9-35.7h6.5l9.8 35.7h.3l9.7-35.7h7.1zm30 32.5c0 3.8-1.5 7-4.4 9.3-2.9 2.4-6.9 3.6-11.7 3.6-4.2 0-7.8-.9-10.9-2.7V746c3.5 2.8 7.3 4.2 11.5 4.2 5.6 0 8.4-2.1 8.4-6.2 0-1.7-.5-3-1.6-4.1-1.1-1.1-3.6-2.5-7.5-4.3-3.9-1.7-6.7-3.5-8.3-5.4-1.6-1.9-2.4-4.5-2.4-7.6 0-3.7 1.5-6.7 4.4-9.2 2.9-2.5 6.7-3.7 11.2-3.7 3.5 0 6.6.7 9.4 2.1v7.1c-2.9-2.1-6.2-3.2-10-3.2-2.3 0-4.2.6-5.6 1.7-1.4 1.2-2.1 2.6-2.1 4.5 0 2 .5 3.5 1.6 4.5 1.1 1.1 3.3 2.3 6.8 3.7 4.2 1.8 7.1 3.7 8.8 5.6 1.5 2.3 2.4 4.7 2.4 7.7zM62.5 714.8c0 4.3-1.4 7.5-4.3 9.8-2.9 2.3-7 3.4-12.3 3.4h-6.8v18.2H36v-44.1h10.8c10.5 0 15.7 4.2 15.7 12.7m-23.4 10.5h6.1c5 0 8.6-.8 10.8-2.5 2.2-1.6 3.3-4.3 3.3-8 0-3.4-1-5.9-3.1-7.6-2.1-1.6-5.3-2.5-9.7-2.5h-7.3v20.6zm70.1-1.2c0 7-1.7 12.5-5.2 16.6-3.5 4.1-8.3 6.1-14.5 6.1-6.1 0-11-2-14.4-6.1-3.5-4.1-5.2-9.6-5.2-16.7 0-7 1.8-12.5 5.3-16.6 3.5-4 8.4-6 14.5-6 6.2 0 11 2 14.4 6.1 3.4 4 5.1 9.6 5.1 16.6m-36.1 0c0 6.3 1.4 11.2 4.2 14.6 2.8 3.4 6.9 5.2 12.1 5.2 5.3 0 9.4-1.7 12.2-5.1 2.8-3.4 4.2-8.3 4.2-14.7 0-6.4-1.4-11.2-4.2-14.6-2.8-3.4-6.8-5.1-12.1-5.1-5.2 0-9.3 1.7-12.1 5.1-2.9 3.4-4.3 8.3-4.3 14.6m81.4 22.1H152l-9.7-34c-.8-2.8-1.4-5.1-1.8-6.9-.3 1.7-.8 3.8-1.4 6-.6 2.3-3.8 13.9-9.7 34.9h-2.6l-12.1-44.1h3.2l7.7 28.4c.3 1.1.6 2.2.8 3.2.3 1 .5 1.9.7 2.7.2.9.4 1.7.6 2.5.2.8.3 1.6.5 2.4.5-2.7 1.5-6.9 3.1-12.5l7.5-26.8h3.4l8.8 30.7c1 3.5 1.8 6.4 2.2 8.6.3-1.4.6-3 1-4.6.4-1.6 3.5-13.2 9.3-34.7h3.1l-12.1 44.2zm44 0h-24.1v-44.1h24.1v2.8h-21v16.7h19.8v2.8h-19.8v19h21zm13.1-19.2v19.2h-3.1v-44.1H219c5.5 0 9.5 1 12.1 3 2.6 2 3.9 5.1 3.9 9.1 0 3-.8 5.4-2.3 7.5-1.6 2-3.9 3.5-7.1 4.4l12 20.1h-3.7L222.5 727h-10.9zm0-2.7h8.4c3.7 0 6.6-.8 8.7-2.5 2-1.7 3.1-4.1 3.1-7.3 0-3.4-1-5.8-3-7.3s-5.3-2.3-9.8-2.3h-7.3v19.4zm57.7 21.9h-24.1v-44.1h24.1v2.8h-21v16.7h19.8v2.8h-19.8v19h21zm43.5-22.5c0 7.4-1.9 13-5.8 16.8-3.9 3.8-9.6 5.7-17.1 5.7h-10.6v-44.1h11.9c7 0 12.4 1.8 16.1 5.5 3.6 3.7 5.5 9.1 5.5 16.1m-3.4.1c0-6.3-1.6-11.1-4.8-14.2-3.2-3.2-7.9-4.8-14.1-4.8h-8.1v38.7h7.3c13.1 0 19.7-6.6 19.7-19.7m29.5-21.7H351c5.4 0 9.4.9 12 2.8 2.6 1.9 3.8 4.6 3.8 8.4 0 2.6-.8 4.7-2.3 6.4-1.6 1.7-3.8 2.8-6.8 3.3v.2c3.5.5 6.1 1.6 7.8 3.3 1.7 1.7 2.5 4.1 2.5 7.1 0 4.1-1.3 7.2-4 9.4s-6.5 3.3-11.5 3.3H339v-44.2zm3.1 19.6h9.7c4.1 0 7.1-.7 9-2.1 1.9-1.4 2.8-3.5 2.8-6.5 0-2.9-1.1-5.1-3.2-6.4-2.1-1.3-5.3-2-9.5-2H342v17zm0 2.7v19h10.4c8.2 0 12.2-3.3 12.2-10 0-6.1-4.3-9.1-12.9-9.1H342zm45.8 1.8l12.9-24.1h3.3l-14.7 27.1v17h-3.1v-16.8l-14.8-27.3h3.6zm-323-246.3c1.4.6 2.6 1.4 3.6 2.4s1.8 2.2 2.4 3.6c.6 1.4.9 2.8.9 4.4v54.4c0 .5-.2.9-.5 1.3-.4.4-.8.5-1.3.5H56.4c-.5 0-.9-.2-1.2-.5-.3-.4-.5-.8-.5-1.3v-49.3H43.9v49.3c0 .5-.2.9-.5 1.3s-.7.5-1.3.5H30c-.5 0-.9-.2-1.3-.5-.4-.4-.5-.8-.5-1.3v-49.3H17.3v49.3c0 1.2-.6 1.8-1.8 1.8H2.2c-1.2 0-1.8-.6-1.8-1.8v-63.9c0-1.2.6-1.8 1.8-1.8h58.2c1.5 0 3 .3 4.4.9m67.5-.9c1.5 0 3 .3 4.4.9 1.4.6 2.6 1.4 3.6 2.4s1.8 2.2 2.4 3.6c.6 1.4.9 2.8.9 4.4v54.4c0 .5-.2 1-.5 1.3-.4.4-.8.5-1.3.5h-13.4c-.5 0-.9-.2-1.3-.5-.4-.4-.5-.8-.5-1.3v-17.3c0-.5-.2-.9-.5-1.3s-.7-.5-1.3-.5h-19.1c-.5 0-.9.2-1.3.5-.4.4-.5.8-.5 1.3v17.3c0 1.2-.6 1.8-1.8 1.8H88.7c-1.2 0-1.8-.6-1.8-1.8v-54.4c0-1.5.3-3 .9-4.4.6-1.4 1.4-2.6 2.4-3.6s2.2-1.8 3.6-2.4c1.4-.6 2.8-.9 4.4-.9h34.1zm-5.8 15.1h-22.7v17h22.7v-17zm77.9-14.6c.4.4.5.8.5 1.3v54.4c0 1.5-.3 3-.9 4.4-.6 1.4-1.4 2.6-2.4 3.6s-2.2 1.8-3.6 2.4c-1.4.6-2.8.9-4.4.9h-29.1c-1.5 0-3-.3-4.4-.9-1.4-.6-2.6-1.4-3.6-2.4s-1.8-2.2-2.4-3.6c-.6-1.4-.9-2.8-.9-4.4v-20.7c0-1.2.6-1.8 1.8-1.8h13.3c1.2 0 1.8.6 1.8 1.8v13.8c0 .5.2.9.5 1.3.4.3.8.5 1.3.5h14c.5 0 1-.2 1.3-.5.4-.3.5-.7.5-1.3v-47.6c0-.5.2-1 .5-1.3.3-.4.7-.5 1.3-.5H203c.6.1 1 .3 1.4.6m61-.5c1.5 0 3 .3 4.4.9 1.4.6 2.6 1.4 3.6 2.4s1.8 2.2 2.4 3.6c.6 1.4.9 2.8.9 4.4v45c0 1.5-.3 3-.9 4.4-.6 1.4-1.4 2.6-2.4 3.6s-2.2 1.8-3.6 2.4c-1.4.6-2.8.9-4.4.9h-34.2c-1.5 0-3-.3-4.4-.9-1.4-.6-2.6-1.4-3.6-2.4s-1.8-2.2-2.4-3.6c-.6-1.4-.9-2.8-.9-4.4v-45c0-1.5.3-3 .9-4.4.6-1.4 1.4-2.6 2.4-3.6s2.2-1.8 3.6-2.4c1.4-.6 2.9-.9 4.4-.9h34.2zm-5.8 16.4h-22.7v34.8h22.7v-34.8zm91.1 49.6c.3.5.3.8.1 1.1-.2.3-.5.4-1.1.4h-15.3c-.5 0-1-.1-1.5-.4-.5-.3-.9-.7-1.2-1.1l-10.2-18.3c-.1-.3-.4-.4-.7-.4h-11.5c-.3 0-.5.2-.5.5v18c0 1.2-.6 1.8-1.8 1.8h-13.3c-1.2 0-1.8-.6-1.8-1.8v-63.9c0-1.2.6-1.8 1.8-1.8h43.6c1.5 0 3 .3 4.4.9 1.4.6 2.6 1.4 3.6 2.4s1.8 2.2 2.4 3.6c.6 1.4.9 2.8.9 4.4v25.4c0 2.4-.7 4.7-2.2 6.6-1.4 2-3.3 3.3-5.6 4l-.3.1c-.4.1-.5.3-.3.6l.1.2 10.4 17.7zm-19.2-50.3h-23.3v16.4h23.3v-16.4zm110.3 35.4c.5 0 .9.2 1.3.5.3.4.5.8.5 1.3v12.7c0 .5-.2.9-.5 1.3s-.7.5-1.3.5h-41.7c-1.2 0-1.8-.6-1.8-1.8v-63.9c0-1.2.6-1.8 1.8-1.8h13.3c1.2 0 1.8.6 1.8 1.8v47.6c0 .5.2.9.5 1.3.4.3.8.5 1.3.5h24.8zm62.3-50.6c.3.4.5.8.5 1.3V493c0 .5-.2.9-.5 1.3-.4.3-.8.5-1.3.5h-32.4c-.3 0-.5.2-.5.5v10.5c0 .3.2.4.5.4H498c.5 0 .9.2 1.2.5.3.4.5.8.5 1.3v9.7c0 .5-.2.9-.5 1.3s-.7.5-1.2.5h-27.6c-.3 0-.5.2-.5.5v10.4c0 .3.2.5.5.5h32.4c.5 0 .9.2 1.3.5.3.4.5.8.5 1.3v12.1c0 .5-.2.9-.5 1.3-.4.4-.8.5-1.3.5h-48c-1.2 0-1.8-.6-1.8-1.8v-63.9c0-.5.2-1 .5-1.3.4-.4.8-.5 1.3-.5h47.9c.6-.1 1 .1 1.4.4m61.2-.5c1.5 0 3 .3 4.4.9 1.4.6 2.6 1.4 3.6 2.4s1.8 2.2 2.4 3.6c.6 1.4.9 2.8.9 4.4v54.4c0 .5-.2 1-.5 1.3-.4.4-.8.5-1.3.5h-13.4c-.5 0-1-.2-1.3-.5-.4-.4-.5-.8-.5-1.3v-17.3c0-.5-.2-.9-.5-1.3s-.7-.5-1.3-.5h-19.1c-.5 0-.9.2-1.3.5-.4.4-.5.8-.5 1.3v17.3c0 1.2-.6 1.8-1.8 1.8h-13.3c-1.2 0-1.8-.6-1.8-1.8v-54.4c0-1.5.3-3 .9-4.4.6-1.4 1.4-2.6 2.4-3.6s2.2-1.8 3.6-2.4c1.4-.6 2.9-.9 4.4-.9h34zm-5.8 15.1h-22.7v17h22.7v-17zm88.4 16.1c.4.4.5.8.5 1.3v23.7c0 1.5-.3 3-.9 4.4-.6 1.4-1.4 2.6-2.4 3.6s-2.2 1.8-3.6 2.4c-1.4.6-2.8.9-4.4.9H603c-1.5 0-3-.3-4.4-.9-1.4-.6-2.6-1.4-3.6-2.4s-1.8-2.2-2.4-3.6c-.6-1.4-.9-2.8-.9-4.4v-45c0-1.5.3-3 .9-4.4.6-1.4 1.4-2.6 2.4-3.6s2.2-1.8 3.6-2.4c1.4-.6 2.9-.9 4.4-.9h39.9c.5 0 1 .2 1.3.5.4.4.5.8.5 1.3v12.7c0 .5-.2.9-.5 1.3-.4.4-.8.5-1.3.5h-32.3c-.5 0-.9.2-1.3.5s-.5.7-.5 1.3v31.3c0 .5.2.9.5 1.3.4.3.8.5 1.3.5h19.1c.5 0 .9-.2 1.2-.5.3-.3.5-.7.5-1.3v-16.9c0-.5.2-.9.5-1.3.4-.4.8-.5 1.3-.5h13.4c.5.1 1 .3 1.3.6m71.3-30.7c.3.4.5.8.5 1.3v54.4c0 1.5-.3 3-.9 4.4-.6 1.4-1.4 2.6-2.4 3.6s-2.2 1.8-3.6 2.4c-1.4.6-2.9.9-4.4.9h-34.2c-1.5 0-3-.3-4.4-.9-1.4-.6-2.6-1.4-3.6-2.4s-1.8-2.2-2.4-3.6c-.6-1.4-.9-2.8-.9-4.4v-54.4c0-1.2.6-1.8 1.8-1.8H678c1.2 0 1.8.6 1.8 1.8v47.6c0 .5.2.9.5 1.3.4.3.8.5 1.3.5h19.1c.5 0 .9-.2 1.3-.5.3-.3.5-.7.5-1.3v-47.6c0-.5.2-1 .5-1.3.4-.4.8-.5 1.3-.5h13.4c.7 0 1.1.2 1.5.5m66.9 0c.3.4.5.8.5 1.3V493c0 .5-.2.9-.5 1.3-.4.3-.8.5-1.3.5h-32.4c-.3 0-.5.2-.5.5v10.5c0 .3.2.4.5.4H780c.5 0 .9.2 1.2.5.3.4.5.8.5 1.3v9.7c0 .5-.2.9-.5 1.3s-.7.5-1.2.5h-27.6c-.3 0-.5.2-.5.5v10.4c0 .3.2.5.5.5h32.4c.5 0 .9.2 1.3.5.3.4.5.8.5 1.3v12.1c0 .5-.2.9-.5 1.3-.4.4-.8.5-1.3.5h-48c-1.2 0-1.8-.6-1.8-1.8v-63.9c0-.5.2-1 .5-1.3.4-.4.8-.5 1.3-.5h47.9c.6-.1 1 .1 1.4.4m103.6-.5c.5 0 .9.2 1.3.5.4.4.5.8.5 1.3v63.9c0 .5-.2.9-.5 1.3-.4.4-.8.5-1.3.5h-13.4c-.5 0-.9-.2-1.3-.5-.4-.4-.5-.8-.5-1.3v-22.3c0-.5-.2-.9-.5-1.3-.3-.3-.7-.5-1.3-.5h-19.1c-.5 0-.9.2-1.3.5s-.5.7-.5 1.3v22.3c0 1.2-.6 1.8-1.8 1.8h-13.3c-1.2 0-1.8-.6-1.8-1.8v-63.9c0-1.2.6-1.8 1.8-1.8H850c1.2 0 1.8.6 1.8 1.8v21.6c0 1.2.6 1.8 1.8 1.8h19.1c.5 0 .9-.2 1.3-.5.3-.4.5-.8.5-1.3v-21.6c0-.5.2-.9.5-1.3.4-.4.8-.5 1.3-.5h13.4zm62.5 0c1.5 0 3 .3 4.4.9 1.4.6 2.6 1.4 3.6 2.4s1.8 2.2 2.4 3.6c.6 1.4.9 2.8.9 4.4v54.4c0 .5-.2 1-.5 1.3-.4.4-.8.5-1.3.5h-13.4c-.5 0-.9-.2-1.3-.5-.4-.4-.5-.8-.5-1.3v-17.3c0-.5-.2-.9-.5-1.3s-.7-.5-1.3-.5h-19.1c-.5 0-1 .2-1.3.5-.4.4-.5.8-.5 1.3v17.3c0 1.2-.6 1.8-1.8 1.8h-13.3c-1.2 0-1.8-.6-1.8-1.8v-54.4c0-1.5.3-3 .9-4.4.6-1.4 1.4-2.6 2.4-3.6s2.2-1.8 3.6-2.4c1.4-.6 2.8-.9 4.4-.9h34zm-5.8 15.1h-22.7v17h22.7v-17zm49.6 1.8c-.4.3-.5.7-.5 1.3v31.3c0 .5.2.9.5 1.3.4.3.8.5 1.3.5h31c.5 0 1 .2 1.3.5.4.4.5.8.5 1.3v12.7c0 .5-.2 1-.5 1.3-.4.4-.8.5-1.3.5h-38.5c-1.5 0-3-.3-4.4-.9-1.4-.6-2.6-1.4-3.6-2.4s-1.8-2.2-2.4-3.6c-.6-1.4-.9-2.9-.9-4.4v-45c0-1.5.3-3 .9-4.4.6-1.4 1.4-2.6 2.4-3.6s2.2-1.8 3.6-2.4c1.4-.6 2.8-.9 4.4-.9h38.5c.5 0 1 .2 1.3.5.4.4.5.8.5 1.3v12.7c0 .5-.2.9-.5 1.3-.4.4-.8.5-1.3.5h-31c-.5.1-.9.3-1.3.6m87.9 11.6c-.2.2-.2.4-.1.7l22.6 36.9c.2.5.3.8.1 1.1-.2.3-.5.4-1.1.4h-16c-.5 0-1-.1-1.5-.4-.5-.3-.9-.7-1.2-1.1l-14.6-26.4c-.2-.3-.4-.4-.5-.1l-8 8.8c-.3.3-.6.8-.8 1.4-.2.6-.3 1.2-.3 1.7v14.3c0 1.2-.6 1.8-1.8 1.8h-13.3c-1.2 0-1.8-.6-1.8-1.8v-63.9c0-1.2.6-1.8 1.8-1.8h13.3c1.2 0 1.8.6 1.8 1.8v28.7l24.9-29.2c.3-.4.8-.7 1.4-1 .6-.3 1.1-.4 1.6-.4h16c.5 0 .8.1.9.4.1.3 0 .6-.4 1l-23 27.1zm52 37.2c0 1.2-.6 1.8-1.8 1.8h-13.3c-1.2 0-1.8-.6-1.8-1.8v-63.9c0-1.2.6-1.8 1.8-1.8h13.3c1.2 0 1.8.6 1.8 1.8v63.9zm65.1-64.8c1.4.6 2.6 1.4 3.6 2.4s1.8 2.2 2.4 3.6c.6 1.4.9 2.8.9 4.4v54.4c0 .5-.2.9-.5 1.3-.4.4-.8.5-1.3.5h-13.4c-.5 0-.9-.2-1.3-.5-.3-.4-.5-.8-.5-1.3v-47.6c0-.5-.2-.9-.5-1.3-.4-.3-.8-.5-1.3-.5H1170c-.5 0-1 .2-1.3.5-.4.3-.5.7-.5 1.3v47.6c0 1.2-.6 1.8-1.8 1.8h-13.3c-1.2 0-1.8-.6-1.8-1.8v-63.9c0-1.2.6-1.8 1.8-1.8h43.6c1.4 0 2.9.3 4.3.9m78.1 30.3c.4.4.5.8.5 1.3v23.7c0 1.5-.3 3-.9 4.4-.6 1.4-1.4 2.6-2.4 3.6s-2.2 1.8-3.6 2.4c-1.4.6-2.8.9-4.4.9h-34.2c-1.5 0-3-.3-4.4-.9-1.4-.6-2.6-1.4-3.6-2.4s-1.8-2.2-2.4-3.6c-.6-1.4-.9-2.8-.9-4.4v-45c0-1.5.3-3 .9-4.4.6-1.4 1.4-2.6 2.4-3.6s2.2-1.8 3.6-2.4c1.4-.6 2.9-.9 4.4-.9h39.9c.5 0 .9.2 1.3.5.4.4.5.8.5 1.3v12.7c0 .5-.2.9-.5 1.3-.4.4-.8.5-1.3.5h-32.3c-.5 0-.9.2-1.3.5s-.5.7-.5 1.3v31.3c0 .5.2.9.5 1.3.4.3.8.5 1.3.5h19.1c.5 0 .9-.2 1.2-.5.3-.3.5-.7.5-1.3v-16.9c0-.5.2-.9.5-1.3.4-.4.8-.5 1.3-.5h13.4c.7.1 1.1.3 1.4.6M407.5 13.8c8.7 3.9 16.3 8.9 22.6 15.2 6.3 6.3 11.4 13.8 15.3 22.5 3.9 8.7 5.8 18 5.8 27.7v354.5c0 3.3-1.1 6-3.4 8.2-2.2 2.2-5 3.4-8.2 3.4h-84.8c-3.3 0-5.9-1.1-7.9-3.4-2-2.2-3.1-5-3.1-8.2V111.5h-68.3v322.3c0 3.3-1 6-3 8.2-2 2.2-4.7 3.4-7.9 3.4h-76.9c-3.3 0-6-1.1-8.2-3.4-2.2-2.2-3.4-5-3.4-8.2V111.5h-68.3v322.3c0 7.7-3.9 11.6-11.6 11.6H11.9c-7.7 0-11.6-3.9-11.6-11.6V19.6C.3 11.9 4.2 8 11.9 8h367.9c9.8 0 19 2 27.7 5.8"/><path class="st0" d="M407.5 13.8c8.7 3.9 16.3 8.9 22.6 15.2 6.3 6.3 11.4 13.8 15.3 22.5 3.9 8.7 5.8 18 5.8 27.7v31.6l-107.4.7H107.7L.3 110.8V19.6C.3 11.9 4.2 8 11.9 8h367.9c9.8 0 19 2 27.7 5.8m413.4 325.4c3.4 0 6.2 1.2 8.4 3.4 2.2 2.3 3.2 5.1 3.2 8.4v82.5c0 3.3-1.1 6.2-3.2 8.4-2.2 2.3-5 3.4-8.4 3.4H530.5c-8.2 0-12.3-4-12.3-11.9V19.9c0-7.9 4.1-11.9 12.3-11.9h89.2c8.2 0 12.3 4 12.3 11.9v308c0 3.3 1.2 6 3.6 8.1 2.4 2.1 5.3 3.1 8.7 3.1h176.6z"/><path class="st0" d="M631 445.4H530.4c-8.2 0-12.3-4-12.3-11.9V19.9c0-7.9 4.1-11.9 12.3-11.9h89c8.2 0 12.3 4 12.3 11.9v308c0 3.4-.7 117.5-.7 117.5M1267.3 8c3.5 0 6.4 1.2 8.8 3.4 2.4 2.3 3.6 5.1 3.6 8.5v414.8c0 3.3-1.2 6.2-3.6 8.5-2.4 2.3-5.3 3.4-8.8 3.4H1177c-3.5 0-6.4-1.1-8.8-3.4-2.4-2.3-3.6-5.1-3.6-8.5V290c0-3.3-1.1-6.1-3.3-8.1-2.2-2.1-5-3.1-8.4-3.1h-126.7c-3.5 0-6.4 1-8.8 3.1-2.4 2.1-3.6 4.8-3.6 8.1v144.7c0 7.9-4.1 11.9-12.4 11.9h-89.7c-8.2 0-12.3-4-12.3-11.9V19.9c0-7.9 4.1-11.9 12.3-11.9h89.7c8.2 0 12.4 4 12.4 11.9v140.4c0 7.9 4.1 11.9 12.3 11.9h126.7c3.5 0 6.3-1.1 8.4-3.4 2.2-2.3 3.3-5.1 3.3-8.5V19.9c0-3.3 1.2-6.2 3.6-8.5 2.4-2.3 5.3-3.4 8.8-3.4h90.4z"/><path class="st0" d="M1013.9 290v144.7c0 7.9-4.1 11.9-12.3 11.9h-89.7c-8.2 0-12.3-4-12.3-11.9V19.9c0-7.9 4.1-11.9 12.3-11.9h89.7c8.2 0 12.3 4 12.3 11.9V290zM1267.3 8c3.5 0 6.4 1.2 8.8 3.4 2.4 2.3 3.6 5.1 3.6 8.5v414.8c0 3.3-1.2 6.2-3.6 8.5-2.4 2.3-5.3 3.4-8.8 3.4H1177c-3.5 0-6.4-1.1-8.8-3.4-2.4-2.3-3.6-5.1-3.6-8.5V19.9c0-3.3 1.2-6.2 3.6-8.5 2.4-2.3 5.3-3.4 8.8-3.4h90.3z"/></svg>