<svg id="Layer_1" xmlns="http://www.w3.org/2000/svg" viewBox="0 0 209 128"><style>.st0{fill:#fff}</style><path class="st0" d="M83 103.2c-2.5 0-4.7 1-6.3 2.6s-2.6 3.8-2.6 6.3 1 4.7 2.6 6.3 3.8 2.6 6.3 2.6 4.7-1 6.3-2.6c1.6-1.6 2.6-3.8 2.6-6.3s-1-4.7-2.6-6.3c-1.6-1.6-3.9-2.6-6.3-2.6m0-1c5.5 0 10 4.5 10 10s-4.5 10-10 10-10-4.5-10-10c0-5.6 4.5-10 10-10m-7 2.9"/><path class="st0" d="M78.3 112.1c0-.6-.4-.9-.9-.9h-.3v1.8h.3c.4 0 .9-.3.9-.9m5.9.6l-2.5 1.9-2.3-1.8c-.3.8-1.1 1.3-2 1.3h-1.8v-4.3h1.9c1 0 1.7.6 2 1.3l2.3-1.8.8.7-2.1 1.6.4.3 2.1-1.6.8.7-2.1 1.6.4.3 2.1-1.6v-1.5h1.5v3h1.5v1.3h-3v-1.4zm4.9.3h1.5v1.3h-3V110h1.5v3zm19.3-10.8h.5v20h-.5zm23 9.8h8.7v-7.7l-8.7 1.2zm-.2 0v-6.5l-6.7 1v5.5zm0 .2h-6.7v5.5l6.7.9zm.2 0v6.5l8.7 1.2v-7.7zm27.3-4.2c0 .2-.1.4-.2.5-.1.1-.3.2-.5.2s-.4-.1-.5-.2c-.1-.1-.2-.3-.2-.5s.1-.3.2-.5c.1-.1.3-.2.5-.2s.4.1.5.2c.2.2.2.3.2.5zm-2-.5l-2.6 9.2h-1.3l-2-7.3-2 7.3h-1.2l-2.7-9.2h1.2l2.1 7.7 2.2-7.7h1l2.1 7.7 2-7.7h1.2zm1.9 9.3h-1.1v-6.6h1.1v6.6zm7 0h-1.1V113c0-1.4-.5-2.1-1.5-2.1-.5 0-1 .2-1.3.6-.3.4-.5.9-.5 1.5v3.8h-1.1v-6.6h1.1v1.1c.5-.8 1.2-1.2 2.2-1.2.7 0 1.3.2 1.6.7.4.5.6 1.1.6 2v4zm7.2 0h-1.1v-1.1c-.5.8-1.2 1.3-2.3 1.3-.8 0-1.5-.3-2-.9s-.7-1.4-.7-2.4c0-1.1.3-2 .8-2.6.5-.7 1.3-1 2.2-1s1.5.4 2 1.1V107h1.1v9.8zm-1-3v-1c0-.5-.2-1-.5-1.4s-.8-.5-1.3-.5c-.6 0-1.1.2-1.5.7s-.6 1.1-.6 1.9c0 .8.2 1.4.5 1.8.4.4.8.7 1.4.7.6 0 1.1-.2 1.4-.6.4-.4.6-1 .6-1.6zm8.8-.4c0 1-.3 1.9-.9 2.5-.6.6-1.4 1-2.4 1s-1.7-.3-2.3-.9c-.6-.6-.9-1.4-.9-2.5s.3-1.9.9-2.6c.6-.6 1.4-1 2.5-1 1 0 1.7.3 2.3.9.5.7.8 1.6.8 2.6zm-1.1.1c0-.8-.2-1.5-.5-1.9-.4-.4-.9-.7-1.6-.7-.7 0-1.2.2-1.6.7-.4.4-.6 1.1-.6 1.9 0 .8.2 1.4.6 1.8.4.4.9.7 1.6.7s1.2-.2 1.6-.7c.4-.4.5-1 .5-1.8zm10.6-3.3l-2 6.6H187l-1.5-5.1-1.6 5.1h-1.1l-2-6.6h1.1l1.4 5.3 1.6-5.3h1l1.5 5.3 1.4-5.3h1.3zm4.5 4.8c0 .6-.2 1-.7 1.4-.4.4-1 .5-1.7.5-.6 0-1.2-.1-1.6-.4v-1.1c.5.4 1.1.6 1.7.6.8 0 1.2-.3 1.2-.9 0-.3-.1-.4-.2-.6-.2-.2-.5-.4-1.1-.6-.6-.3-1-.5-1.2-.8s-.4-.7-.4-1.1c0-.5.2-1 .7-1.4.4-.4 1-.5 1.7-.5.5 0 1 .1 1.4.3v1.1c-.4-.3-.9-.5-1.5-.5-.3 0-.6.1-.8.3s-.3.4-.3.7.1.5.2.7c.2.2.5.3 1 .5.6.3 1.1.5 1.3.8.2.2.3.6.3 1zm-175.8-4.2c0 .6-.2 1.1-.6 1.5-.4.4-1 .5-1.8.5h-1v2.7h-.5V109h1.6c1.6-.1 2.3.5 2.3 1.8m-3.4 1.5h.9c.7 0 1.3-.1 1.6-.4.3-.2.5-.6.5-1.2 0-.5-.1-.9-.5-1.1-.3-.2-.8-.4-1.4-.4h-1.1v3.1zm10.4-.2c0 1-.3 1.9-.8 2.5s-1.2.9-2.2.9c-.9 0-1.6-.3-2.1-.9-.5-.6-.8-1.4-.8-2.5 0-1 .3-1.9.8-2.5s1.2-.9 2.2-.9c.9 0 1.6.3 2.1.9.5.7.8 1.5.8 2.5m-5.4 0c0 .9.2 1.7.6 2.2s1 .8 1.8.8 1.4-.3 1.8-.8.6-1.2.6-2.2-.2-1.7-.6-2.2-1-.8-1.8-.8-1.4.3-1.8.8c-.4.6-.6 1.3-.6 2.2m12.1 3.3h-.4l-1.4-5c-.1-.4-.2-.8-.3-1 0 .3-.1.6-.2.9-.1.3-.6 2.1-1.4 5.2h-.4l-1.8-6.5h.5l1.1 4.2c0 .2.1.3.1.5 0 .1.1.3.1.4 0 .1.1.3.1.4s0 .2.1.4c.1-.4.2-1 .5-1.9l1.1-4h.5l1.3 4.6c.1.5.3 1 .3 1.3 0-.2.1-.4.1-.7s.5-2 1.4-5.2h.5l-1.8 6.4zm6.5 0h-3.5v-6.5H39v.4h-3.1v2.5h3v.4h-3v2.8H39zm2-2.8v2.9h-.5V109h1.6c.8 0 1.4.1 1.8.4.4.3.6.8.6 1.4 0 .4-.1.8-.3 1.1s-.6.5-1.1.7l1.8 3h-.5l-1.7-2.9-1.7-.1zm0-.4h1.2c.5 0 1-.1 1.3-.4.3-.3.5-.6.5-1.1s-.1-.9-.4-1.1c-.3-.2-.8-.3-1.5-.3H41v2.9zm8.5 3.2H46v-6.5h3.5v.4h-3.1v2.5h3v.4h-3v2.8h3.1zm6.5-3.3c0 1.1-.3 1.9-.9 2.5-.6.6-1.4.8-2.5.8H51v-6.5h1.8c1 0 1.8.3 2.4.8.5.5.8 1.3.8 2.4m-.5 0c0-.9-.2-1.6-.7-2.1s-1.2-.7-2.1-.7h-1.2v5.7h1.1c1.9 0 2.9-1 2.9-2.9m4.4-3.2h1.8c.8 0 1.4.1 1.8.4s.6.7.6 1.2c0 .4-.1.7-.3 1s-.6.4-1 .5c.5.1.9.2 1.2.5s.4.6.4 1.1c0 .6-.2 1.1-.6 1.4-.4.3-1 .5-1.7.5h-2l-.2-6.6zm.4 2.9h1.4c.6 0 1.1-.1 1.3-.3.3-.2.4-.5.4-1 0-.4-.2-.8-.5-1s-.8-.3-1.4-.3h-1.3l.1 2.6zm0 .4v2.8h1.5c1.2 0 1.8-.5 1.8-1.5 0-.9-.6-1.4-1.9-1.4l-1.4.1zm6.8.2l2-3.5h.5l-2.2 4v2.5h-.5v-2.5l-2.2-4h.5zM19.2 75.9c.2.1.4.2.5.4.1.2.3.3.4.5.1.2.1.4.1.7v8.1c0 .1 0 .1-.1.2s-.1.1-.2.1h-2c-.1 0-.1 0-.2-.1 0-.1-.1-.1-.1-.2v-7.3H16v7.3c0 .1 0 .1-.1.2 0 .1-.1.1-.2.1H14c-.1 0-.1 0-.2-.1s-.1-.1-.1-.2v-7.3h-1.6v7.3c0 .2-.1.3-.3.3h-2c-.2 0-.3-.1-.3-.3V76c0-.2.1-.3.3-.3h8.6c.3 0 .6.1.8.2m10-.2c.2 0 .4 0 .7.1.3.1.4.2.5.4.1.1.3.3.4.5s.1.4.1.7v8.1c0 .1 0 .1-.1.2s-.1.1-.2.1h-2c-.1 0-.1 0-.2-.1s-.1-.1-.1-.2v-2.6c0-.1 0-.1-.1-.2 0-.1-.1-.1-.2-.1h-2.8c-.1 0-.1 0-.2.1s-.1.1-.1.2v2.6c0 .2-.1.3-.3.3h-2c-.2 0-.3-.1-.3-.3v-8.1c0-.2 0-.4.1-.7.1-.2.2-.4.4-.5.1-.1.3-.3.5-.4.2-.1.4-.1.7-.1h5.2zm-.9 2.3h-3.4v2.5h3.4V78zm11.6-2.2c.1.1.1.1.1.2v8.1c0 .2 0 .4-.1.7-.1.2-.2.4-.4.5-.1.1-.3.3-.5.4-.2.1-.4.1-.7.1H34c-.2 0-.4 0-.7-.1-.3-.1-.4-.2-.5-.4-.1-.2-.3-.3-.4-.5-.1-.2-.1-.4-.1-.7V81c0-.2.1-.3.3-.3h2c.2 0 .3.1.3.3v2c0 .1 0 .1.1.2.1 0 .1.1.2.1h2.1c.1 0 .1 0 .2-.1.1 0 .1-.1.1-.2v-7c0-.1 0-.1.1-.2 0-.1.1-.1.2-.1l2 .1c-.1-.1 0 0 0 0m9.1-.1c.2 0 .4 0 .7.1.2.1.4.2.5.4.1.1.3.3.4.5s.1.4.1.7v6.7c0 .2 0 .4-.1.7-.1.3-.2.4-.4.5-.1.1-.3.3-.5.4-.2.1-.4.1-.7.1h-5.1c-.2 0-.4 0-.7-.1-.2-.1-.4-.2-.5-.4-.1-.1-.3-.3-.4-.5-.1-.2-.1-.4-.1-.7v-6.7c0-.2 0-.4.1-.7.1-.3.2-.4.4-.5.1-.1.3-.3.5-.4.2-.1.4-.1.7-.1H49zm-.9 2.5h-3.4v5.2h3.4v-5.2zm13.5 7.3v.2s-.1.1-.2.1h-2.3c-.1 0-.1 0-.2-.1-.1 0-.1-.1-.2-.2l-1.5-2.7-.1-.1h-1.7s-.1 0-.1.1v2.7c0 .2-.1.3-.3.3h-2c-.2 0-.3-.1-.3-.3V76c0-.2.1-.3.3-.3h6.6c.2 0 .4 0 .7.1.3.1.4.2.5.4.1.2.3.3.4.5.1.2.1.4.1.7v3.8c0 .4-.1.7-.3 1s-.5.5-.8.6c-.1 0-.1 0 0 .1l1.4 2.6zm-2.8-7.4h-3.5v2.4h3.5v-2.4zm16.4 5.2c.1 0 .1 0 .2.1 0 .1.1.1.1.2v1.9c0 .1 0 .1-.1.2s-.1.1-.2.1H69c-.2 0-.3-.1-.3-.3V76c0-.2.1-.3.3-.3h2c.2 0 .3.1.3.3v7.1c0 .1 0 .1.1.2.1 0 .1.1.2.1l3.6-.1zm9.2-7.5c0 .1.1.1.1.2v1.8c0 .1 0 .1-.1.2-.1 0-.1.1-.2.1h-4.8s-.1 0-.1.1v1.6s0 .1.1.1h4.1c.1 0 .1 0 .2.1 0 .1.1.1.1.2v1.4c0 .1 0 .1-.1.2 0 .1-.1.1-.2.1h-4.1s-.1 0-.1.1v1.5s0 .1.1.1h4.8c.1 0 .1 0 .2.1 0 .1.1.1.1.2v1.8c0 .1 0 .1-.1.2s-.1.1-.2.1H77c-.2 0-.3-.1-.3-.3V76c0-.1 0-.1.1-.2s.1-.1.2-.1h7.1c.2 0 .3.1.3.1m9.1-.1c.2 0 .4 0 .7.1.3.1.4.2.5.4.1.2.3.3.4.5s.1.4.1.7v8.1c0 .1 0 .1-.1.2s-.1.1-.2.1h-2c-.1 0-.1 0-.2-.1s-.1-.1-.1-.2v-2.6c0-.1 0-.1-.1-.2 0-.1-.1-.1-.2-.1h-2.7c-.1 0-.1 0-.2.1s-.1.1-.1.2v2.6c0 .2-.1.3-.3.3h-2c-.2 0-.3-.1-.3-.3v-8.1c0-.2 0-.4.1-.7.1-.2.2-.4.4-.5.1-.1.3-.3.5-.4.2-.1.4-.1.7-.1h5.1zm-.9 2.3h-3.4v2.5h3.4V78zm13.2 2.4c.1.1.1.1.1.2v3.5c0 .2 0 .4-.1.7-.1.2-.2.4-.4.5-.2.1-.3.3-.5.4-.2.1-.4.1-.7.1h-5.1c-.2 0-.4 0-.7-.1-.2-.1-.4-.2-.5-.4-.1-.1-.3-.3-.4-.5s-.1-.4-.1-.7v-6.7c0-.2 0-.4.1-.7.1-.2.2-.4.4-.5.1-.1.3-.3.5-.4.2-.1.4-.1.7-.1h5.9c.1 0 .1 0 .2.1s.1.1.1.2v1.9c0 .1 0 .1-.1.2s-.1.1-.2.1h-4.8c-.1 0-.1 0-.2.1-.1 0-.1.1-.1.2v4.6c0 .1 0 .1.1.2.1 0 .1.1.2.1h2.8c.1 0 .1 0 .2-.1 0 0 .1-.1.1-.2v-2.5c0-.1 0-.1.1-.2s.1-.1.2-.1h2c.1 0 .1 0 .2.1m10.6-4.6c0 .1.1.1.1.2v8.1c0 .2 0 .4-.1.7-.1.3-.2.4-.4.5-.2.1-.3.3-.5.4-.2.1-.4.1-.7.1h-5.1c-.2 0-.4 0-.7-.1-.2-.1-.4-.2-.5-.4-.1-.2-.3-.3-.4-.5s-.1-.4-.1-.7V76c0-.2.1-.3.3-.3h2c.2 0 .3.1.3.3v7.1c0 .1 0 .1.1.2.1 0 .1.1.2.1h2.8c.1 0 .1 0 .2-.1 0 0 .1-.1.1-.2V76c0-.1 0-.1.1-.2s.1-.1.2-.1l2.1.1c-.2-.1-.1 0 0 0m9.9 0c0 .1.1.1.1.2v1.8c0 .1 0 .1-.1.2-.1 0-.1.1-.2.1h-4.8s-.1 0-.1.1v1.6s0 .1.1.1h4.1c.1 0 .1 0 .2.1 0 .1.1.1.1.2v1.4c0 .1 0 .1-.1.2 0 .1-.1.1-.2.1h-4.1s-.1 0-.1.1v1.5s0 .1.1.1h4.8c.1 0 .1 0 .2.1 0 .1.1.1.1.2v1.8c0 .1 0 .1-.1.2s-.1.1-.2.1h-7.2c-.2 0-.3-.1-.3-.3V76c0-.1 0-.1.1-.2s.1-.1.2-.1h7.1c.2 0 .2.1.3.1m15.4-.1c.1 0 .1 0 .2.1s.1.1.1.2v9.5c0 .1 0 .1-.1.2s-.1.1-.2.1h-2c-.1 0-.1 0-.2-.1s-.1-.1-.1-.2v-3.3c0-.1 0-.1-.1-.2 0 0-.1-.1-.2-.1h-2.8c-.1 0-.1 0-.2.1s-.1.1-.1.2v3.3c0 .2-.1.3-.3.3h-2c-.2 0-.3-.1-.3-.3V76c0-.2.1-.3.3-.3h2c.2 0 .3.1.3.3v3.2c0 .2.1.3.3.3h2.8c.1 0 .1 0 .2-.1 0-.1.1-.1.1-.2V76c0-.1 0-.1.1-.2s.1-.1.2-.1h2zm9.3 0c.2 0 .4 0 .7.1.2.1.4.2.5.4.1.1.3.3.4.5.1.2.1.4.1.7v8.1c0 .1 0 .1-.1.2s-.1.1-.2.1h-2c-.1 0-.1 0-.2-.1s-.1-.1-.1-.2v-2.6c0-.1 0-.1-.1-.2 0-.1-.1-.1-.2-.1H147c-.1 0-.1 0-.2.1s-.1.1-.1.2v2.6c0 .2-.1.3-.3.3h-2c-.2 0-.3-.1-.3-.3v-8.1c0-.2 0-.4.1-.7.1-.2.2-.4.4-.5.2-.1.3-.3.5-.4.2-.1.4-.1.7-.1h5.2zm-.9 2.3h-3.4v2.5h3.4V78zm7.4.2c-.1 0-.1.1-.1.2V83c0 .1 0 .1.1.2.1 0 .1.1.2.1h4.6c.1 0 .1 0 .2.1s.1.1.1.2v1.9c0 .1 0 .1-.1.2s-.1.1-.2.1h-5.8c-.2 0-.4 0-.7-.1-.2-.1-.4-.2-.5-.4-.1-.2-.3-.3-.4-.5-.1-.2-.1-.4-.1-.7v-6.7c0-.2 0-.4.1-.7.1-.2.2-.4.4-.5.2-.1.3-.3.5-.4.2-.1.4-.1.7-.1h5.8c.1 0 .1 0 .2.1s.1.1.1.2v1.9c0 .1 0 .1-.1.2s-.1.1-.2.1h-4.8m13 1.8v.1l3.4 5.5v.2s-.1.1-.2.1h-2.4c-.1 0-.1 0-.2-.1-.1 0-.1-.1-.2-.2l-2.2-3.9s-.1-.1-.1 0l-1.2 1.3s-.1.1-.1.2v2.4c0 .2-.1.3-.3.3h-2c-.2 0-.3-.1-.3-.3V76c0-.2.1-.3.3-.3h2c.2 0 .3.1.3.3v4.3L171 76c0-.1.1-.1.2-.1s.2-.1.2-.1h2.4c.1 0 .1 0 .1.1s0 .1-.1.1l-3.3 4zm7.7 5.5c0 .2-.1.3-.3.3h-2c-.2 0-.3-.1-.3-.3V76c0-.2.1-.3.3-.3h2c.2 0 .3.1.3.3v9.5zm9.7-9.6c.2.1.4.2.5.4.1.2.3.3.4.5.1.2.1.4.1.7v8.1c0 .1 0 .1-.1.2s-.1.1-.2.1h-2c-.1 0-.1 0-.2-.1 0-.1-.1-.1-.1-.2v-7.1c0-.1 0-.1-.1-.2-.1 0-.1-.1-.2-.1h-2.8c-.1 0-.1 0-.2.1-.1 0-.1.1-.1.2v7.1c0 .2-.1.3-.3.3h-2c-.2 0-.3-.1-.3-.3V76c0-.2.1-.3.3-.3h6.5c.4 0 .6.1.8.2m11.6 4.5c.1.1.1.1.1.2v3.5c0 .2 0 .4-.1.7-.1.2-.2.4-.4.5-.1.1-.3.3-.5.4-.2.1-.4.1-.7.1h-5.1c-.2 0-.4 0-.7-.1-.3-.1-.4-.2-.5-.4-.1-.1-.3-.3-.4-.5-.1-.2-.1-.4-.1-.7v-6.7c0-.2 0-.4.1-.7.1-.2.2-.4.4-.5.1-.1.3-.3.5-.4.2-.1.4-.1.7-.1h5.9c.1 0 .1 0 .2.1s.1.1.1.2v1.9c0 .1 0 .1-.1.2s-.1.1-.2.1h-4.8c-.1 0-.1 0-.2.1-.1 0-.1.1-.1.2v4.6c0 .1 0 .1.1.2.1 0 .1.1.2.1h2.8c.1 0 .1 0 .2-.1 0 0 .1-.1.1-.2v-2.5c0-.1 0-.1.1-.2s.1-.1.2-.1h2c.1 0 .2 0 .2.1M70.1 6.6c1.3.6 2.4 1.3 3.4 2.3.9.9 1.7 2 2.3 3.3s.9 2.7.9 4.1V69c0 .5-.2.9-.5 1.2-.3.3-.7.5-1.2.5H62.2c-.5 0-.9-.2-1.2-.5s-.5-.7-.5-1.2V21.2h-10V69c0 .5-.1.9-.4 1.2-.3.3-.7.5-1.2.5H37.4c-.5 0-.9-.2-1.2-.5-.3-.3-.5-.7-.5-1.2V21.2H25.6V69c0 1.1-.6 1.7-1.7 1.7H11.3c-1.1 0-1.7-.6-1.7-1.7V7.5c0-1.1.6-1.7 1.7-1.7h54.6c1.5 0 2.9.3 4.2.8"/><path class="st0" d="M70.1 6.6c1.3.6 2.4 1.3 3.4 2.3.9.9 1.7 2 2.3 3.3s.9 2.7.9 4.1V21l-16.1.2H25.5l-15.9-.1V7.5c0-1.1.6-1.7 1.7-1.7h54.6c1.5 0 2.9.3 4.2.8M131.5 55c.5 0 .9.2 1.2.5s.5.8.5 1.2V69c0 .5-.2.9-.5 1.2-.3.3-.7.5-1.2.5H88.3c-1.2 0-1.8-.6-1.8-1.8V7.6c0-1.2.6-1.8 1.8-1.8h13.3c1.2 0 1.8.6 1.8 1.8v45.7c0 .5.2.9.5 1.2.4.3.8.5 1.3.5h26.3z"/><path class="st0" d="M103.3 70.7h-15c-1.2 0-1.8-.6-1.8-1.8V7.6c0-1.2.6-1.8 1.8-1.8h13.2c1.2 0 1.8.6 1.8 1.8v45.7c.1.5 0 17.4 0 17.4m94.5-64.9c.5 0 1 .2 1.3.5.4.3.5.8.5 1.3v61.6c0 .5-.2.9-.5 1.3-.4.3-.8.5-1.3.5h-13.4c-.5 0-1-.2-1.3-.5-.4-.3-.5-.8-.5-1.3V47.7c0-.5-.2-.9-.5-1.2-.3-.3-.7-.5-1.2-.5h-18.8c-.5 0-1 .1-1.3.5s-.5.7-.5 1.2v21.5c0 1.2-.6 1.8-1.8 1.8h-13.3c-1.2 0-1.8-.6-1.8-1.8V7.6c0-1.2.6-1.8 1.8-1.8h13.3c1.2 0 1.8.6 1.8 1.8v20.9c0 1.2.6 1.8 1.8 1.8h18.8c.5 0 .9-.2 1.2-.5s.5-.8.5-1.3V7.6c0-.5.2-.9.5-1.3.4-.3.8-.5 1.3-.5h13.4z"/><path class="st0" d="M160.1 47.7v21.5c0 1.2-.6 1.8-1.8 1.8H145c-1.2 0-1.8-.6-1.8-1.8V7.6c0-1.2.6-1.8 1.8-1.8h13.3c1.2 0 1.8.6 1.8 1.8v40.1zm37.7-41.9c.5 0 1 .2 1.3.5.4.3.5.8.5 1.3v61.6c0 .5-.2.9-.5 1.3-.4.3-.8.5-1.3.5h-13.4c-.5 0-1-.2-1.3-.5-.4-.3-.5-.8-.5-1.3V7.6c0-.5.2-.9.5-1.3.4-.3.8-.5 1.3-.5h13.4z"/></svg>