<svg id="Layer_1" xmlns="http://www.w3.org/2000/svg" viewBox="0 0 389.6 85.2"><style>.st0{fill:#fff}</style><path class="st0" d="M38.1 0c-1 0-1.6.2-4.2 2.2l-3.9 3-9.2 7c-2.1 1.6-2.5 4.5-.9 6.6 1.6 2.1 4.5 2.5 6.6.9l2.6-2c1.5-1.1 3.6-.8 4.8.7 1.1 1.5.9 3.7-.7 4.8l-1.5 1.1-4.4 3.4-9.2 7c-2.1 1.6-2.5 4.5-.9 6.6 1.6 2.1 4.5 2.5 6.6.9l5-3.8c1.5-1.1 3.7-.9 4.8.7 1.1 1.5.9 3.6-.6 4.8l-3.3 2.4-4.4 3.4-9.2 7c-2.1 1.6-2.5 4.5-.9 6.6 1.6 2.1 4.5 2.5 6.6.9l6.7-5.1c1.5-1.1 3.7-.9 4.8.7.5.6.7 1.3.7 2v17.8C17.9 77.5 5.4 63.7 5.4 47.1c0-9.3 4-18.3 11-24.5l.3-.2-.3-.4-.3-.3c-.8-1.1-1.4-2.3-1.7-3.6l-.1-.6-.6.2C5 25 0 35.7 0 47c0 21.1 17.1 38.2 38.2 38.2h.2c21.1 0 38.2-17.1 38.2-38.2-.3-11.3-5.3-22-14-29.3l-.5-.4-.1.6c-.3 1.3-.9 2.6-1.7 3.7l-.3.3-.3.4.3.2c7 6.2 11 15.1 11 24.5 0 8.8-3.4 17-9.6 23.2-5.2 5.2-11.8 8.4-19 9.3V61.8c0-.7.2-1.4.7-2 1.1-1.5 3.3-1.8 4.8-.7l6.7 5.1c2.1 1.6 5 1.2 6.6-.9 1.6-2.1 1.2-5-.9-6.6l-9.2-7-4.4-3.4-3.2-2.4c-1.5-1.1-1.8-3.3-.6-4.8 1.1-1.5 3.3-1.8 4.8-.7l5 3.8c2.1 1.6 5 1.2 6.6-.9 1.6-2.1 1.2-5-.9-6.6l-9.2-7-4.4-3.4-1.5-1.1c-1.5-1.1-1.8-3.3-.7-4.8s3.3-1.8 4.8-.7l2.6 2c2.1 1.6 5 1.2 6.6-.9 1.6-2.1 1.2-5-.9-6.6l-9.2-7-3.9-3C39.9.2 39.4 0 38.4 0h-.3z"/><path class="st0" d="M106.8 46.7c-4.3-.9-8.2-1.2-8.2-4.6 0-2 1.7-3.7 5.3-3.7 2.4 0 4.1.4 6.6 1.2 1.6.6 3.3-.4 3.9-1.9.5-1.6-.2-3.3-2-4-2.4-.9-4.9-1.4-8.8-1.4-6.5 0-11.8 3.5-11.8 10.2 0 6.4 4 8.2 8.1 9.2 4.5 1.1 9.2 1.1 9.2 4.9 0 2.5-2 4.1-6.1 4.1-3.5 0-5.2-.5-7.2-1.2-1.6-.6-3.4.1-4 1.9-.5 1.5.1 3.4 1.8 4 2.4.9 4.9 1.4 9.4 1.4 7.1 0 13.1-3.2 13.1-10.5-.1-7-4.7-8.6-9.3-9.6m42.1 17.1c0-1.1-.5-1.8-1.2-2.3-1.2-.8-1.8-1.4-1.8-3.9V46c0-9.3-3.2-13.6-12.7-13.6-2.3 0-5.5.3-8 1.3-2 .9-3.5 2-3.5 3.6s1.2 2.8 2.8 2.8c1.1 0 1.8-.5 3.3-1.1 1.2-.5 2.7-.9 4.9-.9 4.7 0 5.9 2.4 5.9 7v1.4h-6.7c-8.4 0-12.5 3.9-12.5 9.7v.5c0 5.8 3.7 10 11.7 10 2.9 0 6.6-.6 9.1-3.1.5.9 1.1 1.6 1.8 2.1 1.1.7 2.1 1 3.3 1 2 .1 3.6-.8 3.6-2.9m-10.3-8.4c0 4.1-2.4 6.1-6.2 6.1-4.3 0-5.8-1.9-5.8-4.5v-.5c0-2.4 1.4-4.5 6.1-4.5h5.9v3.4zM178 66.8c2 0 3.6-.9 3.6-3 0-1.1-.5-1.8-1.2-2.3-1.2-.8-1.8-1.4-1.8-3.9V46c0-9.3-3.2-13.6-12.7-13.6-2.3 0-5.5.3-8 1.3-2 .9-3.5 2-3.5 3.6s1.2 2.8 2.8 2.8c1.1 0 1.8-.5 3.3-1.1 1.2-.5 2.7-.9 4.9-.9 4.7 0 5.9 2.4 5.9 7v1.4h-6.6c-8.4 0-12.5 3.9-12.5 9.7v.5c0 5.8 3.7 10 11.7 10 2.9 0 6.6-.6 9.1-3.1.5.9 1.1 1.6 1.8 2.1 1 .8 2.1 1.1 3.2 1.1m-6.6-11.4c0 4.1-2.4 6.1-6.2 6.1-4.3 0-5.8-1.9-5.8-4.5v-.5c0-2.4 1.4-4.5 6.1-4.5h5.9v3.4zm28.8-8.7c-4.3-.9-8.2-1.2-8.2-4.6 0-2 1.7-3.7 5.3-3.7 2.4 0 4.1.4 6.6 1.2 1.6.6 3.4-.4 3.9-1.9.5-1.6-.2-3.3-2-4-2.4-.9-4.9-1.4-8.8-1.4-6.5 0-11.8 3.5-11.8 10.2 0 6.4 4 8.2 8.1 9.2 4.5 1.1 9.2 1.1 9.2 4.9 0 2.5-2 4.1-6.1 4.1-3.5 0-5.2-.5-7.2-1.2-1.6-.6-3.4.1-4 1.9-.5 1.5.1 3.4 1.8 4 2.4.9 4.9 1.4 9.4 1.4 7.1 0 13.1-3.2 13.1-10.5-.1-7-4.7-8.6-9.3-9.6m27.5-15.1c-9.6 0-13.7 6.2-13.7 13.8v7.7c0 7.5 4.1 13.7 13.7 13.7 1.5 0 2.9-.2 4.2-.5l2.5 5.3c.6 1.3 1.8 2 3.1 2 .5 0 1-.1 1.4-.3 1.7-.8 2.5-2.8 1.7-4.6l-2.7-5.8c2.4-2.5 3.5-6 3.5-9.9v-7.7c0-7.4-4.1-13.7-13.7-13.7M221.4 53v-7.6c0-4.5 1.9-7.2 6.4-7.2 4.4 0 6.4 2.7 6.4 7.2V53c0 4.5-2 7.2-6.4 7.2-4.5 0-6.4-2.7-6.4-7.2m54 8.5c-1.2-.8-2-1.4-2-3.9V36.1c0-2-1.6-3.7-3.6-3.7s-3.7 1.6-3.7 3.7v20.2c-1.3 2.2-3.5 3.6-6.7 3.6-4.4 0-5.4-2.4-5.4-6V36.1c0-2-1.7-3.7-3.7-3.7s-3.7 1.6-3.7 3.7v18.6c0 7.1 2.9 12.2 10.9 12.2 4.4 0 7.6-1.3 9.9-3.6.4.9.9 1.6 1.6 2.2 1.1 1 2.6 1.4 3.8 1.4 2.1 0 3.7-.9 3.7-3 .1-1.2-.4-2-1.1-2.4m34.1 2.3c0-1.1-.5-1.8-1.2-2.3-1.2-.8-1.8-1.4-1.8-3.9V46c0-9.3-3.2-13.6-12.7-13.6-2.3 0-5.5.3-8 1.3-2 .9-3.5 2-3.5 3.6s1.2 2.8 2.8 2.8c1.1 0 1.8-.5 3.3-1.1 1.2-.5 2.7-.9 4.9-.9 4.7 0 5.9 2.4 5.9 7v1.4h-6.7c-8.4 0-12.5 3.9-12.5 9.7v.5c0 5.8 3.7 10 11.7 10 2.9 0 6.6-.6 9.1-3.1.5.9 1.1 1.6 1.8 2.1 1.1.7 2.1 1 3.3 1 2 .1 3.6-.8 3.6-2.9m-10.3-8.4c0 4.1-2.4 6.1-6.2 6.1-4.3 0-5.8-1.9-5.8-4.5v-.5c0-2.4 1.4-4.5 6.1-4.5h5.9v3.4zm16.1-16.5v12.8c0 8.8 2.9 14.7 12.2 14.7h2.2c1.8 0 3.3-1.4 3.3-3.3 0-1.8-1.5-3.2-3.3-3.2h-1.2c-4.7 0-5.8-2.4-5.8-8.3V38.9h5.5c1.7 0 3.1-1.4 3.1-3.1 0-1.7-1.4-3-3.1-3h-5.5v-5.7c0-2-1.6-3.7-3.7-3.7-2 0-3.7 1.6-3.7 3.7v5.7h-1.4c-1.6 0-3 1.3-3 3s1.4 3.1 3 3.1h1.4zm42.2 22.2c-.6-1.6-2.3-2.3-3.8-1.6-2 1-3.8 1.2-5.6 1.2-4.3 0-6.5-3.2-6.5-8.3v-5.7c0-5.1 2.5-8.3 6.7-8.3 2.2 0 3.8.4 5.4 1.1 1.4.7 3.2.1 3.7-1.4.7-1.8.1-3.1-1.3-3.9-2.5-1.4-5.7-1.9-8.4-1.9-8.9 0-13.4 6.8-13.4 15.1v4.5c0 8.5 3.9 14.8 13.3 14.8 2.8 0 5.7-.5 8.4-1.9 1.4-.6 2.1-1.9 1.5-3.7m32.1 2.1V44.5c0-7.1-2.6-12.2-11-12.2-3.6 0-6.4.9-8.5 2.6V23.2c0-2-1.6-3.6-3.7-3.6-2 0-3.7 1.6-3.7 3.6v40c0 2 1.7 3.6 3.7 3.6s3.7-1.6 3.7-3.6V42.7c1.3-2.1 3.7-3.4 6.7-3.4 4.5 0 5.4 2.6 5.4 6v17.9c0 2 1.6 3.6 3.7 3.6s3.7-1.6 3.7-3.6M190.3 22.8V11.6c0-.3.1-.6.3-.8s.5-.3.8-.3.6.1.8.3.3.5.3.8v10.2h6.1c.3 0 .5.1.8.3.2.2.3.5.3.8s-.1.5-.3.8c-.2.2-.5.3-.8.3h-7.2c-.3 0-.6-.1-.8-.3-.2-.3-.3-.6-.3-.9m-97.2.1V11.8c0-.3.1-.6.3-.8.2-.2.5-.3.8-.3H99c1.7 0 2.9.4 3.9 1.3.7.8 1.1 1.7 1.1 2.9 0 1-.3 1.9-.8 2.6s-1.3 1.2-2.2 1.4l2.6 3.2c.3.3.4.6.4.9s-.1.6-.3.8-.5.3-.8.3c-.5 0-.8-.2-1.1-.6l-3.3-4.1h-3V23c0 .3-.1.6-.3.8-.2.2-.5.3-.8.3s-.6-.1-.8-.3c-.4-.3-.5-.6-.5-.9zm2.4-5.7h3.4c.8 0 1.5-.2 2-.6s.7-.9.7-1.6c0-.7-.2-1.3-.7-1.6-.5-.4-1.2-.6-2-.6h-3.4v4.4zm13 6.8c-.3 0-.6-.1-.8-.3-.2-.2-.3-.5-.3-.8v-11c0-.3.1-.6.3-.8.2-.2.5-.3.8-.3h7.8c.3 0 .5.1.7.3s.3.5.3.7c0 .3-.1.5-.3.7s-.5.3-.7.3h-6.6v3.3h5.8c.3 0 .5.1.7.3.2.2.3.5.3.8s-.1.5-.3.7-.5.3-.7.3h-5.8v3.6h6.7c.3 0 .5.1.7.3s.3.5.3.7c0 .3-.1.5-.3.7s-.5.3-.7.3h-7.9m12-.9V11.8c0-.3.1-.6.3-.8.2-.2.5-.3.8-.3h7.8c.3 0 .5.1.8.3.2.2.3.5.3.8s-.1.5-.3.8c-.2.2-.5.3-.8.3h-6.6v3.7h5.8c.3 0 .5.1.8.3.2.2.3.5.3.8s-.1.5-.3.8c-.2.2-.5.3-.8.3h-5.8v4.4c0 .3-.1.6-.3.8s-.5.3-.8.3-.6-.1-.8-.3c-.3-.5-.4-.8-.4-1.1m14.1 1.1c-.3 0-.6-.1-.8-.3s-.3-.5-.3-.8v-11c0-.3.1-.6.3-.8s.5-.3.8-.3h7.8c.3 0 .5.1.7.3s.3.5.3.7c0 .3-.1.5-.3.7s-.5.3-.7.3h-6.6v3.3h5.8c.3 0 .5.1.7.3.2.2.3.5.3.8s-.1.5-.3.7-.5.3-.7.3h-5.8v3.6h6.7c.3 0 .5.1.7.3s.3.5.3.7c0 .3-.1.5-.3.7s-.5.3-.7.3h-7.9m12.1-.9V11.8c0-.3.1-.6.3-.8s.5-.3.8-.3h4.8c1.7 0 2.9.4 3.9 1.3.7.8 1.1 1.7 1.1 2.9 0 1-.3 1.9-.8 2.6s-1.3 1.2-2.2 1.4l2.6 3.2c.3.3.4.6.4.9s-.1.6-.3.8-.5.3-.8.3c-.5 0-.8-.2-1.1-.6l-3.3-4.1h-3V23c0 .3-.1.6-.3.8s-.5.3-.8.3-.6-.1-.8-.3c-.4-.3-.5-.6-.5-.9zm2.3-5.7h3.4c.8 0 1.5-.2 2-.6s.7-.9.7-1.6c0-.7-.2-1.3-.7-1.6-.5-.4-1.2-.6-2-.6H149v4.4zm11.9 5.7V11.8c0-.3.1-.6.3-.8s.5-.3.8-.3h4.8c1.7 0 2.9.4 3.9 1.3.7.8 1.1 1.7 1.1 2.9 0 1-.3 1.9-.8 2.6s-1.3 1.2-2.2 1.4l2.6 3.2c.3.3.4.6.4.9s-.1.6-.3.8-.5.3-.8.3c-.5 0-.8-.2-1.1-.6l-3.3-4.1h-3V23c0 .3-.1.6-.3.8s-.5.3-.8.3-.6-.1-.8-.3c-.4-.3-.5-.6-.5-.9zm2.3-5.7h3.4c.8 0 1.5-.2 2-.6s.7-.9.7-1.6c0-.7-.2-1.3-.7-1.6-.5-.4-1.2-.6-2-.6h-3.4v4.4zm11 5.8c0-.2.1-.3.2-.5l5-11.1c.3-.6.8-1 1.4-1h.1c.6 0 1.1.3 1.4 1l5 11.1c.1.2.1.3.1.5 0 .3-.1.6-.3.8s-.5.3-.8.3c-.5 0-.9-.3-1.1-.8l-1.1-2.5h-6.5l-1.1 2.6c-.2.5-.6.7-1.1.7-.3 0-.6-.1-.8-.3-.3-.3-.4-.5-.4-.8zm4.2-4.4h4.7l-2.4-5.4-2.3 5.4z" id="Layer_4"/></svg>