<svg xmlns="http://www.w3.org/2000/svg" viewBox="0 0 320 51.1"><style>.st0{fill:#fff}</style><path class="st0" d="M1.6 42.8c1.9 1.1 5.4 2.3 8.4 2.3 3.6 0 5.2-1.5 5.2-3.6 0-2.2-1.3-3.3-5.4-4.8-6.4-2.2-9-5.7-9-9.5C.9 21.5 5.6 17 13.2 17c3.6 0 6.8.9 8.6 1.9l-1.6 5.8c-1.4-.8-4-1.9-6.9-1.9-2.9 0-4.6 1.4-4.6 3.4 0 2.1 1.5 3.1 5.7 4.6 5.9 2.1 8.6 5.2 8.7 10 0 5.9-4.6 10.2-13.3 10.2-4 0-7.5-.9-9.9-2.3l1.7-5.9zm33.2-6.4c.2 5.9 4.8 8.4 10 8.4 3.8 0 6.6-.5 9-1.5L55 49c-2.8 1.1-6.7 2-11.4 2-10.6 0-16.8-6.5-16.8-16.5 0-9 5.5-17.5 15.9-17.5 10.6 0 14.1 8.7 14.1 15.9 0 1.5-.1 2.7-.3 3.5H34.8zm14.4-5.8c.1-3-1.3-8-6.8-8-5.1 0-7.2 4.6-7.6 8h14.4zm13.4-3.2c0-3.8-.1-6.9-.3-9.7h7.2l.4 4.9h.2c1.4-2.5 5-5.6 10.4-5.6 5.7 0 11.6 3.7 11.6 14v19.3h-8.2V31.9c0-4.7-1.7-8.2-6.2-8.2-3.3 0-5.6 2.3-6.4 4.8-.3.8-.3 1.8-.3 2.7v19.1h-8.3V27.4zM130 2.8v38.4c0 3.3.1 7 .3 9.2h-7.4l-.3-5.2h-.1c-1.9 3.6-5.9 5.9-10.6 5.9-7.8 0-13.9-6.6-13.9-16.7-.2-10.9 6.6-17.4 14.4-17.4 4.5 0 7.7 1.9 9.2 4.3h.1V2.8h8.3zm-8.3 28.5c0-.7-.1-1.5-.2-2.1-.7-3.2-3.3-5.8-7.1-5.8-5.3 0-8.2 4.7-8.2 10.8 0 6 2.9 10.3 8.2 10.3 3.3 0 6.3-2.3 7.1-5.8.2-.7.3-1.5.3-2.4v-5zm21-13.6l3.4 14.8c.7 3.5 1.5 7 2.1 10.6h.1c.7-3.5 1.7-7.2 2.7-10.5l4.2-14.9h6.7l4.1 14.5c1 3.8 1.9 7.4 2.6 10.9h.1c.5-3.5 1.3-7.1 2.1-10.9l3.6-14.5h8.1l-10.2 32.6h-7.6L160.8 37c-1-3.4-1.7-6.5-2.5-10.4h-.1c-.7 4-1.5 7.2-2.5 10.4l-4.2 13.3h-7.7l-9.6-32.6h8.5zm54.9-11.4c0 3.5-2.5 6.2-6.6 6.2-3.8 0-6.4-2.7-6.4-6.2 0-3.6 2.6-6.3 6.5-6.3s6.4 2.7 6.5 6.3zm-10.7 11.4h8.3v32.6h-8.3zm25.4-9.3v9.3h7.8v6.2h-7.8v14.4c0 4 1.1 6 4.2 6 1.4 0 2.5-.2 3.2-.4l.1 6.3c-1.2.5-3.3.8-6 .8-3 0-5.6-1-7.1-2.7-1.7-1.9-2.5-4.8-2.5-9.1V23.9h-4.7v-6.2h4.7v-7.4l8.1-1.9zm12.8-5.6h8.3v19.4h.1c1-1.5 2.3-2.8 4.1-3.8 1.6-.9 3.5-1.5 5.6-1.5 5.6 0 11.4 3.7 11.4 14.1v19.2h-8.2V32.1c0-4.8-1.7-8.3-6.3-8.3-3.2 0-5.5 2.1-6.4 4.6-.3.7-.3 1.5-.3 2.5v19.5h-8.3V2.8zm66 37.8c0 3.9.1 7.1.3 9.8h-7.2l-.4-5h-.1c-1.4 2.3-4.6 5.7-10.4 5.7-6 0-11.4-3.5-11.4-14.2V17.7h8.2v17.7c0 5.4 1.7 8.9 6.1 8.9 3.3 0 5.4-2.3 6.3-4.4.3-.7.5-1.6.5-2.5V17.7h8.2v22.9zm7.3 2.2c1.9 1.1 5.4 2.3 8.4 2.3 3.6 0 5.2-1.5 5.2-3.6 0-2.2-1.3-3.3-5.4-4.8-6.4-2.2-9-5.7-9-9.5 0-5.8 4.8-10.2 12.3-10.2 3.6 0 6.8.9 8.6 1.9l-1.6 5.8c-1.4-.8-4-1.9-6.9-1.9-2.9 0-4.6 1.4-4.6 3.4 0 2.1 1.5 3.1 5.7 4.6 5.9 2.1 8.6 5.2 8.7 10 0 5.9-4.6 10.2-13.3 10.2-4 0-7.5-.9-9.9-2.3l1.8-5.9z" id="type"/></svg>