<svg id="Layer_1" opacity=".6" xmlns="http://www.w3.org/2000/svg" viewBox="0 0 1280 1280"><style>.st0{opacity:.7;enable-background:new}.st0,.st1{fill:#fff}.st2,.st3,.st4{opacity:.3;fill:#fff;enable-background:new}.st3,.st4{opacity:.5}.st4{opacity:.8}</style><path class="st0" d="M79.7 262.2c1.8 0 3.2 1.4 3.2 3.2 0-1.8 1.5-3.2 3.3-3.2-1.8 0-3.3-1.4-3.2-3.2 0 1.7-1.5 3.2-3.3 3.2z"/><path class="st1" d="M3.1 316.5c2.2 0 4.1 1.8 4.1 4.1 0-2.2 1.8-4.1 4.1-4.1-2.2 0-4.1-1.8-4.1-4.1-.1 2.3-1.9 4.1-4.1 4.1z"/><path class="st2" d="M33.9 383.8c1.3 0 2.3 1.1 2.3 2.6 0-1.4 1-2.5 2.3-2.5-1.3 0-2.3-1.1-2.3-2.6 0 1.4-1 2.5-2.3 2.5z"/><path class="st3" d="M84.9 313c1.4 0 2.5 1.2 2.5 2.6 0-1.4 1.1-2.6 2.5-2.6-1.4 0-2.5-1.2-2.5-2.6 0 1.4-1.1 2.6-2.5 2.6z"/><path class="st0" d="M202.7 372.2c1.8 0 3.2 1.4 3.2 3.2 0-1.8 1.5-3.2 3.3-3.2-1.8 0-3.2-1.4-3.2-3.2-.1 1.8-1.5 3.2-3.3 3.2z"/><path class="st4" d="M143.6 245.1c1.8 0 3.2 1.4 3.2 3.2 0-1.8 1.4-3.2 3.2-3.2-1.8 0-3.2-1.4-3.2-3.2 0 1.8-1.4 3.2-3.2 3.2z"/><path class="st1" d="M312.7 403.5c2.2 0 4.1 1.8 4.1 4.1 0-2.2 1.8-4.1 4.1-4.1-2.2 0-4.1-1.8-4.1-4.1 0 2.2-1.8 4.1-4.1 4.1zm-65-58.2c2.2 0 4.1 1.8 4.1 4.1 0-2.2 1.8-4.1 4.1-4.1-2.2 0-4.1-1.8-4.1-4.1 0 2.3-1.8 4.1-4.1 4.1zm-94.6-135.9c2.8 0 5.1 2.3 5.1 5.1 0-2.8 2.3-5.1 5.1-5.1-2.8 0-5.1-2.3-5.1-5.1-.1 2.8-2.3 5.1-5.1 5.1z"/><path class="st2" d="M80.1 313.6c1.3 0 2.3 1.1 2.3 2.5 0-1.4 1-2.5 2.3-2.5-1.3 0-2.3-1.1-2.3-2.6 0 1.5-1.1 2.6-2.3 2.6z"/><path class="st3" d="M280.7 388.4c1.4 0 2.5 1.2 2.5 2.6 0-1.4 1.1-2.6 2.5-2.6-1.4 0-2.5-1.1-2.5-2.6.1 1.4-1 2.6-2.5 2.6z"/><path class="st0" d="M456.1 361.3c1.8 0 3.2 1.4 3.2 3.2 0-1.8 1.5-3.2 3.3-3.2-1.8 0-3.3-1.4-3.3-3.2 0 1.8-1.4 3.2-3.2 3.2z"/><path class="st4" d="M339.8 316.5c1.8 0 3.2 1.4 3.2 3.2 0-1.8 1.4-3.2 3.2-3.2-1.8 0-3.2-1.4-3.2-3.2 0 1.8-1.4 3.2-3.2 3.2z"/><path class="st1" d="M470 320.9c2.2 0 4.1 1.8 4.1 4.1 0-2.2 1.8-4.1 4.1-4.1-2.2 0-4.1-1.8-4.1-4.1 0 2.2-1.8 4.1-4.1 4.1zm-51.3-67.2c2.2 0 4.1 1.8 4.1 4.1 0-2.2 1.8-4.1 4.1-4.1-2.2 0-4.1-1.8-4.1-4.1-.1 2.3-1.9 4.1-4.1 4.1zm44.4 99.9c2.8 0 5.1 2.3 5.1 5.1 0-2.8 2.3-5.1 5.1-5.1-2.8 0-5.1-2.3-5.1-5.1 0 2.8-2.3 5.1-5.1 5.1z"/><path class="st2" d="M517.5 293.7c1.3 0 2.3 1.1 2.3 2.5 0-1.4 1-2.5 2.3-2.5-1.3 0-2.3-1.1-2.3-2.6 0 1.4-1.1 2.6-2.3 2.6z"/><path class="st3" d="M534.2 386.6c1.4 0 2.5 1.2 2.5 2.6 0-1.4 1.1-2.6 2.5-2.6-1.4 0-2.5-1.1-2.5-2.6 0 1.5-1.1 2.6-2.5 2.6z"/><path class="st2" d="M70.5 59.3c1.3 0 2.3 1.1 2.3 2.5 0-1.4 1-2.5 2.3-2.5-1.3 0-2.3-1.1-2.3-2.6 0 1.4-1.1 2.6-2.3 2.6z"/><path class="st0" d="M155.9 138.8c1.8 0 3.2 1.4 3.2 3.2 0-1.8 1.5-3.2 3.3-3.2-1.8 0-3.2-1.4-3.2-3.2-.1 1.7-1.5 3.2-3.3 3.2z"/><path class="st4" d="M366.3 219.3c1.8 0 3.2 1.4 3.2 3.2 0-1.8 1.4-3.2 3.2-3.2-1.8 0-3.2-1.4-3.2-3.2-.1 1.8-1.5 3.2-3.2 3.2z"/><path class="st1" d="M289.7 252.6c2.2 0 4.1 1.8 4.1 4.1 0-2.2 1.8-4.1 4.1-4.1-2.2 0-4.1-1.8-4.1-4.1 0 2.3-1.8 4.1-4.1 4.1zM185.2 133.1c2.2 0 4.1 1.8 4.1 4.1 0-2.2 1.8-4.1 4.1-4.1-2.2 0-4.1-1.8-4.1-4.1 0 2.2-1.9 4.1-4.1 4.1zM81 105.3c2.8 0 5.1 2.3 5.1 5.1 0-2.8 2.3-5.1 5.1-5.1-2.8 0-5.1-2.3-5.1-5.1 0 2.8-2.3 5.1-5.1 5.1z"/><path class="st2" d="M83.2 129.9c1.3 0 2.3 1.1 2.3 2.5 0-1.4 1-2.5 2.3-2.5-1.3 0-2.3-1.1-2.3-2.6 0 1.5-1.1 2.6-2.3 2.6z"/><path class="st3" d="M248.4 255.8c1.4 0 2.5 1.2 2.5 2.6 0-1.4 1.1-2.6 2.5-2.6-1.4 0-2.5-1.2-2.5-2.6 0 1.5-1.1 2.6-2.5 2.6z"/><path class="st0" d="M580 126.4c1.8 0 3.2 1.4 3.2 3.2 0-1.8 1.5-3.2 3.3-3.2-1.8 0-3.2-1.4-3.2-3.2 0 1.8-1.5 3.2-3.3 3.2z"/><path class="st4" d="M586.4 6.1c1.8 0 3.2 1.4 3.2 3.2 0-1.8 1.4-3.2 3.2-3.2-1.8 0-3.2-1.4-3.2-3.2 0 1.8-1.4 3.2-3.2 3.2z"/><path class="st1" d="M370.7 233.5c2.2 0 4.1 1.8 4.1 4.1 0-2.2 1.8-4.1 4.1-4.1-2.2 0-4.1-1.8-4.1-4.1 0 2.3-1.8 4.1-4.1 4.1zm152.4 11.2c2.2 0 4.1 1.8 4.1 4.1 0-2.2 1.8-4.1 4.1-4.1-2.2 0-4.1-1.8-4.1-4.1-.1 2.3-1.9 4.1-4.1 4.1zm-56.6-31.2c2.8 0 5.1 2.3 5.1 5.1 0-2.8 2.3-5.1 5.1-5.1-2.8 0-5.1-2.3-5.1-5.1 0 2.8-2.3 5.1-5.1 5.1z"/><path class="st2" d="M385.7 294c1.3 0 2.3 1.1 2.3 2.5 0-1.4 1-2.5 2.3-2.5-1.3 0-2.3-1.1-2.3-2.6-.1 1.5-1.1 2.6-2.3 2.6z"/><path class="st0" d="M46.4 559.9c1.8 0 3.2 1.4 3.2 3.2 0-1.8 1.5-3.2 3.3-3.2-1.8 0-3.2-1.4-3.2-3.2-.1 1.7-1.6 3.2-3.3 3.2z"/><path class="st1" d="M42.8 647.4c2.2 0 4.1 1.8 4.1 4.1 0-2.2 1.8-4.1 4.1-4.1-2.2 0-4.1-1.8-4.1-4.1-.1 2.3-1.9 4.1-4.1 4.1z"/><path class="st2" d="M21.3 595c1.3 0 2.3 1.1 2.3 2.5 0-1.4 1-2.5 2.3-2.5-1.3 0-2.3-1.1-2.3-2.6 0 1.5-1.1 2.6-2.3 2.6z"/><path class="st0" d="M202.2 532.8c1.8 0 3.2 1.4 3.2 3.2 0-1.8 1.5-3.2 3.2-3.2-1.8 0-3.2-1.4-3.2-3.2 0 1.7-1.4 3.2-3.2 3.2z"/><path class="st4" d="M222.3 503.3c1.8 0 3.2 1.4 3.2 3.2 0-1.8 1.4-3.2 3.2-3.2-1.8 0-3.2-1.4-3.2-3.2 0 1.8-1.4 3.2-3.2 3.2z"/><path class="st1" d="M287.1 637.7c2.2 0 4.1 1.8 4.1 4.1 0-2.2 1.8-4.1 4.1-4.1-2.2 0-4.1-1.8-4.1-4.1 0 2.2-1.8 4.1-4.1 4.1zm-77.2 22.7c2.2 0 4.1 1.8 4.1 4.1 0-2.2 1.8-4.1 4.1-4.1-2.2 0-4.1-1.8-4.1-4.1 0 2.2-1.8 4.1-4.1 4.1z"/><path class="st2" d="M229 539.9c1.3 0 2.3 1.1 2.3 2.5 0-1.4 1-2.5 2.3-2.5-1.3 0-2.3-1.1-2.3-2.6 0 1.5-1.1 2.6-2.3 2.6z"/><path class="st4" d="M512.9 453.5c1.8 0 3.2 1.4 3.2 3.2 0-1.8 1.4-3.2 3.2-3.2-1.8 0-3.2-1.4-3.2-3.2 0 1.7-1.4 3.2-3.2 3.2z"/><path class="st1" d="M372.6 550.9c2.2 0 4.1 1.8 4.1 4.1 0-2.2 1.8-4.1 4.1-4.1-2.2 0-4.1-1.8-4.1-4.1 0 2.3-1.8 4.1-4.1 4.1zm144.9-53.5c2.8 0 5.1 2.3 5.1 5.1 0-2.8 2.3-5.1 5.1-5.1-2.8 0-5.1-2.3-5.1-5.1 0 2.9-2.3 5.1-5.1 5.1z"/><path class="st3" d="M486.4 615.1c1.4 0 2.5 1.2 2.5 2.6 0-1.4 1.1-2.6 2.5-2.6-1.4 0-2.5-1.1-2.5-2.6 0 1.4-1.1 2.6-2.5 2.6z"/><path class="st4" d="M20.9 531.2c1.8 0 3.2 1.4 3.2 3.2 0-1.8 1.4-3.2 3.2-3.2-1.8 0-3.2-1.4-3.2-3.2 0 1.8-1.4 3.2-3.2 3.2z"/><path class="st3" d="M19.5 469.1c1.4 0 2.5 1.2 2.5 2.6 0-1.4 1.1-2.6 2.5-2.6-1.4 0-2.5-1.1-2.5-2.6 0 1.5-1.1 2.6-2.5 2.6z"/><path class="st0" d="M254.7 536.2c1.8 0 3.2 1.4 3.2 3.2 0-1.8 1.5-3.2 3.3-3.2-1.8 0-3.2-1.4-3.2-3.2 0 1.8-1.5 3.2-3.3 3.2z"/><path class="st4" d="M273.5 452.4c1.8 0 3.2 1.4 3.2 3.2 0-1.8 1.4-3.2 3.2-3.2-1.8 0-3.2-1.4-3.2-3.2 0 1.8-1.5 3.2-3.2 3.2z"/><path class="st1" d="M348 460.7c2.2 0 4.1 1.8 4.1 4.1 0-2.2 1.8-4.1 4.1-4.1-2.2 0-4.1-1.8-4.1-4.1 0 2.3-1.8 4.1-4.1 4.1zm-69-114.2c2.2 0 4.1 1.8 4.1 4.1 0-2.2 1.8-4.1 4.1-4.1-2.2 0-4.1-1.8-4.1-4.1-.1 2.3-1.9 4.1-4.1 4.1zm53.9 40.3c2.8 0 5.1 2.3 5.1 5.1 0-2.8 2.3-5.1 5.1-5.1-2.8 0-5.1-2.3-5.1-5.1 0 2.8-2.3 5.1-5.1 5.1z"/><path class="st2" d="M251.7 350.6c1.3 0 2.3 1.1 2.3 2.5 0-1.4 1-2.5 2.3-2.5-1.3 0-2.3-1.1-2.3-2.6-.1 1.5-1.1 2.6-2.3 2.6z"/><path class="st3" d="M207.9 404.8c1.4 0 2.5 1.2 2.5 2.6 0-1.4 1.1-2.6 2.5-2.6-1.4 0-2.5-1.1-2.5-2.6 0 1.4-1.1 2.6-2.5 2.6z"/><path class="st0" d="M487.1 313.1c1.8 0 3.2 1.4 3.2 3.2 0-1.8 1.5-3.2 3.3-3.2-1.8 0-3.2-1.4-3.2-3.2-.1 1.8-1.6 3.2-3.3 3.2z"/><path class="st4" d="M503.4 514.2c1.8 0 3.2 1.4 3.2 3.2 0-1.8 1.4-3.2 3.2-3.2-1.8 0-3.2-1.4-3.2-3.2-.1 1.7-1.5 3.2-3.2 3.2z"/><path class="st1" d="M377.6 366c2.2 0 4.1 1.8 4.1 4.1 0-2.2 1.8-4.1 4.1-4.1-2.2 0-4.1-1.8-4.1-4.1-.1 2.3-1.9 4.1-4.1 4.1zm186.8 96.4c2.2 0 4.1 1.8 4.1 4.1 0-2.2 1.8-4.1 4.1-4.1-2.2 0-4.1-1.8-4.1-4.1-.1 2.3-1.9 4.1-4.1 4.1zm65.3-119.9c2.8 0 5.1 2.3 5.1 5.1 0-2.8 2.3-5.1 5.1-5.1-2.8 0-5.1-2.3-5.1-5.1 0 2.8-2.3 5.1-5.1 5.1z"/><path class="st2" d="M353.1 498.9c1.3 0 2.3 1.1 2.3 2.5 0-1.4 1-2.5 2.3-2.5-1.3 0-2.3-1.1-2.3-2.6 0 1.4-1 2.6-2.3 2.6z"/><path class="st3" d="M351.3 310.7c1.4 0 2.5 1.2 2.5 2.6 0-1.4 1.1-2.6 2.5-2.6-1.4 0-2.5-1.1-2.5-2.6.1 1.5-1.1 2.6-2.5 2.6z"/><path class="st0" d="M6.2 49c1.8 0 3.2 1.4 3.2 3.2 0-1.8 1.5-3.2 3.3-3.2-1.8 0-3.3-1.4-3.2-3.2C9.4 47.5 8 49 6.2 49z"/><path class="st4" d="M191.1 20.2c1.8 0 3.2 1.4 3.2 3.2 0-1.8 1.4-3.2 3.2-3.2-1.8 0-3.2-1.4-3.2-3.2-.1 1.8-1.5 3.2-3.2 3.2z"/><path class="st1" d="M246.4 100.2c2.2 0 4.1 1.8 4.1 4.1 0-2.2 1.8-4.1 4.1-4.1-2.2 0-4.1-1.8-4.1-4.1 0 2.3-1.8 4.1-4.1 4.1z"/><path class="st0" d="M397.1 39.6c1.8 0 3.2 1.4 3.2 3.2 0-1.8 1.5-3.2 3.3-3.2-1.8 0-3.2-1.4-3.2-3.2 0 1.8-1.5 3.2-3.3 3.2z"/><path class="st1" d="M460.3 25c2.8 0 5.1 2.3 5.1 5.1 0-2.8 2.3-5.1 5.1-5.1-2.8 0-5.1-2.3-5.1-5.1-.1 2.8-2.3 5.1-5.1 5.1z"/><path class="st2" d="M425.7 27.6c1.3 0 2.3 1.1 2.3 2.5 0-1.4 1-2.5 2.3-2.5-1.3 0-2.3-1.1-2.3-2.6 0 1.4-1.1 2.6-2.3 2.6z"/><path class="st0" d="M10 174.5c1.8 0 3.2 1.4 3.2 3.2 0-1.8 1.5-3.2 3.3-3.2-1.8 0-3.2-1.4-3.2-3.2-.1 1.7-1.5 3.2-3.3 3.2z"/><path class="st1" d="M62.8 101.7c2.2 0 4.1 1.8 4.1 4.1 0-2.2 1.8-4.1 4.1-4.1-2.2 0-4.1-1.8-4.1-4.1-.1 2.3-1.9 4.1-4.1 4.1z"/><path class="st0" d="M344.3 7.9c1.8 0 3.3 1.4 3.2 3.2 0-1.8 1.5-3.2 3.2-3.2-1.8 0-3.2-1.4-3.2-3.2.1 1.8-1.4 3.2-3.2 3.2z"/><path class="st1" d="M222.2 7.1c2.2 0 4.1 1.8 4.1 4.1 0-2.2 1.8-4.1 4.1-4.1-2.2 0-4.1-1.8-4.1-4.1 0 2.2-1.8 4.1-4.1 4.1zm87.3 58.6c2.2 0 4.1 1.8 4.1 4.1 0-2.2 1.8-4.1 4.1-4.1-2.2 0-4.1-1.8-4.1-4.1-.1 2.2-1.9 4.1-4.1 4.1zm-119.9 73.6c2.8 0 5.1 2.3 5.1 5.1 0-2.8 2.3-5.1 5.1-5.1-2.8 0-5.1-2.3-5.1-5.1 0 2.8-2.3 5.1-5.1 5.1z"/><path class="st2" d="M262.3 39c1.3 0 2.3 1.1 2.3 2.5 0-1.4 1-2.5 2.3-2.5-1.3 0-2.3-1.1-2.3-2.6 0 1.4-1.1 2.6-2.3 2.6z"/><path class="st1" d="M599.8 24.5c2.2 0 4.1 1.8 4.1 4.1 0-2.2 1.8-4.1 4.1-4.1-2.2 0-4.1-1.8-4.1-4.1-.1 2.3-1.9 4.1-4.1 4.1z"/><path class="st0" d="M798.3 177.8c1.8 0 3.2 1.4 3.2 3.2 0-1.8 1.5-3.2 3.3-3.2-1.8 0-3.2-1.4-3.2-3.2 0 1.8-1.5 3.2-3.3 3.2z"/><path class="st4" d="M818.4 277.4c1.8 0 3.2 1.4 3.2 3.2 0-1.8 1.4-3.2 3.2-3.2-1.8 0-3.2-1.4-3.2-3.2 0 1.8-1.4 3.2-3.2 3.2z"/><path class="st1" d="M877.1 249.9c2.2 0 4.1 1.8 4.1 4.1 0-2.2 1.8-4.1 4.1-4.1-2.2 0-4.1-1.8-4.1-4.1 0 2.3-1.8 4.1-4.1 4.1zm-224.4-45.8c2.2 0 4.1 1.8 4.1 4.1 0-2.2 1.8-4.1 4.1-4.1-2.2 0-4.1-1.8-4.1-4.1 0 2.3-1.9 4.1-4.1 4.1zm136 205c2.8 0 5.1 2.3 5.1 5.1 0-2.8 2.3-5.1 5.1-5.1-2.8 0-5.1-2.3-5.1-5.1-.1 2.8-2.3 5.1-5.1 5.1z"/><path class="st2" d="M639.7 123.2c1.3 0 2.3 1.1 2.3 2.5 0-1.4 1-2.5 2.3-2.5-1.3 0-2.3-1.1-2.3-2.6 0 1.5-1 2.6-2.3 2.6z"/><path class="st3" d="M665.6 294.2c1.4 0 2.5 1.2 2.5 2.6 0-1.4 1.1-2.6 2.5-2.6-1.4 0-2.5-1.2-2.5-2.6 0 1.4-1.1 2.6-2.5 2.6z"/><path class="st0" d="M1083.5 191.4c1.8 0 3.2 1.4 3.2 3.2 0-1.8 1.5-3.2 3.3-3.2-1.8 0-3.2-1.4-3.2-3.2-.1 1.7-1.5 3.2-3.3 3.2z"/><path class="st4" d="M923.1 441c1.8 0 3.2 1.4 3.2 3.2 0-1.8 1.4-3.2 3.2-3.2-1.8 0-3.2-1.4-3.2-3.2 0 1.8-1.5 3.2-3.2 3.2z"/><path class="st1" d="M1147.2 242.7c2.2 0 4.1 1.8 4.1 4.1 0-2.2 1.8-4.1 4.1-4.1-2.2 0-4.1-1.8-4.1-4.1 0 2.3-1.9 4.1-4.1 4.1zM891 279.8c2.2 0 4.1 1.8 4.1 4.1 0-2.2 1.8-4.1 4.1-4.1-2.2 0-4.1-1.8-4.1-4.1-.1 2.3-1.9 4.1-4.1 4.1zm20.4-87.3c2.8 0 5.1 2.3 5.1 5.1 0-2.8 2.3-5.1 5.1-5.1-2.8 0-5.1-2.3-5.1-5.1 0 2.9-2.3 5.1-5.1 5.1z"/><path class="st2" d="M1113.5 168.3c1.3 0 2.3 1.1 2.3 2.6 0-1.4 1-2.5 2.3-2.5-1.3 0-2.3-1.1-2.3-2.6 0 1.4-1 2.5-2.3 2.5z"/><path class="st3" d="M981.5 336.4c1.4 0 2.5 1.2 2.5 2.6 0-1.4 1.1-2.6 2.5-2.6-1.4 0-2.5-1.1-2.5-2.6.1 1.5-1.1 2.6-2.5 2.6z"/><path class="st4" d="M1129.1 345.2c1.8 0 3.2 1.4 3.2 3.2 0-1.8 1.4-3.2 3.2-3.2-1.8 0-3.2-1.4-3.2-3.2 0 1.7-1.4 3.2-3.2 3.2z"/><path class="st1" d="M1259.1 211.4c2.2 0 4.1 1.8 4.1 4.1 0-2.2 1.8-4.1 4.1-4.1-2.2 0-4.1-1.8-4.1-4.1 0 2.3-1.9 4.1-4.1 4.1zm-73.2 210.7c2.8 0 5.1 2.3 5.1 5.1 0-2.8 2.3-5.1 5.1-5.1-2.8 0-5.1-2.3-5.1-5.1 0 2.8-2.3 5.1-5.1 5.1z"/><path class="st0" d="M824.1 310.2c1.8 0 3.2 1.4 3.2 3.2 0-1.8 1.5-3.2 3.3-3.2-1.8 0-3.2-1.4-3.2-3.2-.1 1.8-1.5 3.2-3.3 3.2z"/><path class="st4" d="M839.6 99.1c1.8 0 3.2 1.4 3.2 3.2 0-1.8 1.4-3.2 3.2-3.2-1.8 0-3.2-1.4-3.2-3.2 0 1.8-1.4 3.2-3.2 3.2z"/><path class="st1" d="M762.1 103.4c2.2 0 4.1 1.8 4.1 4.1 0-2.2 1.8-4.1 4.1-4.1-2.2 0-4.1-1.8-4.1-4.1-.1 2.3-1.9 4.1-4.1 4.1zm86.3 87.2c2.2 0 4.1 1.8 4.1 4.1 0-2.2 1.8-4.1 4.1-4.1-2.2 0-4.1-1.8-4.1-4.1-.1 2.3-1.9 4.1-4.1 4.1zM693.7 50.2c2.8 0 5.1 2.3 5.1 5.1 0-2.8 2.3-5.1 5.1-5.1-2.8 0-5.1-2.3-5.1-5.1 0 2.8-2.3 5.1-5.1 5.1z"/><path class="st3" d="M797.1 90.5c1.4 0 2.5 1.2 2.5 2.6 0-1.4 1.1-2.6 2.5-2.6-1.4 0-2.5-1.1-2.5-2.6.1 1.5-1.1 2.6-2.5 2.6z"/><path class="st0" d="M1002.9 242.2c1.8 0 3.2 1.4 3.2 3.2 0-1.8 1.5-3.2 3.3-3.2-1.8 0-3.2-1.4-3.2-3.2 0 1.8-1.5 3.2-3.3 3.2z"/><path class="st4" d="M911.8 120.5c1.8 0 3.2 1.4 3.2 3.2 0-1.8 1.4-3.2 3.2-3.2-1.8 0-3.2-1.4-3.2-3.2 0 1.8-1.4 3.2-3.2 3.2z"/><path class="st1" d="M1091.7 12.3c2.2 0 4.1 1.8 4.1 4.1 0-2.2 1.8-4.1 4.1-4.1-2.2 0-4.1-1.8-4.1-4.1 0 2.3-1.8 4.1-4.1 4.1zm.4 110.2c2.2 0 4.1 1.8 4.1 4.1 0-2.2 1.8-4.1 4.1-4.1-2.2 0-4.1-1.8-4.1-4.1-.1 2.3-1.9 4.1-4.1 4.1zM978.8 40.8c2.8 0 5.1 2.3 5.1 5.1 0-2.8 2.3-5.1 5.1-5.1-2.8 0-5.1-2.3-5.1-5.1-.1 2.8-2.3 5.1-5.1 5.1z"/><path class="st2" d="M958.1 244.5c1.3 0 2.3 1.1 2.3 2.5 0-1.4 1-2.5 2.3-2.5-1.3 0-2.3-1.1-2.3-2.6 0 1.4-1.1 2.6-2.3 2.6z"/><path class="st3" d="M1138 72.1c1.4 0 2.5 1.2 2.5 2.6 0-1.4 1.1-2.6 2.5-2.6-1.4 0-2.5-1.2-2.5-2.6 0 1.4-1.1 2.6-2.5 2.6z"/><path class="st4" d="M1221.7 159.1c1.8 0 3.2 1.4 3.2 3.2 0-1.8 1.4-3.2 3.2-3.2-1.8 0-3.2-1.4-3.2-3.2 0 1.8-1.4 3.2-3.2 3.2z"/><path class="st1" d="M1169.7 223.7c2.2 0 4.1 1.8 4.1 4.1 0-2.2 1.8-4.1 4.1-4.1-2.2 0-4.1-1.8-4.1-4.1 0 2.3-1.8 4.1-4.1 4.1zm-16.5-116.2c2.2 0 4.1 1.8 4.1 4.1 0-2.2 1.8-4.1 4.1-4.1-2.2 0-4.1-1.8-4.1-4.1-.1 2.3-1.9 4.1-4.1 4.1z"/><path class="st3" d="M1249.4 189.6c1.4 0 2.5 1.2 2.5 2.6 0-1.4 1.1-2.6 2.5-2.6-1.4 0-2.5-1.1-2.5-2.6.1 1.5-1.1 2.6-2.5 2.6z"/><path class="st4" d="M674 474.8c1.8 0 3.2 1.4 3.2 3.2 0-1.8 1.4-3.2 3.2-3.2-1.8 0-3.2-1.4-3.2-3.2 0 1.7-1.4 3.2-3.2 3.2z"/><path class="st1" d="M782.1 604.4c2.8 0 5.1 2.3 5.1 5.1 0-2.8 2.3-5.1 5.1-5.1-2.8 0-5.1-2.3-5.1-5.1-.1 2.9-2.3 5.1-5.1 5.1z"/><path class="st2" d="M703.3 573.3c1.3 0 2.3 1.1 2.3 2.5 0-1.4 1-2.5 2.3-2.5-1.3 0-2.3-1.1-2.3-2.6 0 1.5-1 2.6-2.3 2.6z"/><path class="st3" d="M853.7 552.5c1.4 0 2.5 1.2 2.5 2.6 0-1.4 1.1-2.6 2.5-2.6-1.4 0-2.5-1.1-2.5-2.6.1 1.5-1 2.6-2.5 2.6z"/><path class="st0" d="M1086.3 601.2c1.8 0 3.2 1.4 3.2 3.2 0-1.8 1.5-3.2 3.3-3.2-1.8 0-3.2-1.4-3.2-3.2 0 1.7-1.5 3.2-3.3 3.2z"/><path class="st4" d="M1050.9 631.6c1.8 0 3.2 1.4 3.2 3.2 0-1.8 1.4-3.2 3.2-3.2-1.8 0-3.2-1.4-3.2-3.2 0 1.8-1.5 3.2-3.2 3.2z"/><path class="st1" d="M1000.2 481.4c2.2 0 4.1 1.8 4.1 4.1 0-2.2 1.8-4.1 4.1-4.1-2.2 0-4.1-1.8-4.1-4.1 0 2.3-1.8 4.1-4.1 4.1zm-28.4 22.2c2.2 0 4.1 1.8 4.1 4.1 0-2.2 1.8-4.1 4.1-4.1-2.2 0-4.1-1.8-4.1-4.1-.1 2.3-1.9 4.1-4.1 4.1zm24.6 7.2c2.8 0 5.1 2.3 5.1 5.1 0-2.8 2.3-5.1 5.1-5.1-2.8 0-5.1-2.3-5.1-5.1 0 2.8-2.3 5.1-5.1 5.1zM1242 673c2.2 0 4.1 1.8 4.1 4.1 0-2.2 1.8-4.1 4.1-4.1-2.2 0-4.1-1.8-4.1-4.1 0 2.3-1.8 4.1-4.1 4.1zm-54-20.5c2.8 0 5.1 2.3 5.1 5.1 0-2.8 2.3-5.1 5.1-5.1-2.8 0-5.1-2.3-5.1-5.1-.1 2.8-2.3 5.1-5.1 5.1z"/><path class="st2" d="M1221.4 595.5c1.3 0 2.3 1.1 2.3 2.5 0-1.4 1-2.5 2.3-2.5-1.3 0-2.3-1.1-2.3-2.6 0 1.4-1 2.6-2.3 2.6z"/><path class="st3" d="M1210.2 625.7c1.4 0 2.5 1.2 2.5 2.6 0-1.4 1.1-2.6 2.5-2.6-1.4 0-2.5-1.1-2.5-2.6.1 1.4-1.1 2.6-2.5 2.6z"/><path class="st0" d="M761.4 376.3c1.8 0 3.2 1.4 3.2 3.2 0-1.8 1.5-3.2 3.3-3.2-1.8 0-3.2-1.4-3.2-3.2-.1 1.8-1.5 3.2-3.3 3.2z"/><path class="st4" d="M572.5 509.1c1.8 0 3.2 1.4 3.2 3.2 0-1.8 1.4-3.2 3.2-3.2-1.8 0-3.2-1.4-3.2-3.2-.1 1.8-1.5 3.2-3.2 3.2z"/><path class="st1" d="M764.4 498c2.2 0 4.1 1.8 4.1 4.1 0-2.2 1.8-4.1 4.1-4.1-2.2 0-4.1-1.8-4.1-4.1 0 2.3-1.9 4.1-4.1 4.1zm62.2-39.3c2.2 0 4.1 1.8 4.1 4.1 0-2.2 1.8-4.1 4.1-4.1-2.2 0-4.1-1.8-4.1-4.1 0 2.3-1.8 4.1-4.1 4.1zm-67.9-126.1c2.8 0 5.1 2.3 5.1 5.1 0-2.8 2.3-5.1 5.1-5.1-2.8 0-5.1-2.3-5.1-5.1 0 2.9-2.3 5.1-5.1 5.1z"/><path class="st2" d="M645.8 358.8c1.3 0 2.3 1.1 2.3 2.5 0-1.4 1-2.5 2.3-2.5-1.3 0-2.3-1.1-2.3-2.6 0 1.4-1.1 2.6-2.3 2.6z"/><path class="st3" d="M686.2 453.4c1.4 0 2.5 1.2 2.5 2.6 0-1.4 1.1-2.6 2.5-2.6-1.4 0-2.5-1.1-2.5-2.6 0 1.5-1.1 2.7-2.5 2.6z"/><path class="st0" d="M991.8 512.6c1.8 0 3.2 1.4 3.2 3.2 0-1.8 1.5-3.2 3.3-3.2-1.8 0-3.2-1.4-3.2-3.2-.1 1.7-1.5 3.2-3.3 3.2z"/><path class="st4" d="M1005.6 383.9c1.8 0 3.2 1.4 3.2 3.2 0-1.8 1.4-3.2 3.2-3.2-1.8 0-3.2-1.4-3.2-3.2 0 1.8-1.4 3.2-3.2 3.2z"/><path class="st1" d="M1171.3 369.8c2.2 0 4.1 1.8 4.1 4.1 0-2.2 1.8-4.1 4.1-4.1-2.2 0-4.1-1.8-4.1-4.1-.1 2.2-1.9 4.1-4.1 4.1zm-208.9 67.5c2.2 0 4.1 1.8 4.1 4.1 0-2.2 1.8-4.1 4.1-4.1-2.2 0-4.1-1.8-4.1-4.1 0 2.3-1.8 4.1-4.1 4.1zM862.6 382c2.8 0 5.1 2.3 5.1 5.1 0-2.8 2.3-5.1 5.1-5.1-2.8 0-5.1-2.3-5.1-5.1 0 2.8-2.3 5.1-5.1 5.1z"/><path class="st2" d="M809.1 296.8c1.3 0 2.3 1.1 2.3 2.6 0-1.4 1-2.6 2.3-2.5-1.3 0-2.3-1.1-2.3-2.6 0 1.4-1 2.5-2.3 2.5z"/><path class="st3" d="M1118.1 569.7c1.4 0 2.5 1.2 2.5 2.6 0-1.4 1.1-2.6 2.5-2.6-1.4 0-2.5-1.1-2.5-2.6.1 1.5-1.1 2.6-2.5 2.6z"/><path class="st0" d="M1261.2 437.9c1.8 0 3.2 1.4 3.2 3.2 0-1.8 1.5-3.2 3.3-3.2-1.8 0-3.3-1.4-3.2-3.2 0 1.8-1.5 3.2-3.3 3.2z"/><path class="st4" d="M1215.3 493.8c1.8 0 3.2 1.4 3.2 3.2 0-1.8 1.4-3.2 3.2-3.2-1.8 0-3.2-1.4-3.2-3.2-.1 1.8-1.5 3.2-3.2 3.2z"/><path class="st1" d="M1142.3 330.3c2.2 0 4.1 1.8 4.1 4.1 0-2.2 1.8-4.1 4.1-4.1-2.2 0-4.1-1.8-4.1-4.1 0 2.3-1.9 4.1-4.1 4.1zm-24.5 37.5c2.2 0 4.1 1.8 4.1 4.1 0-2.2 1.8-4.1 4.1-4.1-2.2 0-4.1-1.8-4.1-4.1 0 2.2-1.8 4.1-4.1 4.1zm64.6 174.8c2.8 0 5.1 2.3 5.1 5.1 0-2.8 2.3-5.1 5.1-5.1-2.8 0-5.1-2.3-5.1-5.1 0 2.9-2.3 5.1-5.1 5.1z"/><path class="st2" d="M1170.2 469.7c1.3 0 2.3 1.1 2.3 2.5 0-1.4 1-2.5 2.3-2.5-1.3 0-2.3-1.1-2.3-2.6 0 1.5-1 2.6-2.3 2.6z"/><path class="st1" d="M627.7 4c2.2 0 4.1 1.8 4.1 4.1 0-2.2 1.8-4.1 4.1-4.1-2.2 0-4.1-1.8-4.1-4.1 0 2.3-1.9 4.1-4.1 4.1z"/><path class="st2" d="M979.1-.3c1.3 0 2.3 1.1 2.3 2.5 0-1.4 1-2.5 2.3-2.5-1.3 0-2.3-1.1-2.3-2.6 0 1.5-1 2.6-2.3 2.6z"/><path class="st4" d="M1218.7 60c1.8 0 3.2 1.4 3.2 3.2 0-1.8 1.4-3.2 3.2-3.2-1.8 0-3.2-1.4-3.2-3.2 0 1.8-1.4 3.2-3.2 3.2z"/><path class="st1" d="M1267 49.1c2.2 0 4.1 1.8 4.1 4.1 0-2.2 1.8-4.1 4.1-4.1-2.2 0-4.1-1.8-4.1-4.1-.1 2.3-1.9 4.1-4.1 4.1z"/><path class="st2" d="M1176.4 45c1.3 0 2.3 1.1 2.3 2.5 0-1.4 1-2.5 2.3-2.5-1.3 0-2.3-1.1-2.3-2.6 0 1.5-1 2.6-2.3 2.6z"/><path class="st0" d="M853.4 108.9c1.8 0 3.2 1.4 3.2 3.2 0-1.8 1.5-3.2 3.3-3.2-1.8 0-3.2-1.4-3.2-3.2 0 1.8-1.5 3.2-3.3 3.2z"/><path class="st4" d="M664.4 14.8c1.8 0 3.2 1.4 3.2 3.2 0-1.8 1.4-3.2 3.2-3.2-1.8 0-3.2-1.4-3.2-3.2 0 1.8-1.5 3.2-3.2 3.2z"/><path class="st1" d="M859.1 145.4c2.2 0 4.1 1.8 4.1 4.1 0-2.2 1.8-4.1 4.1-4.1-2.2 0-4.1-1.8-4.1-4.1-.1 2.3-1.9 4.1-4.1 4.1zM758 36.9c2.8 0 5.1 2.3 5.1 5.1 0-2.8 2.3-5.1 5.1-5.1-2.8 0-5.1-2.3-5.1-5.1-.1 2.9-2.3 5.1-5.1 5.1z"/><path class="st2" d="M676.7 57.5c1.3 0 2.3 1.1 2.3 2.5 0-1.4 1-2.5 2.3-2.5-1.3 0-2.3-1.1-2.3-2.6 0 1.5-1.1 2.6-2.3 2.6z"/><path class="st3" d="M654.4 101.3c1.4 0 2.5 1.2 2.5 2.6 0-1.4 1.1-2.6 2.5-2.6-1.4 0-2.5-1.1-2.5-2.6 0 1.5-1.1 2.6-2.5 2.6z"/><path class="st0" d="M913.6 96.2c1.8 0 3.2 1.4 3.2 3.2 0-1.8 1.5-3.2 3.3-3.2-1.8 0-3.2-1.4-3.2-3.2 0 1.8-1.5 3.2-3.3 3.2z"/><path class="st4" d="M999.4 56.5c1.8 0 3.2 1.4 3.2 3.2 0-1.8 1.4-3.2 3.2-3.2-1.8 0-3.2-1.4-3.2-3.2-.1 1.8-1.5 3.2-3.2 3.2z"/><path class="st1" d="M946 86.8c2.2 0 4.1 1.8 4.1 4.1 0-2.2 1.8-4.1 4.1-4.1-2.2 0-4.1-1.8-4.1-4.1 0 2.3-1.8 4.1-4.1 4.1zm46.6 14.4c2.2 0 4.1 1.8 4.1 4.1 0-2.2 1.8-4.1 4.1-4.1-2.2 0-4.1-1.8-4.1-4.1 0 2.3-1.8 4.1-4.1 4.1zm87.8 28.1c2.8 0 5.1 2.3 5.1 5.1 0-2.8 2.3-5.1 5.1-5.1-2.8 0-5.1-2.3-5.1-5.1 0 2.8-2.3 5.1-5.1 5.1z"/><path class="st2" d="M953.2 162.2c1.3 0 2.3 1.1 2.3 2.5 0-1.4 1-2.5 2.3-2.5-1.3 0-2.3-1.1-2.3-2.6 0 1.4-1 2.6-2.3 2.6z"/><path class="st3" d="M912 99.2c1.4 0 2.5 1.2 2.5 2.6 0-1.4 1.1-2.6 2.5-2.6-1.4 0-2.5-1.1-2.5-2.6.1 1.5-1.1 2.6-2.5 2.6z"/><path class="st1" d="M1239.3 167.6c2.2 0 4.1 1.8 4.1 4.1 0-2.2 1.8-4.1 4.1-4.1-2.2 0-4.1-1.8-4.1-4.1 0 2.3-1.8 4.1-4.1 4.1zM1126 97.3c2.8 0 5.1 2.3 5.1 5.1 0-2.8 2.3-5.1 5.1-5.1-2.8 0-5.1-2.3-5.1-5.1 0 2.9-2.3 5.1-5.1 5.1z"/><path class="st3" d="M1242.4 178.2c1.4 0 2.5 1.2 2.5 2.6 0-1.4 1.1-2.6 2.5-2.6-1.4 0-2.5-1.2-2.5-2.6 0 1.5-1.1 2.6-2.5 2.6z"/><path class="st0" d="M105.2 918.5c1.8 0 3.2 1.4 3.2 3.2 0-1.8 1.5-3.2 3.3-3.2-1.8 0-3.3-1.4-3.2-3.2-.1 1.8-1.6 3.2-3.3 3.2z"/><path class="st1" d="M47.7 1126.4c2.2 0 4.1 1.8 4.1 4.1 0-2.2 1.8-4.1 4.1-4.1-2.2 0-4.1-1.8-4.1-4.1-.1 2.3-1.9 4.1-4.1 4.1z"/><path class="st2" d="M58.8 1068.9c1.3 0 2.3 1.1 2.3 2.6 0-1.4 1-2.5 2.3-2.5-1.3 0-2.3-1.1-2.3-2.6 0 1.4-1.1 2.5-2.3 2.5z"/><path class="st3" d="M79 1069.5c1.4 0 2.5 1.2 2.5 2.6 0-1.4 1.1-2.6 2.5-2.6-1.4 0-2.5-1.2-2.5-2.6 0 1.5-1.1 2.6-2.5 2.6z"/><path class="st0" d="M205.6 1039c1.8 0 3.2 1.4 3.2 3.2 0-1.8 1.5-3.2 3.3-3.2-1.8 0-3.2-1.4-3.2-3.2 0 1.8-1.5 3.2-3.3 3.2z"/><path class="st4" d="M177.4 977.3c1.8 0 3.2 1.4 3.2 3.2 0-1.8 1.4-3.2 3.2-3.2-1.8 0-3.2-1.4-3.2-3.2 0 1.8-1.4 3.2-3.2 3.2z"/><path class="st1" d="M282.6 1077.3c2.2 0 4.1 1.8 4.1 4.1 0-2.2 1.8-4.1 4.1-4.1-2.2 0-4.1-1.8-4.1-4.1 0 2.3-1.8 4.1-4.1 4.1zm-44.2 17.5c2.2 0 4.1 1.8 4.1 4.1 0-2.2 1.8-4.1 4.1-4.1-2.2 0-4.1-1.8-4.1-4.1 0 2.3-1.8 4.1-4.1 4.1zm-45.5-166.2c2.8 0 5.1 2.3 5.1 5.1 0-2.8 2.3-5.1 5.1-5.1-2.8 0-5.1-2.3-5.1-5.1 0 2.8-2.3 5.1-5.1 5.1z"/><path class="st2" d="M169.4 1084.8c1.3 0 2.3 1.1 2.3 2.5 0-1.4 1-2.5 2.3-2.5-1.3 0-2.3-1.1-2.3-2.6 0 1.5-1 2.6-2.3 2.6z"/><path class="st3" d="M306.8 1119.4c1.4 0 2.5 1.2 2.5 2.6 0-1.4 1.1-2.6 2.5-2.6-1.4 0-2.5-1.1-2.5-2.6.1 1.4-1.1 2.6-2.5 2.6z"/><path class="st0" d="M440.9 1142.5c1.8 0 3.2 1.4 3.2 3.2 0-1.8 1.5-3.2 3.3-3.2-1.8 0-3.3-1.4-3.3-3.2.1 1.7-1.4 3.2-3.2 3.2z"/><path class="st4" d="M393.5 1030.9c1.8 0 3.2 1.4 3.2 3.2 0-1.8 1.4-3.2 3.2-3.2-1.8 0-3.2-1.4-3.2-3.2-.1 1.8-1.5 3.2-3.2 3.2z"/><path class="st1" d="M445.4 967.7c2.2 0 4.1 1.8 4.1 4.1 0-2.2 1.8-4.1 4.1-4.1-2.2 0-4.1-1.8-4.1-4.1 0 2.3-1.8 4.1-4.1 4.1zm-54.9 100.8c2.2 0 4.1 1.8 4.1 4.1 0-2.2 1.8-4.1 4.1-4.1-2.2 0-4.1-1.8-4.1-4.1 0 2.3-1.8 4.1-4.1 4.1zm87.1-33.2c2.8 0 5.1 2.3 5.1 5.1 0-2.8 2.3-5.1 5.1-5.1-2.8 0-5.1-2.3-5.1-5.1 0 2.8-2.3 5.1-5.1 5.1z"/><path class="st2" d="M484.2 973.1c1.3 0 2.3 1.1 2.3 2.5 0-1.4 1-2.5 2.3-2.5-1.3 0-2.3-1.1-2.3-2.6 0 1.4-1.1 2.6-2.3 2.6z"/><path class="st3" d="M557.8 1194.6c1.4 0 2.5 1.2 2.5 2.6 0-1.4 1.1-2.6 2.5-2.6-1.4 0-2.5-1.1-2.5-2.6.1 1.5-1.1 2.6-2.5 2.6z"/><path class="st1" d="M3.3 730.8c2.8 0 5.1 2.3 5.1 5.1 0-2.8 2.3-5.1 5.1-5.1-2.8 0-5.1-2.3-5.1-5.1 0 2.8-2.3 5.1-5.1 5.1z"/><path class="st2" d="M94.8 778.4c1.3 0 2.3 1.1 2.3 2.5 0-1.4 1-2.5 2.3-2.5-1.3 0-2.3-1.1-2.3-2.6 0 1.4-1.1 2.6-2.3 2.6z"/><path class="st0" d="M206.9 799c1.8 0 3.2 1.4 3.2 3.2 0-1.8 1.5-3.2 3.3-3.2-1.8 0-3.2-1.4-3.2-3.2-.1 1.8-1.6 3.2-3.3 3.2z"/><path class="st4" d="M349.5 960.4c1.8 0 3.2 1.4 3.2 3.2 0-1.8 1.4-3.2 3.2-3.2-1.8 0-3.2-1.4-3.2-3.2-.1 1.8-1.5 3.2-3.2 3.2z"/><path class="st1" d="M289.9 1021.3c2.2 0 4.1 1.8 4.1 4.1 0-2.2 1.8-4.1 4.1-4.1-2.2 0-4.1-1.8-4.1-4.1-.1 2.3-1.9 4.1-4.1 4.1zm-88.6-158.9c2.2 0 4.1 1.8 4.1 4.1 0-2.2 1.8-4.1 4.1-4.1-2.2 0-4.1-1.8-4.1-4.1 0 2.3-1.8 4.1-4.1 4.1zm-47.6-47.2c2.8 0 5.1 2.3 5.1 5.1 0-2.8 2.3-5.1 5.1-5.1-2.8 0-5.1-2.3-5.1-5.1-.1 2.8-2.3 5.1-5.1 5.1z"/><path class="st2" d="M155 846c1.3 0 2.3 1.1 2.3 2.5 0-1.4 1-2.5 2.3-2.5-1.3 0-2.3-1.1-2.3-2.6-.1 1.5-1.1 2.6-2.3 2.6z"/><path class="st3" d="M229.4 982.5c1.4 0 2.5 1.2 2.5 2.6 0-1.4 1.1-2.6 2.5-2.6-1.4 0-2.5-1.2-2.5-2.6.1 1.4-1.1 2.6-2.5 2.6z"/><path class="st0" d="M615.7 932.5c1.8 0 3.2 1.4 3.2 3.2 0-1.8 1.5-3.2 3.3-3.2-1.8 0-3.2-1.4-3.2-3.2 0 1.8-1.5 3.2-3.3 3.2z"/><path class="st4" d="M548.6 807.8c1.8 0 3.2 1.4 3.2 3.2 0-1.8 1.4-3.2 3.2-3.2-1.8 0-3.2-1.4-3.2-3.2-.1 1.8-1.5 3.2-3.2 3.2z"/><path class="st1" d="M419.7 984c2.2 0 4.1 1.8 4.1 4.1 0-2.2 1.8-4.1 4.1-4.1-2.2 0-4.1-1.8-4.1-4.1-.1 2.3-1.9 4.1-4.1 4.1zm92.7-19.3c2.2 0 4.1 1.8 4.1 4.1 0-2.2 1.8-4.1 4.1-4.1-2.2 0-4.1-1.8-4.1-4.1 0 2.3-1.8 4.1-4.1 4.1zm-25.3-42.3c2.8 0 5.1 2.3 5.1 5.1 0-2.8 2.3-5.1 5.1-5.1-2.8 0-5.1-2.3-5.1-5.1 0 2.8-2.3 5.1-5.1 5.1z"/><path class="st2" d="M371 1025.5c1.3 0 2.3 1.1 2.3 2.5 0-1.4 1-2.5 2.3-2.5-1.3 0-2.3-1.1-2.3-2.6 0 1.5-1 2.6-2.3 2.6z"/><path class="st4" d="M531.5 1169.8c1.8 0 3.2 1.4 3.2 3.2 0-1.8 1.4-3.2 3.2-3.2-1.8 0-3.2-1.4-3.2-3.2 0 1.8-1.4 3.2-3.2 3.2z"/><path class="st1" d="M457.3 1208.8c2.2 0 4.1 1.8 4.1 4.1 0-2.2 1.8-4.1 4.1-4.1-2.2 0-4.1-1.8-4.1-4.1 0 2.3-1.8 4.1-4.1 4.1zm58.7 22.3c2.8 0 5.1 2.3 5.1 5.1 0-2.8 2.3-5.1 5.1-5.1-2.8 0-5.1-2.3-5.1-5.1-.1 2.8-2.3 5.1-5.1 5.1z"/><path class="st0" d="M317.2 1235.7c1.8 0 3.2 1.4 3.2 3.2 0-1.8 1.5-3.2 3.3-3.2-1.8 0-3.2-1.4-3.2-3.2-.1 1.7-1.5 3.2-3.3 3.2z"/><path class="st4" d="M262.2 1193c1.8 0 3.2 1.4 3.2 3.2 0-1.8 1.4-3.2 3.2-3.2-1.8 0-3.2-1.4-3.2-3.2 0 1.8-1.4 3.2-3.2 3.2z"/><path class="st1" d="M314.1 1231.4c2.2 0 4.1 1.8 4.1 4.1 0-2.2 1.8-4.1 4.1-4.1-2.2 0-4.1-1.8-4.1-4.1-.1 2.3-1.9 4.1-4.1 4.1zm-33.6-135.5c2.2 0 4.1 1.8 4.1 4.1 0-2.2 1.8-4.1 4.1-4.1-2.2 0-4.1-1.8-4.1-4.1 0 2.2-1.9 4.1-4.1 4.1zm17.1 59.1c2.8 0 5.1 2.3 5.1 5.1 0-2.8 2.3-5.1 5.1-5.1-2.8 0-5.1-2.3-5.1-5.1 0 2.8-2.3 5.1-5.1 5.1z"/><path class="st2" d="M266.2 1139.3c1.3 0 2.3 1.1 2.3 2.6 0-1.4 1-2.5 2.3-2.5-1.3 0-2.3-1.1-2.3-2.6 0 1.4-1 2.5-2.3 2.5z"/><path class="st3" d="M156.2 1169.8c1.4 0 2.5 1.2 2.5 2.6 0-1.4 1.1-2.6 2.5-2.6-1.4 0-2.5-1.1-2.5-2.6 0 1.5-1.1 2.6-2.5 2.6z"/><path class="st0" d="M484.1 1088.3c1.8 0 3.2 1.4 3.2 3.2 0-1.8 1.5-3.2 3.3-3.2-1.8 0-3.2-1.4-3.2-3.2 0 1.7-1.5 3.2-3.3 3.2z"/><path class="st4" d="M496.8 1201.2c1.8 0 3.2 1.4 3.2 3.2 0-1.8 1.4-3.2 3.2-3.2-1.8 0-3.2-1.4-3.2-3.2 0 1.8-1.4 3.2-3.2 3.2z"/><path class="st1" d="M413.7 1150.1c2.2 0 4.1 1.8 4.1 4.1 0-2.2 1.8-4.1 4.1-4.1-2.2 0-4.1-1.8-4.1-4.1 0 2.3-1.8 4.1-4.1 4.1zm126.7 86.9c2.2 0 4.1 1.8 4.1 4.1 0-2.2 1.8-4.1 4.1-4.1-2.2 0-4.1-1.8-4.1-4.1 0 2.3-1.8 4.1-4.1 4.1zm38.8-182.9c2.8 0 5.1 2.3 5.1 5.1 0-2.8 2.3-5.1 5.1-5.1-2.8 0-5.1-2.3-5.1-5.1 0 2.8-2.3 5.1-5.1 5.1z"/><path class="st2" d="M336.7 1244.5c1.3 0 2.3 1.1 2.3 2.5 0-1.4 1-2.5 2.3-2.5-1.3 0-2.3-1.1-2.3-2.6 0 1.5-1 2.6-2.3 2.6z"/><path class="st3" d="M349.1 1048.6c1.4 0 2.5 1.2 2.5 2.6 0-1.4 1.1-2.6 2.5-2.6-1.4 0-2.5-1.1-2.5-2.6 0 1.5-1.1 2.6-2.5 2.6z"/><path class="st0" d="M31 741.3c1.8 0 3.2 1.4 3.2 3.2 0-1.8 1.5-3.2 3.3-3.2-1.8 0-3.3-1.4-3.2-3.2 0 1.7-1.5 3.2-3.3 3.2z"/><path class="st3" d="M29.8 790.3c1.4 0 2.5 1.2 2.5 2.6 0-1.4 1.1-2.6 2.5-2.6-1.4 0-2.5-1.1-2.5-2.6 0 1.5-1.1 2.6-2.5 2.6z"/><path class="st4" d="M186.7 709.9c1.8 0 3.2 1.4 3.2 3.2 0-1.8 1.4-3.2 3.2-3.2-1.8 0-3.2-1.4-3.2-3.2 0 1.8-1.4 3.2-3.2 3.2z"/><path class="st1" d="M320.7 807c2.2 0 4.1 1.8 4.1 4.1 0-2.2 1.8-4.1 4.1-4.1-2.2 0-4.1-1.8-4.1-4.1 0 2.3-1.8 4.1-4.1 4.1zm-144-123.8c2.8 0 5.1 2.3 5.1 5.1 0-2.8 2.3-5.1 5.1-5.1-2.8 0-5.1-2.3-5.1-5.1 0 2.8-2.3 5.1-5.1 5.1z"/><path class="st2" d="M47.2 766.2c1.3 0 2.3 1.1 2.3 2.5 0-1.4 1-2.5 2.3-2.5-1.3 0-2.3-1.1-2.3-2.6 0 1.4-1.1 2.6-2.3 2.6z"/><path class="st3" d="M241.7 725.9c1.4 0 2.5 1.2 2.5 2.6 0-1.4 1.1-2.6 2.5-2.6-1.4 0-2.5-1.1-2.5-2.6 0 1.4-1.1 2.6-2.5 2.6z"/><path class="st0" d="M399.5 789.3c1.8 0 3.2 1.4 3.2 3.2 0-1.8 1.5-3.2 3.3-3.2-1.8 0-3.2-1.4-3.2-3.2 0 1.8-1.5 3.2-3.3 3.2z"/><path class="st4" d="M462.6 766.8c1.8 0 3.2 1.4 3.2 3.2 0-1.8 1.4-3.2 3.2-3.2-1.8 0-3.2-1.4-3.2-3.2-.1 1.8-1.5 3.2-3.2 3.2z"/><path class="st1" d="M613.4 717.4c2.2 0 4.1 1.8 4.1 4.1 0-2.2 1.8-4.1 4.1-4.1-2.2 0-4.1-1.8-4.1-4.1-.1 2.3-1.9 4.1-4.1 4.1zm-81.2 2.5c2.2 0 4.1 1.8 4.1 4.1 0-2.2 1.8-4.1 4.1-4.1-2.2 0-4.1-1.8-4.1-4.1-.1 2.3-1.9 4.1-4.1 4.1zm-42.5 85.6c2.8 0 5.1 2.3 5.1 5.1 0-2.8 2.3-5.1 5.1-5.1-2.8 0-5.1-2.3-5.1-5.1-.1 2.8-2.3 5.1-5.1 5.1z"/><path class="st2" d="M458.5 788.1c1.3 0 2.3 1.1 2.3 2.5 0-1.4 1-2.5 2.3-2.5-1.3 0-2.3-1.1-2.3-2.6 0 1.5-1 2.6-2.3 2.6z"/><path class="st3" d="M508 647.9c1.4 0 2.5 1.2 2.5 2.6 0-1.4 1.1-2.6 2.5-2.6-1.4 0-2.5-1.1-2.5-2.6.1 1.5-1.1 2.6-2.5 2.6z"/><path class="st0" d="M35 878.8c1.8 0 3.2 1.4 3.2 3.2 0-1.8 1.5-3.2 3.3-3.2-1.8 0-3.2-1.4-3.2-3.2-.1 1.8-1.6 3.2-3.3 3.2z"/><path class="st1" d="M2.4 894.3c2.2 0 4.1 1.8 4.1 4.1 0-2.2 1.8-4.1 4.1-4.1-2.2 0-4.1-1.8-4.1-4.1 0 2.2-1.9 4.1-4.1 4.1z"/><path class="st2" d="M14.4 667.2c1.3 0 2.3 1.1 2.3 2.5 0-1.4 1-2.5 2.3-2.5-1.3 0-2.3-1.1-2.3-2.6-.1 1.4-1.1 2.6-2.3 2.6z"/><path class="st0" d="M309.7 676.9c1.8 0 3.3 1.4 3.2 3.2 0-1.8 1.5-3.2 3.2-3.2-1.8 0-3.2-1.4-3.2-3.2 0 1.8-1.4 3.3-3.2 3.2z"/><path class="st4" d="M167.2 705.4c1.8 0 3.2 1.4 3.2 3.2 0-1.8 1.4-3.2 3.2-3.2-1.8 0-3.2-1.4-3.2-3.2-.1 1.8-1.5 3.2-3.2 3.2z"/><path class="st1" d="M251.9 737c2.2 0 4.1 1.8 4.1 4.1 0-2.2 1.8-4.1 4.1-4.1-2.2 0-4.1-1.8-4.1-4.1-.1 2.3-1.9 4.1-4.1 4.1zm59.5 5.2c2.2 0 4.1 1.8 4.1 4.1 0-2.2 1.8-4.1 4.1-4.1-2.2 0-4.1-1.8-4.1-4.1 0 2.3-1.9 4.1-4.1 4.1zm-201.1 129c2.8 0 5.1 2.3 5.1 5.1 0-2.8 2.3-5.1 5.1-5.1-2.8 0-5.1-2.3-5.1-5.1 0 2.8-2.3 5.1-5.1 5.1z"/><path class="st2" d="M254.8 718.2c1.3 0 2.3 1.1 2.3 2.5 0-1.4 1-2.5 2.3-2.5-1.3 0-2.3-1.1-2.3-2.6 0 1.4-1.1 2.6-2.3 2.6z"/><path class="st3" d="M271.5 705.5c1.4 0 2.5 1.2 2.5 2.6 0-1.4 1.1-2.6 2.5-2.6-1.4 0-2.5-1.1-2.5-2.6.1 1.4-1 2.6-2.5 2.6z"/><path class="st0" d="M440.1 708.3c1.8 0 3.2 1.4 3.2 3.2 0-1.8 1.5-3.2 3.3-3.2-1.8 0-3.2-1.4-3.2-3.2 0 1.7-1.5 3.2-3.3 3.2z"/><path class="st4" d="M313.7 665.2c1.8 0 3.2 1.4 3.2 3.2 0-1.8 1.4-3.2 3.2-3.2-1.8 0-3.2-1.4-3.2-3.2 0 1.8-1.4 3.2-3.2 3.2z"/><path class="st1" d="M486.3 735.4c2.2 0 4.1 1.8 4.1 4.1 0-2.2 1.8-4.1 4.1-4.1-2.2 0-4.1-1.8-4.1-4.1 0 2.3-1.8 4.1-4.1 4.1zm112.6-69.3c2.2 0 4.1 1.8 4.1 4.1 0-2.2 1.8-4.1 4.1-4.1-2.2 0-4.1-1.8-4.1-4.1 0 2.3-1.8 4.1-4.1 4.1zm-90.5-12.3c2.8 0 5.1 2.3 5.1 5.1 0-2.8 2.3-5.1 5.1-5.1-2.8 0-5.1-2.3-5.1-5.1 0 2.8-2.3 5.1-5.1 5.1z"/><path class="st2" d="M455 707.1c1.3 0 2.3 1.1 2.3 2.5 0-1.4 1-2.5 2.3-2.5-1.3 0-2.3-1.1-2.3-2.6 0 1.5-1 2.6-2.3 2.6z"/><path class="st3" d="M530.1 667c1.4 0 2.5 1.2 2.5 2.6 0-1.4 1.1-2.6 2.5-2.6-1.4 0-2.5-1.1-2.5-2.6 0 1.5-1.1 2.6-2.5 2.6z"/><path class="st0" d="M814.9 939.4c1.8 0 3.2 1.4 3.2 3.2 0-1.8 1.5-3.2 3.3-3.2-1.8 0-3.2-1.4-3.2-3.2-.1 1.8-1.5 3.2-3.3 3.2z"/><path class="st4" d="M840.5 1058.5c1.8 0 3.2 1.4 3.2 3.2 0-1.8 1.4-3.2 3.2-3.2-1.8 0-3.2-1.4-3.2-3.2-.1 1.8-1.5 3.2-3.2 3.2z"/><path class="st1" d="M840.1 1023.6c2.2 0 4.1 1.8 4.1 4.1 0-2.2 1.8-4.1 4.1-4.1-2.2 0-4.1-1.8-4.1-4.1 0 2.3-1.9 4.1-4.1 4.1zm-186.7-21.7c2.2 0 4.1 1.8 4.1 4.1 0-2.2 1.8-4.1 4.1-4.1-2.2 0-4.1-1.8-4.1-4.1 0 2.2-1.8 4.1-4.1 4.1zm95.7 78.4c2.8 0 5.1 2.3 5.1 5.1 0-2.8 2.3-5.1 5.1-5.1-2.8 0-5.1-2.3-5.1-5.1-.1 2.8-2.3 5.1-5.1 5.1z"/><path class="st2" d="M650.5 923.7c1.3 0 2.3 1.1 2.3 2.5 0-1.4 1-2.5 2.3-2.5-1.3 0-2.3-1.1-2.3-2.6 0 1.5-1.1 2.6-2.3 2.6z"/><path class="st3" d="M706.9 1062.5c1.4 0 2.5 1.2 2.5 2.6 0-1.4 1.1-2.6 2.5-2.6-1.4 0-2.5-1.2-2.5-2.6 0 1.5-1.1 2.6-2.5 2.6z"/><path class="st0" d="M1044.4 997.5c1.8 0 3.2 1.4 3.2 3.2 0-1.8 1.5-3.2 3.3-3.2-1.8 0-3.2-1.4-3.2-3.2-.1 1.7-1.5 3.2-3.3 3.2z"/><path class="st4" d="M966.7 1116.5c1.8 0 3.2 1.4 3.2 3.2 0-1.8 1.4-3.2 3.2-3.2-1.8 0-3.2-1.4-3.2-3.2 0 1.8-1.5 3.2-3.2 3.2z"/><path class="st1" d="M1093.5 1026.9c2.2 0 4.1 1.8 4.1 4.1 0-2.2 1.8-4.1 4.1-4.1-2.2 0-4.1-1.8-4.1-4.1 0 2.3-1.8 4.1-4.1 4.1zm-179.3 14.6c2.2 0 4.1 1.8 4.1 4.1 0-2.2 1.8-4.1 4.1-4.1-2.2 0-4.1-1.8-4.1-4.1-.1 2.3-1.9 4.1-4.1 4.1zm59-130.2c2.8 0 5.1 2.3 5.1 5.1 0-2.8 2.3-5.1 5.1-5.1-2.8 0-5.1-2.3-5.1-5.1 0 2.9-2.3 5.1-5.1 5.1z"/><path class="st2" d="M1080.1 985.3c1.3 0 2.3 1.1 2.3 2.5 0-1.4 1-2.5 2.3-2.5-1.3 0-2.3-1.1-2.3-2.6-.1 1.4-1.1 2.6-2.3 2.6z"/><path class="st3" d="M995.1 1108.1c1.4 0 2.5 1.2 2.5 2.6 0-1.4 1.1-2.6 2.5-2.6-1.4 0-2.5-1.1-2.5-2.6 0 1.4-1.1 2.6-2.5 2.6z"/><path class="st4" d="M1161.2 1089.2c1.8 0 3.2 1.4 3.2 3.2 0-1.8 1.4-3.2 3.2-3.2-1.8 0-3.2-1.4-3.2-3.2 0 1.7-1.4 3.2-3.2 3.2z"/><path class="st1" d="M1243.8 951.1c2.2 0 4.1 1.8 4.1 4.1 0-2.2 1.8-4.1 4.1-4.1-2.2 0-4.1-1.8-4.1-4.1-.1 2.3-1.9 4.1-4.1 4.1zm4 198.4c2.8 0 5.1 2.3 5.1 5.1 0-2.8 2.3-5.1 5.1-5.1-2.8 0-5.1-2.3-5.1-5.1 0 2.9-2.3 5.1-5.1 5.1z"/><path class="st0" d="M770.4 980.4c1.8 0 3.2 1.4 3.2 3.2 0-1.8 1.5-3.2 3.3-3.2-1.8 0-3.2-1.4-3.2-3.2 0 1.8-1.5 3.2-3.3 3.2z"/><path class="st4" d="M825 856.6c1.8 0 3.2 1.4 3.2 3.2 0-1.8 1.4-3.2 3.2-3.2-1.8 0-3.2-1.4-3.2-3.2 0 1.8-1.4 3.2-3.2 3.2z"/><path class="st1" d="M714.9 912.7c2.2 0 4.1 1.8 4.1 4.1 0-2.2 1.8-4.1 4.1-4.1-2.2 0-4.1-1.8-4.1-4.1 0 2.3-1.8 4.1-4.1 4.1zm63.8 35c2.2 0 4.1 1.8 4.1 4.1 0-2.2 1.8-4.1 4.1-4.1-2.2 0-4.1-1.8-4.1-4.1-.1 2.3-1.9 4.1-4.1 4.1zM625.1 793.1c2.8 0 5.1 2.3 5.1 5.1 0-2.8 2.3-5.1 5.1-5.1-2.8 0-5.1-2.3-5.1-5.1 0 2.9-2.3 5.1-5.1 5.1z"/><path class="st3" d="M844.6 892.4c1.4 0 2.5 1.2 2.5 2.6 0-1.4 1.1-2.6 2.5-2.6-1.4 0-2.5-1.1-2.5-2.6 0 1.5-1.1 2.6-2.5 2.6z"/><path class="st0" d="M1067.8 920c1.8 0 3.2 1.4 3.2 3.2 0-1.8 1.5-3.2 3.3-3.2-1.8 0-3.2-1.4-3.2-3.2 0 1.7-1.5 3.2-3.3 3.2z"/><path class="st4" d="M891.9 918.8c1.8 0 3.2 1.4 3.2 3.2 0-1.8 1.4-3.2 3.2-3.2-1.8 0-3.2-1.4-3.2-3.2 0 1.8-1.4 3.2-3.2 3.2z"/><path class="st1" d="M1127.1 747.8c2.2 0 4.1 1.8 4.1 4.1 0-2.2 1.8-4.1 4.1-4.1-2.2 0-4.1-1.8-4.1-4.1 0 2.3-1.9 4.1-4.1 4.1zm-32.8 148.9c2.2 0 4.1 1.8 4.1 4.1 0-2.2 1.8-4.1 4.1-4.1-2.2 0-4.1-1.8-4.1-4.1 0 2.2-1.8 4.1-4.1 4.1zM915.4 756.3c2.8 0 5.1 2.3 5.1 5.1 0-2.8 2.3-5.1 5.1-5.1-2.8 0-5.1-2.3-5.1-5.1 0 2.8-2.3 5.1-5.1 5.1z"/><path class="st2" d="M988.8 884.8c1.3 0 2.3 1.1 2.3 2.5 0-1.4 1-2.5 2.3-2.5-1.3 0-2.3-1.1-2.3-2.6 0 1.5-1 2.6-2.3 2.6z"/><path class="st3" d="M1124.8 828.5c1.4 0 2.5 1.2 2.5 2.6 0-1.4 1.1-2.6 2.5-2.6-1.4 0-2.5-1.2-2.5-2.6 0 1.4-1.1 2.6-2.5 2.6z"/><path class="st4" d="M1162.2 858.6c1.8 0 3.2 1.4 3.2 3.2 0-1.8 1.4-3.2 3.2-3.2-1.8 0-3.2-1.4-3.2-3.2 0 1.8-1.4 3.2-3.2 3.2z"/><path class="st1" d="M1133.7 905.6c2.2 0 4.1 1.8 4.1 4.1 0-2.2 1.8-4.1 4.1-4.1-2.2 0-4.1-1.8-4.1-4.1-.1 2.3-1.9 4.1-4.1 4.1zm21.2-47.1c2.2 0 4.1 1.8 4.1 4.1 0-2.2 1.8-4.1 4.1-4.1-2.2 0-4.1-1.8-4.1-4.1-.1 2.3-1.9 4.1-4.1 4.1zm96.4-108.7c2.8 0 5.1 2.3 5.1 5.1 0-2.8 2.3-5.1 5.1-5.1-2.8 0-5.1-2.3-5.1-5.1 0 2.8-2.3 5.1-5.1 5.1z"/><path class="st3" d="M1198.2 849c1.4 0 2.5 1.2 2.5 2.6 0-1.4 1.1-2.6 2.5-2.6-1.4 0-2.5-1.1-2.5-2.6 0 1.5-1.1 2.6-2.5 2.6z"/><path class="st4" d="M702.4 1273.1c1.8 0 3.2 1.4 3.2 3.2 0-1.8 1.4-3.2 3.2-3.2-1.8 0-3.2-1.4-3.2-3.2 0 1.8-1.4 3.2-3.2 3.2z"/><path class="st2" d="M653.1 1240.2c1.3 0 2.3 1.1 2.3 2.5 0-1.4 1-2.5 2.3-2.5-1.3 0-2.3-1.1-2.3-2.6 0 1.5-1 2.6-2.3 2.6z"/><path class="st1" d="M992.7 1262.5c2.2 0 4.1 1.8 4.1 4.1 0-2.2 1.8-4.1 4.1-4.1-2.2 0-4.1-1.8-4.1-4.1-.1 2.3-1.9 4.1-4.1 4.1zm24.7-4.2c2.2 0 4.1 1.8 4.1 4.1 0-2.2 1.8-4.1 4.1-4.1-2.2 0-4.1-1.8-4.1-4.1 0 2.2-1.8 4.1-4.1 4.1zm-15-7.6c2.8 0 5.1 2.3 5.1 5.1 0-2.8 2.3-5.1 5.1-5.1-2.8 0-5.1-2.3-5.1-5.1 0 2.8-2.3 5.1-5.1 5.1z"/><path class="st0" d="M744.7 1077.3c1.8 0 3.2 1.4 3.2 3.2 0-1.8 1.5-3.2 3.3-3.2-1.8 0-3.2-1.4-3.2-3.2 0 1.8-1.5 3.2-3.3 3.2z"/><path class="st4" d="M623.6 1236.9c1.8 0 3.2 1.4 3.2 3.2 0-1.8 1.4-3.2 3.2-3.2-1.8 0-3.2-1.4-3.2-3.2 0 1.8-1.4 3.2-3.2 3.2z"/><path class="st1" d="M775.4 1209.6c2.2 0 4.1 1.8 4.1 4.1 0-2.2 1.8-4.1 4.1-4.1-2.2 0-4.1-1.8-4.1-4.1-.1 2.3-1.9 4.1-4.1 4.1zm-26.7-74.7c2.2 0 4.1 1.8 4.1 4.1 0-2.2 1.8-4.1 4.1-4.1-2.2 0-4.1-1.8-4.1-4.1 0 2.3-1.8 4.1-4.1 4.1zm3.4-29.6c2.8 0 5.1 2.3 5.1 5.1 0-2.8 2.3-5.1 5.1-5.1-2.8 0-5.1-2.3-5.1-5.1 0 2.8-2.3 5.1-5.1 5.1z"/><path class="st2" d="M571.7 1078.9c1.3 0 2.3 1.1 2.3 2.6 0-1.4 1-2.5 2.3-2.5-1.3 0-2.3-1.1-2.3-2.6 0 1.4-1.1 2.5-2.3 2.5z"/><path class="st3" d="M638.4 1159.8c1.4 0 2.5 1.2 2.5 2.6 0-1.4 1.1-2.6 2.5-2.6-1.4 0-2.5-1.1-2.5-2.6 0 1.4-1.1 2.6-2.5 2.6z"/><path class="st0" d="M989.5 1184.7c1.8 0 3.2 1.4 3.2 3.2 0-1.8 1.5-3.2 3.3-3.2-1.8 0-3.2-1.4-3.2-3.2 0 1.7-1.5 3.2-3.3 3.2z"/><path class="st4" d="M994.9 1089.7c1.8 0 3.2 1.4 3.2 3.2 0-1.8 1.4-3.2 3.2-3.2-1.8 0-3.2-1.4-3.2-3.2 0 1.8-1.4 3.2-3.2 3.2z"/><path class="st1" d="M1105.9 1141.5c2.2 0 4.1 1.8 4.1 4.1 0-2.2 1.8-4.1 4.1-4.1-2.2 0-4.1-1.8-4.1-4.1 0 2.2-1.9 4.1-4.1 4.1zm-143.7-6.3c2.2 0 4.1 1.8 4.1 4.1 0-2.2 1.8-4.1 4.1-4.1-2.2 0-4.1-1.8-4.1-4.1-.1 2.3-1.9 4.1-4.1 4.1zm-91.9-4.7c2.8 0 5.1 2.3 5.1 5.1 0-2.8 2.3-5.1 5.1-5.1-2.8 0-5.1-2.3-5.1-5.1-.1 2.8-2.3 5.1-5.1 5.1z"/><path class="st2" d="M893.1 1102.3c1.3 0 2.3 1.1 2.3 2.6 0-1.4 1-2.6 2.3-2.5-1.3 0-2.3-1.1-2.3-2.6 0 1.4-1.1 2.5-2.3 2.5z"/><path class="st3" d="M1092.7 1254.1c1.4 0 2.5 1.2 2.5 2.6 0-1.4 1.1-2.6 2.5-2.6-1.4 0-2.5-1.1-2.5-2.6.1 1.5-1.1 2.6-2.5 2.6z"/><path class="st0" d="M1221.5 1148c1.8 0 3.2 1.4 3.2 3.2 0-1.8 1.5-3.2 3.3-3.2-1.8 0-3.3-1.4-3.2-3.2-.1 1.8-1.5 3.2-3.3 3.2z"/><path class="st4" d="M1207.9 1269.9c1.8 0 3.2 1.4 3.2 3.2 0-1.8 1.4-3.2 3.2-3.2-1.8 0-3.2-1.4-3.2-3.2 0 1.8-1.4 3.2-3.2 3.2z"/><path class="st1" d="M1120 1044.6c2.2 0 4.1 1.8 4.1 4.1 0-2.2 1.8-4.1 4.1-4.1-2.2 0-4.1-1.8-4.1-4.1-.1 2.2-1.9 4.1-4.1 4.1zm28.4 20.9c2.2 0 4.1 1.8 4.1 4.1 0-2.2 1.8-4.1 4.1-4.1-2.2 0-4.1-1.8-4.1-4.1 0 2.3-1.9 4.1-4.1 4.1zm-38.1 181.4c2.8 0 5.1 2.3 5.1 5.1 0-2.8 2.3-5.1 5.1-5.1-2.8 0-5.1-2.3-5.1-5.1 0 2.8-2.3 5.1-5.1 5.1z"/><path class="st2" d="M1151.6 1232.8c1.3 0 2.3 1.1 2.3 2.5 0-1.4 1-2.5 2.3-2.5-1.3 0-2.3-1.1-2.3-2.6 0 1.5-1 2.6-2.3 2.6z"/><path class="st3" d="M1247.2 1144.9c1.4 0 2.5 1.2 2.5 2.6 0-1.4 1.1-2.6 2.5-2.6-1.4 0-2.5-1.1-2.5-2.6.1 1.4-1.1 2.6-2.5 2.6z"/><path class="st0" d="M733 714.2c1.8 0 3.2 1.4 3.2 3.2 0-1.8 1.5-3.2 3.3-3.2-1.8 0-3.2-1.4-3.2-3.2-.1 1.7-1.5 3.2-3.3 3.2z"/><path class="st4" d="M782.7 677.2c1.8 0 3.2 1.4 3.2 3.2 0-1.8 1.4-3.2 3.2-3.2-1.8 0-3.2-1.4-3.2-3.2 0 1.8-1.4 3.2-3.2 3.2z"/><path class="st1" d="M854.9 716.8c2.2 0 4.1 1.8 4.1 4.1 0-2.2 1.8-4.1 4.1-4.1-2.2 0-4.1-1.8-4.1-4.1 0 2.2-1.9 4.1-4.1 4.1zm-234.3 63.3c2.2 0 4.1 1.8 4.1 4.1 0-2.2 1.8-4.1 4.1-4.1-2.2 0-4.1-1.8-4.1-4.1-.1 2.2-1.9 4.1-4.1 4.1z"/><path class="st3" d="M848.6 628.2c1.4 0 2.5 1.2 2.5 2.6 0-1.4 1.1-2.6 2.5-2.6-1.4 0-2.5-1.2-2.5-2.6 0 1.4-1.1 2.6-2.5 2.6z"/><path class="st0" d="M948.5 747.7c1.8 0 3.2 1.4 3.2 3.2 0-1.8 1.5-3.2 3.3-3.2-1.8 0-3.2-1.4-3.2-3.2 0 1.7-1.5 3.2-3.3 3.2z"/><path class="st4" d="M1104.6 725.7c1.8 0 3.2 1.4 3.2 3.2 0-1.8 1.4-3.2 3.2-3.2-1.8 0-3.2-1.4-3.2-3.2 0 1.8-1.4 3.2-3.2 3.2z"/><path class="st1" d="M1072.4 706.8c2.2 0 4.1 1.8 4.1 4.1 0-2.2 1.8-4.1 4.1-4.1-2.2 0-4.1-1.8-4.1-4.1 0 2.3-1.9 4.1-4.1 4.1zm-22.3-18.9c2.2 0 4.1 1.8 4.1 4.1 0-2.2 1.8-4.1 4.1-4.1-2.2 0-4.1-1.8-4.1-4.1 0 2.3-1.8 4.1-4.1 4.1zM857.6 616c2.8 0 5.1 2.3 5.1 5.1 0-2.8 2.3-5.1 5.1-5.1-2.8 0-5.1-2.3-5.1-5.1 0 2.8-2.3 5.1-5.1 5.1z"/><path class="st2" d="M1044.9 797.2c1.3 0 2.3 1.1 2.3 2.5 0-1.4 1-2.5 2.3-2.5-1.3 0-2.3-1.1-2.3-2.6 0 1.5-1 2.6-2.3 2.6z"/><path class="st3" d="M986.6 636.1c1.4 0 2.5 1.2 2.5 2.6 0-1.4 1.1-2.6 2.5-2.6-1.4 0-2.5-1.2-2.5-2.6 0 1.4-1.1 2.6-2.5 2.6z"/><path class="st4" d="M1236.1 757.2c1.8 0 3.2 1.4 3.2 3.2 0-1.8 1.4-3.2 3.2-3.2-1.8 0-3.2-1.4-3.2-3.2-.1 1.8-1.5 3.2-3.2 3.2z"/><path class="st1" d="M1268.3 785.2c2.2 0 4.1 1.8 4.1 4.1 0-2.2 1.8-4.1 4.1-4.1-2.2 0-4.1-1.8-4.1-4.1 0 2.3-1.8 4.1-4.1 4.1zm-120.6-170.4c2.2 0 4.1 1.8 4.1 4.1 0-2.2 1.8-4.1 4.1-4.1-2.2 0-4.1-1.8-4.1-4.1 0 2.3-1.9 4.1-4.1 4.1z"/><path class="st2" d="M1197.7 802.5c1.3 0 2.3 1.1 2.3 2.5 0-1.4 1-2.5 2.3-2.5-1.3 0-2.3-1.1-2.3-2.6 0 1.5-1.1 2.6-2.3 2.6z"/><path class="st0" d="M896.1 763.5c1.8 0 3.2 1.4 3.2 3.2 0-1.8 1.5-3.2 3.3-3.2-1.8 0-3.2-1.4-3.2-3.2 0 1.8-1.5 3.2-3.3 3.2z"/><path class="st4" d="M663.9 753.5c1.8 0 3.2 1.4 3.2 3.2 0-1.8 1.4-3.2 3.2-3.2-1.8 0-3.2-1.4-3.2-3.2 0 1.8-1.4 3.2-3.2 3.2z"/><path class="st1" d="M910.9 860.4c2.2 0 4.1 1.8 4.1 4.1 0-2.2 1.8-4.1 4.1-4.1-2.2 0-4.1-1.8-4.1-4.1 0 2.3-1.8 4.1-4.1 4.1zm-138.7-90.7c2.2 0 4.1 1.8 4.1 4.1 0-2.2 1.8-4.1 4.1-4.1-2.2 0-4.1-1.8-4.1-4.1-.1 2.3-1.9 4.1-4.1 4.1zm-81.3-4c2.8 0 5.1 2.3 5.1 5.1 0-2.8 2.3-5.1 5.1-5.1-2.8 0-5.1-2.3-5.1-5.1-.1 2.8-2.3 5.1-5.1 5.1z"/><path class="st2" d="M715.7 799.4c1.3 0 2.3 1.1 2.3 2.5 0-1.4 1-2.5 2.3-2.5-1.3 0-2.3-1.1-2.3-2.6 0 1.4-1.1 2.6-2.3 2.6z"/><path class="st3" d="M650.5 884.7c1.4 0 2.5 1.2 2.5 2.6 0-1.4 1.1-2.6 2.5-2.6-1.4 0-2.5-1.1-2.5-2.6 0 1.4-1.1 2.6-2.5 2.6z"/><path class="st0" d="M978.7 884.7c1.8 0 3.2 1.4 3.2 3.2 0-1.8 1.5-3.2 3.3-3.2-1.8 0-3.2-1.4-3.2-3.2 0 1.8-1.5 3.2-3.3 3.2z"/><path class="st4" d="M1012.7 749.9c1.8 0 3.2 1.4 3.2 3.2 0-1.8 1.4-3.2 3.2-3.2-1.8 0-3.2-1.4-3.2-3.2-.1 1.8-1.5 3.2-3.2 3.2z"/><path class="st1" d="M937.1 809.8c2.2 0 4.1 1.8 4.1 4.1 0-2.2 1.8-4.1 4.1-4.1-2.2 0-4.1-1.8-4.1-4.1-.1 2.3-1.9 4.1-4.1 4.1zm-13.8-45.1c2.2 0 4.1 1.8 4.1 4.1 0-2.2 1.8-4.1 4.1-4.1-2.2 0-4.1-1.8-4.1-4.1 0 2.3-1.8 4.1-4.1 4.1zm149.4 108c2.8 0 5.1 2.3 5.1 5.1 0-2.8 2.3-5.1 5.1-5.1-2.8 0-5.1-2.3-5.1-5.1 0 2.8-2.3 5.1-5.1 5.1z"/><path class="st2" d="M1034.4 912.6c1.3 0 2.3 1.1 2.3 2.5 0-1.4 1-2.5 2.3-2.5-1.3 0-2.3-1.1-2.3-2.6 0 1.5-1 2.6-2.3 2.6z"/><path class="st3" d="M974.4 805.4c1.4 0 2.5 1.2 2.5 2.6 0-1.4 1.1-2.6 2.5-2.6-1.4 0-2.5-1.1-2.5-2.6 0 1.4-1.1 2.6-2.5 2.6z"/><path class="st0" d="M1270.8 867c1.8 0 3.2 1.4 3.2 3.2 0-1.8 1.5-3.2 3.3-3.2-1.8 0-3.2-1.4-3.2-3.2-.1 1.7-1.6 3.2-3.3 3.2z"/><path class="st4" d="M1228.8 726.6c1.8 0 3.2 1.4 3.2 3.2 0-1.8 1.4-3.2 3.2-3.2-1.8 0-3.2-1.4-3.2-3.2 0 1.8-1.5 3.2-3.2 3.2z"/><path class="st1" d="M1148.9 776.6c2.8 0 5.1 2.3 5.1 5.1 0-2.8 2.3-5.1 5.1-5.1-2.8 0-5.1-2.3-5.1-5.1 0 2.9-2.3 5.1-5.1 5.1z"/><path class="st3" d="M1248.4 915.3c1.4 0 2.5 1.2 2.5 2.6 0-1.4 1.1-2.6 2.5-2.6-1.4 0-2.5-1.2-2.5-2.6 0 1.5-1.1 2.6-2.5 2.6z"/></svg>