<svg id="New_Symbol" xmlns="http://www.w3.org/2000/svg" viewBox="0 0 295.4 119.7"><style>.st0{fill:#fff}</style><path class="st0" d="M157.4 22c-4.3-2.8-8-5-11.7-6.7s-7.3-2.8-11.1-3.3c.2-3.6 1-6.7 3.1-11.2.3-.8.1-.8-.8-.6-3 .8-7.9 2.1-13.4 4.8-3 1.5-6.1 3.4-9.2 6-11.4 1.1-17.2 3-25.4 5.6-.5.2-.7.3-.8.5v.1c.1.2.4.3 1 .5 5.2 1.2 10.4 2.6 15.6 5.4-1.4 3.4-2.4 7.2-3.2 11.3-.8 4.1-1.5 8.5-2.1 13.2-.1 1 .7 1 1.1.2 2.6-4.9 6-9.1 9.3-12.2 3.3-3.2 6.4-5.2 8.3-5.7 1.3.7 2.9 1.7 5.5 3.5.5.4 1 .7 1.6 1.2 3.5 2.7 8.5 6.8 16.1 13.6.6.5 1 .4.6-.6-2.3-5.3-4-10.3-5.1-14.4-1.1-4.2-1.6-7.3-1.5-8.7 1.9-1.3 5.9-1.9 10.1-2s8.7.2 11.5.8c.7.1 1.1.1 1.1-.2V23c0-.4-.2-.7-.6-1zm-27.9-.3c-.5 4.6 1.9 12 2.7 14.2-2.1-2-10-10-13.9-10.6-4.4 1.6-7.5 3.4-12.4 8.4.9-3.2 1.5-5.2 2.2-7 .8-1.8 1.6-3.4 2.8-5.8-3.4-2-5.5-3.3-10.8-4.8 2.9-.6 5.4-1 8.1-1.3 2.6-.3 5.4-.4 8.7-.5 2.6-2.5 7.6-6.3 14-8.3-1.7 2.9-2.1 5.9-2.3 8.7 5.2 0 13.2 2.8 16.5 4.9-8.3-.8-12.4.4-15.6 2.1zm68.4 60c2.1 1.1 5.7 2.4 9.2 2.4 5 0 7.9-2.2 7.9-5.2s-2.5-4.7-7.6-6.4c-6.9-2.3-10.1-5.7-10.1-9.9 0-5.6 5-10.2 13.1-10.2 3.9 0 7.2.9 9.3 2.2l-1.7 4.5c-1.5-.8-4.2-2-7.8-2-4.1 0-6.6 2.1-6.6 4.8 0 3 2.5 4.2 7.5 6 6.5 2.2 10 5.3 10 10.5 0 6.2-5.3 10.5-14.2 10.5-4.2 0-8-1-10.7-2.5l1.7-4.7zM92.4 84.2v4.4c-2.1.3-3.9.4-5.2.4-6.8 0-10.1-3.6-10.1-10.8V43.1h5.3v8.4h8.9v5.3h-8.9v22.3c0 3.6 1.9 5.4 5.7 5.4 1.2 0 2.6-.1 4.3-.3m91.3-29.4h5.5V88h-5.5zM255 88h-5.5V66.4c0-3.1-.2-5.2-.7-6.4s-1.3-2.1-2.4-2.8c-1.1-.7-2.4-1.1-3.8-1.1-2.6 0-5 1.1-6.9 3.4-1.9 2.3-2.9 5.4-2.9 9.4V88h-5.5V40h5.5v19c1.2-2.3 2.5-4 3.8-5.1 2-1.6 4.3-2.4 7.1-2.4 4.1 0 7.2 1.6 9.3 4.7.9 1.3 1.4 2.6 1.7 3.9.3 1.3.4 3.4.4 6.3V88h-.1zM42.2 80.5c3 1.8 7.3 3.2 11.8 3.2 6.8 0 11.2-3.3 11.2-8.3 0-4.5-3.2-7.1-10.1-9.6-8.4-2.9-13.2-7-13.2-13.8 0-7.6 6.2-13.2 16.2-13.2 5.2 0 9.1 1.2 11.3 2.4l-1.8 5.1c-1.6-.9-5-2.3-9.7-2.3-7 0-9.7 4-9.7 7.3 0 4.5 3.1 6.8 10.2 9.4 8.7 3.2 13.1 7.1 13.1 14.2 0 7.5-5.8 14-17.9 14-5 0-10.4-1.4-13.1-3.2l1.7-5.2zm105-28.6c-2.9 0-5.3 1-7 3.1-1 1.2-2 2.9-3.1 5.1v-7.7h-5.3V88h5.6V69.7c.1-2.5.6-4.6 1.5-6.3 2.1-4.1 5.2-6.1 9.3-6.1h1.2V52c-1.1 0-1.8-.1-2.2-.1zm-21.9 11c0-5.6-6.2-10.4-14.3-10.4-3.9 0-9.3 1.4-11.3 2.6l1.7 4.5c1.5-.8 6.3-2.5 9.8-2.5 5 0 8.8 2.6 8.8 5.2 0 1.3.1.8.1 3.7-1.9-.1-3.4-.1-4.6-.1-6.3 0-11 .9-14.3 2.6-1.8.9-3.2 2.3-4.3 4-1.1 1.8-1.6 3.6-1.6 5.7 0 2.6.8 4.9 2.4 6.8 2.2 2.6 5.5 3.9 9.9 3.9 3.4 0 6.2-.8 8.4-2.3 1.4-1 2.8-2.7 4-4.9V88h5.4V66c0-1.1-.1-2.2-.1-3.1zm-7.9 17.7c-2.2 2.7-5.1 4.1-8.7 4.1-2.4 0-4.3-.7-5.6-1.9-1.2-1.2-1.8-2.7-1.8-4.4 0-2.2.8-3.9 2.3-5.2 2.4-2.1 6.3-3.2 11.8-3.2.9 0 2.5.1 4.7.2l.1 2.2c0 3.1-.9 5.9-2.8 8.2zm63.9-35.9h-15.9c-2.7 0-4.1 1.3-4.1 3.9v11.7h14v5.3h-14V88h-5.8V47.5c0-5.1 2.4-7.7 7.2-7.7h18.6v4.9m-10.8 57.1v-2.5h-10.4c-.8 0-1.5.7-1.5 1.5V118c0 .8.7 1.5 1.5 1.5h10.4v-2.6h-8.9v-6.6h6.8v-2.5h-6.8v-5.9l8.9-.1zm28 17.6v-19.1c0-.6-.5-1-1-1h-.8c-.6 0-1.1.5-1.1 1v19.1h2.9zm18.9-16.8c-1.3-.8-2.7-1.1-4.2-1.1-4.6 0-7.7 3.4-7.7 7.9 0 4.7 3.4 7.9 7.6 7.9 1.4 0 3.4-.4 4.4-1l.2 2.8c-1.5.6-3.4.7-4.6.7-6.4 0-10.6-4.1-10.6-10.5 0-6.2 4.5-10.3 10.7-10.3 1.5 0 3.1.2 4.5.9l-.3 2.7zm10.8-3.3h3l8.5 20.2h-3.1l-2.1-5.1h-9.9l-2.1 5.1h-3l8.7-20.2zm1.4 2.7l-4 10h8l-4-10zm13 15.9V99.3h2.9v17.6h9.3v2.6h-10.7c-.8-.1-1.5-.8-1.5-1.6zm-92.1-14.1l-5.3 13.8c-.3.9-1.1 1.5-2 1.5-.9 0-1.6-.5-1.9-1.3l-5.4-14c0-.2-.2-.3-.4-.3s-.4.2-.4.4v15.5h-3v-18.5c0-.9.7-1.7 1.7-1.7h2.2c.5 0 1 .3 1.2.8l6 16 6-16c.2-.5.7-.8 1.2-.8h2.1c.9 0 1.7.8 1.7 1.7v18.5h-2.9v-15.5c0-.2-.2-.4-.4-.4-.3.1-.4.2-.4.3m30.2-4.5h-4.5c-.8 0-1.5.7-1.5 1.5V118c0 .8.7 1.5 1.5 1.5h4.5c6.6 0 10.8-3.5 10.8-10.3 0-6.3-4.8-9.9-10.8-9.9zm0 17.6h-3v-15.1h3.4c4.2 0 7.4 2.8 7.4 7.5-.1 5.2-2.8 7.6-7.8 7.6z"/></svg>