<svg id="Layer_1" xmlns="http://www.w3.org/2000/svg" viewBox="0 0 200 200"><style>.st0{fill:#fff}</style><path class="st0" d="M42.3 104v11.1c0 3.7 1.5 5.5 3.9 5.5 2.5 0 4-1.7 4-5.5V104h3.5v10.9c0 5.9-3 8.5-7.6 8.5-4.4 0-7.3-2.5-7.3-8.5V104h3.5m15.3 9.4c0-1.6-.1-2.9-.1-4.1h3l.2 2.1h.1c.6-1.1 2.1-2.4 4.4-2.4 2.4 0 4.9 1.5 4.9 5.9v8.2h-3.5v-7.8c0-2-.7-3.5-2.6-3.5-1.4 0-2.3 1-2.7 2-.1.3-.2.7-.2 1.1v8.1h-3.5v-9.6m16.2-4.1h3.5v13.8h-3.5v-13.8zm1.7-2.1c-1.2 0-2-.9-2-2s.8-2 2.1-2c1.2 0 2 .9 2.1 2-.1 1.1-.9 2-2.2 2zm7.7 2.1l2.2 7c.4 1.2.7 2.3.9 3.4h.1c.3-1.1.6-2.2.9-3.4l2.2-7h3.7L88 123.1h-3.4l-5.1-13.8h3.7m14.2 5.4c.2-1.4 1-3.4 3.2-3.4 2.3 0 2.9 2.1 2.9 3.4h-6.1m9.3 2.4c.1-.3.1-.8.1-1.5 0-3-1.5-6.7-5.9-6.7s-6.7 3.6-6.7 7.4c0 4.2 2.6 7 7.1 7 2 0 3.6-.4 4.8-.9l-.5-2.4c-1.1.4-2.2.6-3.8.6-2.2 0-4.2-1.1-4.3-3.6l9.2.1zm2.9-3.4c0-1.8 0-3.2-.1-4.4h3l.1 2.6h.1c.7-1.9 2.3-2.9 3.8-2.9.3 0 .5 0 .8.1v3.3c-.3-.1-.6-.1-1-.1-1.7 0-2.8 1.1-3.1 2.6-.1.3-.1.7-.1 1.1v7.2h-3.5v-9.5m9.9 6.2c.8.5 2.3 1 3.5 1 1.5 0 2.2-.6 2.2-1.5s-.6-1.4-2.3-2c-2.7-.9-3.8-2.4-3.8-4 0-2.4 2-4.3 5.2-4.3 1.5 0 2.9.4 3.7.8l-.7 2.5c-.6-.3-1.7-.8-2.9-.8s-1.9.6-1.9 1.5.7 1.3 2.4 1.9c2.5.9 3.7 2.2 3.7 4.2 0 2.5-2 4.3-5.6 4.3-1.7 0-3.2-.4-4.2-1l.7-2.6m12-10.6h3.5v13.8h-3.5v-13.8zm1.7-2.1c-1.2 0-2-.9-2-2s.8-2 2.1-2c1.2 0 2 .9 2.1 2-.1 1.1-.9 2-2.2 2zm10.1-1.5v3.5h3.3v2.6h-3.3v6.1c0 1.7.4 2.5 1.8 2.5.6 0 1 0 1.4-.2l.1 2.7c-.5.2-1.4.4-2.5.4-1.3 0-2.3-.4-3-1.1-.8-.8-1.1-2.1-1.1-3.9v-6.5h-2v-2.6h2v-2.6l3.3-.9m8.9 3.6l2.5 7.4c.3.9.6 1.9.8 2.7h.1c.2-.8.5-1.8.7-2.7l2.2-7.4h3.7l-3.5 9.4c-1.9 5.1-3.2 7.4-4.8 8.9-1.4 1.2-2.8 1.7-3.7 1.8l-.8-2.9c.6-.1 1.3-.5 2-1 .7-.4 1.4-1.2 1.9-2.2.1-.2.2-.4.2-.6 0-.2 0-.4-.2-.7l-5.1-12.7h4m-107.4 39c-2.1 0-3.4-2-3.4-4.7 0-2.3 1-4.7 3.5-4.7 2.4 0 3.4 2.5 3.4 4.6-.1 2.9-1.5 4.8-3.5 4.8m0 2.6c3.5 0 7.1-2.3 7.1-7.3 0-4.2-2.7-7.1-6.8-7.1-4.2 0-7.1 2.8-7.1 7.3-.2 4.4 2.9 7.1 6.8 7.1zm10.3-.4v-11.2h-1.9v-2.6h1.9v-.6c0-1.8.5-3.6 1.7-4.7 1-1 2.4-1.3 3.6-1.3.9 0 1.7.2 2.2.3l-.2 2.7c-.4-.1-.8-.2-1.5-.2-1.7 0-2.3 1.5-2.3 3.1v.7h3v2.6h-3v11.2h-3.5m19.2 0l-6.2-19.1h3.8l2.6 8.7c.7 2.4 1.4 4.6 1.9 7h.1c.5-2.3 1.2-4.6 1.9-6.9l2.8-8.7h3.7l-6.6 19.1h-4M87 136.7h3.5v13.8H87v-13.8zm1.7-2.1c-1.2 0-2-.9-2-2s.8-2 2.1-2c1.2 0 2 .9 2 2s-.8 2-2.1 2zm15.7 15.5c-.7.3-2.2.7-3.9.7-4.3 0-7.1-2.8-7.1-7.1 0-4.1 2.8-7.3 7.7-7.3 1.3 0 2.6.3 3.4.6l-.6 2.6c-.6-.3-1.4-.5-2.6-.5-2.7 0-4.2 1.9-4.2 4.5 0 2.8 1.9 4.5 4.2 4.5 1.2 0 2.1-.3 2.7-.5l.4 2.5m7-16.9v3.5h3.3v2.6h-3.3v6.1c0 1.7.4 2.5 1.8 2.5.6 0 1 0 1.4-.2l.1 2.7c-.5.2-1.4.4-2.5.4-1.3 0-2.4-.4-3-1.1-.7-.8-1.1-2.1-1.1-3.9v-6.5h-2v-2.6h2v-2.6l3.3-.9m11.9 15.1c-2.1 0-3.4-2-3.4-4.7 0-2.3 1-4.7 3.5-4.7 2.4 0 3.4 2.5 3.4 4.6-.1 2.9-1.5 4.8-3.5 4.8m-.1 2.6c3.5 0 7.1-2.3 7.1-7.3 0-4.2-2.7-7.1-6.9-7.1s-7.1 2.8-7.1 7.3c0 4.4 3 7.1 6.9 7.1zm10-9.7c0-1.8 0-3.2-.1-4.4h3l.1 2.6h.1c.7-1.9 2.3-2.9 3.8-2.9.3 0 .5 0 .8.1v3.3c-.3-.1-.6-.1-1.1-.1-1.7 0-2.8 1.1-3.1 2.6-.1.3-.1.7-.1 1.1v7.2h-3.5l.1-9.5m10.1-4.5h3.5v13.8h-3.5v-13.8zm1.7-2.1c-1.2 0-2-.9-2-2s.8-2 2.1-2c1.2 0 2 .9 2.1 2-.1 1.1-.9 2-2.2 2zm12.8 11.1c0 .2 0 .5-.1.8-.3 1-1.3 1.9-2.7 1.9-1.1 0-2-.6-2-2 0-2.1 2.4-2.6 4.8-2.6v1.9m3.4-3.4c0-3-1.3-5.8-5.7-5.8-2.2 0-4 .6-5 1.2l.7 2.3c.9-.6 2.4-1 3.7-1 2.4 0 2.8 1.5 2.8 2.4v.2c-5.1 0-8.2 1.7-8.2 5.2 0 2.1 1.5 4.1 4.3 4.1 1.8 0 3.2-.8 4.1-1.8h.1l.2 1.5h3.1c-.2-.9-.2-2.1-.2-3.3v-5zm-51-97.9c.4.3 3.5 2.9 7.3 1.5-.1 3.9-.4 20.3-.4 21.1-2.7.9-5.5-1-5.5-1-6.1-4.1-9.7-2.9-11.3-1.7V44.8c.7-.8 3.9-4.1 9.9-.4m-20.9 0c6.2-3.8 9.3-.2 9.9.5v19.3c-1.6-1.2-5.1-2.4-11.3 1.7 0 0-2.8 2-5.5 1.1 0-.7-.3-17.1-.4-21.1 3.8 1.3 6.9-1.2 7.3-1.5"/><path class="st0" d="M98.4 68.2c-3.9 4.8-17.4 3.1-20 2.7 0-.9-1-20.8-1-21.6 1.6-.7 2.7-1.8 3.5-2.7l.4 21 .3.2c3.4 1.5 6.9-1 7-1.1 5.4-3.6 8.4-2.7 9.8-1.8.7.4 1.1 1.1 1.1 1.1s-.3 1.3-1.1 2.2m22.8 2.7c-2.6.4-16.1 2.1-20-2.7-.8-.9-1-2.1-1-2.1s.4-.7 1.1-1.1c1.4-.9 4.4-1.8 9.8 1.9.1.1 3.5 2.6 7 1l.3-.2.4-21c.8.9 1.9 1.9 3.5 2.7-.1.7-1.1 20.6-1.1 21.5m-17.4.5c-1.9-.9-3.2-1.9-4-3.1-.8 1.2-2.1 2.2-4 3.1.6 1.1 1.9 1.8 4 1.8 2 0 3.3-.7 4-1.8m-28-52.6c.4 0 .6-.3.6-.3l.2-.2-.2-.2c-.3-.2-.6-.3-.9-.3-.3.1-.5.3-.5.4l-.1.2.2.2c.2.2.5.2.7.2m35.8 0c.4 0 .6-.3.6-.3l.2-.2-.2-.2c-.3-.2-.6-.3-.9-.3-.3.1-.5.3-.5.4l-.1.2.2.2c.3.2.6.2.7.2m-17.9 0c.4 0 .6-.3.6-.3l.2-.2-.2-.2c-.3-.2-.6-.3-.9-.3-.3.1-.5.3-.5.4l-.1.2.2.2c.3.2.6.2.7.2"/><path class="st0" d="M130.5 10.5H68V53c0 1.6.2 3.2.4 4.8.1.5.1.9.2 1.4.2 1.3.6 2.5.9 3.7.1.4.2.7.3 1.1.2.5.3.9.5 1.4.3.8.7 1.6 1 2.3.2.5.5.9.7 1.4.2.3.4.7.6 1 .3.5.5.9.8 1.4.8 1.3 1.7 2.5 2.6 3.6.3.4.7.8 1 1.2 0 .1.1.1.1.2.3.4.7.8 1 1.1 1.7 1.8 3.4 3.4 5.3 4.8.1.1.2.1.2.2.6.4 1.1.8 1.7 1.2.1.1.2.1.3.2 2.1 1.4 4.2 2.5 6.3 3.4 1.3.5 2.5.9 3.7 1.2 1.5.4 2.9.6 4.1.6 1.2 0 2.6-.2 4.1-.6 1.2-.3 2.4-.7 3.7-1.2 2-.8 4.2-2 6.2-3.4.1-.1.2-.1.3-.2.6-.4 1.1-.8 1.7-1.2.1-.1.2-.1.2-.2 1.8-1.4 3.6-3 5.2-4.8.3-.4.7-.8 1-1.1 0-.1.1-.1.1-.2.3-.4.7-.8 1-1.2.9-1.2 1.8-2.4 2.6-3.6.3-.5.6-.9.8-1.4.2-.3.4-.7.6-1 .2-.5.5-.9.7-1.4.4-.8.7-1.5 1-2.3.2-.5.3-.9.5-1.4.2-.5.3-1 .5-1.5.3-1.1.6-2.2.8-3.3.1-.5.2-.9.2-1.4.2-1.5.4-3.1.4-4.8V10.5h-.8m-18.2 5.8c1.2 0 3 .4 3.2 4 .7 1 1.7 1.8 3 2.5 2.2.4 4.6.4 7.2.2-.3.7-2.9 2.6-2.8 2.6 1.2.8 4.1 1.4 4.1 1.4s-2 .9-3.8.9c-6.3.1-8.9-2.2-9.1-3.6-.1-.7.4-1.3 1.3-1.5.7-.1.4-1.1-.2-1-1.4.3-2.3 1.3-2.1 2.6.3 2.1 3.5 4.7 10.8 4.4 1.6.5 2.8.5 3.8.4-1.3 1.5-2.3 2.1-3.3 2.4.2 1.5.2 3.2.2 3.8-1.3-2-4.4-5-5.7-5.7-.1 1.9.5 4.4 1.3 5.2-1.8-.4-2.6-.9-3.3-1.9-.5.6-1.8 1.9-3.3 1.5.9-1.6 1.5-3.4 1.4-5.7-1.5-.3-4.1-1.7-4-6.9 0-2.1-1.5-2.7-2.3-3.6 1.1-.6 2.5-2 3.6-2m-17.9 0c1.2 0 3 .4 3.2 4 .7 1 1.7 1.8 3 2.5 2.2.4 4.6.4 7.2.2-.3.7-2.9 2.6-2.8 2.6 1.2.8 4.1 1.4 4.1 1.4s-2 .9-3.8.9c-6.3.1-8.9-2.2-9.1-3.6-.1-.7.3-1.3 1.3-1.5.7-.1.4-1.1-.2-1-1.4.3-2.3 1.3-2.1 2.6.3 2.1 3.5 4.7 10.8 4.4 1.6.5 2.8.5 3.8.4-1.3 1.5-2.3 2.1-3.3 2.4.2 1.5.2 3.2.2 3.8-1.3-2-4.4-5-5.7-5.7-.1 1.9.5 4.4 1.3 5.2-1.8-.4-2.5-.9-3.3-1.9-.5.6-1.8 1.9-3.3 1.5.9-1.6 1.5-3.4 1.4-5.7-1.5-.3-4.1-1.7-4-6.9 0-2.1-1.5-2.7-2.3-3.6 1.1-.6 2.5-2 3.6-2m-18 0c1.2 0 3 .4 3.2 4 .7 1 1.7 1.8 3 2.5 2.2.4 4.6.4 7.2.2-.3.7-2.9 2.6-2.8 2.6 1.1.8 4 1.4 4 1.4s-2 .9-3.8.9c-6.3.1-8.9-2.2-9.1-3.6-.1-.7.4-1.3 1.3-1.5.7-.1.4-1.1-.2-1-1.4.3-2.3 1.3-2.1 2.6.3 2.1 3.5 4.7 10.8 4.4 1.6.5 2.8.5 3.8.4-1.3 1.5-2.3 2.1-3.3 2.4.2 1.5.2 3.2.2 3.8-1.3-2-4.4-5-5.7-5.7-.1 1.9.6 4.4 1.3 5.2-1.8-.4-2.5-.9-3.3-1.9-.5.6-1.8 1.9-3.3 1.5.9-1.6 1.5-3.4 1.4-5.7-1.5-.3-4.1-1.7-4-6.9 0-2.1-1.5-2.7-2.3-3.6 1.2-.6 2.6-2 3.7-2m24.5 71h-2.2c-2.9-.2-6.3-1.4-9.8-3.4h21.7c-3.4 2-6.9 3.2-9.7 3.4m17.9-9.7c-1.8 1.8-3.8 3.4-5.8 4.8-.1.1-.2.1-.3.2H86.5c-.1-.1-.2-.1-.3-.2-2-1.3-4-2.9-5.8-4.8-.4-.4-.7-.8-1.1-1.1H120c-.4.4-.8.8-1.2 1.1m10.8-32.3h-10.5c.3.4.7.9 1.3 1.4h9.2v6.1h-6.4l-.1 1.4h6.4c-.1 1.2-.2 2.5-.4 3.6-.1.5-.2.9-.2 1.4-.1.3-.1.7-.2 1h-5.9l-.1 1.4h5.6c-.2.8-.5 1.6-.7 2.3-.2.5-.3.9-.5 1.4-.3.8-.7 1.6-1.1 2.3h-3.6l-.1 1.4h2.9c-.2.3-.4.7-.6 1-.3.5-.6.9-.9 1.4-.8 1.3-1.8 2.5-2.7 3.6H78.2c-1-1.1-1.9-2.4-2.7-3.6-.3-.5-.6-.9-.9-1.4-.2-.3-.4-.7-.6-1h3.1l-.1-1.3h-3.7c-.4-.8-.7-1.5-1.1-2.3-.2-.5-.4-.9-.5-1.4-.3-.8-.5-1.5-.7-2.3h5.8l-.1-1.4h-6.1c-.1-.3-.2-.7-.2-1-.1-.5-.2-.9-.2-1.4-.2-1.2-.3-2.4-.4-3.6h6.6l-.1-1.4h-6.6v-6.1h9.5c.6-.5 1-1 1.3-1.4H69.7v-7h59.9v6.9zM19.8 184c-.8.4-2.4.8-4.4.8-4.7 0-8.2-2.9-8.2-8.4 0-5.2 3.5-8.7 8.7-8.7 2.1 0 3.4.4 3.9.7l-.5 1.7c-.8-.4-2-.7-3.3-.7-3.9 0-6.5 2.5-6.5 6.8 0 4.1 2.3 6.7 6.4 6.7 1.3 0 2.6-.3 3.5-.7l.4 1.8zm13.1-5.5c0 4.4-3 6.3-5.9 6.3-3.2 0-5.7-2.4-5.7-6.1 0-4 2.6-6.3 5.9-6.3 3.4 0 5.7 2.5 5.7 6.1zm-9.4.2c0 2.6 1.5 4.6 3.6 4.6s3.6-1.9 3.6-4.6c0-2-1-4.6-3.6-4.6-2.5-.1-3.6 2.3-3.6 4.6zm12.2-2.8c0-1.2 0-2.2-.1-3.2h1.9l.1 1.9h.1c.7-1.1 1.8-2.2 3.7-2.2 1.6 0 2.9 1 3.4 2.4.4-.7.8-1.2 1.3-1.5.7-.5 1.5-.8 2.6-.8 1.6 0 3.9 1 3.9 5.2v7h-2.1V178c0-2.3-.8-3.7-2.6-3.7-1.2 0-2.2.9-2.6 2-.1.3-.2.7-.2 1.1v7.4H43v-7.1c0-1.9-.8-3.3-2.5-3.3-1.4 0-2.3 1.1-2.7 2.2-.1.3-.2.7-.2 1.1v7.2h-2.1v-9zm20.5.7c0-1.5 0-2.8-.1-3.9H58l.1 2c.9-1.5 2.3-2.3 4.2-2.3 2.9 0 5 2.4 5 6 0 4.3-2.6 6.4-5.4 6.4-1.6 0-3-.7-3.7-1.9v6.5h-2.1v-12.8zm2.1 3.1c0 .3 0 .6.1.9.4 1.5 1.7 2.5 3.2 2.5 2.3 0 3.6-1.9 3.6-4.6 0-2.4-1.3-4.4-3.5-4.4-1.5 0-2.9 1.1-3.3 2.7-.1.3-.1.6-.1.9v2zm21.8 1.6c0 1.2 0 2.3.1 3.2h-1.9l-.1-1.9c-.6 1-1.8 2.2-3.9 2.2-1.9 0-4.1-1-4.1-5.2v-7h2.2v6.6c0 2.3.7 3.8 2.7 3.8 1.5 0 2.5-1 2.9-2 .1-.3.2-.7.2-1.1v-7.3h2.2v8.7zm6.2-12v3.4h3.1v1.6h-3.1v6.4c0 1.5.4 2.3 1.6 2.3.6 0 1-.1 1.3-.1l.1 1.6c-.4.2-1.1.3-1.9.3-1 0-1.8-.3-2.3-.9-.6-.6-.8-1.7-.8-3.1v-6.5h-1.8v-1.6h1.8v-2.9l2-.5zm6.6 9.7c0 2.9 1.9 4.1 4.1 4.1 1.5 0 2.5-.3 3.3-.6l.4 1.5c-.8.3-2.1.7-4 .7-3.7 0-5.9-2.4-5.9-6s2.1-6.4 5.6-6.4c3.9 0 4.9 3.4 4.9 5.6 0 .4 0 .8-.1 1h-8.3zm6.3-1.5c0-1.4-.6-3.5-3-3.5-2.2 0-3.1 2-3.3 3.5h6.3zm4.8-1.1c0-1.4 0-2.6-.1-3.7h1.9l.1 2.3h.1c.5-1.6 1.8-2.6 3.3-2.6.2 0 .4 0 .6.1v2c-.2 0-.4-.1-.7-.1-1.5 0-2.6 1.2-2.9 2.8 0 .3-.1.6-.1 1v6.3H104v-8.1zm13 5.6c1 .6 2.4 1.1 3.8 1.1 2.2 0 3.5-1.2 3.5-2.8 0-1.5-.9-2.4-3.1-3.3-2.7-1-4.4-2.4-4.4-4.7 0-2.6 2.1-4.5 5.4-4.5 1.7 0 2.9.4 3.7.8l-.6 1.7c-.5-.3-1.6-.8-3.1-.8-2.3 0-3.1 1.4-3.1 2.5 0 1.5 1 2.3 3.3 3.2 2.8 1.1 4.2 2.4 4.2 4.9 0 2.6-1.9 4.8-5.8 4.8-1.6 0-3.3-.5-4.2-1.1l.4-1.8zm21 2.1c-.6.3-1.8.7-3.4.7-3.6 0-5.9-2.4-5.9-6.1 0-3.7 2.5-6.3 6.4-6.3 1.3 0 2.4.3 3 .6l-.5 1.7c-.5-.3-1.3-.6-2.5-.6-2.7 0-4.2 2-4.2 4.5 0 2.8 1.8 4.5 4.1 4.5 1.2 0 2-.3 2.7-.6l.3 1.6zm4.9-14.8c0 .7-.5 1.3-1.4 1.3-.8 0-1.3-.6-1.3-1.3 0-.8.6-1.4 1.4-1.4.8.1 1.3.7 1.3 1.4zm-2.4 15.3v-11.9h2.2v11.9h-2.2zm7-5.6c0 2.9 1.9 4.1 4.1 4.1 1.5 0 2.5-.3 3.3-.6l.4 1.5c-.8.3-2.1.7-4 .7-3.7 0-5.9-2.4-5.9-6s2.1-6.4 5.6-6.4c3.9 0 4.9 3.4 4.9 5.6 0 .4 0 .8-.1 1h-8.3zm6.3-1.5c0-1.4-.6-3.5-3-3.5-2.2 0-3.1 2-3.3 3.5h6.3zm4.8-1.6c0-1.2 0-2.2-.1-3.2h1.9l.1 2c.6-1.1 2-2.2 3.9-2.2 1.6 0 4.2 1 4.2 5.1v7.1h-2.2v-6.9c0-1.9-.7-3.5-2.8-3.5-1.4 0-2.5 1-2.9 2.2-.1.3-.1.6-.1 1v7.2h-2.2v-8.8zm22.1 8.2c-.6.3-1.8.7-3.4.7-3.6 0-5.9-2.4-5.9-6.1 0-3.7 2.5-6.3 6.4-6.3 1.3 0 2.4.3 3 .6l-.5 1.7c-.5-.3-1.3-.6-2.5-.6-2.7 0-4.2 2-4.2 4.5 0 2.8 1.8 4.5 4.1 4.5 1.2 0 2-.3 2.7-.6l.3 1.6zm3.6-5.1c0 2.9 1.9 4.1 4.1 4.1 1.5 0 2.5-.3 3.3-.6l.4 1.5c-.8.3-2.1.7-4 .7-3.7 0-5.9-2.4-5.9-6s2.1-6.4 5.6-6.4c3.9 0 4.9 3.4 4.9 5.6 0 .4 0 .8-.1 1h-8.3zm6.4-1.5c0-1.4-.6-3.5-3-3.5-2.2 0-3.1 2-3.3 3.5h6.3z"/></svg>