<svg id="Layer_1" xmlns="http://www.w3.org/2000/svg" viewBox="0 0 195.3 67.5"><style>.st0{fill:#fff}</style><path class="st0" d="M36.3 29.1c.3.3 3 2.5 6.3 1.2-.1 3.4-.3 17.5-.3 18.1-2.3.8-4.7-.9-4.7-.9-5.3-3.5-8.4-2.5-9.8-1.5V29.4c.6-.7 3.3-3.5 8.5-.3m-18 0c5.3-3.3 8-.2 8.5.4V46c-1.4-1-4.4-2.1-9.7 1.5 0 0-2.4 1.7-4.7.9 0-.6-.3-14.7-.3-18.1 3.2 1.2 5.9-.9 6.2-1.2"/><path class="st0" d="M26.1 49.5c-3.4 4.1-15 2.6-17.2 2.3 0-.7-.8-17.8-.9-18.5 1.3-.6 2.4-1.6 3-2.3l.3 18.1.3.1c3 1.3 5.9-.8 6-.9 4.6-3.1 7.2-2.4 8.4-1.6.6.3.9.9.9.9s-.1 1.1-.8 1.9m19.6 2.4c-2.2.3-13.8 1.8-17.2-2.3-.7-.8-.9-1.8-.9-1.8s.3-.6.9-.9c1.2-.8 3.8-1.5 8.4 1.6.1.1 3 2.2 6 .9l.3-.1.4-18.3c.7.7 1.7 1.7 3 2.3 0 .7-.9 17.8-.9 18.6m-14.9.4c-1.6-.8-2.8-1.6-3.4-2.6-.7 1-1.8 1.9-3.4 2.6.5 1 1.7 1.5 3.4 1.5s2.8-.5 3.4-1.5M6.7 7.1c.3 0 .5-.3.6-.3l.2-.2-.3-.1c-.3-.2-.5-.3-.8-.3-.2.1-.4.3-.4.3l-.1.2.1.1c.3.3.6.3.7.3m30.8 0c.3 0 .5-.3.6-.3l.2-.2-.3-.1c-.3-.2-.5-.3-.8-.2-.3.1-.4.3-.4.3l-.1.2.1.1c.3.2.6.2.7.2m-15.3 0c.3 0 .5-.3.5-.3l.2-.2-.2-.2c-.3-.2-.5-.3-.8-.2-.3.1-.4.3-.4.3l-.1.2.1.1c.3.3.5.3.7.3"/><path class="st0" d="M53.7 0H0v36.5c0 1.4.1 2.8.3 4.1.1.4.1.8.2 1.2.2 1.1.5 2.1.8 3.1l.3.9c.1.4.3.8.4 1.2.3.7.6 1.4.9 2l.6 1.2c.2.3.3.6.5.9.2.4.5.8.7 1.2.7 1.1 1.4 2.1 2.2 3.1.3.4.6.7.9 1.1l.1.1c.3.3.6.7.9 1 1.4 1.5 2.9 2.9 4.5 4.1.1 0 .1.1.2.1.5.4 1 .7 1.5 1 .1 0 .1.1.2.1 1.8 1.2 3.6 2.2 5.4 2.9 1.1.4 2.1.8 3.2 1.1 1.3.3 2.4.5 3.5.5s2.3-.2 3.5-.5c1-.3 2.1-.6 3.1-1.1 1.7-.7 3.6-1.7 5.4-2.9.1 0 .1-.1.2-.1.5-.3 1-.7 1.5-1 .1 0 .1-.1.2-.1 1.6-1.2 3.1-2.6 4.5-4.1.3-.3.6-.6.9-1l.1-.1c.3-.3.6-.7.9-1.1.8-1 1.5-2 2.2-3.1.2-.4.5-.8.7-1.2.2-.3.3-.6.5-.9l.6-1.2c.3-.7.6-1.3.9-2 .2-.4.3-.8.4-1.2.1-.4.3-.8.4-1.3.3-.9.5-1.9.7-2.8.1-.4.1-.8.2-1.2.2-1.3.3-2.7.3-4.1V0h-.8M38.1 4.9c1 0 2.6.3 2.7 3.4.6.8 1.5 1.6 2.6 2.1 1.9.3 4 .4 6.2.2-.2.6-2.5 2.2-2.4 2.2 1 .7 3.5 1.2 3.5 1.2s-1.7.7-3.3.8c-5.4.1-7.6-1.9-7.8-3.1-.1-.6.3-1.1 1.1-1.2.6-.1.4-.9-.1-.8-1.2.2-2 1.1-1.8 2.2.3 1.8 3 4 9.2 3.8 1.4.5 2.4.4 3.3.4-1.1 1.3-2 1.8-2.8 2.1.2 1.3.2 2.8.2 3.3-1.1-1.7-3.8-4.3-4.9-4.9-.1 1.6.5 3.8 1.1 4.5-1.5-.3-2.2-.8-2.8-1.6-.4.5-1.6 1.6-2.8 1.3.8-1.4 1.3-3 1.2-4.9-1.3-.3-3.5-1.5-3.4-6 0-1.8-1.3-2.3-2-3.1.8-.6 2-1.9 3-1.9m-15.4 0c1 0 2.6.3 2.7 3.4.6.8 1.5 1.6 2.6 2.1 1.9.3 4 .4 6.2.2-.2.6-2.4 2.2-2.4 2.2 1 .7 3.5 1.2 3.5 1.2s-1.7.7-3.3.8c-5.4.1-7.6-1.9-7.8-3.1-.1-.6.3-1.1 1.1-1.2.6-.1.4-.9-.1-.8-1.2.2-1.9 1.1-1.8 2.2.3 1.8 3 4 9.2 3.8 1.4.5 2.4.4 3.3.4-1.1 1.3-2 1.8-2.9 2.1.2 1.3.2 2.8.2 3.3-1.1-1.7-3.8-4.3-4.9-4.9 0 1.6.5 3.8 1.1 4.5-1.5-.3-2.2-.8-2.8-1.6-.4.5-1.6 1.6-2.8 1.3.8-1.4 1.3-3 1.2-4.9-1.3-.3-3.5-1.5-3.4-6 0-1.8-1.3-2.3-2-3.1.9-.6 2.1-1.9 3.1-1.9m-15.4 0c1 0 2.6.3 2.7 3.4.6.8 1.5 1.6 2.6 2.1 1.9.3 4 .4 6.2.2-.2.6-2.5 2.2-2.4 2.2 1 .7 3.5 1.2 3.5 1.2s-1.7.7-3.3.8c-5.5.2-7.7-1.8-7.9-3-.1-.6.3-1.1 1.1-1.2.6-.1.4-.9-.1-.8-1.2.2-2 1.1-1.8 2.2.3 1.8 3 4 9.2 3.8 1.4.5 2.4.4 3.3.4-1.1 1.3-2 1.8-2.8 2.1.2 1.3.2 2.8.2 3.3-1.1-1.7-3.8-4.3-4.9-4.9 0 1.6.5 3.8 1.1 4.5-1.5-.3-2.2-.8-2.8-1.6-.4.5-1.6 1.6-2.8 1.3.8-1.4 1.3-3 1.2-4.9C8.2 15.5 6 14.3 6 9.8 6 8 4.7 7.5 4 6.7c1.1-.5 2.3-1.8 3.3-1.8m21 61h-1.8C24 65.7 21 64.7 18 63h18.7c-3 1.7-6 2.7-8.4 2.9m15.4-8.3c-1.6 1.6-3.3 2.9-5 4.1-.1 0-.1.1-.2.1H15.9c-.1 0-.1-.1-.2-.1-1.7-1.1-3.4-2.5-5-4.1l-1-1h34.9c-.3.4-.6.7-.9 1M53 29.9h-9.1c.2.3.6.7 1.1 1.2h7.9v5.2h-5.5l-.1 1.2h5.5c-.1 1.1-.2 2.1-.3 3.1-.1.4-.1.8-.2 1.2-.1.3-.1.6-.2.9h-5l-.1 1.2h4.8c-.2.7-.4 1.3-.6 2-.1.4-.3.8-.5 1.2-.3.7-.6 1.4-.9 2h-3.1l-.1 1.2h2.5c-.2.3-.3.6-.5.9-.2.4-.5.8-.7 1.2-.7 1.1-1.5 2.1-2.3 3.1H8.8c-.8-1-1.6-2-2.4-3.1-.3-.4-.5-.8-.8-1.2-.2-.3-.3-.6-.5-.9h2.7l-.1-1.2H4.6c-.3-.7-.6-1.3-.9-2-.2-.4-.3-.8-.5-1.2-.2-.7-.4-1.3-.6-2h5l-.1-1.2H2.3c-.1-.3-.1-.6-.2-.9l-.3-1.2c-.2-1-.3-2.1-.3-3.1h5.7l-.1-1.2H1.5v-5.2h8.1c.5-.4.8-.9 1.1-1.2H1.5v-6H53v6zm18.5-22v11.5c0 3.9 1.6 5.7 4 5.7 2.6 0 4.2-1.8 4.2-5.7V7.9h3.6v11.3c0 6.1-3.1 8.8-7.9 8.8-4.6 0-7.5-2.6-7.5-8.8V7.9h3.6zm15.8 9.7c0-1.6-.1-3-.1-4.2h3.1l.2 2.1h.1c.6-1.1 2.2-2.5 4.5-2.5 2.5 0 5.1 1.6 5.1 6.1v8.5h-3.6v-8c0-2-.7-3.6-2.7-3.6-1.4 0-2.4 1-2.8 2.1-.1.3-.2.7-.2 1.1v8.4h-3.6v-10zm16.7-4.2h3.6v14.2H104V13.4zm1.8-2.2c-1.3 0-2.1-.9-2.1-2.1 0-1.2.9-2 2.1-2 1.3 0 2.1.9 2.1 2 0 1.2-.8 2.1-2.1 2.1zm8 2.2l2.3 7.2c.4 1.3.7 2.4 1 3.6h.1c.3-1.2.6-2.3 1-3.6l2.3-7.2h3.8l-5.4 14.2h-3.5l-5.3-14.2h3.7zm14.7 5.6c.2-1.5 1.1-3.5 3.3-3.5 2.4 0 3 2.2 3 3.5h-6.3zm9.5 2.5c.1-.3.1-.9.1-1.5 0-3.1-1.5-6.9-6.1-6.9s-7 3.7-7 7.7c0 4.4 2.7 7.2 7.3 7.2 2.1 0 3.8-.4 5-.9l-.5-2.5c-1.1.4-2.3.7-3.9.7-2.3 0-4.3-1.1-4.4-3.7l9.5-.1zm3.1-3.5c0-1.9 0-3.3-.1-4.6h3.1l.1 2.7h.1c.7-2 2.4-3 3.9-3 .3 0 .6 0 .8.1v3.4c-.3-.1-.7-.1-1.1-.1-1.7 0-2.9 1.1-3.2 2.7-.1.3-.1.7-.1 1.1v7.4H141l.1-9.7zm10.2 6.3c.8.5 2.3 1 3.6 1 1.6 0 2.3-.7 2.3-1.6 0-1-.6-1.5-2.3-2.1-2.8-1-3.9-2.5-3.9-4.2 0-2.5 2.1-4.5 5.4-4.5 1.6 0 2.9.4 3.8.9l-.7 2.5c-.6-.3-1.8-.8-3-.8-1.3 0-2 .6-2 1.5s.7 1.3 2.5 2c2.6.9 3.8 2.2 3.8 4.3 0 2.6-2 4.5-5.8 4.5-1.7 0-3.3-.4-4.3-1l.6-2.5zm12.4-10.9h3.6v14.2h-3.6V13.4zm1.7-2.2c-1.3 0-2.1-.9-2.1-2.1 0-1.2.9-2 2.1-2 1.3 0 2.1.9 2.1 2 .1 1.2-.7 2.1-2.1 2.1zm10.5-1.5v3.7h3.4v2.7h-3.4v6.3c0 1.7.5 2.6 1.8 2.6.7 0 1 0 1.4-.2l.1 2.7c-.5.2-1.5.4-2.6.4-1.3 0-2.4-.5-3.1-1.2-.8-.8-1.1-2.1-1.1-4V16h-2v-2.7h2v-2.7l3.5-.9zm9.1 3.7l2.6 7.6c.3.9.6 2 .8 2.8h.1c.2-.8.5-1.9.8-2.8l2.2-7.6h3.8l-3.6 9.7c-2 5.3-3.3 7.7-5 9.2-1.4 1.2-2.9 1.7-3.8 1.8l-.8-3c.6-.1 1.4-.5 2.1-1 .7-.4 1.5-1.3 2-2.3.1-.2.2-.5.2-.6 0-.2 0-.4-.2-.7L181 13.4h4zM74.1 53.8c-2.1 0-3.5-2.1-3.5-4.8 0-2.4 1-4.8 3.6-4.8 2.5 0 3.5 2.6 3.5 4.8-.1 2.8-1.5 4.8-3.6 4.8zm0 2.6c3.6 0 7.3-2.3 7.3-7.6 0-4.3-2.8-7.3-7.1-7.3s-7.4 2.9-7.4 7.6c0 4.5 3.1 7.3 7.2 7.3zm10.6-.3V44.5h-1.9v-2.7h1.9v-.6c0-1.8.5-3.7 1.7-4.9 1.1-1 2.5-1.4 3.7-1.4 1 0 1.7.2 2.3.4l-.2 2.8c-.4-.1-.9-.3-1.5-.3-1.8 0-2.4 1.5-2.4 3.2v.7h3.1v2.7h-3.1V56h-3.6zm19.9 0l-6.4-19.7h3.9l2.7 9c.8 2.5 1.4 4.8 1.9 7.2h.1c.5-2.3 1.2-4.7 2-7.1l2.9-9h3.8l-6.8 19.7h-4.1zm13.1-14.3h3.6V56h-3.6V41.8zm1.7-2.2c-1.3 0-2.1-.9-2.1-2.1 0-1.2.9-2.1 2.1-2.1 1.3 0 2.1.9 2.1 2.1.1 1.2-.7 2.1-2.1 2.1zm16.2 16.1c-.7.4-2.2.7-4 .7-4.5 0-7.3-2.9-7.3-7.3 0-4.3 2.9-7.6 7.9-7.6 1.3 0 2.7.3 3.5.7l-.6 2.7c-.6-.3-1.4-.6-2.7-.6-2.8 0-4.4 2-4.4 4.6 0 2.9 1.9 4.6 4.4 4.6 1.2 0 2.1-.3 2.8-.6l.4 2.8zm7.3-17.5v3.7h3.4v2.7h-3.4v6.3c0 1.7.5 2.6 1.8 2.6.7 0 1 0 1.4-.2l.1 2.7c-.5.2-1.5.4-2.6.4-1.3 0-2.4-.5-3.1-1.2-.8-.8-1.1-2.1-1.1-4v-6.7h-2v-2.7h2v-2.7l3.5-.9zm12.2 15.6c-2.1 0-3.5-2.1-3.5-4.8 0-2.4 1-4.8 3.6-4.8 2.5 0 3.5 2.6 3.5 4.8 0 2.8-1.5 4.8-3.6 4.8zm0 2.6c3.6 0 7.3-2.3 7.3-7.6 0-4.3-2.8-7.3-7.1-7.3s-7.4 2.9-7.4 7.6c.1 4.5 3.2 7.3 7.2 7.3zm10.3-10c0-1.9 0-3.3-.1-4.6h3.1l.1 2.7h.1c.7-2 2.4-3 3.9-3 .3 0 .6 0 .8.1V45c-.3-.1-.7-.1-1.1-.1-1.7 0-2.9 1.1-3.2 2.7-.1.3-.1.7-.1 1.1v7.4h-3.6l.1-9.7zm10.4-4.6h3.6V56h-3.6V41.8zm1.8-2.2c-1.3 0-2.1-.9-2.1-2.1 0-1.2.9-2.1 2.1-2.1 1.3 0 2.1.9 2.1 2.1.1 1.2-.8 2.1-2.1 2.1zm13.3 11.5c0 .2 0 .5-.1.8-.3 1-1.4 2-2.8 2-1.1 0-2.1-.7-2.1-2.1 0-2.2 2.4-2.7 5-2.7v2zm3.5-3.6c0-3.1-1.3-6-5.9-6-2.2 0-4.1.6-5.2 1.3l.7 2.3c1-.6 2.4-1.1 3.8-1.1 2.5 0 2.9 1.5 2.9 2.5v.2c-5.2 0-8.5 1.8-8.5 5.4 0 2.2 1.6 4.2 4.5 4.2 1.8 0 3.3-.8 4.2-1.9h.1l.2 1.6h3.2c-.2-.9-.2-2.1-.2-3.4v-5.1z"/></svg>