<?xml version="1.0" encoding="utf-8"?>
<!-- Generator: Adobe Illustrator 19.2.0, SVG Export Plug-In . SVG Version: 6.00 Build 0)  -->
<svg version="1.1" id="Layer_1" xmlns="http://www.w3.org/2000/svg" xmlns:xlink="http://www.w3.org/1999/xlink" x="0px" y="0px"
	 viewBox="0 0 394.3 77.5" style="enable-background:new 0 0 394.3 77.5;" xml:space="preserve">
<style type="text/css">
	.st0{fill:#FFFFFF;}
	.st1{fill:#3084C6;}
	.st2{fill:#3896D2;}
</style>
<path class="st0" d="M125,53.4h8.2c0,2.2-0.3,4-0.9,5.6c-1,2.5-2.5,4.6-4.4,6.2c-2.6,2.2-5.8,3.3-9.5,3.3c-4.6,0-8.3-1.7-11-5.2
	c-2.2-2.8-3.4-6.1-3.4-9.9V24c0-3.9,1.2-7.2,3.6-10.1c2.9-3.5,6.5-5.2,10.9-5.2c3.6,0,6.8,1.2,9.6,3.7c3.4,3,5.1,6.8,5.1,11.6H125
	v-0.9c0-1.6-0.5-3.1-1.5-4.4c-1.3-1.7-2.9-2.5-4.9-2.5c-2.5,0-4.4,1.1-5.6,3.4c-0.6,1.1-0.8,2.2-0.8,3.5v31.2c0,1.8,0.5,3.3,1.5,4.5
	c1.3,1.6,2.9,2.4,4.9,2.4c1.3,0,2.5-0.4,3.5-1.1c1-0.7,1.8-1.7,2.4-3C124.8,56.1,125,55,125,53.4"/>
<path class="st0" d="M145.3,9.5v18.4c2-1.8,4.3-2.6,6.8-2.6c1.6,0,3.1,0.4,4.6,1.1c1.5,0.8,2.7,1.8,3.6,3.1c1.4,1.9,2,4,2,6.5v31.7
	H155V37.3c0-1.3-0.4-2.4-1.2-3.5c-1-1.2-2.2-1.8-3.7-1.8c-1.8,0-3.2,0.8-4.1,2.4c-0.4,0.8-0.7,1.8-0.7,2.9v30.4H138V9.5H145.3z"/>
<path class="st0" d="M173.7,48.2v7.5c0,1.9,0.4,3.4,1.3,4.5c1,1.2,2.2,1.8,3.7,1.8c2.1,0,3.5-1,4.3-3.1c0.3-0.8,0.4-1.8,0.4-2.9
	v-0.3h7.3c-0.1,1.2-0.1,2.2-0.2,2.9c-0.3,2.5-1.5,4.8-3.6,6.8c-2.3,2.2-5.1,3.2-8.4,3.2c-4.1,0-7.3-1.6-9.7-4.9
	c-1.6-2.3-2.4-4.9-2.4-8V38.1c0-3,1-5.7,2.9-8.1c2.5-3,5.5-4.5,9.1-4.5c2.8,0,5.3,0.9,7.6,2.6c3.1,2.3,4.6,5.7,4.6,10v10.1H173.7z
	 M183.4,41.5v-4.3c0-1.1-0.3-2.1-1-3.1c-0.9-1.4-2.2-2-3.8-2c-2,0-3.4,0.9-4.4,2.8c-0.4,0.7-0.5,1.5-0.5,2.3v4.3H183.4z"/>
<path class="st0" d="M210.7,55.8h7.5c0,1.8-0.2,3.4-0.7,4.7c-0.8,2.1-2,3.8-3.5,5.2c-2.2,1.9-4.9,2.9-7.9,2.9c-2.1,0-4-0.5-5.7-1.4
	c-1.8-0.9-3.2-2.2-4.3-3.9c-1.4-2.2-2.1-4.6-2.1-7.5V37.9c0-3.1,0.9-5.7,2.7-8c2.4-3,5.5-4.5,9.2-4.5c3.1,0,5.8,1,8.2,3
	c2.5,2.1,3.8,5.3,4.1,9.5h-7.5V37c0-1.4-0.4-2.5-1.4-3.4c-1-1-2.1-1.5-3.4-1.5c-1.7,0-3,0.8-4,2.3c-0.5,0.8-0.8,1.7-0.8,2.7v19.7
	c0,1.5,0.4,2.8,1.2,3.7c0.9,1,2.1,1.6,3.5,1.6c1.8,0,3.2-0.8,4.1-2.3c0.5-0.8,0.7-1.8,0.7-2.9L210.7,55.8L210.7,55.8z"/>
<polygon class="st0" points="222.1,67.7 222.1,9.5 229.4,9.5 229.4,40.7 239.4,26.2 247.6,26.2 234.1,45.9 247.6,67.7 239.4,67.7 
	229.4,51.4 229.4,67.7 "/>
<path class="st0" d="M259.4,33.1v34.7h-7.3V33.1h-3.6v-6.7h3.7v-8.7c0-1.7,0.6-3.5,1.8-5.4c1.2-1.8,3-2.8,5.5-2.9
	c2.4,0,4.7,1,6.7,3.1l-3.2,5.2c-0.4-0.8-1.1-1.1-1.9-1.1c-1.1,0.1-1.6,0.9-1.6,2.3v7.4h5.2V33L259.4,33.1L259.4,33.1z"/>
<path class="st0" d="M267.1,67.7V26.4h7.3v3.3c1-2.3,2.8-3.4,5.2-3.5c2.7,0,4.9,1,6.8,3.1l-3.9,5.9c-0.8-1.2-1.8-1.8-3-1.8
	c-1.6,0-2.8,0.6-3.8,1.8c-0.8,1.2-1.2,2.6-1.2,4.4v28.1C274.5,67.7,267.1,67.7,267.1,67.7z"/>
<path class="st0" d="M287,55.9v-18c0-2.5,0.7-4.9,2-6.9c1.1-1.8,2.6-3.1,4.4-4.1s3.7-1.5,5.8-1.5c3.9,0,7,1.5,9.4,4.6
	c1.8,2.3,2.7,5,2.7,8v18c0,2.7-0.7,5.1-2,7.2c-2.4,3.7-5.9,5.5-10.5,5.5c-4,0-7.1-1.6-9.4-4.8C287.8,61.6,287,58.9,287,55.9
	 M304,56.7V37c0-1.5-0.5-2.7-1.6-3.7c-1-0.9-2.1-1.3-3.3-1.3c-1.7,0-3.1,0.8-3.9,2.4c-0.5,0.9-0.8,1.8-0.8,2.7v19.7
	c0,1.3,0.4,2.4,1.2,3.4c1,1.2,2.2,1.8,3.7,1.8c1.6,0,2.8-0.7,3.8-2C303.6,59,304,58,304,56.7"/>
<path class="st0" d="M315.8,67.7V26.1h7.3V28c2.1-1.8,4.4-2.7,6.8-2.7c3.2,0,5.8,1.2,7.8,3.7c1.6,2,2.4,4.2,2.4,6.7v32.1h-7.3V37.1
	c0-1.3-0.4-2.3-1-3.2c-1-1.2-2.2-1.8-3.8-1.8c-1.7,0-3,0.7-3.9,2c-0.6,0.9-0.9,1.9-0.9,3v30.7L315.8,67.7L315.8,67.7z"/>
<path class="st0" d="M354.7,33.2V59c0,0.8,0.2,1.3,0.6,1.7c0.4,0.3,1,0.5,1.9,0.5h3.9v6.6h-6.4c-2.1,0-3.9-0.7-5.3-2
	c-1.4-1.3-2-2.9-2-4.7V33.2h-3.7v-6.7h3.7V12.3l7.3-2.8v17h7.3v6.6L354.7,33.2L354.7,33.2z"/>
<path class="st1" d="M86.9,68.6L86.9,68.6L86.9,68.6L86.9,68.6L86.9,68.6z"/>
<path class="st2" d="M86.9,68.6L86.9,68.6L86.9,68.6L86.9,68.6z"/>
<path class="st0" d="M92.6,13.5L58.4,60L38.6,40.6h-0.1h0.1l-0.3-0.3l4.4-4.3l13.6,4.8L86.9,8.5c-0.1,0-0.3,0-0.4,0H38.6
	c-3.5,0-6.3,2.9-6.3,6.3v47.9c0,3.5,2.9,6.3,6.3,6.3h14.6l0,0H64h22.5c3.5,0,6.3-2.9,6.3-6.3V14.8C92.8,14.4,92.7,13.9,92.6,13.5z"
	/>
</svg>
