<svg id="Layer_1" xmlns="http://www.w3.org/2000/svg" viewBox="0 0 210 150"><style>.st0{fill:#fff}</style><path class="st0" d="M107.1 66.6c-11-3-17.9-13.8-16-25.1.1-.5-.2-1-.7-1.1L74.5 37c-.2-.1-.5 0-.7.1s-.4.4-.4.6c-4 20.9 9.1 41.4 29.8 46.5.2 0 .5 0 .7-.1s.4-.4.4-.6l3.4-15.9c.2-.4-.1-.8-.6-1zM72.9 72c-11-3-17.9-13.8-16-25.1.1-.5-.2-1-.7-1.1l-15.9-3.4c-.2-.1-.5 0-.7.1s-.4.4-.4.6C35.2 64 48.3 84.5 69 89.6c.2.1.5 0 .7-.1s.4-.4.4-.6L73.5 73c.1-.4-.2-.9-.6-1zM92.8 8.8c-.3-.1-.5 0-.7.1s-.4.3-.4.6l-3.4 15.9c-.1.5.2 1 .7 1.1 11.1 3 17.9 13.8 16 25.1-.1.5.2 1 .7 1.1l15.9 3.4c.3.1.5 0 .7-.1s.4-.4.4-.6c3.9-21.1-9.2-41.5-29.9-46.6zM127.1 3.4c-.3-.1-.5 0-.7.1s-.4.4-.4.6L122.5 20c-.1.5.2 1 .7 1.1 11.1 3 17.9 13.8 16 25.1-.1.5.2 1 .7 1.1l15.9 3.4c.2.1.5 0 .7-.1s.4-.4.4-.6c4-21-9.1-41.4-29.8-46.6zM3.6 112.9h23v4.9H10.4v8.4h13.3l-.9 4.9H10.4v10h17v4.9H3.6v-33.1zm45.1 12.5c-.6-.6-1.2-1.1-1.7-1.6-.6-.4-1.4-.7-2.4-.7-.6 0-1.2.1-1.9.2-.7.2-1.4.6-2 1.2s-1.1 1.6-1.5 2.8c-.4 1.2-.6 2.9-.6 5s.2 3.8.6 5.1c.4 1.2.9 2.2 1.5 2.9s1.3 1.1 2 1.3 1.4.3 2.1.3c.5 0 1.1 0 1.7-.1.6-.1 1.1-.2 1.7-.3.5-.1 1-.2 1.4-.4.4-.1.7-.2.9-.3l1.6 3.9c-.1 0-.4.1-.8.3-.4.2-.9.4-1.6.5-.7.2-1.5.4-2.5.5-1 .2-2 .2-3.2.2-2.2 0-4.1-.3-5.7-1-1.6-.6-2.8-1.5-3.9-2.7-1-1.2-1.8-2.6-2.2-4.2-.5-1.6-.7-3.4-.7-5.4 0-2.4.3-4.5 1-6.4.7-1.8 1.6-3.4 2.8-4.6s2.6-2.2 4.2-2.9 3.3-1 5.1-1 3.3.3 4.5 1 2.3 1.6 3.2 2.7l-3.6 3.7zm15.6-2.9c1.1-1.4 2.4-2.4 4-3 1.5-.6 3.2-.9 4.9-.9 2.9 0 5.1.8 6.4 2.5s2 4 2 6.8V146H75v-17.7c0-1.5-.3-2.7-.9-3.6s-1.5-1.3-2.9-1.3c-.8 0-1.6.2-2.4.6s-1.6 1-2.2 1.7c-.7.7-1.2 1.6-1.6 2.6-.4 1-.6 2.1-.6 3.4V146h-6.5v-37.2l6.5-1.1-.1 14.8zm46.4-.5c2 2.5 3 5.8 3 10.2 0 2-.3 3.9-.8 5.7s-1.3 3.3-2.4 4.6-2.4 2.3-4.1 3c-1.6.7-3.5 1.1-5.7 1.1s-4-.3-5.6-1c-1.6-.6-2.9-1.5-3.9-2.7s-1.8-2.6-2.3-4.3-.7-3.6-.7-5.8c0-2.1.3-4 .8-5.7.5-1.8 1.3-3.3 2.4-4.6 1.1-1.3 2.4-2.3 4.1-3 1.6-.7 3.5-1.1 5.7-1.1 4.3-.1 7.5 1.2 9.5 3.6zm-12.9 1.6c-.7.5-1.3 1.1-1.7 2-.4.9-.7 1.8-.8 3-.2 1.1-.2 2.4-.2 3.7s.1 2.6.3 3.8c.2 1.2.5 2.2.9 3.1.5.9 1.1 1.6 1.9 2.1s1.8.8 3 .8c1.1 0 2-.2 2.7-.7s1.3-1.1 1.7-2c.4-.9.7-1.8.8-3 .2-1.1.2-2.3.2-3.6s-.1-2.6-.3-3.8c-.2-1.2-.5-2.2-.9-3.2-.5-.9-1.1-1.6-1.9-2.1s-1.8-.8-3-.8c-1.1 0-2 .2-2.7.7zm31.1-5.3c1.1 0 2.2.1 3.3.3 1.1.2 2 .5 2.9.8 1 .3 1.9.7 2.7 1l-1.9 4.2c-.8-.3-1.5-.6-2.3-.9-.6-.2-1.4-.4-2.1-.6-.8-.2-1.6-.3-2.3-.3-.9 0-1.6.2-2.3.6-.6.4-.9 1-.9 1.8 0 2.1 1.6 3.7 4.7 4.8 1.2.4 2.2.9 3.2 1.4s1.8 1.1 2.4 1.7c.7.7 1.2 1.4 1.5 2.3.3.9.5 1.9.5 3 0 1-.2 2-.7 3-.4 1-1.1 1.8-1.9 2.6-.9.8-1.9 1.4-3.1 1.8-1.2.5-2.6.7-4.2.7-1.3 0-2.5-.1-3.7-.4-1.2-.3-2.3-.6-3.3-.9-1-.3-1.7-.6-2.3-.9l-.9-.4 2.1-4.6.7.4c.5.3 1.1.6 1.9.9.8.3 1.6.6 2.5.9.9.3 1.7.4 2.4.4 1.3 0 2.3-.3 3-.8.6-.5 1-1.2 1-2 0-.9-.4-1.8-1.1-2.6-.7-.8-1.8-1.4-3.2-1.9-2.9-1-5-2.2-6.3-3.6-1.3-1.3-1.9-3.1-1.9-5.2 0-1 .2-2 .7-2.9s1.2-1.7 2-2.4c.9-.7 1.9-1.3 3.1-1.7 1.1-.3 2.4-.5 3.8-.5zm15.6 8.5c.7-1.8 1.7-3.4 2.9-4.6s2.7-2.2 4.4-2.8c1.7-.6 3.5-1 5.4-1 1.7 0 3.2.2 4.4.6s2.2.9 2.9 1.6c.8.7 1.3 1.5 1.7 2.4s.5 2 .5 3c0 1.3-.4 2.5-1.1 3.7-.8 1.2-1.9 2.2-3.3 3.1-1.4.9-3.2 1.6-5.2 2.1s-4.3.8-6.8.8c.1.8.3 1.6.5 2.4.2.7.6 1.4 1.1 2s1.1 1 1.9 1.3c.8.3 1.7.5 2.9.5.8 0 1.7-.1 2.7-.3s1.8-.4 2.6-.7c1-.3 1.9-.6 2.8-1l1.7 3.9c-1 .5-2.1.9-3.2 1.2-1 .3-2.1.6-3.4.9-1.3.3-2.7.4-4.1.4-2.2 0-4.1-.3-5.7-1-1.6-.6-2.8-1.5-3.8-2.7s-1.7-2.6-2.2-4.2c-.5-1.6-.7-3.4-.7-5.4.1-2.2.4-4.4 1.1-6.2zm9.1-3.4c-.8.6-1.5 1.3-2 2.2-.5.9-.8 1.9-1.1 3-.2 1.1-.3 2.2-.4 3.3 1.8-.1 3.4-.3 4.7-.7s2.3-.9 3.1-1.4c.8-.6 1.4-1.2 1.7-1.8.4-.7.5-1.3.5-2 0-1-.3-1.9-1-2.5-.6-.6-1.5-1-2.6-1-1 .1-2.1.4-2.9.9zm35.2 2c-.6-.6-1.2-1.1-1.7-1.6-.6-.4-1.4-.7-2.4-.7-.6 0-1.2.1-1.9.2-.7.2-1.4.6-2 1.2s-1.1 1.6-1.5 2.8c-.4 1.2-.6 2.9-.6 5s.2 3.8.6 5.1c.4 1.2.9 2.2 1.5 2.9s1.3 1.1 2 1.3 1.4.3 2.1.3c.5 0 1.1 0 1.7-.1.6-.1 1.1-.2 1.7-.3.5-.1 1-.2 1.4-.4.4-.1.7-.2.9-.3l1.6 3.9c-.1 0-.4.1-.8.3-.4.2-.9.4-1.6.5-.7.2-1.5.4-2.5.5-1 .2-2 .2-3.2.2-2.2 0-4.1-.3-5.7-1-1.6-.6-2.8-1.5-3.9-2.7-1-1.2-1.8-2.6-2.2-4.2-.5-1.6-.7-3.4-.7-5.4 0-2.4.3-4.5 1-6.4.7-1.8 1.6-3.4 2.8-4.6s2.6-2.2 4.2-2.9c1.6-.7 3.3-1 5.1-1s3.3.3 4.5 1 2.3 1.6 3.2 2.7l-3.6 3.7zm9.5-9.6v5.9h-1.1v-5.9h-1.5v-.9h4v.9h-1.4zm7 5.9v-4.5l-1.4 3.8h-.7l-1.4-3.7v4.4h-1.1v-6.8h1l1.8 4.5 1.8-4.5h1v6.8h-1z"/></svg>