<svg id="Layer_1" xmlns="http://www.w3.org/2000/svg" viewBox="0 0 300 110"><style>.st0{fill:#fff}</style><path class="st0" d="M68.3 65.6c-10.5-2.8-17-13-15.1-23.7.1-.5-.2-.9-.7-1l-15-3.2c-.2 0-.5 0-.7.1s-.3.3-.4.6c-3.8 19.8 8.6 39.2 28.2 44 .2 0 .5 0 .7-.1s.3-.3.4-.6l3.2-15c.1-.5-.1-1-.6-1.1zM35.9 70.7c-10.5-2.8-17-13-15.1-23.7.1-.5-.2-.9-.7-1L5 42.7c-.2 0-.5 0-.7.1-.1.2-.3.4-.3.6-3.8 19.8 8.6 39.2 28.2 44 .2.1.5 0 .7-.1s.4-.3.4-.6l3.2-15c.1-.4-.2-.9-.6-1zM54.8 10.8c-.2-.1-.5 0-.7.1s-.3.3-.4.6l-3.2 15c-.1.5.2.9.6 1 10.5 2.8 17 13 15.1 23.7-.1.5.2.9.7 1l15 3.2c.2.1.5 0 .7-.1s.3-.3.4-.6c3.8-19.7-8.6-39-28.2-43.9zM87.2 5.8c-.2-.1-.5 0-.7.1s-.3.3-.4.6l-3.2 15c-.1.5.2.9.6 1 10.5 2.8 17 13 15.1 23.7-.1.5.2.9.7 1l15 3.2c.2.1.5 0 .7-.1s.3-.3.4-.6c3.8-19.7-8.6-39.1-28.2-43.9zM93.4 70.5h23v4.9h-16.2v8.5h13.4l-.9 5h-12.5v10h17.1v4.9H93.4V70.5zM138.6 83c-.6-.6-1.2-1.1-1.7-1.6-.6-.4-1.4-.7-2.4-.7-.6 0-1.2.1-1.9.2-.7.2-1.4.6-2 1.2s-1.1 1.6-1.5 2.8c-.4 1.2-.6 2.9-.6 5s.2 3.8.6 5.1c.4 1.3.9 2.2 1.5 2.9.6.7 1.3 1.1 2 1.3.7.2 1.4.3 2.1.3.5 0 1.1 0 1.7-.1.6-.1 1.1-.2 1.7-.3.5-.1 1-.2 1.4-.4.4-.1.7-.2.9-.3l1.6 3.9c-.1 0-.4.1-.8.3-.4.2-.9.4-1.6.5-.7.2-1.5.4-2.5.5-1 .2-2 .2-3.2.2-2.2 0-4.1-.3-5.7-1-1.6-.6-2.9-1.5-3.9-2.7s-1.8-2.6-2.2-4.2c-.5-1.6-.7-3.4-.7-5.4 0-2.4.3-4.5 1-6.4s1.6-3.4 2.8-4.7c1.2-1.3 2.6-2.2 4.2-2.9 1.6-.7 3.3-1 5.2-1 1.8 0 3.3.3 4.6 1 1.2.7 2.3 1.6 3.2 2.7l-3.8 3.8zm15.7-2.9c1.1-1.4 2.4-2.4 4-3 1.5-.6 3.2-.9 4.9-.9 2.9 0 5.1.8 6.4 2.5 1.3 1.7 2 4 2 6.8v18.2H165V86c0-1.5-.3-2.7-.9-3.6-.6-.9-1.5-1.3-2.9-1.3-.8 0-1.6.2-2.4.6-.8.4-1.6 1-2.2 1.7-.7.7-1.2 1.6-1.6 2.6-.4 1-.6 2.1-.6 3.4v14.4h-6.5V66.4l6.5-1.1v14.8h-.1zm46.4-.4c2 2.5 3 5.9 3 10.2 0 2-.3 3.9-.8 5.7-.5 1.8-1.3 3.3-2.4 4.6-1.1 1.3-2.5 2.3-4.1 3.1-1.6.7-3.6 1.1-5.7 1.1s-4.1-.3-5.6-1c-1.6-.6-2.9-1.6-3.9-2.8-1-1.2-1.8-2.7-2.3-4.4-.5-1.7-.7-3.6-.7-5.8 0-2.1.3-4 .8-5.7.5-1.8 1.3-3.3 2.4-4.6 1.1-1.3 2.5-2.3 4.1-3.1 1.6-.7 3.6-1.1 5.7-1.1 4.4 0 7.6 1.3 9.5 3.8zm-12.8 1.5c-.7.5-1.3 1.1-1.7 2s-.7 1.9-.8 3c-.2 1.1-.2 2.4-.2 3.7 0 1.3.1 2.6.3 3.8.2 1.2.5 2.2.9 3.1.5.9 1.1 1.6 1.9 2.1.8.5 1.8.8 3 .8 1.1 0 2-.2 2.7-.7s1.3-1.1 1.7-2 .7-1.8.8-3c.2-1.1.2-2.3.2-3.6 0-1.3-.1-2.6-.3-3.8s-.5-2.3-.9-3.2c-.5-.9-1.1-1.6-1.9-2.1-.8-.5-1.8-.8-3-.8-1.1 0-2 .3-2.7.7zm31.1-5.3c1.1 0 2.2.1 3.3.3 1.1.2 2 .5 2.9.8 1 .3 1.9.7 2.8 1l-1.9 4.2c-.8-.3-1.5-.6-2.3-.9l-2.1-.6c-.8-.2-1.6-.3-2.3-.3-.9 0-1.6.2-2.3.6-.6.4-.9 1-.9 1.8 0 2.1 1.6 3.7 4.8 4.8 1.2.4 2.3.9 3.2 1.4 1 .5 1.8 1.1 2.4 1.7.7.7 1.2 1.4 1.5 2.3s.5 1.9.5 3c0 1-.2 2-.7 3-.4 1-1.1 1.9-1.9 2.6-.9.8-1.9 1.4-3.2 1.8-1.2.5-2.6.7-4.2.7-1.3 0-2.5-.1-3.7-.4s-2.3-.6-3.3-.9-1.7-.6-2.3-.9l-.9-.4 2.1-4.6.7.4c.5.3 1.1.6 1.9.9.8.3 1.6.6 2.5.9s1.7.4 2.4.4c1.3 0 2.3-.3 3-.8.6-.5 1-1.2 1-2 0-.9-.4-1.8-1.1-2.6-.7-.8-1.8-1.4-3.2-1.9-2.9-1.1-5.1-2.3-6.3-3.6-1.3-1.3-1.9-3.1-1.9-5.2 0-1 .2-2 .7-2.9s1.2-1.7 2-2.5c.9-.7 1.9-1.3 3.1-1.7 1.1-.2 2.3-.4 3.7-.4zm15.7 8.5c.7-1.9 1.7-3.4 2.9-4.7 1.2-1.3 2.7-2.2 4.4-2.8 1.7-.6 3.5-1 5.4-1 1.7 0 3.2.2 4.4.6s2.2.9 3 1.6 1.3 1.5 1.7 2.5c.4.9.5 2 .5 3.1 0 1.3-.4 2.6-1.1 3.7-.8 1.2-1.9 2.2-3.3 3.1-1.4.9-3.2 1.6-5.2 2.1s-4.3.8-6.8.8c.1.8.3 1.6.5 2.4.2.7.6 1.4 1.1 2s1.1 1 1.9 1.3c.8.3 1.7.5 2.9.5.8 0 1.7-.1 2.7-.3 1-.2 1.8-.4 2.6-.7 1-.3 1.9-.6 2.8-1l1.7 3.9c-1 .5-2.1.9-3.2 1.3-1 .3-2.1.6-3.4.9-1.3.3-2.7.4-4.1.4-2.2 0-4.1-.3-5.7-1-1.6-.6-2.8-1.5-3.8-2.7s-1.7-2.6-2.2-4.2-.7-3.4-.7-5.4c-.1-2.4.3-4.6 1-6.4zm9.1-3.4c-.8.6-1.5 1.3-2 2.2-.5.9-.9 1.9-1.1 3-.2 1.1-.3 2.2-.4 3.3 1.8-.1 3.4-.3 4.7-.7 1.3-.4 2.3-.9 3.1-1.4.8-.6 1.4-1.2 1.7-1.8.4-.7.5-1.3.5-2 0-1.1-.3-1.9-1-2.5-.6-.6-1.5-1-2.6-1-1 .1-2.1.4-2.9.9zm35.3 2c-.6-.6-1.2-1.1-1.7-1.6-.6-.4-1.4-.7-2.4-.7-.6 0-1.2.1-1.9.2-.7.2-1.4.6-2 1.2s-1.1 1.6-1.5 2.8c-.4 1.2-.6 2.9-.6 5s.2 3.8.6 5.1c.4 1.3.9 2.2 1.5 2.9.6.7 1.3 1.1 2 1.3.7.2 1.4.3 2.1.3.5 0 1.1 0 1.7-.1s1.1-.2 1.7-.3c.5-.1 1-.2 1.4-.4.4-.1.7-.2.9-.3l1.6 3.9c-.1 0-.4.1-.8.3-.4.2-.9.4-1.6.5-.7.2-1.5.4-2.5.5-1 .2-2 .2-3.2.2-2.2 0-4.1-.3-5.7-1-1.6-.6-2.9-1.5-3.9-2.7s-1.8-2.6-2.2-4.2c-.5-1.6-.7-3.4-.7-5.4 0-2.4.3-4.5 1-6.4s1.6-3.4 2.8-4.7c1.2-1.3 2.6-2.2 4.2-2.9 1.6-.7 3.3-1 5.2-1 1.8 0 3.3.3 4.6 1 1.2.7 2.3 1.6 3.2 2.7l-3.8 3.8zm9.5-9.6v6h-1.1v-6H286v-.9h4v.9h-1.4zm7 5.9v-4.5l-1.4 3.8h-.7l-1.4-3.7v4.4H291v-6.8h1l1.8 4.5 1.8-4.5h1v6.8h-1z"/></svg>