<?xml version="1.0" encoding="utf-8"?>
<!-- Generator: Adobe Illustrator 19.2.0, SVG Export Plug-In . SVG Version: 6.00 Build 0)  -->
<svg version="1.1" id="Layer_1" xmlns="http://www.w3.org/2000/svg" xmlns:xlink="http://www.w3.org/1999/xlink" x="0px" y="0px"
	 viewBox="0 0 300 110" style="enable-background:new 0 0 300 110;" xml:space="preserve">
<style type="text/css">
	.st0{fill:#FFFFFF;}
</style>
<g>
	<path class="st0" d="M68.3,65.6c-10.5-2.8-17-13-15.1-23.7c0.1-0.5-0.2-0.9-0.7-1l-15-3.2c-0.2,0-0.5,0-0.7,0.1s-0.3,0.3-0.4,0.6
		c-3.8,19.8,8.6,39.2,28.2,44l0,0c0.2,0,0.5,0,0.7-0.1s0.3-0.3,0.4-0.6l3.2-15C69,66.2,68.8,65.7,68.3,65.6z"/>
	<path class="st0" d="M35.9,70.7c-10.5-2.8-17-13-15.1-23.7c0.1-0.5-0.2-0.9-0.7-1L5,42.7c-0.2,0-0.5,0-0.7,0.1
		C4.2,43,4,43.2,4,43.4c-3.8,19.8,8.6,39.2,28.2,44l0,0c0.2,0.1,0.5,0,0.7-0.1s0.4-0.3,0.4-0.6l3.2-15
		C36.6,71.3,36.3,70.8,35.9,70.7z"/>
	<path class="st0" d="M54.8,10.8L54.8,10.8c-0.2-0.1-0.5,0-0.7,0.1s-0.3,0.3-0.4,0.6l-3.2,15c-0.1,0.5,0.2,0.9,0.6,1
		c10.5,2.8,17,13,15.1,23.7c-0.1,0.5,0.2,0.9,0.7,1l15,3.2c0.2,0.1,0.5,0,0.7-0.1s0.3-0.3,0.4-0.6C86.8,35,74.4,15.7,54.8,10.8z"/>
	<path class="st0" d="M87.2,5.8L87.2,5.8c-0.2-0.1-0.5,0-0.7,0.1s-0.3,0.3-0.4,0.6l-3.2,15c-0.1,0.5,0.2,0.9,0.6,1
		c10.5,2.8,17,13,15.1,23.7c-0.1,0.5,0.2,0.9,0.7,1l15,3.2c0.2,0.1,0.5,0,0.7-0.1s0.3-0.3,0.4-0.6C119.2,30,106.8,10.6,87.2,5.8z"/>
</g>
<path class="st0" d="M93.4,70.5h23v4.9h-16.2v8.5h13.4l-0.9,5h-12.5v10h17.1v4.9H93.4V70.5z M138.6,83c-0.6-0.6-1.2-1.1-1.7-1.6
	c-0.6-0.4-1.4-0.7-2.4-0.7c-0.6,0-1.2,0.1-1.9,0.2c-0.7,0.2-1.4,0.6-2,1.2s-1.1,1.6-1.5,2.8c-0.4,1.2-0.6,2.9-0.6,5s0.2,3.8,0.6,5.1
	c0.4,1.3,0.9,2.2,1.5,2.9c0.6,0.7,1.3,1.1,2,1.3c0.7,0.2,1.4,0.3,2.1,0.3c0.5,0,1.1,0,1.7-0.1c0.6-0.1,1.1-0.2,1.7-0.3
	c0.5-0.1,1-0.2,1.4-0.4c0.4-0.1,0.7-0.2,0.9-0.3l1.6,3.9c-0.1,0-0.4,0.1-0.8,0.3c-0.4,0.2-0.9,0.4-1.6,0.5c-0.7,0.2-1.5,0.4-2.5,0.5
	c-1,0.2-2,0.2-3.2,0.2c-2.2,0-4.1-0.3-5.7-1c-1.6-0.6-2.9-1.5-3.9-2.7s-1.8-2.6-2.2-4.2c-0.5-1.6-0.7-3.4-0.7-5.4
	c0-2.4,0.3-4.5,1-6.4s1.6-3.4,2.8-4.7c1.2-1.3,2.6-2.2,4.2-2.9c1.6-0.7,3.3-1,5.2-1c1.8,0,3.3,0.3,4.6,1c1.2,0.7,2.3,1.6,3.2,2.7
	L138.6,83z M154.3,80.1c1.1-1.4,2.4-2.4,4-3c1.5-0.6,3.2-0.9,4.9-0.9c2.9,0,5.1,0.8,6.4,2.5c1.3,1.7,2,4,2,6.8v18.2H165V86
	c0-1.5-0.3-2.7-0.9-3.6c-0.6-0.9-1.5-1.3-2.9-1.3c-0.8,0-1.6,0.2-2.4,0.6c-0.8,0.4-1.6,1-2.2,1.7c-0.7,0.7-1.2,1.6-1.6,2.6
	c-0.4,1-0.6,2.1-0.6,3.4v14.4h-6.5V66.4l6.5-1.1v14.8H154.3z M200.7,79.7c2,2.5,3,5.9,3,10.2c0,2-0.3,3.9-0.8,5.7
	c-0.5,1.8-1.3,3.3-2.4,4.6c-1.1,1.3-2.5,2.3-4.1,3.1c-1.6,0.7-3.6,1.1-5.7,1.1s-4.1-0.3-5.6-1c-1.6-0.6-2.9-1.6-3.9-2.8
	c-1-1.2-1.8-2.7-2.3-4.4c-0.5-1.7-0.7-3.6-0.7-5.8c0-2.1,0.3-4,0.8-5.7c0.5-1.8,1.3-3.3,2.4-4.6c1.1-1.3,2.5-2.3,4.1-3.1
	c1.6-0.7,3.6-1.1,5.7-1.1C195.6,75.9,198.8,77.2,200.7,79.7z M187.9,81.2c-0.7,0.5-1.3,1.1-1.7,2s-0.7,1.9-0.8,3
	c-0.2,1.1-0.2,2.4-0.2,3.7c0,1.3,0.1,2.6,0.3,3.8c0.2,1.2,0.5,2.2,0.9,3.1c0.5,0.9,1.1,1.6,1.9,2.1c0.8,0.5,1.8,0.8,3,0.8
	c1.1,0,2-0.2,2.7-0.7s1.3-1.1,1.7-2s0.7-1.8,0.8-3c0.2-1.1,0.2-2.3,0.2-3.6c0-1.3-0.1-2.6-0.3-3.8s-0.5-2.3-0.9-3.2
	c-0.5-0.9-1.1-1.6-1.9-2.1c-0.8-0.5-1.8-0.8-3-0.8C189.5,80.5,188.6,80.8,187.9,81.2z M219,75.9c1.1,0,2.2,0.1,3.3,0.3
	c1.1,0.2,2,0.5,2.9,0.8c1,0.3,1.9,0.7,2.8,1l-1.9,4.2c-0.8-0.3-1.5-0.6-2.3-0.9c-0.7-0.2-1.4-0.4-2.1-0.6c-0.8-0.2-1.6-0.3-2.3-0.3
	c-0.9,0-1.6,0.2-2.3,0.6c-0.6,0.4-0.9,1-0.9,1.8c0,2.1,1.6,3.7,4.8,4.8c1.2,0.4,2.3,0.9,3.2,1.4c1,0.5,1.8,1.1,2.4,1.7
	c0.7,0.7,1.2,1.4,1.5,2.3s0.5,1.9,0.5,3c0,1-0.2,2-0.7,3c-0.4,1-1.1,1.9-1.9,2.6c-0.9,0.8-1.9,1.4-3.2,1.8c-1.2,0.5-2.6,0.7-4.2,0.7
	c-1.3,0-2.5-0.1-3.7-0.4s-2.3-0.6-3.3-0.9s-1.7-0.6-2.3-0.9l-0.9-0.4l2.1-4.6l0.7,0.4c0.5,0.3,1.1,0.6,1.9,0.9
	c0.8,0.3,1.6,0.6,2.5,0.9s1.7,0.4,2.4,0.4c1.3,0,2.3-0.3,3-0.8c0.6-0.5,1-1.2,1-2c0-0.9-0.4-1.8-1.1-2.6c-0.7-0.8-1.8-1.4-3.2-1.9
	c-2.9-1.1-5.1-2.3-6.3-3.6c-1.3-1.3-1.9-3.1-1.9-5.2c0-1,0.2-2,0.7-2.9s1.2-1.7,2-2.5c0.9-0.7,1.9-1.3,3.1-1.7
	C216.4,76.1,217.6,75.9,219,75.9z M234.7,84.4c0.7-1.9,1.7-3.4,2.9-4.7c1.2-1.3,2.7-2.2,4.4-2.8c1.7-0.6,3.5-1,5.4-1
	c1.7,0,3.2,0.2,4.4,0.6s2.2,0.9,3,1.6s1.3,1.5,1.7,2.5c0.4,0.9,0.5,2,0.5,3.1c0,1.3-0.4,2.6-1.1,3.7c-0.8,1.2-1.9,2.2-3.3,3.1
	c-1.4,0.9-3.2,1.6-5.2,2.1s-4.3,0.8-6.8,0.8c0.1,0.8,0.3,1.6,0.5,2.4c0.2,0.7,0.6,1.4,1.1,2s1.1,1,1.9,1.3c0.8,0.3,1.7,0.5,2.9,0.5
	c0.8,0,1.7-0.1,2.7-0.3c1-0.2,1.8-0.4,2.6-0.7c1-0.3,1.9-0.6,2.8-1l1.7,3.9c-1,0.5-2.1,0.9-3.2,1.3c-1,0.3-2.1,0.6-3.4,0.9
	c-1.3,0.3-2.7,0.4-4.1,0.4c-2.2,0-4.1-0.3-5.7-1c-1.6-0.6-2.8-1.5-3.8-2.7s-1.7-2.6-2.2-4.2s-0.7-3.4-0.7-5.4
	C233.6,88.4,234,86.2,234.7,84.4z M243.8,81c-0.8,0.6-1.5,1.3-2,2.2c-0.5,0.9-0.9,1.9-1.1,3c-0.2,1.1-0.3,2.2-0.4,3.3
	c1.8-0.1,3.4-0.3,4.7-0.7c1.3-0.4,2.3-0.9,3.1-1.4c0.8-0.6,1.4-1.2,1.7-1.8c0.4-0.7,0.5-1.3,0.5-2c0-1.1-0.3-1.9-1-2.5
	c-0.6-0.6-1.5-1-2.6-1C245.7,80.2,244.6,80.5,243.8,81z M279.1,83c-0.6-0.6-1.2-1.1-1.7-1.6c-0.6-0.4-1.4-0.7-2.4-0.7
	c-0.6,0-1.2,0.1-1.9,0.2c-0.7,0.2-1.4,0.6-2,1.2s-1.1,1.6-1.5,2.8c-0.4,1.2-0.6,2.9-0.6,5s0.2,3.8,0.6,5.1c0.4,1.3,0.9,2.2,1.5,2.9
	c0.6,0.7,1.3,1.1,2,1.3c0.7,0.2,1.4,0.3,2.1,0.3c0.5,0,1.1,0,1.7-0.1s1.1-0.2,1.7-0.3c0.5-0.1,1-0.2,1.4-0.4
	c0.4-0.1,0.7-0.2,0.9-0.3l1.6,3.9c-0.1,0-0.4,0.1-0.8,0.3c-0.4,0.2-0.9,0.4-1.6,0.5c-0.7,0.2-1.5,0.4-2.5,0.5c-1,0.2-2,0.2-3.2,0.2
	c-2.2,0-4.1-0.3-5.7-1c-1.6-0.6-2.9-1.5-3.9-2.7s-1.8-2.6-2.2-4.2c-0.5-1.6-0.7-3.4-0.7-5.4c0-2.4,0.3-4.5,1-6.4s1.6-3.4,2.8-4.7
	c1.2-1.3,2.6-2.2,4.2-2.9c1.6-0.7,3.3-1,5.2-1c1.8,0,3.3,0.3,4.6,1c1.2,0.7,2.3,1.6,3.2,2.7L279.1,83z M288.6,73.4v6h-1.1v-6H286
	v-0.9h4v0.9H288.6z M295.6,79.3v-4.5l-1.4,3.8h-0.7l-1.4-3.7v4.4H291v-6.8h1l1.8,4.5l1.8-4.5h1v6.8
	C296.6,79.3,295.6,79.3,295.6,79.3z"/>
</svg>
