<?xml version="1.0" encoding="utf-8"?>
<!-- Generator: Adobe Illustrator 19.2.0, SVG Export Plug-In . SVG Version: 6.00 Build 0)  -->
<svg version="1.1" id="Layer_1" xmlns="http://www.w3.org/2000/svg" xmlns:xlink="http://www.w3.org/1999/xlink" x="0px" y="0px"
	 viewBox="0 0 210 150" style="enable-background:new 0 0 210 150;" xml:space="preserve">
<style type="text/css">
	.st0{fill:#FFFFFF;}
</style>
<g>
	<path class="st0" d="M107.1,66.6c-11-3-17.9-13.8-16-25.1c0.1-0.5-0.2-1-0.7-1.1L74.5,37c-0.2-0.1-0.5,0-0.7,0.1s-0.4,0.4-0.4,0.6
		c-4,20.9,9.1,41.4,29.8,46.5l0,0c0.2,0,0.5,0,0.7-0.1s0.4-0.4,0.4-0.6l3.4-15.9C107.9,67.2,107.6,66.8,107.1,66.6z"/>
	<path class="st0" d="M72.9,72c-11-3-17.9-13.8-16-25.1c0.1-0.5-0.2-1-0.7-1.1l-15.9-3.4c-0.2-0.1-0.5,0-0.7,0.1s-0.4,0.4-0.4,0.6
		C35.2,64,48.3,84.5,69,89.6l0,0c0.2,0.1,0.5,0,0.7-0.1s0.4-0.4,0.4-0.6L73.5,73C73.6,72.6,73.3,72.1,72.9,72z"/>
	<path class="st0" d="M92.8,8.8L92.8,8.8c-0.3-0.1-0.5,0-0.7,0.1s-0.4,0.3-0.4,0.6l-3.4,15.9c-0.1,0.5,0.2,1,0.7,1.1
		c11.1,3,17.9,13.8,16,25.1c-0.1,0.5,0.2,1,0.7,1.1l15.9,3.4c0.3,0.1,0.5,0,0.7-0.1s0.4-0.4,0.4-0.6C126.6,34.3,113.5,13.9,92.8,8.8
		z"/>
	<path class="st0" d="M127.1,3.4L127.1,3.4c-0.3-0.1-0.5,0-0.7,0.1S126,3.9,126,4.1L122.5,20c-0.1,0.5,0.2,1,0.7,1.1
		c11.1,3,17.9,13.8,16,25.1c-0.1,0.5,0.2,1,0.7,1.1l15.9,3.4c0.2,0.1,0.5,0,0.7-0.1s0.4-0.4,0.4-0.6C160.9,29,147.8,8.6,127.1,3.4z"
		/>
</g>
<path class="st0" d="M3.6,112.9h23v4.9H10.4v8.4h13.3l-0.9,4.9H10.4v10h17v4.9H3.6V112.9z M48.7,125.4c-0.6-0.6-1.2-1.1-1.7-1.6
	c-0.6-0.4-1.4-0.7-2.4-0.7c-0.6,0-1.2,0.1-1.9,0.2c-0.7,0.2-1.4,0.6-2,1.2s-1.1,1.6-1.5,2.8c-0.4,1.2-0.6,2.9-0.6,5s0.2,3.8,0.6,5.1
	c0.4,1.2,0.9,2.2,1.5,2.9s1.3,1.1,2,1.3s1.4,0.3,2.1,0.3c0.5,0,1.1,0,1.7-0.1c0.6-0.1,1.1-0.2,1.7-0.3c0.5-0.1,1-0.2,1.4-0.4
	c0.4-0.1,0.7-0.2,0.9-0.3l1.6,3.9c-0.1,0-0.4,0.1-0.8,0.3c-0.4,0.2-0.9,0.4-1.6,0.5c-0.7,0.2-1.5,0.4-2.5,0.5c-1,0.2-2,0.2-3.2,0.2
	c-2.2,0-4.1-0.3-5.7-1c-1.6-0.6-2.8-1.5-3.9-2.7c-1-1.2-1.8-2.6-2.2-4.2c-0.5-1.6-0.7-3.4-0.7-5.4c0-2.4,0.3-4.5,1-6.4
	c0.7-1.8,1.6-3.4,2.8-4.6s2.6-2.2,4.2-2.9s3.3-1,5.1-1s3.3,0.3,4.5,1s2.3,1.6,3.2,2.7L48.7,125.4z M64.3,122.5c1.1-1.4,2.4-2.4,4-3
	c1.5-0.6,3.2-0.9,4.9-0.9c2.9,0,5.1,0.8,6.4,2.5s2,4,2,6.8V146H75v-17.7c0-1.5-0.3-2.7-0.9-3.6s-1.5-1.3-2.9-1.3
	c-0.8,0-1.6,0.2-2.4,0.6s-1.6,1-2.2,1.7c-0.7,0.7-1.2,1.6-1.6,2.6c-0.4,1-0.6,2.1-0.6,3.4V146h-6.5v-37.2l6.5-1.1L64.3,122.5
	L64.3,122.5z M110.7,122c2,2.5,3,5.8,3,10.2c0,2-0.3,3.9-0.8,5.7s-1.3,3.3-2.4,4.6s-2.4,2.3-4.1,3c-1.6,0.7-3.5,1.1-5.7,1.1
	s-4-0.3-5.6-1c-1.6-0.6-2.9-1.5-3.9-2.7s-1.8-2.6-2.3-4.3s-0.7-3.6-0.7-5.8c0-2.1,0.3-4,0.8-5.7c0.5-1.8,1.3-3.3,2.4-4.6
	c1.1-1.3,2.4-2.3,4.1-3c1.6-0.7,3.5-1.1,5.7-1.1C105.5,118.3,108.7,119.6,110.7,122z M97.8,123.6c-0.7,0.5-1.3,1.1-1.7,2
	c-0.4,0.9-0.7,1.8-0.8,3c-0.2,1.1-0.2,2.4-0.2,3.7s0.1,2.6,0.3,3.8c0.2,1.2,0.5,2.2,0.9,3.1c0.5,0.9,1.1,1.6,1.9,2.1s1.8,0.8,3,0.8
	c1.1,0,2-0.2,2.7-0.7s1.3-1.1,1.7-2c0.4-0.9,0.7-1.8,0.8-3c0.2-1.1,0.2-2.3,0.2-3.6s-0.1-2.6-0.3-3.8c-0.2-1.2-0.5-2.2-0.9-3.2
	c-0.5-0.9-1.1-1.6-1.9-2.1s-1.8-0.8-3-0.8C99.4,122.9,98.5,123.1,97.8,123.6z M128.9,118.3c1.1,0,2.2,0.1,3.3,0.3
	c1.1,0.2,2,0.5,2.9,0.8c1,0.3,1.9,0.7,2.7,1l-1.9,4.2c-0.8-0.3-1.5-0.6-2.3-0.9c-0.6-0.2-1.4-0.4-2.1-0.6c-0.8-0.2-1.6-0.3-2.3-0.3
	c-0.9,0-1.6,0.2-2.3,0.6c-0.6,0.4-0.9,1-0.9,1.8c0,2.1,1.6,3.7,4.7,4.8c1.2,0.4,2.2,0.9,3.2,1.4s1.8,1.1,2.4,1.7
	c0.7,0.7,1.2,1.4,1.5,2.3c0.3,0.9,0.5,1.9,0.5,3c0,1-0.2,2-0.7,3c-0.4,1-1.1,1.8-1.9,2.6c-0.9,0.8-1.9,1.4-3.1,1.8
	c-1.2,0.5-2.6,0.7-4.2,0.7c-1.3,0-2.5-0.1-3.7-0.4c-1.2-0.3-2.3-0.6-3.3-0.9c-1-0.3-1.7-0.6-2.3-0.9l-0.9-0.4l2.1-4.6l0.7,0.4
	c0.5,0.3,1.1,0.6,1.9,0.9c0.8,0.3,1.6,0.6,2.5,0.9c0.9,0.3,1.7,0.4,2.4,0.4c1.3,0,2.3-0.3,3-0.8c0.6-0.5,1-1.2,1-2
	c0-0.9-0.4-1.8-1.1-2.6c-0.7-0.8-1.8-1.4-3.2-1.9c-2.9-1-5-2.2-6.3-3.6c-1.3-1.3-1.9-3.1-1.9-5.2c0-1,0.2-2,0.7-2.9s1.2-1.7,2-2.4
	c0.9-0.7,1.9-1.3,3.1-1.7C126.2,118.5,127.5,118.3,128.9,118.3z M144.5,126.8c0.7-1.8,1.7-3.4,2.9-4.6s2.7-2.2,4.4-2.8
	c1.7-0.6,3.5-1,5.4-1c1.7,0,3.2,0.2,4.4,0.6s2.2,0.9,2.9,1.6c0.8,0.7,1.3,1.5,1.7,2.4s0.5,2,0.5,3c0,1.3-0.4,2.5-1.1,3.7
	c-0.8,1.2-1.9,2.2-3.3,3.1c-1.4,0.9-3.2,1.6-5.2,2.1s-4.3,0.8-6.8,0.8c0.1,0.8,0.3,1.6,0.5,2.4c0.2,0.7,0.6,1.4,1.1,2s1.1,1,1.9,1.3
	c0.8,0.3,1.7,0.5,2.9,0.5c0.8,0,1.7-0.1,2.7-0.3s1.8-0.4,2.6-0.7c1-0.3,1.9-0.6,2.8-1l1.7,3.9c-1,0.5-2.1,0.9-3.2,1.2
	c-1,0.3-2.1,0.6-3.4,0.9c-1.3,0.3-2.7,0.4-4.1,0.4c-2.2,0-4.1-0.3-5.7-1c-1.6-0.6-2.8-1.5-3.8-2.7s-1.7-2.6-2.2-4.2
	c-0.5-1.6-0.7-3.4-0.7-5.4C143.5,130.8,143.8,128.6,144.5,126.8z M153.6,123.4c-0.8,0.6-1.5,1.3-2,2.2c-0.5,0.9-0.8,1.9-1.1,3
	c-0.2,1.1-0.3,2.2-0.4,3.3c1.8-0.1,3.4-0.3,4.7-0.7s2.3-0.9,3.1-1.4c0.8-0.6,1.4-1.2,1.7-1.8c0.4-0.7,0.5-1.3,0.5-2
	c0-1-0.3-1.9-1-2.5c-0.6-0.6-1.5-1-2.6-1C155.5,122.6,154.4,122.9,153.6,123.4z M188.8,125.4c-0.6-0.6-1.2-1.1-1.7-1.6
	c-0.6-0.4-1.4-0.7-2.4-0.7c-0.6,0-1.2,0.1-1.9,0.2c-0.7,0.2-1.4,0.6-2,1.2s-1.1,1.6-1.5,2.8c-0.4,1.2-0.6,2.9-0.6,5s0.2,3.8,0.6,5.1
	c0.4,1.2,0.9,2.2,1.5,2.9s1.3,1.1,2,1.3s1.4,0.3,2.1,0.3c0.5,0,1.1,0,1.7-0.1c0.6-0.1,1.1-0.2,1.7-0.3c0.5-0.1,1-0.2,1.4-0.4
	c0.4-0.1,0.7-0.2,0.9-0.3l1.6,3.9c-0.1,0-0.4,0.1-0.8,0.3c-0.4,0.2-0.9,0.4-1.6,0.5c-0.7,0.2-1.5,0.4-2.5,0.5c-1,0.2-2,0.2-3.2,0.2
	c-2.2,0-4.1-0.3-5.7-1c-1.6-0.6-2.8-1.5-3.9-2.7c-1-1.2-1.8-2.6-2.2-4.2c-0.5-1.6-0.7-3.4-0.7-5.4c0-2.4,0.3-4.5,1-6.4
	c0.7-1.8,1.6-3.4,2.8-4.6s2.6-2.2,4.2-2.9c1.6-0.7,3.3-1,5.1-1s3.3,0.3,4.5,1s2.3,1.6,3.2,2.7L188.8,125.4z M198.3,115.8v5.9h-1.1
	v-5.9h-1.5v-0.9h4v0.9H198.3z M205.3,121.7v-4.5l-1.4,3.8h-0.7l-1.4-3.7v4.4h-1.1v-6.8h1l1.8,4.5l1.8-4.5h1v6.8
	C206.3,121.7,205.3,121.7,205.3,121.7z"/>
</svg>
