<?xml version="1.0" encoding="utf-8"?>
<!-- Generator: Adobe Illustrator 19.2.0, SVG Export Plug-In . SVG Version: 6.00 Build 0)  -->
<svg version="1.1" id="Layer_1" xmlns="http://www.w3.org/2000/svg" xmlns:xlink="http://www.w3.org/1999/xlink" x="0px" y="0px"
	 viewBox="0 0 960 159.5" style="enable-background:new 0 0 960 159.5;" xml:space="preserve">
<style type="text/css">
	.st0{fill:#FFFFFF;}
</style>
<g>
	<path class="st0" d="M504,108.4c0.4-1.4,0.9-2.9,1.3-4.3c6.6-23.9,13.2-47.7,19.9-71.6c0.3-1.1,0.6-2.2,1-3.3
		c0.9-2.4,2.5-3.5,4.8-3.5c2.5,0,4.3,1.2,5,3.7c1.9,6.6,3.8,13.2,5.7,19.9c5.2,18.7,10.4,37.4,15.6,56.1c0.3,1.1,0.7,2.1,1.1,3.2
		c0.2,0,0.4,0,0.6-0.1c0.4-1.3,0.8-2.7,1.2-4c6.8-24.6,13.6-49.1,20.5-73.7c0.3-1.2,0.9-2.4,1.6-3.3c1.5-1.8,4.1-2.3,6.1-1.4
		c2,0.9,3.2,3.1,2.7,5.6c-0.7,3.4-1.6,6.8-2.6,10.1c-7.7,27.7-15.4,55.5-23.1,83.2c-0.5,1.8-1,3.6-1.6,5.4c-0.9,2.8-2.6,4.2-5.2,4.2
		c-2.4,0-4.4-1.5-5.2-4.2c-1.4-4.6-2.7-9.3-3.9-13.9c-5.7-20.6-11.4-41.2-17.1-61.8c-0.2-0.9-0.5-1.7-1.3-2.6c-0.3,1-0.8,1.9-1,2.9
		c-3.1,11-6.1,22.1-9.2,33.1c-3.8,13.5-7.5,27-11.3,40.6c-0.2,0.7-0.4,1.4-0.6,2.1c-0.9,2.5-2.8,4-5.1,4c-2.1,0.1-4.1-1.3-5.1-3.8
		c-0.6-1.4-1-2.9-1.4-4.3c-5-18.2-10.1-36.4-15.1-54.5c-3.5-12.6-6.9-25.2-10.4-37.8c-0.3-0.9-0.5-1.9-0.6-2.9
		c-0.4-2.6,1.1-5,3.5-5.6c2.8-0.8,5.5,0.4,6.3,3.1c1.7,5.5,3.3,11.1,4.9,16.7c5.6,20,11.1,40,16.7,59.9c0.3,0.9,0.6,1.8,0.9,2.7
		C503.5,108.3,503.8,108.3,504,108.4z"/>
	<path class="st0" d="M212.8,101.9c0.6,3.9,2.1,7,4,9.8c9.4,14.2,28.1,15.9,39.4,7.2c0.8-0.6,1.6-1.2,2.4-1.7
		c2.2-1.2,5.1-0.5,6.6,1.3c1.4,1.7,1.4,4.6-0.1,6.5c-0.6,0.8-1.4,1.4-2.1,2c-7.9,6-16.9,8.2-26.8,7.5c-16.1-1.2-30.7-14.3-33.7-30.4
		c-4.4-23.7,12.2-42.9,32.4-45.5c19.3-2.6,37.9,10.1,42.1,28.7c0.6,2.7,0.8,5.5,1,8.2c0.4,3.8-2.4,6.2-5.5,6.1
		c-3.3-0.1-6.6,0.2-9.9,0.2c-15.4,0-30.8,0-46.2,0.1C215.3,101.9,214.2,101.9,212.8,101.9z M213.1,91.1c17.9,0,35.7,0,53.4,0
		c0.6-9.1-11.9-20.9-23.1-21.9C228.6,67.9,214.8,77.7,213.1,91.1z"/>
	<path class="st0" d="M814,88.9c1,1.1,1.8,2.1,2.7,3.1c9.3,10.6,18.7,21.2,28.1,31.8c0.7,0.8,1.4,1.6,2.1,2.5c1.7,2.2,1.4,5.2-0.6,7
		c-2,1.9-5,1.9-7-0.2c-4.2-4.4-8.2-9-12.3-13.5c-6.7-7.5-13.4-15.1-20.2-22.7c-0.6-0.7-1.3-1.4-2.2-2.3c-3.6,2.4-7.2,4.6-10.7,6.9
		c-1,0.7-0.8,1.7-0.8,2.7c-0.1,7.8-0.1,15.6-0.2,23.4c0,1-0.1,2-0.2,2.9c-0.5,2.6-2.5,4.2-5.1,4c-2.8-0.2-4.6-2.1-4.7-4.8
		c0-12.7,0-25.4,0-38.1c0-20.1,0-40.3,0-60.4c0-1,0-2.2,0.5-3.1c0.9-2,3-2.8,5.5-2.4c2.1,0.3,3.4,1.6,3.8,3.9c0.2,1,0.2,2,0.3,2.9
		c0.1,17.7,0.1,35.4,0.2,53.2c0,1,0,2.1,0,3.7c1.3-0.8,2.2-1.2,3.1-1.8c13.4-8.7,26.9-17.4,40.3-26.1c1.2-0.8,2.4-1.6,3.6-2.3
		c2.5-1.4,5.4-0.7,6.9,1.5c1.5,2.3,1.1,5.2-1.1,7c-0.8,0.7-1.7,1.3-2.6,1.8c-8.9,5.9-17.8,11.7-26.7,17.6
		C815.8,87.6,815,88.2,814,88.9z"/>
	<path class="st0" d="M390.6,68.1c1-0.8,1.6-1.2,2.2-1.7c20-16.4,51.3-6.7,57.2,20.4c0.3,1.2,0.3,2.5,0.3,3.7c0,13.1,0,26.1,0,39.2
		c0,2.8-1.8,4.6-4.6,4.9c-2.6,0.2-4.6-1.3-5.1-4c-0.2-1.1-0.3-2.3-0.3-3.5c-0.1-10.8-0.1-21.7-0.2-32.5c0-2.3,0-4.7-0.7-6.9
		c-2.8-9.6-9-16-18.9-18.3c-13.2-3.1-27.4,6.1-29.7,19c-0.4,2.2-0.4,4.5-0.4,6.7c-0.1,11.2-0.2,22.4-0.3,33.6c0,1.2-0.3,2.5-0.9,3.5
		c-1.2,2-3.5,2.8-5.6,2.2c-2.2-0.7-3.9-2.8-3.8-4.9c0.2-5.4,0-10.7,0-16.1c0-27.3,0-54.6,0.1-81.9c0-1.2,0.1-2.6,0.7-3.6
		c1.1-2.1,3.5-2.8,5.8-2.2c2.1,0.5,3.5,2.3,3.6,4.8c0.1,6.8,0.2,13.6,0.3,20.4c0,4.7,0,9.5,0,14.2C390.5,66,390.6,66.9,390.6,68.1z"
		/>
	<path class="st0" d="M41.1,36.2c0,12.9,0,25.4,0,38.3c1,0,1.9,0.1,2.9,0.1c10.9,0,21.8,0,32.8,0.1c2.9,0,5.7,0.1,8.6,0.3
		c2.8,0.2,5,2.4,5,4.9c0,2.8-2.1,5.1-5,5.3c-0.7,0.1-1.4,0-2.1,0c-12.9,0-25.8,0.1-38.7,0.1c-1,0-2.1,0-3.5,0c0,1.4,0,2.4,0,3.5
		c-0.1,13.5-0.1,27-0.2,40.6c0,2.4-1.1,4.1-3.1,4.8c-3.5,1.4-6.8-0.8-6.9-4.6c-0.2-6.6-0.3-13.3-0.3-19.9c0-25.9,0.2-51.8,0.3-77.6
		c0-0.4,0-0.7,0-1.1c0.1-3.7,1.7-5.3,5.5-5.4c3.4-0.1,6.8-0.2,10.2-0.2c18.1,0,36.2,0,54.3,0.1c1.3,0,2.7,0.3,3.8,0.9
		c1.9,1.1,2.6,3.5,2,5.6c-0.7,2.3-2.3,3.6-4.7,3.7c-2.9,0.1-5.7,0.1-8.6,0.1C77,36,60.8,36,44.6,36.1C43.5,36.1,42.3,36.2,41.1,36.2
		z"/>
	<path class="st0" d="M611.6,96.6c-0.7-22.1,19.2-37.9,37-38.2c21.7-0.4,39.3,17.9,39.2,38.3c0,19.7-16.9,38.1-38.4,38.1
		C628.1,134.8,610.6,116,611.6,96.6z M622.1,96.6c-0.5,14.5,12.2,27.6,27.4,27.5c15.6-0.1,27.7-12.2,27.7-27.8
		c0.1-15.5-13.6-27.5-27.6-27.4C634.9,69,621.5,81.8,622.1,96.6z"/>
	<path class="st0" d="M330.1,58.5c9.7-0.2,19,4.2,26.7,12.1c1.3,1.3,2.4,2.7,2.3,4.7c-0.1,2-0.9,3.4-2.6,4.4c-1.8,1-3.6,1.1-5.3-0.2
		c-1.2-0.9-2.3-2-3.4-3c-8-7.5-17.4-8.9-27.7-6.1c-3.4,0.9-6.4,2.8-8.8,5.4c-0.8,0.8-1.5,1.8-1.9,2.9c-1.1,3.1-0.1,6,3.2,7.1
		c8.3,2.7,16.6,5.6,24.9,8.4c3.7,1.3,7.5,2.4,11.1,3.9c5.2,2.1,9.2,5.6,10.4,11.4c1.1,5.3,0.1,10.2-3.5,14.3
		c-4.8,5.5-10.9,8.9-18.1,10.3c-9.2,1.8-18,0.9-26.3-3.5c-4.3-2.3-8-5.4-11.2-9.1c-1.4-1.7-1.6-3.9-0.6-5.7c1-1.9,3-3,5.2-2.6
		c1.1,0.2,2.1,0.9,3,1.6c1.5,1.2,2.7,2.6,4.2,3.8c8.7,6.8,18.2,7.7,28.3,3.7c2.1-0.8,4-2.4,5.8-3.8c0.8-0.6,1.5-1.5,2-2.5
		c2.1-3.7,0.9-6.9-3.1-8.3c-5.4-1.9-10.8-3.6-16.3-5.5c-5.8-2-11.7-3.9-17.5-6c-3.2-1.1-6.3-2.6-8.6-5.2c-5.5-6.2-5.4-15.4,0.2-21.5
		C309.7,61.7,318.4,58.4,330.1,58.5z"/>
	<path class="st0" d="M898.3,58.4c11.1-0.2,20.2,4.1,27.9,11.8c0.7,0.7,1.4,1.4,2,2.2c1.4,2,1.1,4.7-0.5,6.4
		c-1.7,1.8-4.2,2.2-6.3,0.8c-1-0.7-1.9-1.6-2.8-2.5c-7.5-7.3-16.4-9.4-26.5-7.3c-3.9,0.8-7.3,2.8-10.3,5.4c-0.5,0.4-0.9,0.9-1.3,1.4
		c-2.9,3.8-1.8,7.8,2.8,9.4c9.2,3.1,18.5,6.2,27.7,9.3c2.9,1,5.7,2,8.5,3.2c11.8,4.9,12.8,18.9,5.2,26.3c-6.5,6.3-14.2,9.5-23.1,10
		c-12.2,0.7-22.4-3.5-30.8-12.4c-1.6-1.7-2.4-3.5-1.7-5.8c1.1-3.5,5.3-4.8,7.7-2.6c1.3,1.1,2.6,2.2,3.8,3.4
		c8.7,8.3,22.4,8.6,30.5,4.2c2-1.1,3.8-2.6,5.6-4.1c0.8-0.7,1.4-1.7,1.7-2.7c1.2-3.7,0.1-6-3.6-7.3c-10.1-3.4-20.1-6.8-30.2-10.2
		c-2.1-0.7-4.2-1.5-6.3-2.4c-10.5-4.3-13-17.3-5.8-25.4c5-5.6,11.3-8.9,18.7-10.3C893.5,58.7,895.9,58.6,898.3,58.4z"/>
	<path class="st0" d="M138.2,69.5c0.7-0.5,1.3-1.1,2-1.6c7.1-6.1,15.3-9.4,24.8-9.3c5.2,0.1,10.2,0.6,14.9,2.7
		c1.9,0.8,3.3,2.2,3.5,4.4c0.4,3.4-2,6-5.4,5.8c-1.2-0.1-2.4-0.5-3.6-0.9c-15-4.9-30.4,2.6-35.4,17.5c-0.9,2.7-1.3,5.8-1.3,8.7
		c-0.2,10.9-0.1,21.8-0.2,32.7c0,4.1-4,6.6-7.5,4.8c-1.8-0.9-2.9-2.4-2.9-4.5c0-0.3,0-0.5,0-0.8c0-21.3,0-42.6,0-63.9
		c0-0.5,0-1.1,0-1.6c0.3-2.9,2.4-4.9,5.1-4.9c2.7,0,4.9,1.9,5.2,4.8c0.1,1,0.1,2,0.1,2.9c0,1,0,1.9,0,2.9
		C137.8,69.2,138,69.4,138.2,69.5z"/>
	<path class="st0" d="M718.6,69.9c1.3-1,2.1-1.7,2.9-2.3c11-9.2,23.5-11,37-7.2c1.1,0.3,2.2,0.8,3.2,1.3c2.5,1.4,3.4,3.9,2.4,6.4
		c-1,2.5-3.3,3.8-6,3.2c-1.3-0.3-2.6-0.8-3.8-1.2c-14.6-4.2-29.6,3.5-34.2,17.7c-1,3.1-1.4,6.5-1.5,9.7c-0.2,9-0.1,18.1-0.1,27.1
		c0,1.8,0,3.6-0.2,5.4c-0.2,2.7-2.3,4.6-4.9,4.6c-2.9,0-4.9-1.9-5-4.8c-0.2-4.4-0.3-8.8-0.3-13.2c-0.1-17.4,0-34.7-0.1-52.1
		c0-1.6,0.3-3,1.3-4.2c1.5-1.8,3.4-2.3,5.6-1.7c2,0.5,3.2,2,3.4,4C718.5,64.8,718.5,67,718.6,69.9z"/>
</g>
</svg>
