<?xml version="1.0" encoding="utf-8"?>
<!-- Generator: Adobe Illustrator 19.2.0, SVG Export Plug-In . SVG Version: 6.00 Build 0)  -->
<svg version="1.1" id="Layer_1" xmlns="http://www.w3.org/2000/svg" xmlns:xlink="http://www.w3.org/1999/xlink" x="0px" y="0px"
	 viewBox="0 0 960 159.5" style="enable-background:new 0 0 960 159.5;" xml:space="preserve">
<style type="text/css">
	.st0{fill:#FFFFFF;}
</style>
<g>
	<path class="st0" d="M607.4,58.3c-1.8,3-2.2,5.9-3,8.7c-5.1,18.2-10.2,36.5-15.3,54.7c-0.5,1.7-1,3.4-1.6,5
		c-0.8,2.1-2.3,3.4-4.7,3.4c-2.2,0-3.1-1.6-3.7-3.3c-1.5-4.3-3.1-8.5-4.3-12.9c-6.8-24.2-13.5-48.5-20.2-72.8
		c-0.5-1.7-1.2-3.5-0.2-5.1c1.1-1.6,2.5-3,4.7-2.9c2.3,0.1,3.2,1.8,3.8,3.7c4.9,14.9,8.7,30.1,13.1,45.1c2.2,7.6,4.3,15.2,6.4,23
		c2-1,1.9-2.8,2.3-4.2c5.5-19.4,10.9-38.8,16.3-58.1c0.4-1.6,0.8-3.1,1.4-4.6c0.9-2.5,2.3-4.6,5.2-4.7c3.3-0.1,4,2.5,4.7,4.9
		c4.1,14.7,8.2,29.3,12.4,44c2.1,7.4,4.2,14.8,6.5,22.7c1.8-1.4,1.9-3,2.3-4.5c5.4-19.1,10.7-38.1,16.1-57.2c0.6-2,1.2-3.9,2-5.8
		c1.1-2.6,2.6-4.9,5.9-3.8c3.1,1,3.1,3.6,2.5,6.2c-1.3,5.6-2.6,11.1-4.2,16.7c-6,21.6-12,43.3-18.1,64.9c-0.4,1.5-1,3.1-1.6,4.5
		c-0.8,2-1.5,4.3-4.3,4.4c-3,0.1-3.8-2.4-4.6-4.6c-1.3-3.4-2.5-6.9-3.5-10.4c-5-17.5-9.9-35-14.8-52.5C608.4,61.4,608,60,607.4,58.3
		z"/>
	<path class="st0" d="M349.6,129.9c-15.9,1.9-33.5-14.3-34.2-31.9c-0.6-16.1,11.4-34.9,33.1-35.7C366.3,61.6,382,76,383.3,94
		c0.3,3.8-1,6-5.3,6.4c-15,1.3-30,0.3-44.9,0.7c-2.3,0.1-5.7-1.4-6.8,1.1c-1.1,2.3,1.3,4.9,2.7,7.1c7.2,11.2,21.4,14.5,32.9,7.7
		c1-0.6,2-1.3,3-1.9c2.4-1.5,4.8-1.9,6.6,0.6c1.9,2.6,1.1,5.1-1.2,7C364.2,127.9,357.3,130.6,349.6,129.9z M349.4,91.3
		c6.9,0,13.8-0.1,20.7,0c2.8,0,3.2-1.1,2.4-3.5c-3.1-8.6-13.1-15.6-22.6-15.7c-10.5-0.1-19.8,6-23.3,15.1c-1,2.6-1,4.2,2.5,4.1
		C335.9,91.2,342.7,91.3,349.4,91.3z"/>
	<path class="st0" d="M483,70.6c7.4-6,14.8-8.2,23.3-7.9c16.2,0.6,29.7,14.1,29.8,30.4c0,9.1,0,18.2,0,27.4c0,1.9-0.3,3.8-0.6,5.7
		c-0.3,2.5-1.7,4.1-4.4,3.9c-2.6-0.2-3.9-1.8-4.1-4.4c-0.1-2.2-0.4-4.4-0.4-6.6c-0.1-8.2,0-16.5-0.1-24.7
		c-0.2-12.8-9.5-22.3-21.9-22.2c-12.5,0-21.6,9.4-21.5,22.4c0.1,10-0.4,20-0.7,30c-0.1,3-0.9,5.4-4.3,5.5c-3.6,0.1-4.6-2.3-4.7-5.6
		c-0.9-28.4-0.5-56.8-0.5-85.1c0-3.4,1.4-5.9,4.9-6.2c3.6-0.2,4.5,2.5,4.7,5.6c0.7,8.5,0.4,17,0.4,25.6C483,66.1,483,67.9,483,70.6z
		"/>
	<path class="st0" d="M830.1,84c0-16.8,0.1-30.7-0.1-44.7c0-3.6,1.2-5.9,4.7-6.1c3.4-0.2,4.2,2.4,4.4,5.4
		c1.1,14.8,0.3,29.7,0.5,44.5c0,1.2,0.1,2.4,0,3.5c-0.1,2.3,0.7,2.5,2.5,1.3c5.4-3.5,10.8-7,16.3-10.5c7.3-4.6,14.7-9.2,22-13.8
		c2.5-1.6,4.7-1.7,6.5,0.9c2,2.8,1,5-1.6,6.7c-7.6,5.1-15.2,10.1-22.8,15.1c-4.5,3-4.5,3-0.8,7.3c7.2,8.3,14.5,16.6,21.7,24.9
		c0.9,1,1.7,2.1,2.5,3.1c1.9,2.5,2.6,5.1-0.1,7.4c-2.7,2.3-4.8,0.7-6.8-1.4c-8.9-9.8-17.8-19.6-26.5-29.5c-2.3-2.6-3.7-2.8-6.8-1.1
		c-4.9,2.7-6.8,5.9-6.3,11.5c0.5,5.4,0,10.9-0.3,16.3c-0.1,2.9-1.2,5.3-4.6,5.3c-3.4,0-3.7-2.6-3.9-5.2
		C829.6,110.3,830.3,95.7,830.1,84z"/>
	<path class="st0" d="M163.8,81c0-13.8,0-27.6,0-41.5c0-4.6,1.3-6.1,5.9-6.3c18.7-0.6,37.3-0.4,56,0c3.2,0.1,5.9,1.2,5.7,4.7
		c-0.2,3.3-2.4,4.9-6.1,4.9c-15.9-0.1-31.8,0.1-47.6-0.1c-3.5,0-4.4,1-4.4,4.4c0.2,8.7,0.2,17.3,0,26c-0.1,2.9,0.8,3.7,3.7,3.7
		c11.2-0.1,22.3,0,33.5-0.1c3.4,0,6,0.8,6.2,4.6c0.2,3.8-2.8,4.3-5.7,4.6c-11.1,0.9-22.3,0.7-33.5,0.7c-3.6,0-4.4,1.2-4.3,4.5
		c0.2,8.7,0.1,17.3,0,26c0,2.9-0.4,5.9-0.6,8.8c-0.2,2.7-1.8,4-4.3,4.1c-2.5,0.1-3.7-1.5-4.2-3.7c-0.3-1.6-0.4-3.2-0.4-4.8
		C163.8,108,163.8,94.5,163.8,81C163.8,81,163.8,81,163.8,81z"/>
	<path class="st0" d="M746.1,96.7c0,18.5-15.3,33.5-34.3,33.4c-18.5-0.1-33.5-15.4-33.5-34.3c0-18.1,15.1-33.2,33.5-33.4
		C731.1,62.3,746.1,77.3,746.1,96.7z M712.4,120.5c13.7,0,24.1-10.6,24.1-24.4c0-13.5-10.6-24-24.1-24c-13.5,0-24.4,10.6-24.4,23.8
		C688,109.9,698.5,120.5,712.4,120.5z"/>
	<path class="st0" d="M933.8,62.7c8.8-0.7,16.4,3.3,23,9.7c2.1,2,4.6,4.2,2,7.5c-2.7,3.4-5.6,1.7-8-0.4c-4.8-4.1-10-7.2-16.5-7.3
		c-5.7-0.1-11.1,0.8-15.6,4.8c-4.7,4.1-4,8,1.8,10c9.4,3.3,18.8,6.5,28.3,9.7c6.2,2.1,10.5,5.7,11.3,12.6c0.7,6.4-2.4,10.9-7.2,14.6
		c-12.8,9.9-33.8,7.8-44.5-4.5c-2-2.3-3.2-4.6-0.6-7.3c2.5-2.7,4.7-1.5,6.8,0.4c6,5.5,12.7,8.8,21.1,7.9c4.4-0.5,8.3-1.9,11.6-4.8
		c4.6-3.9,3.8-8.1-1.8-10.1c-9.4-3.3-18.8-6.6-28.2-9.8c-6.2-2.1-10.6-5.9-11.4-12.7c-0.7-6.6,2.8-11.1,7.8-14.9
		C919.4,63.9,926,62.5,933.8,62.7z"/>
	<path class="st0" d="M428.6,129.9c-10.4,0.9-18.4-3.9-25.4-10.9c-2.3-2.2-2.7-4.3-0.3-6.8c2.4-2.5,4.7-2.1,6.8,0.1
		c7.4,7.4,16.1,9.9,26.2,7.1c2.9-0.8,5.4-2.3,7.5-4.5c3.5-3.7,2.7-7.5-2-9.2c-8.8-3.1-17.7-6-26.6-9c-7-2.4-13.2-5.7-13.6-14.2
		c-0.3-8.5,5.2-13.4,12-16.9c12.6-6.4,29.7-3.1,39.2,7.3c2,2.2,4.2,4.8,1.2,7.6c-2.7,2.5-5.5,1.2-7.8-1.1c-7.2-7-15.7-8.7-25.2-6.2
		c-2.3,0.6-4.4,1.7-6.2,3.2c-2.1,1.7-3.9,3.6-3.5,6.7c0.4,3.1,3.1,3.2,5.2,3.9c9.8,3.5,19.7,6.7,29.4,10.4
		c10.9,4.2,13.2,16.5,4.6,24.5C444.2,127.6,437,130.6,428.6,129.9z"/>
	<path class="st0" d="M259.3,71.8c5.1-3.8,9.6-7.5,15.5-8.3c6.8-0.9,13.7-1.8,20.4,1c2.5,1,5,2.3,4.1,5.8c-0.9,3.5-3.7,3.4-6.4,3.1
		c-4.4-0.5-8.6-1.5-13.1-1.1c-10.7,0.9-21.2,12.4-20.7,22.7c0.5,9.8-0.2,19.7-0.6,29.5c-0.1,3-0.8,5.4-4.3,5.5
		c-3.6,0.1-4.6-2.3-4.7-5.6c-0.6-18.5-0.7-37-0.1-55.6c0.1-3.3,0.8-6.2,4.4-6.4c3.6-0.2,4.8,2.8,5.3,5.9
		C259.2,69.3,259.2,70.2,259.3,71.8z"/>
	<path class="st0" d="M773.8,71.3c1.8-0.2,2.7-1.5,3.8-2.3c9.2-6.8,19.3-7.9,30.1-5.1c1.5,0.4,3,1.2,4.3,2.1
		c1.7,1.1,2.8,2.7,1.9,4.9c-0.9,2.1-2.5,3.3-4.8,3c-2.9-0.4-5.8-1.1-8.7-1.4c-14.5-1.5-26.3,8.7-26.7,23.3
		c-0.2,9.7-0.2,19.4-0.8,29.1c-0.2,3-0.9,5.4-4.3,5.4c-3.5,0.1-4.4-2.5-4.5-5.3c-0.5-19.1-0.7-38.2-0.1-57.2c0.1-3.1,1.7-4.8,4.5-5
		c3-0.3,4.5,1.7,4.9,4.5C773.5,68.4,773.6,69.9,773.8,71.3z"/>
	<path class="st0" d="M44.1,83.1c0,5.6-4.2,9.9-9.6,10c-5.6,0-9.7-4.4-9.7-10.3c0.1-5.5,4.4-9.9,9.7-9.8
		C39.9,73.1,44.1,77.6,44.1,83.1z"/>
	<path class="st0" d="M94.2,85.5c0,5.5-4.2,10-9.4,10.1c-5.3,0.1-9.8-4.4-9.8-9.7c0-5.7,4.4-10.4,9.7-10.4
		C89.8,75.5,94.2,80.2,94.2,85.5z"/>
	<path class="st0" d="M20,84.1c0,5.5-4.3,9.9-9.7,10c-5.4,0-9.6-4.3-9.7-9.9c-0.1-5.7,4.4-10.4,9.8-10.3C15.8,73.9,20,78.5,20,84.1z
		"/>
	<path class="st0" d="M42.8,25.6c0-5.5,4.3-10,9.5-10c5.2,0,9.7,4.6,9.8,9.9c0.1,5.5-4.6,10.3-9.9,10.2C47,35.7,42.8,31.2,42.8,25.6
		z"/>
	<path class="st0" d="M67.4,120.5c0-5.5,4.2-10.1,9.4-10.2c5.1-0.1,9.8,4.7,9.8,10c0,5.5-4.4,10.2-9.5,10.2
		C71.8,130.4,67.5,126,67.4,120.5z"/>
	<path class="st0" d="M11.6,99.1c5.2,0.1,9.5,4.7,9.4,10.2c-0.1,5.5-4.5,10-9.7,10c-5.4,0-9.8-4.8-9.6-10.5
		C1.8,103.3,6.2,99,11.6,99.1z"/>
	<path class="st0" d="M104.8,62.2c5.4,0,9.7,4.2,9.7,9.8c0.1,5.7-4.3,10.3-9.9,10.2c-4.9-0.1-9.3-4.7-9.4-9.9
		C95.2,66.9,99.6,62.3,104.8,62.2z"/>
	<path class="st0" d="M-0.1,58.6C0,52.9,4,48.8,9.5,48.8c5.4,0.1,9.5,4.4,9.5,10c0,5.6-4.2,10.1-9.5,10.1C4.1,69-0.2,64.4-0.1,58.6z
		"/>
	<path class="st0" d="M104.7,49.1c0,5.5-4.3,10.1-9.5,10.2c-5.2,0.1-9.6-4.4-9.6-10c-0.1-5.5,4.1-10.1,9.4-10.2
		C100.2,39.1,104.7,43.6,104.7,49.1z"/>
	<path class="st0" d="M64.1,109c-5.4,0-9.6-4.5-9.5-10c0.1-5.5,4.6-10.2,9.7-10c5.1,0.1,9.5,4.6,9.6,9.7
		C73.9,104.4,69.6,109,64.1,109z"/>
	<path class="st0" d="M107,106.6c0.1,5.6-4.1,10.3-9.2,10.3c-5.6,0.1-10.1-4.3-10-10c0-5.4,4.4-10.1,9.5-10.2
		C102.4,96.6,106.9,101.2,107,106.6z"/>
	<path class="st0" d="M73.7,47.4c-5.4,0-9.4-4.3-9.4-10.1c0.1-5.7,4.1-10,9.5-10c5.1,0,9.6,4.8,9.5,10.2
		C83.4,43.1,79.1,47.5,73.7,47.4z"/>
	<path class="st0" d="M31.6,47.9c0-5.5,4.2-10.1,9.5-10.2c5.1-0.1,9.7,4.6,9.8,10c0.1,5.6-4.5,10.4-9.8,10.4
		C35.8,58,31.6,53.5,31.6,47.9z"/>
	<path class="st0" d="M56.6,123.7c5.3,0,9.6,4.5,9.6,9.9c0,5.7-4.5,10.5-9.8,10.3c-5-0.2-9.6-5.2-9.5-10.3
		C46.9,128.4,51.5,123.7,56.6,123.7z"/>
	<path class="st0" d="M10.4,36.2c0-5.6,4.1-10.1,9.3-10.1c5.5-0.1,9.8,4.6,9.7,10.3c-0.1,5.5-4.4,9.9-9.7,9.9
		C14.5,46.3,10.4,41.9,10.4,36.2z"/>
	<path class="st0" d="M52.9,59.2c0.2-5.5,4.7-9.7,10-9.5c5.2,0.2,9.4,4.9,9.3,10.3c-0.2,5.4-4.7,10-9.8,9.9
		C57,69.7,52.6,64.8,52.9,59.2z"/>
	<path class="st0" d="M35.3,98.3c5.4,0,9.5,4.2,9.5,9.9c0,5.8-4.3,10.3-9.8,10.2c-5.2-0.1-9.4-4.7-9.5-10.2
		C25.6,102.9,30.1,98.3,35.3,98.3z"/>
	<path class="st0" d="M45.7,133.7c-0.1,5.5-4.4,9.8-9.8,9.7c-5.4-0.1-9.6-4.6-9.4-10.1c0.2-5.5,4.6-10,9.8-9.9
		C41.4,123.5,45.8,128.3,45.7,133.7z"/>
	<path class="st0" d="M81.7,59.5c3,0.4,5,2.2,5,5.2c0,2.9-1.7,5.2-4.9,5.1c-2.8-0.1-4.7-2-4.7-4.8C77,62.1,78.6,60.1,81.7,59.5z"/>
	<path class="st0" d="M37.9,20.9c-0.4,2.9-1.8,5.1-5,4.9c-2.8-0.1-4.6-1.9-4.6-4.8c0-3,1.6-5.2,4.7-5.2C36,15.7,37.7,17.7,37.9,20.9
		z"/>
	<path class="st0" d="M12,129.1c0.2-3.2,1.8-4.9,4.7-4.9c3.2,0,4.8,2.2,4.8,5.1c0,2.9-1.6,5.1-4.9,4.9
		C13.5,134.1,12.1,131.9,12,129.1z"/>
	<path class="st0" d="M33.6,63c-0.2,3.1-1.5,5.1-4.6,5.1c-3.2,0-4.9-2-4.9-5c-0.1-2.9,1.6-4.9,4.5-4.9C31.8,58.1,33.3,60.2,33.6,63z
		"/>
	<path class="st0" d="M55.3,114.2c-0.4,2.9-2,4.8-4.8,4.8c-3.1,0-4.8-2.2-4.7-5.1c0-2.9,1.9-4.7,4.7-4.7
		C53.6,109.1,54.9,111.3,55.3,114.2z"/>
	<path class="st0" d="M110.9,86.8c3.2,0.2,4.9,2.3,5,5.1c0.1,2.8-1.6,4.7-4.5,4.8c-3.2,0.1-4.8-2-4.9-4.9
		C106.4,89,108.2,87.4,110.9,86.8z"/>
</g>
</svg>
