<?xml version="1.0" encoding="utf-8"?>
<!-- Generator: Adobe Illustrator 19.2.0, SVG Export Plug-In . SVG Version: 6.00 Build 0)  -->
<svg version="1.1" id="Layer_1" xmlns="http://www.w3.org/2000/svg" xmlns:xlink="http://www.w3.org/1999/xlink" x="0px" y="0px"
	 viewBox="0 0 546.2 129.9" style="enable-background:new 0 0 546.2 129.9;" xml:space="preserve">
<style type="text/css">
	.st0{fill:#FFFFFF;}
</style>
<g>
	<path class="st0" d="M125.5,55.6H85.1c-1,0-1.9,0.8-1.9,1.9v19.7c0,1,0.8,1.9,1.9,1.9h15.7v24.5c0,0-3.5,1.2-13.3,1.2
		c-11.5,0-27.6-4.2-27.6-39.6s16.8-40.1,32.5-40.1c13.6,0,19.5,2.4,23.2,3.6c1.2,0.4,2.3-0.8,2.3-1.9l4.5-19.1
		c0-0.5-0.2-1.1-0.7-1.5C120.2,5.2,111,0,87.6,0C60.6,0,33,11.5,33,66.6s31.6,63.3,58.3,63.3c22.1,0,35.5-9.4,35.5-9.4
		c0.6-0.3,0.6-1.1,0.6-1.4V57.5C127.4,56.4,126.5,55.6,125.5,55.6z"/>
	<path class="st0" d="M333.5,6.6c0-1-0.8-1.9-1.9-1.9h-22.7c-1,0-1.9,0.8-1.9,1.9v43.9h-35.4V6.6c0-1-0.8-1.9-1.9-1.9H247
		c-1,0-1.9,0.8-1.9,1.9v118.9c0,1,0.8,1.9,1.9,1.9h22.7c1,0,1.9-0.9,1.9-1.9V74.6H307l-0.1,50.9c0,1,0.8,1.9,1.9,1.9h22.8
		c1,0,1.9-0.9,1.9-1.9L333.5,6.6L333.5,6.6z"/>
	<g>
		<g>
			<path class="st0" d="M168.4,22.2c0-8.2-6.6-14.8-14.7-14.8s-14.6,6.6-14.6,14.8S145.7,37,153.7,37
				C161.8,37,168.4,30.4,168.4,22.2z"/>
			<path class="st0" d="M166.8,100.4c0-3,0-54.9,0-54.9c0-1-0.8-1.9-1.9-1.9h-22.7c-1,0-2,1.1-2,2.1c0,0,0,66,0,78.6
				c0,2.3,1.4,3,3.3,3c0,0,9.7,0,20.4,0c2.2,0,2.8-1.1,2.8-3C166.8,120.1,166.8,103.6,166.8,100.4z"/>
		</g>
	</g>
	<path class="st0" d="M419.8,43.8h-22.5c-1,0-1.9,0.9-1.9,1.9V104c0,0-5.7,4.2-13.9,4.2c-8.1,0-10.3-3.7-10.3-11.7s0-50.8,0-50.8
		c0-1-0.8-1.9-1.9-1.9h-22.9c-1,0-1.9,0.9-1.9,1.9c0,0,0,31,0,54.7c0,23.6,13.2,29.4,31.3,29.4c14.9,0,26.9-8.2,26.9-8.2
		s0.6,4.3,0.8,4.8c0.3,0.5,0.9,1,1.7,1l14.6-0.1c1,0,1.9-0.9,1.9-1.9V45.6C421.7,44.7,420.9,43.8,419.8,43.8z"/>
	<path class="st0" d="M481.5,41.2c-12.8,0-21.5,5.7-21.5,5.7V6.6c0-1-0.8-1.9-1.9-1.9h-22.8c-1,0-1.9,0.8-1.9,1.9v118.9
		c0,1,0.8,1.9,1.9,1.9h15.8c0.7,0,1.3-0.4,1.6-1c0.4-0.6,1-5.5,1-5.5s9.3,8.8,27,8.8c20.7,0,32.6-10.5,32.6-47.2
		C513.2,45.9,494.3,41.2,481.5,41.2z M472.6,108.1c-7.8-0.2-13.1-3.8-13.1-3.8V66.7c0,0,5.2-3.2,11.7-3.8
		c8.1-0.7,15.9,1.7,15.9,21.1C487,104.4,483.5,108.5,472.6,108.1z"/>
	<path class="st0" d="M232.1,43.6h-17V21.1c0-0.9-0.4-1.3-1.4-1.3h-23.2c-0.9,0-1.4,0.4-1.4,1.3v23.3c0,0-11.6,2.8-12.4,3
		c-0.8,0.2-1.4,1-1.4,1.8v14.6c0,1.1,0.8,1.9,1.9,1.9h11.9c0,0,0,15.3,0,35.2c0,26.1,18.3,28.7,30.7,28.7c5.7,0,12.4-1.8,13.5-2.2
		c0.7-0.2,1.1-0.9,1.1-1.7v-16.1c0-1-0.9-1.9-1.9-1.9s-3.5,0.4-6.2,0.4c-8.4,0-11.2-3.9-11.2-8.9s0-33.4,0-33.4h17
		c1,0,1.9-0.8,1.9-1.9V45.5C233.9,44.5,233.1,43.6,232.1,43.6z"/>
</g>
</svg>
