<?xml version="1.0" encoding="utf-8"?>
<!-- Generator: Adobe Illustrator 19.2.0, SVG Export Plug-In . SVG Version: 6.00 Build 0)  -->
<svg version="1.1" id="logo-horizontal-white_1_" xmlns="http://www.w3.org/2000/svg" xmlns:xlink="http://www.w3.org/1999/xlink"
	 x="0px" y="0px" viewBox="0 0 376.4 111.6" style="enable-background:new 0 0 376.4 111.6;" xml:space="preserve">
<style type="text/css">
	.st0{fill:#FFFFFF;}
</style>
<g>
	<path class="st0" d="M97.1,33.8v16.6h16V33.8h9.7v43.1h-9.7v-18h-16v18h-9.7V33.8H97.1z M142.6,70.6c-4.1,0-6.3-4-6.3-9.3
		c0-4.7,1.8-9.4,6.4-9.4c4.4,0,6.2,4.7,6.2,9.3C148.9,66.8,146.5,70.6,142.6,70.6L142.6,70.6z M142.6,77.5c8.3,0,16.4-5.2,16.4-16.6
		c0-9.5-6.4-16-15.9-16c-10.1,0-16.7,6.5-16.7,16.5C126.3,71.5,133.4,77.5,142.6,77.5L142.6,77.5z M178.5,70.6c-4.1,0-6.3-4-6.3-9.3
		c0-4.7,1.8-9.4,6.4-9.4c4.4,0,6.2,4.7,6.2,9.3C184.8,66.8,182.4,70.6,178.5,70.6L178.5,70.6z M178.5,77.5c8.3,0,16.4-5.2,16.4-16.6
		c0-9.5-6.4-16-15.9-16c-10.1,0-16.7,6.5-16.7,16.5C162.2,71.5,169.3,77.5,178.5,77.5L178.5,77.5z M198.4,52.8v12.8
		c0,4.4,0.9,7.4,2.7,9.3c1.6,1.6,4.2,2.7,7.3,2.7c2.7,0,5-0.4,6.3-0.8l-0.1-7.3c-0.9,0.2-1.5,0.3-2.9,0.3c-2.9,0-3.8-1.7-3.8-5.5
		V52.8h7v-7.2h-7v-6l0,0v-3.4c-5.2,0-9.5,4.2-9.5,9.5h0V52.8z M297.9,52.8v12.8c0,4.4,0.9,7.4,2.7,9.3c1.6,1.6,4.2,2.7,7.3,2.7
		c2.7,0,5-0.4,6.3-0.8l-0.1-7.3c-0.9,0.2-1.5,0.3-2.9,0.3c-2.9,0-3.8-1.7-3.8-5.5V52.8h7v-7.2h-7v-6l0,0v-3.4
		c-5.2,0-9.5,4.2-9.5,9.5h0V52.8z M218.3,75.3c2.4,1.3,6,2.2,10.1,2.2c8.9,0,13.5-4.3,13.5-10.2c-0.1-4.5-2.5-7.6-8.4-9.6
		c-3.8-1.3-5-2.1-5-3.6c0-1.5,1.3-2.5,3.7-2.5c2.6,0,5.4,1,6.8,1.7l1.7-6.6c-1.9-1-5.1-1.9-8.8-1.9c-7.7,0-12.7,4.4-12.7,10.3
		c-0.1,3.6,2.4,7.2,8.9,9.3c3.6,1.2,4.5,2,4.5,3.6c0,1.6-1.2,2.6-4.2,2.6c-2.9,0-6.6-1.2-8.4-2.3L218.3,75.3z M275,45.6h-9.7v18.6
		c0,0.8-0.1,1.5-0.4,2.1c-0.6,1.5-2.2,3.4-4.9,3.4c-3.4,0-4.9-2.7-4.9-7.3V45.6h-9.7v18.3c0,9.7,4.6,13.6,11,13.6
		c5.6,0,8.6-3.2,9.8-5.1h0.2l0.4,4.4h8.4c-0.1-2.6-0.3-5.9-0.3-10V45.6z M281.6,76.9h9.7V45.6h-9.7V76.9z M286.5,41.5
		c3.4,0,5.5-2.3,5.5-5.2c-0.1-2.9-2.1-5.2-5.4-5.2c-3.3,0-5.5,2.2-5.5,5.2C281.1,39.2,283.2,41.5,286.5,41.5L286.5,41.5z
		 M326.6,57.6c0.3-2.6,1.9-6.3,6.1-6.3c4.4,0,5.4,4,5.4,6.3H326.6z M346.8,64.3c0.1-0.8,0.3-2.2,0.3-3.9c0-7.7-3.8-15.6-13.9-15.6
		c-10.8,0-15.8,8.8-15.8,16.7c0,9.8,6.1,16,16.7,16c4.2,0,8.1-0.6,11.3-2l-1.3-6.6c-2.6,0.9-5.3,1.3-8.6,1.3c-4.5,0-8.5-1.9-8.8-6
		L346.8,64.3z"/>
	<g>
		<path class="st0" d="M355.1,45.6v0.9h-2.2v6.3h-1.1v-6.3h-2.2v-0.9H355.1z M362.1,52.8l-0.3-4.4c0-0.6,0-1.3,0-2h-0.1
			c-0.2,0.7-0.4,1.4-0.6,2.1l-1.5,4.2h-0.8l-1.5-4.3c-0.2-0.6-0.4-1.3-0.5-2h-0.1c0,0.7,0,1.3,0,2l-0.3,4.4h-1.1l0.6-7.2h1.4
			l1.4,3.9c0.2,0.5,0.3,1.1,0.5,1.8h0c0.2-0.7,0.3-1.3,0.5-1.8l1.4-3.9h1.4l0.5,7.2H362.1z"/>
	</g>
	<g>
		<path class="st0" d="M40.5,21C40.5,21,40.5,21,40.5,21c4.6,0,8.9,1.2,12.6,3.4c3.7-2.1,7.9-3.3,12.4-3.3c0,0,0.1,0,0.1,0v25.1
			v50.2c-27.7-0.1-50.3-22.5-50.2-50.2V21.1c0,0,0.1,0,0.1,0c4.5,0,8.8,1.2,12.4,3.3C31.6,22.2,35.9,21,40.5,21 M40.5,18.8
			L40.5,18.8c-4.4,0-8.7,1.1-12.6,3.1c-3.8-2-8.1-3-12.4-3l-0.1,0l-2.2,0v2.2v25.1c0,14,5.4,27.1,15.3,37c9.9,9.9,23,15.3,37,15.4
			l2.2,0v-2.2V46.2V21.1v-2.2l-2.2,0l-0.1,0c-4.3,0-8.6,1-12.4,3C49.2,19.9,44.9,18.8,40.5,18.8L40.5,18.8L40.5,18.8L40.5,18.8z"/>
		<g>
			<path class="st0" d="M51.3,30.2c-5.6,0-10.2,4.3-10.7,9.8l0-0.1l0,0.1c-0.5-5.5-5.1-9.8-10.7-9.8c-5.9,0-10.8,4.8-10.8,10.7
				c0,5.9,4.8,10.8,10.7,10.8c2.1,0,4.1-0.6,5.7-1.7l5,5l5-5c1.7,1.1,3.6,1.7,5.7,1.7c5.9,0,10.8-4.8,10.8-10.7
				C62,35,57.2,30.2,51.3,30.2z M29.7,48c-4,0-7.2-3.2-7.2-7.2c0-4,3.2-7.2,7.2-7.2c0.7,0,1.5,0.1,2.1,0.3c-1.2,0.6-2.1,1.8-2.1,3.3
				c0,2,1.6,3.6,3.6,3.6c1.5,0,2.7-0.9,3.3-2.1c0.2,0.7,0.3,1.4,0.3,2.1C36.9,44.8,33.7,48,29.7,48z M51.2,48.1
				c-4,0-7.2-3.2-7.2-7.2c0-0.7,0.1-1.5,0.3-2.1c0.6,1.3,1.8,2.1,3.3,2.1c2,0,3.6-1.6,3.6-3.6c0-1.5-0.9-2.7-2.1-3.3
				c0.7-0.2,1.4-0.3,2.1-0.3c4,0,7.2,3.2,7.2,7.2C58.4,44.9,55.2,48.1,51.2,48.1z"/>
		</g>
	</g>
</g>
</svg>
