<?xml version="1.0" encoding="utf-8"?>
<!-- Generator: Adobe Illustrator 19.2.0, SVG Export Plug-In . SVG Version: 6.00 Build 0)  -->
<svg version="1.1" id="Full_Colour" xmlns="http://www.w3.org/2000/svg" xmlns:xlink="http://www.w3.org/1999/xlink" x="0px"
	 y="0px" viewBox="0 0 462.7 95.2" style="enable-background:new 0 0 462.7 95.2;" xml:space="preserve">
<style type="text/css">
	.Arched_x0020_Green{fill:url(#SVGID_1_);stroke:#FFFFFF;stroke-width:0.25;stroke-miterlimit:1;}
	.st0{fill:#FFFFFF;}
</style>
<linearGradient id="SVGID_1_" gradientUnits="userSpaceOnUse" x1="-18.6492" y1="297.5766" x2="-17.9421" y2="296.8695">
	<stop  offset="0" style="stop-color:#20AC4B"/>
	<stop  offset="0.9831" style="stop-color:#19361A"/>
</linearGradient>
<g id="Latitude_Geographics_Logo">
	<g id="Text">
		<path class="st0" d="M102.8,56.7H115v3.5H99V33.3h3.9V56.7z"/>
		<path class="st0" d="M132,59.2c-1.6,1.1-2.3,1.4-3.4,1.4c-1.5,0-2.4-0.6-2.7-1.8c-1.5,1.2-3.2,1.8-4.8,1.8c-2.6,0-4.3-2.1-4.3-4.3
			c0-3.5,3.2-4.6,6-5.6l3.1-1.1v-0.9c0-2.2-1.1-3.1-3.2-3.1c-1.9,0-3.9,0.9-5.6,2.9v-3.8c1.4-1.6,3.3-2.4,5.9-2.4
			c3.6,0,6.4,1.8,6.4,5.8v9.1c0,0.7,0.2,0.9,0.7,0.9c0.4,0,1.1-0.4,1.9-0.9V59.2z M126,51.4c-3,1-5.6,2.1-5.6,4.1
			c0,1.5,1.1,2.5,2.5,2.5c1.1,0,2.1-0.6,3.1-1.5V51.4z"/>
		<path class="st0" d="M139.7,42.5h5.6v3.2h-5.6v9.1c0,2.1,1.5,2.7,2.5,2.7c1.3,0,2.6-0.4,4-1.3v3.3c-1.2,0.7-3.1,1.2-4.3,1.2
			c-3.8,0-5.8-2.4-5.8-5.6v-9.4h-3.1v-0.4l6.6-6.4V42.5z"/>
		<path class="st0" d="M151,39.2c-1.1,0-2.1-0.9-2.1-2.1c0-1.1,0.9-2.1,2.1-2.1c1.1,0,2.1,0.9,2.1,2.1
			C153.1,38.2,152.1,39.2,151,39.2z M152.7,60.2h-3.5V42.5h3.5V60.2z"/>
		<path class="st0" d="M162.3,42.5h5.6v3.2h-5.6v9.1c0,2.1,1.5,2.7,2.5,2.7c1.3,0,2.6-0.4,4-1.3v3.3c-1.2,0.7-3.1,1.2-4.3,1.2
			c-3.8,0-5.8-2.4-5.8-5.6v-9.4h-3.1v-0.4l6.6-6.4V42.5z"/>
		<path class="st0" d="M183,60.2v-2.2c-1.5,1.6-3.5,2.6-5.3,2.6c-3.6,0-6.1-2.6-6.1-7.1v-11h3.5v11.3c0,2.5,1.2,3.9,3.6,3.9
			c1.6,0,3.1-0.9,4.2-2.5V42.5h3.5v17.7H183z"/>
		<path class="st0" d="M207.2,60.2h-7.5c-5.3,0-8.6-3.6-8.6-9.3c0-5.1,3.7-8.8,8.8-8.8c1.2,0,2.3,0.2,3.7,0.7v-9.6h3.5V60.2z
			 M203.6,45.9c-1.2-0.5-2.1-0.7-3.3-0.7c-3.4,0-5.7,2.4-5.7,6.2c0,3.3,1.3,5.8,5.4,5.8h3.6V45.9z"/>
		<path class="st0" d="M227.2,58.5c-2.1,1.4-4.1,2.1-7.1,2.1c-5.5,0-8.6-4.5-8.6-9.4c0-5.4,3.4-9,8.3-9c4.7,0,7.7,3.2,7.7,9.8H215
			c0.6,3.5,2.6,5.3,6,5.3c2.1,0,4.1-0.8,6.2-2.1V58.5z M224,49.5c-0.1-2.7-1.7-4.4-4.1-4.4c-2.7,0-4.3,1.6-4.8,4.4H224z"/>
		<path class="st0" d="M267.2,58.3c-3.6,1.6-6.5,2.2-10.3,2.2c-8.3,0-14.3-5.8-14.3-13.7c0-7.9,6.2-14,14.5-14
			c3.2,0,5.4,0.5,9.6,2.3v3.9c-3.2-1.7-6.4-2.6-9.7-2.6c-5.8,0-10.4,4.5-10.4,10.3c0,6,4.5,10.2,10.9,10.2c2.1,0,4-0.5,5.8-1.1v-5.5
			h-5.2v-3.5h9V58.3z"/>
		<path class="st0" d="M287.5,58.5c-2.1,1.4-4.1,2.1-7.1,2.1c-5.5,0-8.6-4.5-8.6-9.4c0-5.4,3.4-9,8.3-9c4.7,0,7.7,3.2,7.7,9.8h-12.5
			c0.6,3.5,2.6,5.3,6,5.3c2.1,0,4.1-0.8,6.2-2.1V58.5z M284.4,49.5c-0.1-2.7-1.7-4.4-4.1-4.4c-2.7,0-4.3,1.6-4.8,4.4H284.4z"/>
		<path class="st0" d="M309.9,51.2c0,5.6-3.9,9.4-9.6,9.4c-5.5,0-9.4-4-9.4-9.4c0-5.1,4.1-9,9.4-9C305.9,42.1,309.9,45.9,309.9,51.2
			z M294.5,51.2c0,3.8,2.3,6.2,5.7,6.2c3.7,0,6-2.4,6-6.2c0-3.4-2.5-5.9-6-5.9C297,45.3,294.5,47.8,294.5,51.2z"/>
		<path class="st0" d="M328.4,45.2h-3.6c1.4,1.4,1.9,2.4,1.9,3.9c0,1.5-0.8,3.2-1.7,4c-2.4,2.5-7.2,1.3-7.2,3.4c0,1,1.9,1.6,5.4,2.3
			c3.8,0.8,5.1,2.7,5.1,4.9c0,3.5-3.1,5.6-8.4,5.6c-4.8,0-8.2-2.2-8.2-5.4c0-2.6,1.4-4.1,4.5-4.9c-1.2-0.7-1.8-1.5-1.8-2.2
			c0-1.2,1.1-2.1,2.8-2.5v-0.1c-1.3-0.6-2.3-1.3-3-2.2c-0.6-0.9-0.9-2-0.9-3.3c0-3.8,3-6.1,7.7-6.1h7.3V45.2z M319.1,61.1
			c-2.4,0-4,1.1-4,2.7c0,1.8,1.7,2.7,4.9,2.7c3.1,0,4.9-0.9,4.9-2.6C324.9,61.7,321.2,61.1,319.1,61.1z M320,45.5
			c-1.9,0-3.5,1.5-3.5,3.2c0,1.9,1.4,3.2,3.6,3.2c2,0,3.4-1.4,3.4-3.3C323.4,46.9,321.8,45.5,320,45.5z"/>
		<path class="st0" d="M335.2,42.5v4.1h0.1c1.8-3.1,3.5-4.4,5.1-4.4c1.4,0,2.8,0.7,4.2,2.1l-1.9,3c-1.1-1-2.5-1.7-3.3-1.7
			c-2.4,0-4.3,2.4-4.3,5.4v9.3h-3.5V42.5H335.2z"/>
		<path class="st0" d="M361.3,59.2c-1.6,1.1-2.3,1.4-3.4,1.4c-1.5,0-2.4-0.6-2.7-1.8c-1.5,1.2-3.2,1.8-4.8,1.8
			c-2.6,0-4.3-2.1-4.3-4.3c0-3.5,3.2-4.6,6-5.6l3.1-1.1v-0.9c0-2.2-1.1-3.1-3.2-3.1c-1.9,0-3.9,0.9-5.6,2.9v-3.8
			c1.4-1.6,3.3-2.4,5.9-2.4c3.6,0,6.4,1.8,6.4,5.8v9.1c0,0.7,0.2,0.9,0.7,0.9c0.4,0,1.1-0.4,1.9-0.9V59.2z M355.2,51.4
			c-3,1-5.6,2.1-5.6,4.1c0,1.5,1.1,2.5,2.5,2.5c1.1,0,2.1-0.6,3.1-1.5V51.4z"/>
		<path class="st0" d="M367.7,69.3h-3.5V42.5h6.1c6.5,0,10,3.2,10,9c0,5.3-3.8,9.1-9,9.1c-1.1,0-2.2-0.2-3.6-0.8V69.3z M367.7,56.6
			c1.1,0.5,2.2,0.8,3.3,0.8c3.3,0,5.6-2.5,5.6-6c0-3.7-1.9-5.8-5.8-5.8h-3.2V56.6z"/>
		<path class="st0" d="M388,44.8L388,44.8c1.4-1.7,3.4-2.7,5.4-2.7c3.5,0,6,2.4,6,7.2v10.9h-3.5v-11c0-2.6-1.3-4.3-3.5-4.3
			c-1.5,0-2.8,0.7-4.4,2.6v12.7h-3.5V33.3h3.5V44.8z"/>
		<path class="st0" d="M406.5,39.2c-1.1,0-2.1-0.9-2.1-2.1c0-1.1,0.9-2.1,2.1-2.1c1.1,0,2.1,0.9,2.1,2.1
			C408.6,38.2,407.7,39.2,406.5,39.2z M408.3,60.2h-3.5V42.5h3.5V60.2z"/>
		<path class="st0" d="M426.8,47.1c-2-1.3-3.4-1.7-4.9-1.7c-3.2,0-5.4,2.4-5.4,6c0,3.7,2.4,5.9,6,5.9c1.5,0,2.9-0.4,4.7-1.2v3.5
			c-1.2,0.6-3.4,1-5.3,1c-5.3,0-9-3.7-9-8.9c0-5.8,3.4-9.6,8.8-9.6c2.1,0,3.4,0.5,5.1,1.2V47.1z"/>
		<path class="st0" d="M441.7,47c-2-1.3-3.8-1.9-5.1-1.9c-1.4,0-2.3,0.7-2.3,1.6c0,0.8,1.2,1.7,4.3,3.6c2.9,1.9,4,3.2,4,5
			c0,3.1-2.5,5.2-5.8,5.2c-2.2,0-3.9-0.4-6.2-1.6v-3.8c2.3,1.6,4.4,2.3,5.8,2.3c1.4-0.1,2.6-0.7,2.6-2c0-2.5-8.3-3.8-8.3-8.5
			c0-3,2.3-4.8,5.8-4.8c1.7,0,3.4,0.5,5.2,1.5V47z"/>
		<path class="st0" d="M449.4,33.9c0.8,0,1.7,0.2,2.4,0.6c0.8,0.4,1.4,1,1.9,1.8c0.4,0.8,0.7,1.6,0.7,2.5c0,0.9-0.2,1.7-0.7,2.5
			c-0.4,0.8-1,1.4-1.8,1.8c-0.8,0.4-1.6,0.7-2.5,0.7c-0.9,0-1.7-0.2-2.5-0.7c-0.8-0.4-1.4-1.1-1.8-1.8c-0.4-0.8-0.7-1.6-0.7-2.5
			c0-0.9,0.2-1.7,0.7-2.5c0.4-0.8,1.1-1.4,1.9-1.8C447.8,34.1,448.6,33.9,449.4,33.9z M449.4,34.7c-0.7,0-1.4,0.2-2,0.5
			c-0.7,0.4-1.2,0.9-1.6,1.5c-0.4,0.7-0.6,1.4-0.6,2.1c0,0.7,0.2,1.4,0.6,2.1c0.4,0.7,0.9,1.2,1.5,1.5c0.7,0.4,1.3,0.5,2.1,0.5
			c0.7,0,1.4-0.2,2.1-0.5c0.7-0.4,1.2-0.9,1.5-1.5c0.4-0.7,0.5-1.3,0.5-2.1c0-0.7-0.2-1.4-0.6-2.1c-0.4-0.7-0.9-1.2-1.6-1.5
			C450.8,34.9,450.1,34.7,449.4,34.7z M447.3,41.6v-5.4h1.8c0.6,0,1.1,0.1,1.4,0.1c0.3,0.1,0.5,0.3,0.7,0.5c0.2,0.2,0.2,0.5,0.2,0.8
			c0,0.4-0.1,0.7-0.4,1c-0.3,0.3-0.6,0.4-1.1,0.5c0.2,0.1,0.3,0.2,0.5,0.3c0.2,0.2,0.5,0.6,0.8,1.1l0.6,1h-1.1l-0.5-0.8
			c-0.4-0.7-0.7-1.1-0.9-1.2c-0.2-0.1-0.4-0.2-0.7-0.2h-0.5v2.3H447.3z M448.1,38.6h1c0.5,0,0.8-0.1,1-0.2c0.2-0.2,0.3-0.3,0.3-0.6
			c0-0.2,0-0.3-0.1-0.4c-0.1-0.1-0.2-0.2-0.4-0.3c-0.2-0.1-0.4-0.1-0.9-0.1h-1V38.6z"/>
	</g>
	<path class="st0" d="M45.7,10.3C25.1,10.3,8.3,27,8.3,47.7C8.3,68.3,25.1,85,45.7,85C66.3,85,83,68.3,83,47.7
		C83,27,66.3,10.3,45.7,10.3z M54.7,28.7c-21.9,0-39.9,7.6-41.9,17.2c0.3-6.1,2.3-11.7,5.4-16.5c7.6-3.4,18.1-5.5,29.6-5.5
		c8.8,0,16.9,1.2,23.6,3.3c0.9,1.1,1.7,2.3,2.4,3.6C68.2,29.5,61.6,28.7,54.7,28.7z"/>
</g>
</svg>
