<?xml version="1.0" encoding="UTF-8"?>
<svg width="2736px" height="378px" viewBox="0 0 2736 378" version="1.1" xmlns="http://www.w3.org/2000/svg" xmlns:xlink="http://www.w3.org/1999/xlink">
    <!-- Generator: Sketch 40.3 (33839) - http://www.bohemiancoding.com/sketch -->
    <title>Artboard</title>
    <desc>Created with Sketch.</desc>
    <defs></defs>
    <g id="Page-1" stroke="none" stroke-width="1" fill="none" fill-rule="evenodd">
        <g id="Artboard" fill="#FFFFFF">
            <g id="Group">
                <path d="M234.512,221 L138.5,221 L182.493693,221 C189.400736,221 195,226.594923 195,233.5 C195,240.403559 189.398142,246 182.493693,246 L138.5,246 L234.512,246 L234.512,296 L103.997699,296 C90.191851,296 79,284.810155 79,271 C79,257.192881 90.1882921,246 103.997699,246 L234.512,246 L234.512,221 Z M234.512,296 L132.5,296 L160.493693,296 C167.400736,296 173,301.594923 173,308.5 C173,315.403559 167.398142,321 160.493693,321 L132.5,321 L234.512,321 L234.512,321 L149.008009,321 C135.188467,321 124,332.192881 124,346 C124,359.810155 135.196467,371 149.008009,371 L247.061995,371 L422.98,371 C425.350679,371 427.213327,370.322673 428.568,368.968 C429.922673,367.613327 430.6,365.750679 430.6,363.38 L430.6,309.024 C430.6,306.653321 429.922673,304.790673 428.568,303.436 C427.213327,302.081327 425.350679,301.404 422.98,301.404 L313.252,301.404 L313.252,23.02 C313.252,20.6493215 312.574673,18.7866734 311.22,17.432 C309.865327,16.0773266 308.002679,15.4 305.632,15.4 L242.132,15.4 C239.761321,15.4 237.898673,16.0773266 236.544,17.432 C235.189327,18.7866734 234.512,20.6493215 234.512,23.02 L234.512,85.6677055 C232.920279,91.6190835 227.496243,96 221.03855,96 L162.772429,96 L234.512,96 L234.512,96 L91.0026886,96 C77.1997762,96 66,107.192881 66,121 C66,134.810155 77.194085,146 91.0026886,146 L234.512,146 L234.512,146 L153.5,146 L202.493693,146 C209.400736,146 215,151.594923 215,158.5 C215,165.403559 209.398142,171 202.493693,171 L153.5,171 L234.512,171 L234.512,221 L37.0092115,221 C23.1970054,221 12,209.810155 12,196 C12,182.192881 23.1956589,171 37.0092115,171 L234.512,171 L234.512,146 Z M82.0232116,321 C92.4113871,324.034884 100,333.631234 100,345 C100,358.807119 88.8071187,370 75,370 C61.1928813,370 50,358.807119 50,345 C50,333.631234 57.5886129,324.034884 67.9767884,321 L82.0232116,321 Z M25,296 C38.8071187,296 50,284.807119 50,271 C50,257.192881 38.8071187,246 25,246 C11.1928813,246 0,257.192881 0,271 C0,284.807119 11.1928813,296 25,296 Z M721.176001,124.112 C722.530675,125.466673 723.208001,127.329321 723.208001,129.7 L723.208001,363.38 C723.208001,365.750679 722.530675,367.613327 721.176001,368.968 C719.821328,370.322673 717.95868,371 715.588001,371 L660.216001,371 C655.813313,371 653.273338,368.460025 652.596001,363.38 L651.072001,345.092 C631.767905,366.766775 608.061475,377.604 579.952001,377.604 C557.261221,377.604 536.772093,371.846724 518.484001,360.332 C500.19591,348.817276 485.887386,333.069433 475.558001,313.088 C465.228616,293.106567 460.064001,271.093454 460.064001,247.048 C460.064001,223.002546 465.228616,200.989433 475.558001,181.008 C485.887386,161.026567 500.19591,145.278724 518.484001,133.764 C536.772093,122.249276 557.261221,116.492 579.952001,116.492 C607.384138,116.492 631.090568,127.83722 651.072001,150.528 L652.596001,129.7 C653.273338,124.619975 655.813313,122.08 660.216001,122.08 L715.588001,122.08 C717.95868,122.08 719.821328,122.757327 721.176001,124.112 Z M629.482001,289.974 C640.150055,277.951273 645.484001,263.473418 645.484001,246.54 C645.484001,229.94525 640.150055,215.636727 629.482001,203.614 C618.813948,191.591273 605.521414,185.58 589.604001,185.58 C573.34792,185.58 559.886055,191.421942 549.218001,203.106 C538.549948,214.790058 533.216001,229.267914 533.216001,246.54 C533.216001,264.150755 538.549948,278.797942 549.218001,290.482 C559.886055,302.166058 573.34792,308.008 589.604001,308.008 C605.521414,308.008 618.813948,301.996727 629.482001,289.974 Z M1014.292,124.112 C1015.64668,125.466673 1016.324,127.329321 1016.324,129.7 L1016.324,363.38 C1016.324,365.750679 1015.64668,367.613327 1014.292,368.968 C1012.93733,370.322673 1011.07468,371 1008.704,371 L949.776002,371 C945.373314,371 942.833339,368.460025 942.156002,363.38 L940.124002,336.456 C931.318625,348.986729 920.735398,358.977296 908.374002,366.428 C896.012607,373.878704 882.550742,377.604 867.988002,377.604 C849.699911,377.604 833.359408,373.286043 818.966002,364.65 C804.572597,356.013957 793.312043,343.568081 785.184002,327.312 C777.055962,311.055919 772.992002,292.090775 772.992002,270.416 L772.992002,129.7 C772.992002,127.329321 773.669329,125.466673 775.024002,124.112 C776.378676,122.757327 778.241324,122.08 780.612002,122.08 L841.572002,122.08 C843.942681,122.08 845.805329,122.757327 847.160002,124.112 C848.514676,125.466673 849.192002,127.329321 849.192002,129.7 L849.192002,255.176 C849.192002,273.464091 853.509959,286.587294 862.146002,294.546 C870.782046,302.504706 881.02661,306.484 892.880002,306.484 C907.78141,306.484 919.380628,301.82738 927.678002,292.514 C935.975377,283.20062 940.124002,273.125388 940.124002,262.288 L940.124002,129.7 C940.124002,127.329321 940.801329,125.466673 942.156002,124.112 C943.510676,122.757327 945.373324,122.08 947.744002,122.08 L1008.704,122.08 C1011.07468,122.08 1012.93733,122.757327 1014.292,124.112 Z M1267.53,129.446 C1281.24607,138.082043 1292.0833,150.527919 1300.042,166.784 C1308.00071,183.040081 1311.98,202.005225 1311.98,223.68 L1311.98,363.38 C1311.98,365.750679 1311.30268,367.613327 1309.948,368.968 C1308.59333,370.322673 1306.73068,371 1304.36,371 L1243.4,371 C1241.02933,371 1239.16668,370.322673 1237.812,368.968 C1236.45733,367.613327 1235.78,365.750679 1235.78,363.38 L1235.78,238.92 C1235.78,220.631909 1231.63138,207.424041 1223.334,199.296 C1215.03663,191.167959 1204.9614,187.104 1193.108,187.104 C1182.60928,187.104 1173.71937,189.897972 1166.438,195.486 C1159.15663,201.074028 1153.73802,207.50863 1150.182,214.79 C1146.62599,222.07137 1144.848,228.082643 1144.848,232.824 L1144.848,363.38 C1144.848,365.750679 1144.17068,367.613327 1142.816,368.968 C1141.46133,370.322673 1139.59868,371 1137.228,371 L1076.268,371 C1073.89733,371 1072.03468,370.322673 1070.68,368.968 C1069.32533,367.613327 1068.648,365.750679 1068.648,363.38 L1068.648,129.7 C1068.648,127.329321 1069.32533,125.466673 1070.68,124.112 C1072.03468,122.757327 1073.89733,122.08 1076.268,122.08 L1135.196,122.08 C1139.59869,122.08 1142.13867,124.619975 1142.816,129.7 L1144.848,161.196 C1153.31471,147.310597 1163.98261,136.388706 1176.852,128.43 C1189.7214,120.471294 1204.62259,116.492 1221.556,116.492 C1238.48942,116.492 1253.81394,120.809957 1267.53,129.446 Z M1533.468,287.688 C1535.16135,285.994658 1537.02399,285.148 1539.056,285.148 C1541.42668,285.148 1543.28933,285.994658 1544.644,287.688 L1581.22,322.74 C1582.91335,324.433342 1583.76,326.29599 1583.76,328.328 C1583.76,330.36001 1583.08268,332.053327 1581.728,333.408 C1569.87461,347.293403 1555.48142,358.130628 1538.548,365.92 C1521.61459,373.709372 1503.4961,377.604 1484.192,377.604 C1460.82389,377.604 1439.40344,371.846724 1419.93,360.332 C1400.45657,348.817276 1385.04739,333.069433 1373.702,313.088 C1362.35661,293.106567 1356.684,271.093454 1356.684,247.048 C1356.684,223.002546 1362.35661,200.989433 1373.702,181.008 C1385.04739,161.026567 1400.45657,145.278724 1419.93,133.764 C1439.40344,122.249276 1460.82389,116.492 1484.192,116.492 C1503.15743,116.492 1520.93726,120.386628 1537.532,128.176 C1554.12675,135.965372 1568.35061,146.802597 1580.204,160.688 C1581.55868,162.042673 1582.236,163.73599 1582.236,165.768 C1582.236,167.80001 1581.38935,169.662658 1579.696,171.356 L1543.12,206.916 C1541.42666,208.609342 1539.73335,209.456 1538.04,209.456 C1536.00799,209.456 1533.97602,208.44001 1531.944,206.408 C1517.38127,193.538602 1502.14142,187.104 1486.224,187.104 C1469.96792,187.104 1456.50606,192.77661 1445.838,204.122 C1435.16995,215.46739 1429.836,229.775914 1429.836,247.048 C1429.836,264.320086 1435.16995,278.62861 1445.838,289.974 C1456.50606,301.31939 1469.96792,306.992 1486.224,306.992 C1502.81875,306.992 1518.5666,300.557398 1533.468,287.688 Z M1824.80601,129.446 C1838.52207,138.082043 1849.3593,150.527919 1857.31801,166.784 C1865.27671,183.040081 1869.25601,202.005225 1869.25601,223.68 L1869.25601,363.38 C1869.25601,365.750679 1868.57868,367.613327 1867.22401,368.968 C1865.86933,370.322673 1864.00668,371 1861.63601,371 L1800.67601,371 C1798.30533,371 1796.44268,370.322673 1795.08801,368.968 C1793.73333,367.613327 1793.05601,365.750679 1793.05601,363.38 L1793.05601,238.92 C1793.05601,220.631909 1788.90738,207.424041 1780.61001,199.296 C1772.31263,191.167959 1762.2374,187.104 1750.38401,187.104 C1739.88529,187.104 1730.99538,189.897972 1723.71401,195.486 C1716.43264,201.074028 1711.01402,207.50863 1707.45801,214.79 C1703.90199,222.07137 1702.12401,228.082643 1702.12401,232.824 L1702.12401,363.38 C1702.12401,365.750679 1701.44668,367.613327 1700.09201,368.968 C1698.73733,370.322673 1696.87468,371 1694.50401,371 L1633.54401,371 C1631.17333,371 1629.31068,370.322673 1627.95601,368.968 C1626.60133,367.613327 1625.92401,365.750679 1625.92401,363.38 L1625.92401,7.78 C1625.92401,5.40932148 1626.60133,3.54667344 1627.95601,2.192 C1629.31068,0.83732656 1631.17333,0.16 1633.54401,0.16 L1694.50401,0.16 C1696.87468,0.16 1698.73733,0.83732656 1700.09201,2.192 C1701.44668,3.54667344 1702.12401,5.40932148 1702.12401,7.78 L1702.12401,161.196 C1710.59072,147.310597 1721.25861,136.388706 1734.12801,128.43 C1746.9974,120.471294 1761.89859,116.492 1778.83201,116.492 C1795.76542,116.492 1811.08994,120.809957 1824.80601,129.446 Z M2175.07201,124.112 C2176.42668,125.466673 2177.10401,127.329321 2177.10401,129.7 L2177.10401,363.38 C2177.10401,365.750679 2176.42668,367.613327 2175.07201,368.968 C2173.71733,370.322673 2171.85469,371 2169.48401,371 L2114.11201,371 C2109.70932,371 2107.16934,368.460025 2106.49201,363.38 L2104.96801,345.092 C2085.66391,366.766775 2061.95748,377.604 2033.84801,377.604 C2011.15723,377.604 1990.6681,371.846724 1972.38001,360.332 C1954.09192,348.817276 1939.78339,333.069433 1929.45401,313.088 C1919.12462,293.106567 1913.96001,271.093454 1913.96001,247.048 C1913.96001,223.002546 1919.12462,200.989433 1929.45401,181.008 C1939.78339,161.026567 1954.09192,145.278724 1972.38001,133.764 C1990.6681,122.249276 2011.15723,116.492 2033.84801,116.492 C2061.28014,116.492 2084.98657,127.83722 2104.96801,150.528 L2106.49201,129.7 C2107.16934,124.619975 2109.70932,122.08 2114.11201,122.08 L2169.48401,122.08 C2171.85469,122.08 2173.71733,122.757327 2175.07201,124.112 Z M2083.37801,289.974 C2094.04606,277.951273 2099.38001,263.473418 2099.38001,246.54 C2099.38001,229.94525 2094.04606,215.636727 2083.37801,203.614 C2072.70995,191.591273 2059.41742,185.58 2043.50001,185.58 C2027.24393,185.58 2013.78206,191.421942 2003.11401,203.106 C1992.44595,214.790058 1987.11201,229.267914 1987.11201,246.54 C1987.11201,264.150755 1992.44595,278.797942 2003.11401,290.482 C2013.78206,302.166058 2027.24393,308.008 2043.50001,308.008 C2059.41742,308.008 2072.70995,301.996727 2083.37801,289.974 Z M2398.59201,287.688 C2400.28535,285.994658 2402.148,285.148 2404.18001,285.148 C2406.55069,285.148 2408.41334,285.994658 2409.76801,287.688 L2446.34401,322.74 C2448.03735,324.433342 2448.88401,326.29599 2448.88401,328.328 C2448.88401,330.36001 2448.20668,332.053327 2446.85201,333.408 C2434.99862,347.293403 2420.60543,358.130628 2403.67201,365.92 C2386.73859,373.709372 2368.62011,377.604 2349.31601,377.604 C2325.94789,377.604 2304.52744,371.846724 2285.05401,360.332 C2265.58058,348.817276 2250.1714,333.069433 2238.82601,313.088 C2227.48062,293.106567 2221.80801,271.093454 2221.80801,247.048 C2221.80801,223.002546 2227.48062,200.989433 2238.82601,181.008 C2250.1714,161.026567 2265.58058,145.278724 2285.05401,133.764 C2304.52744,122.249276 2325.94789,116.492 2349.31601,116.492 C2368.28144,116.492 2386.06126,120.386628 2402.65601,128.176 C2419.25076,135.965372 2433.47462,146.802597 2445.32801,160.688 C2446.68268,162.042673 2447.36001,163.73599 2447.36001,165.768 C2447.36001,167.80001 2446.51335,169.662658 2444.82001,171.356 L2408.24401,206.916 C2406.55067,208.609342 2404.85735,209.456 2403.16401,209.456 C2401.132,209.456 2399.10002,208.44001 2397.06801,206.408 C2382.50527,193.538602 2367.26542,187.104 2351.34801,187.104 C2335.09193,187.104 2321.63006,192.77661 2310.96201,204.122 C2300.29396,215.46739 2294.96001,229.775914 2294.96001,247.048 C2294.96001,264.320086 2300.29396,278.62861 2310.96201,289.974 C2321.63006,301.31939 2335.09193,306.992 2351.34801,306.992 C2367.94276,306.992 2383.6906,300.557398 2398.59201,287.688 Z M2540.07001,360.332 C2520.25791,348.817276 2504.59473,333.069433 2493.08001,313.088 C2481.56529,293.106567 2475.80801,271.093454 2475.80801,247.048 C2475.80801,223.002546 2481.56529,200.989433 2493.08001,181.008 C2504.59473,161.026567 2520.25791,145.278724 2540.07001,133.764 C2559.88211,122.249276 2581.64122,116.492 2605.34801,116.492 C2629.0548,116.492 2650.81391,122.249276 2670.62601,133.764 C2690.43811,145.278724 2706.18595,161.026567 2717.87001,181.008 C2729.55407,200.989433 2735.39601,223.002546 2735.39601,247.048 C2735.39601,271.093454 2729.55407,293.106567 2717.87001,313.088 C2706.18595,333.069433 2690.43811,348.817276 2670.62601,360.332 C2650.81391,371.846724 2629.0548,377.604 2605.34801,377.604 C2581.64122,377.604 2559.88211,371.846724 2540.07001,360.332 Z M2645.48001,289.974 C2656.3174,278.62861 2661.73601,264.320086 2661.73601,247.048 C2661.73601,229.775914 2656.3174,215.46739 2645.48001,204.122 C2634.64262,192.77661 2621.26542,187.104 2605.34801,187.104 C2589.76927,187.104 2576.47673,192.77661 2565.47001,204.122 C2554.46329,215.46739 2548.96001,229.775914 2548.96001,247.048 C2548.96001,264.320086 2554.46329,278.62861 2565.47001,289.974 C2576.47673,301.31939 2589.76927,306.992 2605.34801,306.992 C2621.26542,306.992 2634.64262,301.31939 2645.48001,289.974 Z" id="Combined-Shape"></path>
            </g>
        </g>
    </g>
</svg>