<?xml version="1.0" encoding="utf-8"?>
<!-- Generator: Adobe Illustrator 19.2.0, SVG Export Plug-In . SVG Version: 6.00 Build 0)  -->
<svg version="1.1" id="Layer_1" xmlns="http://www.w3.org/2000/svg" xmlns:xlink="http://www.w3.org/1999/xlink" x="0px" y="0px"
	 viewBox="0 0 209 128" style="enable-background:new 0 0 209 128;" xml:space="preserve">
<style type="text/css">
	.st0{fill:#FFFFFF;}
</style>
<g>
	<g>
		<path class="st0" d="M83,103.2c-2.5,0-4.7,1-6.3,2.6s-2.6,3.8-2.6,6.3s1,4.7,2.6,6.3s3.8,2.6,6.3,2.6s4.7-1,6.3-2.6
			c1.6-1.6,2.6-3.8,2.6-6.3s-1-4.7-2.6-6.3C87.7,104.2,85.4,103.2,83,103.2 M90,105.1L90,105.1 M83,102.2c5.5,0,10,4.5,10,10
			s-4.5,10-10,10s-10-4.5-10-10C73,106.6,77.5,102.2,83,102.2 M76,105.1L76,105.1"/>
		<path class="st0" d="M78.3,112.1c0-0.6-0.4-0.9-0.9-0.9h-0.3v1.8h0.3C77.8,113,78.3,112.7,78.3,112.1 M84.2,112.7l-2.5,1.9
			l-2.3-1.8c-0.3,0.8-1.1,1.3-2,1.3h-1.8v-4.3h1.9c1,0,1.7,0.6,2,1.3l2.3-1.8l0.8,0.7l-2.1,1.6l0.4,0.3l2.1-1.6l0.8,0.7l-2.1,1.6
			l0.4,0.3l2.1-1.6v-1.5h1.5v3h1.5v1.3h-3L84.2,112.7L84.2,112.7z M89.1,113h1.5v1.3h-3V110h1.5V113L89.1,113z"/>
		<rect x="108.4" y="102.2" class="st0" width="0.5" height="20"/>
	</g>
	<g>
		<g>
			<polygon class="st0" points="131.4,112 140.1,112 140.1,104.3 131.4,105.5 			"/>
			<polygon class="st0" points="131.2,112 131.2,105.5 124.5,106.5 124.5,112 			"/>
			<polygon class="st0" points="131.2,112.2 124.5,112.2 124.5,117.7 131.2,118.6 			"/>
			<polygon class="st0" points="131.4,112.2 131.4,118.7 140.1,119.9 140.1,112.2 			"/>
		</g>
		<g>
			<path class="st0" d="M158.7,108c0,0.2-0.1,0.4-0.2,0.5c-0.1,0.1-0.3,0.2-0.5,0.2s-0.4-0.1-0.5-0.2c-0.1-0.1-0.2-0.3-0.2-0.5
				s0.1-0.3,0.2-0.5c0.1-0.1,0.3-0.2,0.5-0.2s0.4,0.1,0.5,0.2C158.7,107.7,158.7,107.8,158.7,108z"/>
		</g>
		<g>
			<path class="st0" d="M156.7,107.5l-2.6,9.2h-1.3l-2-7.3l0,0l-2,7.3h-1.2l-2.7-9.2h1.2l2.1,7.7l0,0l2.2-7.7h1l2.1,7.7l0,0l2-7.7
				H156.7z"/>
			<path class="st0" d="M158.6,116.8h-1.1v-6.6h1.1V116.8z"/>
			<path class="st0" d="M165.6,116.8h-1.1V113c0-1.4-0.5-2.1-1.5-2.1c-0.5,0-1,0.2-1.3,0.6c-0.3,0.4-0.5,0.9-0.5,1.5v3.8h-1.1v-6.6
				h1.1v1.1l0,0c0.5-0.8,1.2-1.2,2.2-1.2c0.7,0,1.3,0.2,1.6,0.7c0.4,0.5,0.6,1.1,0.6,2V116.8L165.6,116.8z"/>
			<path class="st0" d="M172.8,116.8h-1.1v-1.1l0,0c-0.5,0.8-1.2,1.3-2.3,1.3c-0.8,0-1.5-0.3-2-0.9s-0.7-1.4-0.7-2.4
				c0-1.1,0.3-2,0.8-2.6c0.5-0.7,1.3-1,2.2-1s1.5,0.4,2,1.1l0,0V107h1.1V116.8L172.8,116.8z M171.8,113.8v-1c0-0.5-0.2-1-0.5-1.4
				s-0.8-0.5-1.3-0.5c-0.6,0-1.1,0.2-1.5,0.7s-0.6,1.1-0.6,1.9c0,0.8,0.2,1.4,0.5,1.8c0.4,0.4,0.8,0.7,1.4,0.7
				c0.6,0,1.1-0.2,1.4-0.6C171.6,115,171.8,114.4,171.8,113.8z"/>
			<path class="st0" d="M180.6,113.4c0,1-0.3,1.9-0.9,2.5c-0.6,0.6-1.4,1-2.4,1s-1.7-0.3-2.3-0.9c-0.6-0.6-0.9-1.4-0.9-2.5
				s0.3-1.9,0.9-2.6c0.6-0.6,1.4-1,2.5-1c1,0,1.7,0.3,2.3,0.9C180.3,111.5,180.6,112.4,180.6,113.4z M179.5,113.5
				c0-0.8-0.2-1.5-0.5-1.9c-0.4-0.4-0.9-0.7-1.6-0.7c-0.7,0-1.2,0.2-1.6,0.7c-0.4,0.4-0.6,1.1-0.6,1.9c0,0.8,0.2,1.4,0.6,1.8
				c0.4,0.4,0.9,0.7,1.6,0.7s1.2-0.2,1.6-0.7C179.4,114.9,179.5,114.3,179.5,113.5z"/>
			<path class="st0" d="M190.1,110.2l-2,6.6H187l-1.5-5.1l0,0l-1.6,5.1h-1.1l-2-6.6h1.1l1.4,5.3l0,0l1.6-5.3h1l1.5,5.3l0,0l1.4-5.3
				H190.1z"/>
			<path class="st0" d="M194.6,115c0,0.6-0.2,1-0.7,1.4c-0.4,0.4-1,0.5-1.7,0.5c-0.6,0-1.2-0.1-1.6-0.4v-1.1
				c0.5,0.4,1.1,0.6,1.7,0.6c0.8,0,1.2-0.3,1.2-0.9c0-0.3-0.1-0.4-0.2-0.6c-0.2-0.2-0.5-0.4-1.1-0.6c-0.6-0.3-1-0.5-1.2-0.8
				s-0.4-0.7-0.4-1.1c0-0.5,0.2-1,0.7-1.4c0.4-0.4,1-0.5,1.7-0.5c0.5,0,1,0.1,1.4,0.3v1.1c-0.4-0.3-0.9-0.5-1.5-0.5
				c-0.3,0-0.6,0.1-0.8,0.3s-0.3,0.4-0.3,0.7s0.1,0.5,0.2,0.7c0.2,0.2,0.5,0.3,1,0.5c0.6,0.3,1.1,0.5,1.3,0.8
				C194.5,114.2,194.6,114.6,194.6,115z"/>
		</g>
	</g>
	<g>
		<path class="st0" d="M18.8,110.8c0,0.6-0.2,1.1-0.6,1.5c-0.4,0.4-1,0.5-1.8,0.5h-1v2.7h-0.5V109h1.6
			C18.1,108.9,18.8,109.5,18.8,110.8 M15.4,112.3h0.9c0.7,0,1.3-0.1,1.6-0.4c0.3-0.2,0.5-0.6,0.5-1.2c0-0.5-0.1-0.9-0.5-1.1
			c-0.3-0.2-0.8-0.4-1.4-0.4h-1.1V112.3L15.4,112.3z"/>
		<path class="st0" d="M25.8,112.1c0,1-0.3,1.9-0.8,2.5s-1.2,0.9-2.2,0.9c-0.9,0-1.6-0.3-2.1-0.9c-0.5-0.6-0.8-1.4-0.8-2.5
			c0-1,0.3-1.9,0.8-2.5s1.2-0.9,2.2-0.9c0.9,0,1.6,0.3,2.1,0.9C25.5,110.3,25.8,111.1,25.8,112.1 M20.4,112.1c0,0.9,0.2,1.7,0.6,2.2
			s1,0.8,1.8,0.8s1.4-0.3,1.8-0.8s0.6-1.2,0.6-2.2s-0.2-1.7-0.6-2.2s-1-0.8-1.8-0.8s-1.4,0.3-1.8,0.8
			C20.6,110.5,20.4,111.2,20.4,112.1"/>
		<path class="st0" d="M32.5,115.4h-0.4l-1.4-5c-0.1-0.4-0.2-0.8-0.3-1c0,0.3-0.1,0.6-0.2,0.9c-0.1,0.3-0.6,2.1-1.4,5.2h-0.4
			l-1.8-6.5h0.5l1.1,4.2c0,0.2,0.1,0.3,0.1,0.5c0,0.1,0.1,0.3,0.1,0.4c0,0.1,0.1,0.3,0.1,0.4s0,0.2,0.1,0.4c0.1-0.4,0.2-1,0.5-1.9
			l1.1-4h0.5l1.3,4.6c0.1,0.5,0.3,1,0.3,1.3c0-0.2,0.1-0.4,0.1-0.7s0.5-2,1.4-5.2h0.5L32.5,115.4z"/>
		<polygon class="st0" points="39,115.4 35.5,115.4 35.5,108.9 39,108.9 39,109.3 35.9,109.3 35.9,111.8 38.9,111.8 38.9,112.2 
			35.9,112.2 35.9,115 39,115 		"/>
		<path class="st0" d="M41,112.6v2.9h-0.5V109h1.6c0.8,0,1.4,0.1,1.8,0.4c0.4,0.3,0.6,0.8,0.6,1.4c0,0.4-0.1,0.8-0.3,1.1
			s-0.6,0.5-1.1,0.7l1.8,3h-0.5l-1.7-2.9L41,112.6L41,112.6z M41,112.2h1.2c0.5,0,1-0.1,1.3-0.4c0.3-0.3,0.5-0.6,0.5-1.1
			s-0.1-0.9-0.4-1.1c-0.3-0.2-0.8-0.3-1.5-0.3H41V112.2L41,112.2z"/>
		<polygon class="st0" points="49.5,115.4 46,115.4 46,108.9 49.5,108.9 49.5,109.3 46.4,109.3 46.4,111.8 49.4,111.8 49.4,112.2 
			46.4,112.2 46.4,115 49.5,115 		"/>
		<path class="st0" d="M56,112.1c0,1.1-0.3,1.9-0.9,2.5c-0.6,0.6-1.4,0.8-2.5,0.8H51v-6.5h1.8c1,0,1.8,0.3,2.4,0.8
			C55.7,110.2,56,111,56,112.1 M55.5,112.1c0-0.9-0.2-1.6-0.7-2.1s-1.2-0.7-2.1-0.7h-1.2v5.7h1.1C54.5,115,55.5,114,55.5,112.1"/>
		<path class="st0" d="M59.9,108.9h1.8c0.8,0,1.4,0.1,1.8,0.4s0.6,0.7,0.6,1.2c0,0.4-0.1,0.7-0.3,1s-0.6,0.4-1,0.5l0,0
			c0.5,0.1,0.9,0.2,1.2,0.5s0.4,0.6,0.4,1.1c0,0.6-0.2,1.1-0.6,1.4c-0.4,0.3-1,0.5-1.7,0.5h-2L59.9,108.9L59.9,108.9z M60.3,111.8
			h1.4c0.6,0,1.1-0.1,1.3-0.3c0.3-0.2,0.4-0.5,0.4-1c0-0.4-0.2-0.8-0.5-1s-0.8-0.3-1.4-0.3h-1.3L60.3,111.8L60.3,111.8z M60.3,112.2
			v2.8h1.5c1.2,0,1.8-0.5,1.8-1.5c0-0.9-0.6-1.4-1.9-1.4L60.3,112.2L60.3,112.2z"/>
		<polygon class="st0" points="67.1,112.4 69.1,108.9 69.6,108.9 67.4,112.9 67.4,115.4 66.9,115.4 66.9,112.9 64.7,108.9 
			65.2,108.9 		"/>
	</g>
	<g>
		<path class="st0" d="M19.2,75.9c0.2,0.1,0.4,0.2,0.5,0.4c0.1,0.2,0.3,0.3,0.4,0.5c0.1,0.2,0.1,0.4,0.1,0.7v8.1
			c0,0.1,0,0.1-0.1,0.2c-0.1,0.1-0.1,0.1-0.2,0.1h-2c-0.1,0-0.1,0-0.2-0.1c0-0.1-0.1-0.1-0.1-0.2v-7.3H16v7.3c0,0.1,0,0.1-0.1,0.2
			c0,0.1-0.1,0.1-0.2,0.1H14c-0.1,0-0.1,0-0.2-0.1c-0.1-0.1-0.1-0.1-0.1-0.2v-7.3h-1.6v7.3c0,0.2-0.1,0.3-0.3,0.3h-2
			c-0.2,0-0.3-0.1-0.3-0.3V76c0-0.2,0.1-0.3,0.3-0.3h8.6C18.7,75.7,19,75.8,19.2,75.9"/>
		<path class="st0" d="M29.2,75.7c0.2,0,0.4,0,0.7,0.1c0.3,0.1,0.4,0.2,0.5,0.4c0.1,0.1,0.3,0.3,0.4,0.5s0.1,0.4,0.1,0.7v8.1
			c0,0.1,0,0.1-0.1,0.2c-0.1,0.1-0.1,0.1-0.2,0.1h-2c-0.1,0-0.1,0-0.2-0.1c-0.1-0.1-0.1-0.1-0.1-0.2v-2.6c0-0.1,0-0.1-0.1-0.2
			c0-0.1-0.1-0.1-0.2-0.1h-2.8c-0.1,0-0.1,0-0.2,0.1c-0.1,0.1-0.1,0.1-0.1,0.2v2.6c0,0.2-0.1,0.3-0.3,0.3h-2c-0.2,0-0.3-0.1-0.3-0.3
			v-8.1c0-0.2,0-0.4,0.1-0.7c0.1-0.2,0.2-0.4,0.4-0.5c0.1-0.1,0.3-0.3,0.5-0.4c0.2-0.1,0.4-0.1,0.7-0.1H29.2L29.2,75.7z M28.3,78
			h-3.4v2.5h3.4V78z"/>
		<path class="st0" d="M39.9,75.8C40,75.9,40,75.9,40,76v8.1c0,0.2,0,0.4-0.1,0.7c-0.1,0.2-0.2,0.4-0.4,0.5
			c-0.1,0.1-0.3,0.3-0.5,0.4c-0.2,0.1-0.4,0.1-0.7,0.1H34c-0.2,0-0.4,0-0.7-0.1c-0.3-0.1-0.4-0.2-0.5-0.4c-0.1-0.2-0.3-0.3-0.4-0.5
			c-0.1-0.2-0.1-0.4-0.1-0.7V81c0-0.2,0.1-0.3,0.3-0.3h2c0.2,0,0.3,0.1,0.3,0.3v2c0,0.1,0,0.1,0.1,0.2c0.1,0,0.1,0.1,0.2,0.1h2.1
			c0.1,0,0.1,0,0.2-0.1c0.1,0,0.1-0.1,0.1-0.2v-7c0-0.1,0-0.1,0.1-0.2c0-0.1,0.1-0.1,0.2-0.1L39.9,75.8
			C39.8,75.7,39.9,75.8,39.9,75.8"/>
		<path class="st0" d="M49,75.7c0.2,0,0.4,0,0.7,0.1c0.2,0.1,0.4,0.2,0.5,0.4c0.1,0.1,0.3,0.3,0.4,0.5s0.1,0.4,0.1,0.7v6.7
			c0,0.2,0,0.4-0.1,0.7c-0.1,0.3-0.2,0.4-0.4,0.5c-0.1,0.1-0.3,0.3-0.5,0.4c-0.2,0.1-0.4,0.1-0.7,0.1h-5.1c-0.2,0-0.4,0-0.7-0.1
			c-0.2-0.1-0.4-0.2-0.5-0.4c-0.1-0.1-0.3-0.3-0.4-0.5c-0.1-0.2-0.1-0.4-0.1-0.7v-6.7c0-0.2,0-0.4,0.1-0.7c0.1-0.3,0.2-0.4,0.4-0.5
			c0.1-0.1,0.3-0.3,0.5-0.4c0.2-0.1,0.4-0.1,0.7-0.1H49z M48.1,78.2h-3.4v5.2h3.4V78.2z"/>
		<path class="st0" d="M61.6,85.5c0,0.1,0,0.1,0,0.2c0,0-0.1,0.1-0.2,0.1h-2.3c-0.1,0-0.1,0-0.2-0.1c-0.1,0-0.1-0.1-0.2-0.2
			l-1.5-2.7l-0.1-0.1h-1.7c0,0-0.1,0-0.1,0.1v2.7c0,0.2-0.1,0.3-0.3,0.3h-2c-0.2,0-0.3-0.1-0.3-0.3V76c0-0.2,0.1-0.3,0.3-0.3h6.6
			c0.2,0,0.4,0,0.7,0.1c0.3,0.1,0.4,0.2,0.5,0.4c0.1,0.2,0.3,0.3,0.4,0.5c0.1,0.2,0.1,0.4,0.1,0.7v3.8c0,0.4-0.1,0.7-0.3,1
			s-0.5,0.5-0.8,0.6l0,0c-0.1,0-0.1,0,0,0.1l0,0L61.6,85.5z M58.8,78.1h-3.5v2.4h3.5V78.1z"/>
		<path class="st0" d="M75.2,83.3c0.1,0,0.1,0,0.2,0.1c0,0.1,0.1,0.1,0.1,0.2v1.9c0,0.1,0,0.1-0.1,0.2c-0.1,0.1-0.1,0.1-0.2,0.1H69
			c-0.2,0-0.3-0.1-0.3-0.3V76c0-0.2,0.1-0.3,0.3-0.3h2c0.2,0,0.3,0.1,0.3,0.3v7.1c0,0.1,0,0.1,0.1,0.2c0.1,0,0.1,0.1,0.2,0.1
			L75.2,83.3L75.2,83.3z"/>
		<path class="st0" d="M84.4,75.8c0,0.1,0.1,0.1,0.1,0.2v0.8v0.4v0.6c0,0.1,0,0.1-0.1,0.2c-0.1,0-0.1,0.1-0.2,0.1h-1h-3h-0.8
			c0,0-0.1,0-0.1,0.1v1.6c0,0,0,0.1,0.1,0.1h4.1c0.1,0,0.1,0,0.2,0.1c0,0.1,0.1,0.1,0.1,0.2v1.4c0,0.1,0,0.1-0.1,0.2
			c0,0.1-0.1,0.1-0.2,0.1h-4.1c0,0-0.1,0-0.1,0.1v0.7l0,0v0.8c0,0,0,0.1,0.1,0.1H80h3.2h1c0.1,0,0.1,0,0.2,0.1
			c0,0.1,0.1,0.1,0.1,0.2v0.6v0.7v0.5c0,0.1,0,0.1-0.1,0.2C84.3,86,84.3,86,84.2,86h-0.8h-5.5H77c-0.2,0-0.3-0.1-0.3-0.3V85v-8.3V76
			c0-0.1,0-0.1,0.1-0.2c0.1-0.1,0.1-0.1,0.2-0.1h1h5.6h0.5C84.3,75.7,84.4,75.8,84.4,75.8"/>
		<path class="st0" d="M93.5,75.7c0.2,0,0.4,0,0.7,0.1c0.3,0.1,0.4,0.2,0.5,0.4c0.1,0.2,0.3,0.3,0.4,0.5s0.1,0.4,0.1,0.7v8.1
			c0,0.1,0,0.1-0.1,0.2c-0.1,0.1-0.1,0.1-0.2,0.1h-2c-0.1,0-0.1,0-0.2-0.1c-0.1-0.1-0.1-0.1-0.1-0.2v-2.6c0-0.1,0-0.1-0.1-0.2
			c0-0.1-0.1-0.1-0.2-0.1h-2.7c-0.1,0-0.1,0-0.2,0.1c-0.1,0.1-0.1,0.1-0.1,0.2v2.6c0,0.2-0.1,0.3-0.3,0.3h-2c-0.2,0-0.3-0.1-0.3-0.3
			v-8.1c0-0.2,0-0.4,0.1-0.7c0.1-0.2,0.2-0.4,0.4-0.5c0.1-0.1,0.3-0.3,0.5-0.4c0.2-0.1,0.4-0.1,0.7-0.1H93.5L93.5,75.7z M92.6,78
			h-3.4v2.5h3.4V78z"/>
		<path class="st0" d="M105.8,80.4c0.1,0.1,0.1,0.1,0.1,0.2v3.5c0,0.2,0,0.4-0.1,0.7c-0.1,0.2-0.2,0.4-0.4,0.5
			c-0.2,0.1-0.3,0.3-0.5,0.4c-0.2,0.1-0.4,0.1-0.7,0.1h-5.1c-0.2,0-0.4,0-0.7-0.1c-0.2-0.1-0.4-0.2-0.5-0.4
			c-0.1-0.1-0.3-0.3-0.4-0.5s-0.1-0.4-0.1-0.7v-6.7c0-0.2,0-0.4,0.1-0.7c0.1-0.2,0.2-0.4,0.4-0.5c0.1-0.1,0.3-0.3,0.5-0.4
			c0.2-0.1,0.4-0.1,0.7-0.1h5.9c0.1,0,0.1,0,0.2,0.1c0.1,0.1,0.1,0.1,0.1,0.2v1.9c0,0.1,0,0.1-0.1,0.2c-0.1,0.1-0.1,0.1-0.2,0.1
			h-4.8c-0.1,0-0.1,0-0.2,0.1c-0.1,0-0.1,0.1-0.1,0.2v4.6c0,0.1,0,0.1,0.1,0.2c0.1,0,0.1,0.1,0.2,0.1h2.8c0.1,0,0.1,0,0.2-0.1
			c0,0,0.1-0.1,0.1-0.2v-2.5c0-0.1,0-0.1,0.1-0.2c0.1-0.1,0.1-0.1,0.2-0.1h2C105.7,80.3,105.7,80.3,105.8,80.4"/>
		<path class="st0" d="M116.4,75.8c0,0.1,0.1,0.1,0.1,0.2v8.1c0,0.2,0,0.4-0.1,0.7c-0.1,0.3-0.2,0.4-0.4,0.5
			c-0.2,0.1-0.3,0.3-0.5,0.4c-0.2,0.1-0.4,0.1-0.7,0.1h-5.1c-0.2,0-0.4,0-0.7-0.1c-0.2-0.1-0.4-0.2-0.5-0.4
			c-0.1-0.2-0.3-0.3-0.4-0.5s-0.1-0.4-0.1-0.7V76c0-0.2,0.1-0.3,0.3-0.3h2c0.2,0,0.3,0.1,0.3,0.3v7.1c0,0.1,0,0.1,0.1,0.2
			c0.1,0,0.1,0.1,0.2,0.1h2.8c0.1,0,0.1,0,0.2-0.1c0,0,0.1-0.1,0.1-0.2V76c0-0.1,0-0.1,0.1-0.2c0.1-0.1,0.1-0.1,0.2-0.1L116.4,75.8
			C116.2,75.7,116.3,75.8,116.4,75.8"/>
		<path class="st0" d="M126.3,75.8c0,0.1,0.1,0.1,0.1,0.2v0.8v0.4v0.6c0,0.1,0,0.1-0.1,0.2c-0.1,0-0.1,0.1-0.2,0.1h-1h-3h-0.8
			c0,0-0.1,0-0.1,0.1v1.6c0,0,0,0.1,0.1,0.1h4.1c0.1,0,0.1,0,0.2,0.1c0,0.1,0.1,0.1,0.1,0.2v1.4c0,0.1,0,0.1-0.1,0.2
			c0,0.1-0.1,0.1-0.2,0.1h-4.1c0,0-0.1,0-0.1,0.1v0.7l0,0v0.8c0,0,0,0.1,0.1,0.1h0.6h3.2h1c0.1,0,0.1,0,0.2,0.1
			c0,0.1,0.1,0.1,0.1,0.2v0.6v0.7v0.5c0,0.1,0,0.1-0.1,0.2c-0.1,0.1-0.1,0.1-0.2,0.1h-0.8h-5.5h-0.9c-0.2,0-0.3-0.1-0.3-0.3V85v-8.3
			V76c0-0.1,0-0.1,0.1-0.2c0.1-0.1,0.1-0.1,0.2-0.1h1h5.6h0.5C126.2,75.7,126.2,75.8,126.3,75.8"/>
		<path class="st0" d="M141.7,75.7c0.1,0,0.1,0,0.2,0.1c0.1,0.1,0.1,0.1,0.1,0.2v9.5c0,0.1,0,0.1-0.1,0.2c-0.1,0.1-0.1,0.1-0.2,0.1
			h-2c-0.1,0-0.1,0-0.2-0.1c-0.1-0.1-0.1-0.1-0.1-0.2v-3.3c0-0.1,0-0.1-0.1-0.2c0,0-0.1-0.1-0.2-0.1h-2.8c-0.1,0-0.1,0-0.2,0.1
			c-0.1,0.1-0.1,0.1-0.1,0.2v3.3c0,0.2-0.1,0.3-0.3,0.3h-2c-0.2,0-0.3-0.1-0.3-0.3V76c0-0.2,0.1-0.3,0.3-0.3h2
			c0.2,0,0.3,0.1,0.3,0.3v3.2c0,0.2,0.1,0.3,0.3,0.3h2.8c0.1,0,0.1,0,0.2-0.1c0-0.1,0.1-0.1,0.1-0.2V76c0-0.1,0-0.1,0.1-0.2
			c0.1-0.1,0.1-0.1,0.2-0.1L141.7,75.7L141.7,75.7z"/>
		<path class="st0" d="M151,75.7c0.2,0,0.4,0,0.7,0.1c0.2,0.1,0.4,0.2,0.5,0.4c0.1,0.1,0.3,0.3,0.4,0.5c0.1,0.2,0.1,0.4,0.1,0.7v8.1
			c0,0.1,0,0.1-0.1,0.2c-0.1,0.1-0.1,0.1-0.2,0.1h-2c-0.1,0-0.1,0-0.2-0.1c-0.1-0.1-0.1-0.1-0.1-0.2v-2.6c0-0.1,0-0.1-0.1-0.2
			c0-0.1-0.1-0.1-0.2-0.1H147c-0.1,0-0.1,0-0.2,0.1c-0.1,0.1-0.1,0.1-0.1,0.2v2.6c0,0.2-0.1,0.3-0.3,0.3h-2c-0.2,0-0.3-0.1-0.3-0.3
			v-8.1c0-0.2,0-0.4,0.1-0.7c0.1-0.2,0.2-0.4,0.4-0.5c0.2-0.1,0.3-0.3,0.5-0.4c0.2-0.1,0.4-0.1,0.7-0.1H151L151,75.7z M150.1,78
			h-3.4v2.5h3.4V78z"/>
		<path class="st0" d="M157.5,78.2c-0.1,0-0.1,0.1-0.1,0.2V83c0,0.1,0,0.1,0.1,0.2c0.1,0,0.1,0.1,0.2,0.1h4.6c0.1,0,0.1,0,0.2,0.1
			c0.1,0.1,0.1,0.1,0.1,0.2v1.9c0,0.1,0,0.1-0.1,0.2c-0.1,0.1-0.1,0.1-0.2,0.1h-3h-2.5h-0.3c-0.2,0-0.4,0-0.7-0.1
			c-0.2-0.1-0.4-0.2-0.5-0.4c-0.1-0.2-0.3-0.3-0.4-0.5c-0.1-0.2-0.1-0.4-0.1-0.7v-0.3v-1v-3.4v-0.9v-1.1c0-0.2,0-0.4,0.1-0.7
			c0.1-0.2,0.2-0.4,0.4-0.5c0.2-0.1,0.3-0.3,0.5-0.4c0.2-0.1,0.4-0.1,0.7-0.1h0.3h5.5c0.1,0,0.1,0,0.2,0.1c0.1,0.1,0.1,0.1,0.1,0.2
			v1.9c0,0.1,0,0.1-0.1,0.2c-0.1,0.1-0.1,0.1-0.2,0.1h-4.6C157.6,78.2,157.5,78.2,157.5,78.2"/>
		<path class="st0" d="M170.5,80v0.1l3.4,5.5c0,0.1,0,0.1,0,0.2c0,0-0.1,0.1-0.2,0.1h-2.4c-0.1,0-0.1,0-0.2-0.1
			c-0.1,0-0.1-0.1-0.2-0.2l-2.2-3.9c0,0-0.1-0.1-0.1,0l-1.2,1.3c0,0-0.1,0.1-0.1,0.2c0,0.1,0,0.2,0,0.3v2.1c0,0.2-0.1,0.3-0.3,0.3
			h-2c-0.2,0-0.3-0.1-0.3-0.3V76c0-0.2,0.1-0.3,0.3-0.3h2c0.2,0,0.3,0.1,0.3,0.3v4.3L171,76c0-0.1,0.1-0.1,0.2-0.1s0.2-0.1,0.2-0.1
			h2.4c0.1,0,0.1,0,0.1,0.1c0,0.1,0,0.1-0.1,0.1L170.5,80z"/>
		<path class="st0" d="M178.2,85.5c0,0.2-0.1,0.3-0.3,0.3h-2c-0.2,0-0.3-0.1-0.3-0.3V76c0-0.2,0.1-0.3,0.3-0.3h2
			c0.2,0,0.3,0.1,0.3,0.3V85.5z"/>
		<path class="st0" d="M187.9,75.9c0.2,0.1,0.4,0.2,0.5,0.4c0.1,0.2,0.3,0.3,0.4,0.5c0.1,0.2,0.1,0.4,0.1,0.7v8.1
			c0,0.1,0,0.1-0.1,0.2c-0.1,0.1-0.1,0.1-0.2,0.1h-2c-0.1,0-0.1,0-0.2-0.1c0-0.1-0.1-0.1-0.1-0.2v-7.1c0-0.1,0-0.1-0.1-0.2
			c-0.1,0-0.1-0.1-0.2-0.1h-2.8c-0.1,0-0.1,0-0.2,0.1c-0.1,0-0.1,0.1-0.1,0.2v7.1c0,0.2-0.1,0.3-0.3,0.3h-2c-0.2,0-0.3-0.1-0.3-0.3
			V76c0-0.2,0.1-0.3,0.3-0.3h6.5C187.5,75.7,187.7,75.8,187.9,75.9"/>
		<path class="st0" d="M199.5,80.4c0.1,0.1,0.1,0.1,0.1,0.2v3.5c0,0.2,0,0.4-0.1,0.7c-0.1,0.2-0.2,0.4-0.4,0.5
			c-0.1,0.1-0.3,0.3-0.5,0.4c-0.2,0.1-0.4,0.1-0.7,0.1h-5.1c-0.2,0-0.4,0-0.7-0.1c-0.3-0.1-0.4-0.2-0.5-0.4
			c-0.1-0.1-0.3-0.3-0.4-0.5c-0.1-0.2-0.1-0.4-0.1-0.7v-6.7c0-0.2,0-0.4,0.1-0.7c0.1-0.2,0.2-0.4,0.4-0.5c0.1-0.1,0.3-0.3,0.5-0.4
			c0.2-0.1,0.4-0.1,0.7-0.1h5.9c0.1,0,0.1,0,0.2,0.1c0.1,0.1,0.1,0.1,0.1,0.2v1.9c0,0.1,0,0.1-0.1,0.2c-0.1,0.1-0.1,0.1-0.2,0.1
			h-4.8c-0.1,0-0.1,0-0.2,0.1c-0.1,0-0.1,0.1-0.1,0.2v4.6c0,0.1,0,0.1,0.1,0.2c0.1,0,0.1,0.1,0.2,0.1h2.8c0.1,0,0.1,0,0.2-0.1
			c0,0,0.1-0.1,0.1-0.2v-2.5c0-0.1,0-0.1,0.1-0.2c0.1-0.1,0.1-0.1,0.2-0.1h2C199.4,80.3,199.5,80.3,199.5,80.4"/>
	</g>
	<g>
		<g>
			<path class="st0" d="M70.1,6.6c1.3,0.6,2.4,1.3,3.4,2.3c0.9,0.9,1.7,2,2.3,3.3s0.9,2.7,0.9,4.1V69c0,0.5-0.2,0.9-0.5,1.2
				c-0.3,0.3-0.7,0.5-1.2,0.5H62.2c-0.5,0-0.9-0.2-1.2-0.5s-0.5-0.7-0.5-1.2V21.2h-10V69c0,0.5-0.1,0.9-0.4,1.2
				c-0.3,0.3-0.7,0.5-1.2,0.5H37.4c-0.5,0-0.9-0.2-1.2-0.5c-0.3-0.3-0.5-0.7-0.5-1.2V21.2H25.6V69c0,1.1-0.6,1.7-1.7,1.7H11.3
				c-1.1,0-1.7-0.6-1.7-1.7V7.5c0-1.1,0.6-1.7,1.7-1.7h54.6C67.4,5.8,68.8,6.1,70.1,6.6"/>
			<path class="st0" d="M70.1,6.6c1.3,0.6,2.4,1.3,3.4,2.3c0.9,0.9,1.7,2,2.3,3.3s0.9,2.7,0.9,4.1V21l-16.1,0.2H50.5H35.7H25.5
				L9.6,21.1V7.5c0-1.1,0.6-1.7,1.7-1.7h54.6C67.4,5.8,68.8,6.1,70.1,6.6"/>
			<path class="st0" d="M131.5,55c0.5,0,0.9,0.2,1.2,0.5s0.5,0.8,0.5,1.2V69c0,0.5-0.2,0.9-0.5,1.2c-0.3,0.3-0.7,0.5-1.2,0.5H88.3
				c-1.2,0-1.8-0.6-1.8-1.8V7.6c0-1.2,0.6-1.8,1.8-1.8h13.3c1.2,0,1.8,0.6,1.8,1.8v45.7c0,0.5,0.2,0.9,0.5,1.2
				c0.4,0.3,0.8,0.5,1.3,0.5H131.5L131.5,55z"/>
			<path class="st0" d="M103.3,70.7h-15c-1.2,0-1.8-0.6-1.8-1.8V7.6c0-1.2,0.6-1.8,1.8-1.8h13.2c1.2,0,1.8,0.6,1.8,1.8v45.7
				C103.4,53.8,103.3,70.7,103.3,70.7"/>
			<path class="st0" d="M197.8,5.8c0.5,0,1,0.2,1.3,0.5c0.4,0.3,0.5,0.8,0.5,1.3v61.6c0,0.5-0.2,0.9-0.5,1.3
				c-0.4,0.3-0.8,0.5-1.3,0.5h-13.4c-0.5,0-1-0.2-1.3-0.5c-0.4-0.3-0.5-0.8-0.5-1.3V47.7c0-0.5-0.2-0.9-0.5-1.2
				c-0.3-0.3-0.7-0.5-1.2-0.5h-18.8c-0.5,0-1,0.1-1.3,0.5s-0.5,0.7-0.5,1.2v21.5c0,1.2-0.6,1.8-1.8,1.8h-13.3
				c-1.2,0-1.8-0.6-1.8-1.8V7.6c0-1.2,0.6-1.8,1.8-1.8h13.3c1.2,0,1.8,0.6,1.8,1.8v20.9c0,1.2,0.6,1.8,1.8,1.8h18.8
				c0.5,0,0.9-0.2,1.2-0.5s0.5-0.8,0.5-1.3V7.6c0-0.5,0.2-0.9,0.5-1.3c0.4-0.3,0.8-0.5,1.3-0.5C184.3,5.8,197.8,5.8,197.8,5.8z"/>
			<path class="st0" d="M160.1,47.7v21.5c0,1.2-0.6,1.8-1.8,1.8H145c-1.2,0-1.8-0.6-1.8-1.8V7.6c0-1.2,0.6-1.8,1.8-1.8h13.3
				c1.2,0,1.8,0.6,1.8,1.8v20.9V47.7z"/>
			<path class="st0" d="M197.8,5.8c0.5,0,1,0.2,1.3,0.5c0.4,0.3,0.5,0.8,0.5,1.3v61.6c0,0.5-0.2,0.9-0.5,1.3
				c-0.4,0.3-0.8,0.5-1.3,0.5h-13.4c-0.5,0-1-0.2-1.3-0.5c-0.4-0.3-0.5-0.8-0.5-1.3V47.7V28.4V7.6c0-0.5,0.2-0.9,0.5-1.3
				c0.4-0.3,0.8-0.5,1.3-0.5C184.3,5.8,197.8,5.8,197.8,5.8z"/>
		</g>
	</g>
</g>
</svg>
