<?xml version="1.0" encoding="utf-8"?>
<!-- Generator: Adobe Illustrator 19.2.0, SVG Export Plug-In . SVG Version: 6.00 Build 0)  -->
<svg version="1.1" id="Layer_1" xmlns="http://www.w3.org/2000/svg" xmlns:xlink="http://www.w3.org/1999/xlink" x="0px" y="0px"
	 viewBox="0 0 389.6 85.2" style="enable-background:new 0 0 389.6 85.2;" xml:space="preserve">
<style type="text/css">
	.st0{fill:#FFFFFF;}
</style>
<path class="st0" d="M38.1,0c-1,0-1.6,0.2-4.2,2.2l-3.9,3l-9.2,7c-2.1,1.6-2.5,4.5-0.9,6.6c1.6,2.1,4.5,2.5,6.6,0.9l2.6-2
	c1.5-1.1,3.6-0.8,4.8,0.7c1.1,1.5,0.9,3.7-0.7,4.8l-1.5,1.1l-4.4,3.4l-9.2,7c-2.1,1.6-2.5,4.5-0.9,6.6c1.6,2.1,4.5,2.5,6.6,0.9
	l5-3.8c1.5-1.1,3.7-0.9,4.8,0.7c1.1,1.5,0.9,3.6-0.6,4.8l-3.3,2.4l-4.4,3.4l-9.2,7c-2.1,1.6-2.5,4.5-0.9,6.6
	c1.6,2.1,4.5,2.5,6.6,0.9l6.7-5.1c1.5-1.1,3.7-0.9,4.8,0.7c0.5,0.6,0.7,1.3,0.7,2v17.8C17.9,77.5,5.4,63.7,5.4,47.1
	c0-9.3,4-18.3,11-24.5l0.3-0.2L16.4,22c-0.1-0.1-0.2-0.2-0.3-0.3c-0.8-1.1-1.4-2.3-1.7-3.6l-0.1-0.6l-0.6,0.2C5,25,0,35.7,0,47
	c0,21.1,17.1,38.2,38.2,38.2h0.2c21.1,0,38.2-17.1,38.2-38.2c-0.3-11.3-5.3-22-14-29.3l-0.5-0.4L62,17.9c-0.3,1.3-0.9,2.6-1.7,3.7
	c-0.1,0.1-0.2,0.2-0.3,0.3l-0.3,0.4l0.3,0.2c7,6.2,11,15.1,11,24.5c0,8.8-3.4,17-9.6,23.2c-5.2,5.2-11.8,8.4-19,9.3V61.8
	c0-0.7,0.2-1.4,0.7-2c1.1-1.5,3.3-1.8,4.8-0.7l6.7,5.1c2.1,1.6,5,1.2,6.6-0.9c1.6-2.1,1.2-5-0.9-6.6l-9.2-7l-4.4-3.4l-3.2-2.4
	c-1.5-1.1-1.8-3.3-0.6-4.8c1.1-1.5,3.3-1.8,4.8-0.7l5,3.8c2.1,1.6,5,1.2,6.6-0.9c1.6-2.1,1.2-5-0.9-6.6l-9.2-7l-4.4-3.4l-1.5-1.1
	c-1.5-1.1-1.8-3.3-0.7-4.8c1.1-1.5,3.3-1.8,4.8-0.7l2.6,2c2.1,1.6,5,1.2,6.6-0.9c1.6-2.1,1.2-5-0.9-6.6l-9.2-7l-3.9-3
	c-2.7-2-3.2-2.2-4.2-2.2H38.1z"/>
<g id="Layer_4">
	<g>
		<path class="st0" d="M106.8,46.7c-4.3-0.9-8.2-1.2-8.2-4.6c0-2,1.7-3.7,5.3-3.7c2.4,0,4.1,0.4,6.6,1.2c1.6,0.6,3.3-0.4,3.9-1.9
			c0.5-1.6-0.2-3.3-2-4c-2.4-0.9-4.9-1.4-8.8-1.4c-6.5,0-11.8,3.5-11.8,10.2c0,6.4,4,8.2,8.1,9.2c4.5,1.1,9.2,1.1,9.2,4.9
			c0,2.5-2,4.1-6.1,4.1c-3.5,0-5.2-0.5-7.2-1.2c-1.6-0.6-3.4,0.1-4,1.9c-0.5,1.5,0.1,3.4,1.8,4c2.4,0.9,4.9,1.4,9.4,1.4
			c7.1,0,13.1-3.2,13.1-10.5C116,49.3,111.4,47.7,106.8,46.7"/>
		<path class="st0" d="M148.9,63.8c0-1.1-0.5-1.8-1.2-2.3c-1.2-0.8-1.8-1.4-1.8-3.9V46c0-9.3-3.2-13.6-12.7-13.6
			c-2.3,0-5.5,0.3-8,1.3c-2,0.9-3.5,2-3.5,3.6s1.2,2.8,2.8,2.8c1.1,0,1.8-0.5,3.3-1.1c1.2-0.5,2.7-0.9,4.9-0.9c4.7,0,5.9,2.4,5.9,7
			v1.4h-6.7c-8.4,0-12.5,3.9-12.5,9.7v0.5c0,5.8,3.7,10,11.7,10c2.9,0,6.6-0.6,9.1-3.1c0.5,0.9,1.1,1.6,1.8,2.1c1.1,0.7,2.1,1,3.3,1
			C147.3,66.8,148.9,65.9,148.9,63.8 M138.6,55.4c0,4.1-2.4,6.1-6.2,6.1c-4.3,0-5.8-1.9-5.8-4.5v-0.5c0-2.4,1.4-4.5,6.1-4.5h5.9
			V55.4z"/>
		<path class="st0" d="M178,66.8c2,0,3.6-0.9,3.6-3c0-1.1-0.5-1.8-1.2-2.3c-1.2-0.8-1.8-1.4-1.8-3.9V46c0-9.3-3.2-13.6-12.7-13.6
			c-2.3,0-5.5,0.3-8,1.3c-2,0.9-3.5,2-3.5,3.6s1.2,2.8,2.8,2.8c1.1,0,1.8-0.5,3.3-1.1c1.2-0.5,2.7-0.9,4.9-0.9c4.7,0,5.9,2.4,5.9,7
			v1.4h-6.6c-8.4,0-12.5,3.9-12.5,9.7v0.5c0,5.8,3.7,10,11.7,10c2.9,0,6.6-0.6,9.1-3.1c0.5,0.9,1.1,1.6,1.8,2.1
			C175.8,66.5,176.9,66.8,178,66.8 M171.4,55.4c0,4.1-2.4,6.1-6.2,6.1c-4.3,0-5.8-1.9-5.8-4.5v-0.5c0-2.4,1.4-4.5,6.1-4.5h5.9V55.4z
			"/>
		<path class="st0" d="M200.2,46.7c-4.3-0.9-8.2-1.2-8.2-4.6c0-2,1.7-3.7,5.3-3.7c2.4,0,4.1,0.4,6.6,1.2c1.6,0.6,3.4-0.4,3.9-1.9
			c0.5-1.6-0.2-3.3-2-4c-2.4-0.9-4.9-1.4-8.8-1.4c-6.5,0-11.8,3.5-11.8,10.2c0,6.4,4,8.2,8.1,9.2c4.5,1.1,9.2,1.1,9.2,4.9
			c0,2.5-2,4.1-6.1,4.1c-3.5,0-5.2-0.5-7.2-1.2c-1.6-0.6-3.4,0.1-4,1.9c-0.5,1.5,0.1,3.4,1.8,4c2.4,0.9,4.9,1.4,9.4,1.4
			c7.1,0,13.1-3.2,13.1-10.5C209.4,49.3,204.8,47.7,200.2,46.7"/>
		<path class="st0" d="M227.7,31.6c-9.6,0-13.7,6.2-13.7,13.8v7.7c0,7.5,4.1,13.7,13.7,13.7c1.5,0,2.9-0.2,4.2-0.5l2.5,5.3
			c0.6,1.3,1.8,2,3.1,2c0.5,0,1-0.1,1.4-0.3c1.7-0.8,2.5-2.8,1.7-4.6l-2.7-5.8c2.4-2.5,3.5-6,3.5-9.9v-7.7
			C241.4,37.9,237.3,31.6,227.7,31.6 M221.4,53v-7.6c0-4.5,1.9-7.2,6.4-7.2c4.4,0,6.4,2.7,6.4,7.2V53c0,4.5-2,7.2-6.4,7.2
			C223.3,60.2,221.4,57.5,221.4,53"/>
		<path class="st0" d="M275.4,61.5c-1.2-0.8-2-1.4-2-3.9V36.1c0-2-1.6-3.7-3.6-3.7s-3.7,1.6-3.7,3.7v20.2c-1.3,2.2-3.5,3.6-6.7,3.6
			c-4.4,0-5.4-2.4-5.4-6V36.1c0-2-1.7-3.7-3.7-3.7s-3.7,1.6-3.7,3.7v18.6c0,7.1,2.9,12.2,10.9,12.2c4.4,0,7.6-1.3,9.9-3.6
			c0.4,0.9,0.9,1.6,1.6,2.2c1.1,1,2.6,1.4,3.8,1.4c2.1,0,3.7-0.9,3.7-3C276.6,62.7,276.1,61.9,275.4,61.5"/>
		<path class="st0" d="M309.5,63.8c0-1.1-0.5-1.8-1.2-2.3c-1.2-0.8-1.8-1.4-1.8-3.9V46c0-9.3-3.2-13.6-12.7-13.6
			c-2.3,0-5.5,0.3-8,1.3c-2,0.9-3.5,2-3.5,3.6s1.2,2.8,2.8,2.8c1.1,0,1.8-0.5,3.3-1.1c1.2-0.5,2.7-0.9,4.9-0.9c4.7,0,5.9,2.4,5.9,7
			v1.4h-6.7c-8.4,0-12.5,3.9-12.5,9.7v0.5c0,5.8,3.7,10,11.7,10c2.9,0,6.6-0.6,9.1-3.1c0.5,0.9,1.1,1.6,1.8,2.1c1.1,0.7,2.1,1,3.3,1
			C307.9,66.8,309.5,65.9,309.5,63.8 M299.2,55.4c0,4.1-2.4,6.1-6.2,6.1c-4.3,0-5.8-1.9-5.8-4.5v-0.5c0-2.4,1.4-4.5,6.1-4.5h5.9
			V55.4z"/>
		<path class="st0" d="M315.3,38.9v12.8c0,8.8,2.9,14.7,12.2,14.7h2.2c1.8,0,3.3-1.4,3.3-3.3c0-1.8-1.5-3.2-3.3-3.2h-1.2
			c-4.7,0-5.8-2.4-5.8-8.3V38.9h5.5c1.7,0,3.1-1.4,3.1-3.1c0-1.7-1.4-3-3.1-3h-5.5v-5.7c0-2-1.6-3.7-3.7-3.7c-2,0-3.7,1.6-3.7,3.7
			v5.7h-1.4c-1.6,0-3,1.3-3,3s1.4,3.1,3,3.1H315.3z"/>
		<path class="st0" d="M357.5,61.1c-0.6-1.6-2.3-2.3-3.8-1.6c-2,1-3.8,1.2-5.6,1.2c-4.3,0-6.5-3.2-6.5-8.3v-5.7
			c0-5.1,2.5-8.3,6.7-8.3c2.2,0,3.8,0.4,5.4,1.1c1.4,0.7,3.2,0.1,3.7-1.4c0.7-1.8,0.1-3.1-1.3-3.9c-2.5-1.4-5.7-1.9-8.4-1.9
			c-8.9,0-13.4,6.8-13.4,15.1v4.5c0,8.5,3.9,14.8,13.3,14.8c2.8,0,5.7-0.5,8.4-1.9C357.4,64.2,358.1,62.9,357.5,61.1"/>
		<path class="st0" d="M389.6,63.2V44.5c0-7.1-2.6-12.2-11-12.2c-3.6,0-6.4,0.9-8.5,2.6V23.2c0-2-1.6-3.6-3.7-3.6
			c-2,0-3.7,1.6-3.7,3.6v40c0,2,1.7,3.6,3.7,3.6s3.7-1.6,3.7-3.6V42.7c1.3-2.1,3.7-3.4,6.7-3.4c4.5,0,5.4,2.6,5.4,6v17.9
			c0,2,1.6,3.6,3.7,3.6C388,66.8,389.6,65.2,389.6,63.2"/>
	</g>
	<g>
		<path class="st0" d="M190.3,22.8V11.6c0-0.3,0.1-0.6,0.3-0.8s0.5-0.3,0.8-0.3s0.6,0.1,0.8,0.3s0.3,0.5,0.3,0.8v10.2h6.1
			c0.3,0,0.5,0.1,0.8,0.3c0.2,0.2,0.3,0.5,0.3,0.8s-0.1,0.5-0.3,0.8c-0.2,0.2-0.5,0.3-0.8,0.3h-7.2c-0.3,0-0.6-0.1-0.8-0.3
			C190.4,23.4,190.3,23.1,190.3,22.8"/>
		<path class="st0" d="M93.1,22.9V11.8c0-0.3,0.1-0.6,0.3-0.8c0.2-0.2,0.5-0.3,0.8-0.3H99c1.7,0,2.9,0.4,3.9,1.3
			c0.7,0.8,1.1,1.7,1.1,2.9l0,0c0,1-0.3,1.9-0.8,2.6s-1.3,1.2-2.2,1.4l2.6,3.2c0.3,0.3,0.4,0.6,0.4,0.9s-0.1,0.6-0.3,0.8
			s-0.5,0.3-0.8,0.3c-0.5,0-0.8-0.2-1.1-0.6l-3.3-4.1h-3V23c0,0.3-0.1,0.6-0.3,0.8c-0.2,0.2-0.5,0.3-0.8,0.3s-0.6-0.1-0.8-0.3
			C93.2,23.5,93.1,23.2,93.1,22.9z M95.5,17.2h3.4c0.8,0,1.5-0.2,2-0.6s0.7-0.9,0.7-1.6l0,0c0-0.7-0.2-1.3-0.7-1.6
			c-0.5-0.4-1.2-0.6-2-0.6h-3.4V17.2z"/>
		<path class="st0" d="M108.5,24c-0.3,0-0.6-0.1-0.8-0.3c-0.2-0.2-0.3-0.5-0.3-0.8v-11c0-0.3,0.1-0.6,0.3-0.8
			c0.2-0.2,0.5-0.3,0.8-0.3h7.8c0.3,0,0.5,0.1,0.7,0.3s0.3,0.5,0.3,0.7c0,0.3-0.1,0.5-0.3,0.7s-0.5,0.3-0.7,0.3h-6.6v3.3h5.8
			c0.3,0,0.5,0.1,0.7,0.3c0.2,0.2,0.3,0.5,0.3,0.8s-0.1,0.5-0.3,0.7s-0.5,0.3-0.7,0.3h-5.8v3.6h6.7c0.3,0,0.5,0.1,0.7,0.3
			s0.3,0.5,0.3,0.7c0,0.3-0.1,0.5-0.3,0.7s-0.5,0.3-0.7,0.3h-7.9"/>
		<path class="st0" d="M120.5,22.9V11.8c0-0.3,0.1-0.6,0.3-0.8c0.2-0.2,0.5-0.3,0.8-0.3h7.8c0.3,0,0.5,0.1,0.8,0.3
			c0.2,0.2,0.3,0.5,0.3,0.8s-0.1,0.5-0.3,0.8c-0.2,0.2-0.5,0.3-0.8,0.3h-6.6v3.7h5.8c0.3,0,0.5,0.1,0.8,0.3c0.2,0.2,0.3,0.5,0.3,0.8
			s-0.1,0.5-0.3,0.8c-0.2,0.2-0.5,0.3-0.8,0.3h-5.8v4.4c0,0.3-0.1,0.6-0.3,0.8s-0.5,0.3-0.8,0.3s-0.6-0.1-0.8-0.3
			C120.6,23.5,120.5,23.2,120.5,22.9"/>
		<path class="st0" d="M134.6,24c-0.3,0-0.6-0.1-0.8-0.3s-0.3-0.5-0.3-0.8v-11c0-0.3,0.1-0.6,0.3-0.8s0.5-0.3,0.8-0.3h7.8
			c0.3,0,0.5,0.1,0.7,0.3s0.3,0.5,0.3,0.7c0,0.3-0.1,0.5-0.3,0.7s-0.5,0.3-0.7,0.3h-6.6v3.3h5.8c0.3,0,0.5,0.1,0.7,0.3
			c0.2,0.2,0.3,0.5,0.3,0.8s-0.1,0.5-0.3,0.7s-0.5,0.3-0.7,0.3h-5.8v3.6h6.7c0.3,0,0.5,0.1,0.7,0.3s0.3,0.5,0.3,0.7
			c0,0.3-0.1,0.5-0.3,0.7s-0.5,0.3-0.7,0.3h-7.9"/>
		<path class="st0" d="M146.7,22.9V11.8c0-0.3,0.1-0.6,0.3-0.8s0.5-0.3,0.8-0.3h4.8c1.7,0,2.9,0.4,3.9,1.3c0.7,0.8,1.1,1.7,1.1,2.9
			l0,0c0,1-0.3,1.9-0.8,2.6s-1.3,1.2-2.2,1.4l2.6,3.2c0.3,0.3,0.4,0.6,0.4,0.9s-0.1,0.6-0.3,0.8s-0.5,0.3-0.8,0.3
			c-0.5,0-0.8-0.2-1.1-0.6l-3.3-4.1h-3V23c0,0.3-0.1,0.6-0.3,0.8s-0.5,0.3-0.8,0.3s-0.6-0.1-0.8-0.3
			C146.8,23.5,146.7,23.2,146.7,22.9z M149,17.2h3.4c0.8,0,1.5-0.2,2-0.6s0.7-0.9,0.7-1.6l0,0c0-0.7-0.2-1.3-0.7-1.6
			c-0.5-0.4-1.2-0.6-2-0.6H149V17.2z"/>
		<path class="st0" d="M160.9,22.9V11.8c0-0.3,0.1-0.6,0.3-0.8s0.5-0.3,0.8-0.3h4.8c1.7,0,2.9,0.4,3.9,1.3c0.7,0.8,1.1,1.7,1.1,2.9
			l0,0c0,1-0.3,1.9-0.8,2.6s-1.3,1.2-2.2,1.4l2.6,3.2c0.3,0.3,0.4,0.6,0.4,0.9s-0.1,0.6-0.3,0.8s-0.5,0.3-0.8,0.3
			c-0.5,0-0.8-0.2-1.1-0.6l-3.3-4.1h-3V23c0,0.3-0.1,0.6-0.3,0.8s-0.5,0.3-0.8,0.3s-0.6-0.1-0.8-0.3C161,23.5,160.9,23.2,160.9,22.9
			z M163.2,17.2h3.4c0.8,0,1.5-0.2,2-0.6s0.7-0.9,0.7-1.6l0,0c0-0.7-0.2-1.3-0.7-1.6c-0.5-0.4-1.2-0.6-2-0.6h-3.4V17.2z"/>
		<path class="st0" d="M174.2,23c0-0.2,0.1-0.3,0.2-0.5l5-11.1c0.3-0.6,0.8-1,1.4-1h0.1c0.6,0,1.1,0.3,1.4,1l5,11.1
			c0.1,0.2,0.1,0.3,0.1,0.5c0,0.3-0.1,0.6-0.3,0.8s-0.5,0.3-0.8,0.3c-0.5,0-0.9-0.3-1.1-0.8l-1.1-2.5h-6.5l-1.1,2.6
			c-0.2,0.5-0.6,0.7-1.1,0.7c-0.3,0-0.6-0.1-0.8-0.3C174.3,23.5,174.2,23.3,174.2,23z M178.4,18.6h4.7l-2.4-5.4L178.4,18.6z"/>
	</g>
</g>
</svg>
