<?xml version="1.0" encoding="utf-8"?>
<!-- Generator: Adobe Illustrator 19.2.0, SVG Export Plug-In . SVG Version: 6.00 Build 0)  -->
<svg version="1.1" xmlns="http://www.w3.org/2000/svg" xmlns:xlink="http://www.w3.org/1999/xlink" x="0px" y="0px"
	 viewBox="0 0 320 51.1" style="enable-background:new 0 0 320 51.1;" xml:space="preserve">
<style type="text/css">
	.st0{fill:#FFFFFF;}
</style>
<g id="type">
	<g>
		<path class="st0" d="M1.6,42.8c1.9,1.1,5.4,2.3,8.4,2.3c3.6,0,5.2-1.5,5.2-3.6c0-2.2-1.3-3.3-5.4-4.8c-6.4-2.2-9-5.7-9-9.5
			C0.9,21.5,5.6,17,13.2,17c3.6,0,6.8,0.9,8.6,1.9l-1.6,5.8c-1.4-0.8-4-1.9-6.9-1.9c-2.9,0-4.6,1.4-4.6,3.4c0,2.1,1.5,3.1,5.7,4.6
			c5.9,2.1,8.6,5.2,8.7,10c0,5.9-4.6,10.2-13.3,10.2c-4,0-7.5-0.9-9.9-2.3L1.6,42.8z"/>
		<path class="st0" d="M34.8,36.4c0.2,5.9,4.8,8.4,10,8.4c3.8,0,6.6-0.5,9-1.5l1.2,5.7c-2.8,1.1-6.7,2-11.4,2
			c-10.6,0-16.8-6.5-16.8-16.5c0-9,5.5-17.5,15.9-17.5c10.6,0,14.1,8.7,14.1,15.9c0,1.5-0.1,2.7-0.3,3.5H34.8z M49.2,30.6
			c0.1-3-1.3-8-6.8-8c-5.1,0-7.2,4.6-7.6,8H49.2z"/>
		<path class="st0" d="M62.6,27.4c0-3.8-0.1-6.9-0.3-9.7h7.2l0.4,4.9h0.2c1.4-2.5,5-5.6,10.4-5.6c5.7,0,11.6,3.7,11.6,14v19.3h-8.2
			V31.9c0-4.7-1.7-8.2-6.2-8.2c-3.3,0-5.6,2.3-6.4,4.8C71,29.3,71,30.3,71,31.2v19.1h-8.3V27.4z"/>
		<path class="st0" d="M130,2.8v38.4c0,3.3,0.1,7,0.3,9.2h-7.4l-0.3-5.2h-0.1c-1.9,3.6-5.9,5.9-10.6,5.9c-7.8,0-13.9-6.6-13.9-16.7
			C97.8,23.5,104.6,17,112.4,17c4.5,0,7.7,1.9,9.2,4.3h0.1V2.8H130z M121.7,31.3c0-0.7-0.1-1.5-0.2-2.1c-0.7-3.2-3.3-5.8-7.1-5.8
			c-5.3,0-8.2,4.7-8.2,10.8c0,6,2.9,10.3,8.2,10.3c3.3,0,6.3-2.3,7.1-5.8c0.2-0.7,0.3-1.5,0.3-2.4V31.3z"/>
		<path class="st0" d="M142.7,17.7l3.4,14.8c0.7,3.5,1.5,7,2.1,10.6h0.1c0.7-3.5,1.7-7.2,2.7-10.5l4.2-14.9h6.7l4.1,14.5
			c1,3.8,1.9,7.4,2.6,10.9h0.1c0.5-3.5,1.3-7.1,2.1-10.9l3.6-14.5h8.1l-10.2,32.6h-7.6l-3.9-13.3c-1-3.4-1.7-6.5-2.5-10.4h-0.1
			c-0.7,4-1.5,7.2-2.5,10.4l-4.2,13.3h-7.7l-9.6-32.6H142.7z"/>
		<path class="st0" d="M197.6,6.3c0,3.5-2.5,6.2-6.6,6.2c-3.8,0-6.4-2.7-6.4-6.2c0-3.6,2.6-6.3,6.5-6.3C195,0,197.5,2.7,197.6,6.3z"
			/>
		<rect x="186.9" y="17.7" class="st0" width="8.3" height="32.6"/>
		<path class="st0" d="M212.3,8.4v9.3h7.8v6.2h-7.8v14.4c0,4,1.1,6,4.2,6c1.4,0,2.5-0.2,3.2-0.4l0.1,6.3c-1.2,0.5-3.3,0.8-6,0.8
			c-3,0-5.6-1-7.1-2.7c-1.7-1.9-2.5-4.8-2.5-9.1V23.9h-4.7v-6.2h4.7v-7.4L212.3,8.4z"/>
		<path class="st0" d="M225.1,2.8h8.3v19.4h0.1c1-1.5,2.3-2.8,4.1-3.8c1.6-0.9,3.5-1.5,5.6-1.5c5.6,0,11.4,3.7,11.4,14.1v19.2h-8.2
			V32.1c0-4.8-1.7-8.3-6.3-8.3c-3.2,0-5.5,2.1-6.4,4.6c-0.3,0.7-0.3,1.5-0.3,2.5v19.5h-8.3V2.8z"/>
		<path class="st0" d="M291.1,40.6c0,3.9,0.1,7.1,0.3,9.8h-7.2l-0.4-5h-0.1c-1.4,2.3-4.6,5.7-10.4,5.7c-6,0-11.4-3.5-11.4-14.2V17.7
			h8.2v17.7c0,5.4,1.7,8.9,6.1,8.9c3.3,0,5.4-2.3,6.3-4.4c0.3-0.7,0.5-1.6,0.5-2.5V17.7h8.2V40.6z"/>
		<path class="st0" d="M298.4,42.8c1.9,1.1,5.4,2.3,8.4,2.3c3.6,0,5.2-1.5,5.2-3.6c0-2.2-1.3-3.3-5.4-4.8c-6.4-2.2-9-5.7-9-9.5
			c0-5.8,4.8-10.2,12.3-10.2c3.6,0,6.8,0.9,8.6,1.9l-1.6,5.8c-1.4-0.8-4-1.9-6.9-1.9c-2.9,0-4.6,1.4-4.6,3.4c0,2.1,1.5,3.1,5.7,4.6
			c5.9,2.1,8.6,5.2,8.7,10c0,5.9-4.6,10.2-13.3,10.2c-4,0-7.5-0.9-9.9-2.3L298.4,42.8z"/>
	</g>
</g>
<g id="tagline">
</g>
<g id="parachute">
</g>
</svg>
