<?xml version="1.0" encoding="utf-8"?>
<!-- Generator: Adobe Illustrator 19.2.0, SVG Export Plug-In . SVG Version: 6.00 Build 0)  -->
<svg version="1.1" id="New_Symbol" xmlns="http://www.w3.org/2000/svg" xmlns:xlink="http://www.w3.org/1999/xlink" x="0px" y="0px"
	 viewBox="0 0 295.4 119.7" style="enable-background:new 0 0 295.4 119.7;" xml:space="preserve">
<style type="text/css">
	.st0{fill:#FFFFFF;}
</style>
<path class="st0" d="M157.4,22c-4.3-2.8-8-5-11.7-6.7s-7.3-2.8-11.1-3.3c0.2-3.6,1-6.7,3.1-11.2c0.3-0.8,0.1-0.8-0.8-0.6
	c-3,0.8-7.9,2.1-13.4,4.8c-3,1.5-6.1,3.4-9.2,6c-11.4,1.1-17.2,3-25.4,5.6c-0.5,0.2-0.7,0.3-0.8,0.5v0.1c0.1,0.2,0.4,0.3,1,0.5
	c5.2,1.2,10.4,2.6,15.6,5.4c-1.4,3.4-2.4,7.2-3.2,11.3c-0.8,4.1-1.5,8.5-2.1,13.2c-0.1,1,0.7,1,1.1,0.2c2.6-4.9,6-9.1,9.3-12.2
	c3.3-3.2,6.4-5.2,8.3-5.7c1.3,0.7,2.9,1.7,5.5,3.5c0.5,0.4,1,0.7,1.6,1.2c3.5,2.7,8.5,6.8,16.1,13.6c0.6,0.5,1,0.4,0.6-0.6
	c-2.3-5.3-4-10.3-5.1-14.4c-1.1-4.2-1.6-7.3-1.5-8.7c1.9-1.3,5.9-1.9,10.1-2s8.7,0.2,11.5,0.8c0.7,0.1,1.1,0.1,1.1-0.2V23
	C158,22.6,157.8,22.3,157.4,22z M129.5,21.7c-0.5,4.6,1.9,12,2.7,14.2c-2.1-2-10-10-13.9-10.6c-4.4,1.6-7.5,3.4-12.4,8.4
	c0.9-3.2,1.5-5.2,2.2-7c0.8-1.8,1.6-3.4,2.8-5.8c-3.4-2-5.5-3.3-10.8-4.8c2.9-0.6,5.4-1,8.1-1.3c2.6-0.3,5.4-0.4,8.7-0.5
	c2.6-2.5,7.6-6.3,14-8.3c-1.7,2.9-2.1,5.9-2.3,8.7c5.2,0,13.2,2.8,16.5,4.9C136.8,18.8,132.7,20,129.5,21.7z"/>
<g>
	<g>
		<path class="st0" d="M197.9,81.7c2.1,1.1,5.7,2.4,9.2,2.4c5,0,7.9-2.2,7.9-5.2s-2.5-4.7-7.6-6.4c-6.9-2.3-10.1-5.7-10.1-9.9
			c0-5.6,5-10.2,13.1-10.2c3.9,0,7.2,0.9,9.3,2.2l-1.7,4.5c-1.5-0.8-4.2-2-7.8-2c-4.1,0-6.6,2.1-6.6,4.8c0,3,2.5,4.2,7.5,6
			c6.5,2.2,10,5.3,10,10.5c0,6.2-5.3,10.5-14.2,10.5c-4.2,0-8-1-10.7-2.5L197.9,81.7z"/>
		<path class="st0" d="M92.4,84.2v4.4c-2.1,0.3-3.9,0.4-5.2,0.4c-6.8,0-10.1-3.6-10.1-10.8V43.1h5.3v8.4h8.9v5.3h-8.9v22.3
			c0,3.6,1.9,5.4,5.7,5.4C89.3,84.5,90.7,84.4,92.4,84.2"/>
		<rect x="183.7" y="54.8" class="st0" width="5.5" height="33.2"/>
		<path class="st0" d="M255,88h-5.5V66.4c0-3.1-0.2-5.2-0.7-6.4s-1.3-2.1-2.4-2.8c-1.1-0.7-2.4-1.1-3.8-1.1c-2.6,0-5,1.1-6.9,3.4
			c-1.9,2.3-2.9,5.4-2.9,9.4V88h-5.5V40h5.5v19c1.2-2.3,2.5-4,3.8-5.1c2-1.6,4.3-2.4,7.1-2.4c4.1,0,7.2,1.6,9.3,4.7
			c0.9,1.3,1.4,2.6,1.7,3.9c0.3,1.3,0.4,3.4,0.4,6.3V88H255z"/>
		<path class="st0" d="M42.2,80.5c3,1.8,7.3,3.2,11.8,3.2c6.8,0,11.2-3.3,11.2-8.3c0-4.5-3.2-7.1-10.1-9.6
			c-8.4-2.9-13.2-7-13.2-13.8c0-7.6,6.2-13.2,16.2-13.2c5.2,0,9.1,1.2,11.3,2.4l-1.8,5.1c-1.6-0.9-5-2.3-9.7-2.3c-7,0-9.7,4-9.7,7.3
			c0,4.5,3.1,6.8,10.2,9.4c8.7,3.2,13.1,7.1,13.1,14.2c0,7.5-5.8,14-17.9,14c-5,0-10.4-1.4-13.1-3.2L42.2,80.5z"/>
		<path class="st0" d="M147.2,51.9c-2.9,0-5.3,1-7,3.1c-1,1.2-2,2.9-3.1,5.1v-7.7h-0.5h-4.8V88h5.4h0.2V69.7
			c0.1-2.5,0.6-4.6,1.5-6.3c2.1-4.1,5.2-6.1,9.3-6.1c0.3,0,0.7,0,1.2,0V52C148.3,52,147.6,51.9,147.2,51.9z"/>
		<path class="st0" d="M125.3,62.9c0-5.6-6.2-10.4-14.3-10.4c-3.9,0-9.3,1.4-11.3,2.6l1.7,4.5c1.5-0.8,6.3-2.5,9.8-2.5
			c5,0,8.8,2.6,8.8,5.2c0,1.3,0.1,0.8,0.1,3.7c-1.9-0.1-3.4-0.1-4.6-0.1c-6.3,0-11,0.9-14.3,2.6c-1.8,0.9-3.2,2.3-4.3,4
			c-1.1,1.8-1.6,3.6-1.6,5.7c0,2.6,0.8,4.9,2.4,6.8c2.2,2.6,5.5,3.9,9.9,3.9c3.4,0,6.2-0.8,8.4-2.3c1.4-1,2.8-2.7,4-4.9V88h5.4v-6.9
			v-3.2V66C125.4,64.9,125.3,63.8,125.3,62.9z M117.4,80.6c-2.2,2.7-5.1,4.1-8.7,4.1c-2.4,0-4.3-0.7-5.6-1.9
			c-1.2-1.2-1.8-2.7-1.8-4.4c0-2.2,0.8-3.9,2.3-5.2c2.4-2.1,6.3-3.2,11.8-3.2c0.9,0,2.5,0.1,4.7,0.2l0.1,2.2
			C120.2,75.5,119.3,78.3,117.4,80.6z"/>
		<path class="st0" d="M181.3,44.7h-15.9c-2.7,0-4.1,1.3-4.1,3.9v11.7h14v5.3h-14V88h-5.8V47.5c0-5.1,2.4-7.7,7.2-7.7h18.6V44.7"/>
	</g>
</g>
<g>
	<path class="st0" d="M170.5,101.8v-2.5h-10.4c-0.8,0-1.5,0.7-1.5,1.5V118c0,0.8,0.7,1.5,1.5,1.5h10.4v-2.6h-8.9v-6.6h6.8v-2.5h-6.8
		v-5.9L170.5,101.8L170.5,101.8z"/>
	<path class="st0" d="M198.5,119.4v-19.1c0-0.6-0.5-1-1-1h-0.8c-0.6,0-1.1,0.5-1.1,1v19.1H198.5z"/>
	<path class="st0" d="M217.4,102.6c-1.3-0.8-2.7-1.1-4.2-1.1c-4.6,0-7.7,3.4-7.7,7.9c0,4.7,3.4,7.9,7.6,7.9c1.4,0,3.4-0.4,4.4-1
		l0.2,2.8c-1.5,0.6-3.4,0.7-4.6,0.7c-6.4,0-10.6-4.1-10.6-10.5c0-6.2,4.5-10.3,10.7-10.3c1.5,0,3.1,0.2,4.5,0.9L217.4,102.6z"/>
	<path class="st0" d="M228.2,99.3h3l8.5,20.2h-3.1l-2.1-5.1h-9.9l-2.1,5.1h-3L228.2,99.3z M229.6,102l-4,10h8L229.6,102z"/>
	<path class="st0" d="M242.6,117.9V99.3h2.9v17.6h9.3v2.6h-10.7C243.3,119.4,242.6,118.7,242.6,117.9z"/>
	<path class="st0" d="M150.5,103.8l-5.3,13.8c-0.3,0.9-1.1,1.5-2,1.5c-0.9,0-1.6-0.5-1.9-1.3l-5.4-14c0-0.2-0.2-0.3-0.4-0.3
		s-0.4,0.2-0.4,0.4v15.5h-3v-18.5c0-0.9,0.7-1.7,1.7-1.7h2.2c0.5,0,1,0.3,1.2,0.8l6,16l6-16c0.2-0.5,0.7-0.8,1.2-0.8h2.1
		c0.9,0,1.7,0.8,1.7,1.7v18.5h-2.9v-15.5c0-0.2-0.2-0.4-0.4-0.4C150.6,103.6,150.5,103.7,150.5,103.8"/>
	<path class="st0" d="M180.7,99.3h-4.5c-0.8,0-1.5,0.7-1.5,1.5V118c0,0.8,0.7,1.5,1.5,1.5h4.5c6.6,0,10.8-3.5,10.8-10.3
		C191.5,102.9,186.7,99.3,180.7,99.3z M180.7,116.9h-3v-15.1h3.4c4.2,0,7.4,2.8,7.4,7.5C188.4,114.5,185.7,116.9,180.7,116.9z"/>
</g>
</svg>
