<?xml version="1.0" encoding="utf-8"?>
<!-- Generator: Adobe Illustrator 19.2.0, SVG Export Plug-In . SVG Version: 6.00 Build 0)  -->
<svg version="1.1" id="Layer_1" xmlns="http://www.w3.org/2000/svg" xmlns:xlink="http://www.w3.org/1999/xlink" x="0px" y="0px"
	 viewBox="0 0 200 200" style="enable-background:new 0 0 200 200;" xml:space="preserve">
<style type="text/css">
	.st0{fill:#FFFFFF;}
</style>
<g>
	<g>
		<path class="st0" d="M42.3,104v11.1c0,3.7,1.5,5.5,3.9,5.5c2.5,0,4-1.7,4-5.5V104h3.5v10.9c0,5.9-3,8.5-7.6,8.5
			c-4.4,0-7.3-2.5-7.3-8.5V104H42.3"/>
		<path class="st0" d="M57.6,113.4c0-1.6-0.1-2.9-0.1-4.1h3l0.2,2.1h0.1c0.6-1.1,2.1-2.4,4.4-2.4c2.4,0,4.9,1.5,4.9,5.9v8.2h-3.5
			v-7.8c0-2-0.7-3.5-2.6-3.5c-1.4,0-2.3,1-2.7,2c-0.1,0.3-0.2,0.7-0.2,1.1v8.1h-3.5V113.4"/>
		<path class="st0" d="M73.8,109.3h3.5v13.8h-3.5V109.3z M75.5,107.2c-1.2,0-2-0.9-2-2c0-1.1,0.8-2,2.1-2c1.2,0,2,0.9,2.1,2
			C77.6,106.3,76.8,107.2,75.5,107.2L75.5,107.2z"/>
		<path class="st0" d="M83.2,109.3l2.2,7c0.4,1.2,0.7,2.3,0.9,3.4h0.1c0.3-1.1,0.6-2.2,0.9-3.4l2.2-7h3.7L88,123.1h-3.4l-5.1-13.8
			H83.2"/>
		<path class="st0" d="M97.4,114.7c0.2-1.4,1-3.4,3.2-3.4c2.3,0,2.9,2.1,2.9,3.4H97.4 M106.7,117.1c0.1-0.3,0.1-0.8,0.1-1.5
			c0-3-1.5-6.7-5.9-6.7c-4.4,0-6.7,3.6-6.7,7.4c0,4.2,2.6,7,7.1,7c2,0,3.6-0.4,4.8-0.9l-0.5-2.4c-1.1,0.4-2.2,0.6-3.8,0.6
			c-2.2,0-4.2-1.1-4.3-3.6L106.7,117.1z"/>
		<path class="st0" d="M109.6,113.7c0-1.8,0-3.2-0.1-4.4h3l0.1,2.6h0.1c0.7-1.9,2.3-2.9,3.8-2.9c0.3,0,0.5,0,0.8,0.1v3.3
			c-0.3-0.1-0.6-0.1-1-0.1c-1.7,0-2.8,1.1-3.1,2.6c-0.1,0.3-0.1,0.7-0.1,1.1v7.2h-3.5L109.6,113.7"/>
		<path class="st0" d="M119.5,119.9c0.8,0.5,2.3,1,3.5,1c1.5,0,2.2-0.6,2.2-1.5c0-0.9-0.6-1.4-2.3-2c-2.7-0.9-3.8-2.4-3.8-4
			c0-2.4,2-4.3,5.2-4.3c1.5,0,2.9,0.4,3.7,0.8l-0.7,2.5c-0.6-0.3-1.7-0.8-2.9-0.8c-1.2,0-1.9,0.6-1.9,1.5c0,0.9,0.7,1.3,2.4,1.9
			c2.5,0.9,3.7,2.2,3.7,4.2c0,2.5-2,4.3-5.6,4.3c-1.7,0-3.2-0.4-4.2-1L119.5,119.9"/>
		<path class="st0" d="M131.5,109.3h3.5v13.8h-3.5V109.3z M133.2,107.2c-1.2,0-2-0.9-2-2c0-1.1,0.8-2,2.1-2c1.2,0,2,0.9,2.1,2
			C135.3,106.3,134.5,107.2,133.2,107.2L133.2,107.2z"/>
		<path class="st0" d="M143.3,105.7v3.5h3.3v2.6h-3.3v6.1c0,1.7,0.4,2.5,1.8,2.5c0.6,0,1,0,1.4-0.2l0.1,2.7
			c-0.5,0.2-1.4,0.4-2.5,0.4c-1.3,0-2.3-0.4-3-1.1c-0.8-0.8-1.1-2.1-1.1-3.9v-6.5h-2v-2.6h2v-2.6L143.3,105.7"/>
		<path class="st0" d="M152.2,109.3l2.5,7.4c0.3,0.9,0.6,1.9,0.8,2.7h0.1c0.2-0.8,0.5-1.8,0.7-2.7l2.2-7.4h3.7l-3.5,9.4
			c-1.9,5.1-3.2,7.4-4.8,8.9c-1.4,1.2-2.8,1.7-3.7,1.8l-0.8-2.9c0.6-0.1,1.3-0.5,2-1c0.7-0.4,1.4-1.2,1.9-2.2
			c0.1-0.2,0.2-0.4,0.2-0.6c0-0.2,0-0.4-0.2-0.7l-5.1-12.7H152.2"/>
		<path class="st0" d="M44.8,148.3c-2.1,0-3.4-2-3.4-4.7c0-2.3,1-4.7,3.5-4.7c2.4,0,3.4,2.5,3.4,4.6
			C48.2,146.4,46.8,148.3,44.8,148.3L44.8,148.3 M44.8,150.9c3.5,0,7.1-2.3,7.1-7.3c0-4.2-2.7-7.1-6.8-7.1c-4.2,0-7.1,2.8-7.1,7.3
			C37.8,148.2,40.9,150.9,44.8,150.9L44.8,150.9z"/>
		<path class="st0" d="M55.1,150.5v-11.2h-1.9v-2.6h1.9v-0.6c0-1.8,0.5-3.6,1.7-4.7c1-1,2.4-1.3,3.6-1.3c0.9,0,1.7,0.2,2.2,0.3
			l-0.2,2.7c-0.4-0.1-0.8-0.2-1.5-0.2c-1.7,0-2.3,1.5-2.3,3.1v0.7h3v2.6h-3v11.2H55.1"/>
		<path class="st0" d="M74.3,150.5l-6.2-19.1h3.8l2.6,8.7c0.7,2.4,1.4,4.6,1.9,7h0.1c0.5-2.3,1.2-4.6,1.9-6.9l2.8-8.7h3.7l-6.6,19.1
			H74.3"/>
		<path class="st0" d="M87,136.7h3.5v13.8H87V136.7z M88.7,134.6c-1.2,0-2-0.9-2-2c0-1.1,0.8-2,2.1-2c1.2,0,2,0.9,2,2
			C90.8,133.7,90,134.6,88.7,134.6L88.7,134.6z"/>
		<path class="st0" d="M104.4,150.1c-0.7,0.3-2.2,0.7-3.9,0.7c-4.3,0-7.1-2.8-7.1-7.1c0-4.1,2.8-7.3,7.7-7.3c1.3,0,2.6,0.3,3.4,0.6
			l-0.6,2.6c-0.6-0.3-1.4-0.5-2.6-0.5c-2.7,0-4.2,1.9-4.2,4.5c0,2.8,1.9,4.5,4.2,4.5c1.2,0,2.1-0.3,2.7-0.5L104.4,150.1"/>
		<path class="st0" d="M111.4,133.2v3.5h3.3v2.6h-3.3v6.1c0,1.7,0.4,2.5,1.8,2.5c0.6,0,1,0,1.4-0.2l0.1,2.7
			c-0.5,0.2-1.4,0.4-2.5,0.4c-1.3,0-2.4-0.4-3-1.1c-0.7-0.8-1.1-2.1-1.1-3.9v-6.5h-2v-2.6h2v-2.6L111.4,133.2"/>
		<path class="st0" d="M123.3,148.3c-2.1,0-3.4-2-3.4-4.7c0-2.3,1-4.7,3.5-4.7c2.4,0,3.4,2.5,3.4,4.6
			C126.7,146.4,125.3,148.3,123.3,148.3L123.3,148.3 M123.2,150.9c3.5,0,7.1-2.3,7.1-7.3c0-4.2-2.7-7.1-6.9-7.1
			c-4.2,0-7.1,2.8-7.1,7.3C116.3,148.2,119.3,150.9,123.2,150.9L123.2,150.9z"/>
		<path class="st0" d="M133.2,141.2c0-1.8,0-3.2-0.1-4.4h3l0.1,2.6h0.1c0.7-1.9,2.3-2.9,3.8-2.9c0.3,0,0.5,0,0.8,0.1v3.3
			c-0.3-0.1-0.6-0.1-1.1-0.1c-1.7,0-2.8,1.1-3.1,2.6c-0.1,0.3-0.1,0.7-0.1,1.1v7.2h-3.5L133.2,141.2"/>
		<path class="st0" d="M143.3,136.7h3.5v13.8h-3.5V136.7z M145,134.6c-1.2,0-2-0.9-2-2c0-1.1,0.8-2,2.1-2c1.2,0,2,0.9,2.1,2
			C147.1,133.7,146.3,134.6,145,134.6L145,134.6z"/>
		<path class="st0" d="M157.8,145.7c0,0.2,0,0.5-0.1,0.8c-0.3,1-1.3,1.9-2.7,1.9c-1.1,0-2-0.6-2-2c0-2.1,2.4-2.6,4.8-2.6V145.7
			 M161.2,142.3c0-3-1.3-5.8-5.7-5.8c-2.2,0-4,0.6-5,1.2l0.7,2.3c0.9-0.6,2.4-1,3.7-1c2.4,0,2.8,1.5,2.8,2.4v0.2
			c-5.1,0-8.2,1.7-8.2,5.2c0,2.1,1.5,4.1,4.3,4.1c1.8,0,3.2-0.8,4.1-1.8h0.1l0.2,1.5h3.1c-0.2-0.9-0.2-2.1-0.2-3.3V142.3z"/>
		<path class="st0" d="M110.2,44.4c0.4,0.3,3.5,2.9,7.3,1.5c-0.1,3.9-0.4,20.3-0.4,21.1c-2.7,0.9-5.5-1-5.5-1
			c-6.1-4.1-9.7-2.9-11.3-1.7V44.8C101,44,104.2,40.7,110.2,44.4"/>
		<path class="st0" d="M89.3,44.4c6.2-3.8,9.3-0.2,9.9,0.5v19.3c-1.6-1.2-5.1-2.4-11.3,1.7c0,0-2.8,2-5.5,1.1
			c0-0.7-0.3-17.1-0.4-21.1C85.8,47.2,88.9,44.7,89.3,44.4"/>
		<path class="st0" d="M98.4,68.2c-3.9,4.8-17.4,3.1-20,2.7c0-0.9-1-20.8-1-21.6c1.6-0.7,2.7-1.8,3.5-2.7l0.4,21l0.3,0.2
			c3.4,1.5,6.9-1,7-1.1c5.4-3.6,8.4-2.7,9.8-1.8c0.7,0.4,1.1,1.1,1.1,1.1S99.2,67.3,98.4,68.2"/>
		<path class="st0" d="M121.2,70.9c-2.6,0.4-16.1,2.1-20-2.7c-0.8-0.9-1-2.1-1-2.1s0.4-0.7,1.1-1.1c1.4-0.9,4.4-1.8,9.8,1.9
			c0.1,0.1,3.5,2.6,7,1l0.3-0.2l0.4-21c0.8,0.9,1.9,1.9,3.5,2.7C122.2,50.1,121.2,70,121.2,70.9"/>
		<path class="st0" d="M103.8,71.4c-1.9-0.9-3.2-1.9-4-3.1h0c-0.8,1.2-2.1,2.2-4,3.1c0.6,1.1,1.9,1.8,4,1.8c0,0,0,0,0,0
			C101.8,73.2,103.1,72.5,103.8,71.4"/>
		<path class="st0" d="M75.8,18.8c0.4,0,0.6-0.3,0.6-0.3l0.2-0.2l-0.2-0.2c-0.3-0.2-0.6-0.3-0.9-0.3c-0.3,0.1-0.5,0.3-0.5,0.4
			l-0.1,0.2l0.2,0.2C75.3,18.8,75.6,18.8,75.8,18.8"/>
		<path class="st0" d="M111.6,18.8c0.4,0,0.6-0.3,0.6-0.3l0.2-0.2l-0.2-0.2c-0.3-0.2-0.6-0.3-0.9-0.3c-0.3,0.1-0.5,0.3-0.5,0.4
			l-0.1,0.2l0.2,0.2C111.2,18.8,111.5,18.8,111.6,18.8"/>
		<path class="st0" d="M93.7,18.8c0.4,0,0.6-0.3,0.6-0.3l0.2-0.2l-0.2-0.2c-0.3-0.2-0.6-0.3-0.9-0.3c-0.3,0.1-0.5,0.3-0.5,0.4
			l-0.1,0.2l0.2,0.2C93.3,18.8,93.6,18.8,93.7,18.8"/>
		<path class="st0" d="M130.5,10.5H68v28.9v0.1v6.2v0.4v1v0.3v4.1v1.1c0,0.1,0,0.2,0,0.4c0,1.6,0.2,3.2,0.4,4.8
			c0.1,0.5,0.1,0.9,0.2,1.4c0.2,1.3,0.6,2.5,0.9,3.7c0.1,0.4,0.2,0.7,0.3,1.1c0.2,0.5,0.3,0.9,0.5,1.4c0.3,0.8,0.7,1.6,1,2.3
			c0.2,0.5,0.5,0.9,0.7,1.4c0.2,0.3,0.4,0.7,0.6,1c0.3,0.5,0.5,0.9,0.8,1.4c0.8,1.3,1.7,2.5,2.6,3.6c0.3,0.4,0.7,0.8,1,1.2
			c0,0.1,0.1,0.1,0.1,0.2c0.3,0.4,0.7,0.8,1,1.1c1.7,1.8,3.4,3.4,5.3,4.8c0.1,0.1,0.2,0.1,0.2,0.2c0.6,0.4,1.1,0.8,1.7,1.2
			c0.1,0.1,0.2,0.1,0.3,0.2c2.1,1.4,4.2,2.5,6.3,3.4c1.3,0.5,2.5,0.9,3.7,1.2c1.5,0.4,2.9,0.6,4.1,0.6c1.2,0,2.6-0.2,4.1-0.6
			c1.2-0.3,2.4-0.7,3.7-1.2c2-0.8,4.2-2,6.2-3.4c0.1-0.1,0.2-0.1,0.3-0.2c0.6-0.4,1.1-0.8,1.7-1.2c0.1-0.1,0.2-0.1,0.2-0.2
			c1.8-1.4,3.6-3,5.2-4.8c0.3-0.4,0.7-0.8,1-1.1c0-0.1,0.1-0.1,0.1-0.2c0.3-0.4,0.7-0.8,1-1.2c0.9-1.2,1.8-2.4,2.6-3.6
			c0.3-0.5,0.6-0.9,0.8-1.4c0.2-0.3,0.4-0.7,0.6-1c0.2-0.5,0.5-0.9,0.7-1.4c0.4-0.8,0.7-1.5,1-2.3c0.2-0.5,0.3-0.9,0.5-1.4
			c0.2-0.5,0.3-1,0.5-1.5c0.3-1.1,0.6-2.2,0.8-3.3c0.1-0.5,0.2-0.9,0.2-1.4c0.2-1.5,0.4-3.1,0.4-4.8c0-0.1,0-0.2,0-0.4v-1.1v-4.1
			v-0.3v-1v-0.4v-6.2v-0.1V10.5H130.5 M112.3,16.3c1.2,0,3,0.4,3.2,4c0.7,1,1.7,1.8,3,2.5c2.2,0.4,4.6,0.4,7.2,0.2
			c-0.3,0.7-2.9,2.6-2.8,2.6c1.2,0.8,4.1,1.4,4.1,1.4s-2,0.9-3.8,0.9c0,0,0,0,0,0c-6.3,0.1-8.9-2.2-9.1-3.6
			c-0.1-0.7,0.4-1.3,1.3-1.5c0.7-0.1,0.4-1.1-0.2-1c-1.4,0.3-2.3,1.3-2.1,2.6c0.3,2.1,3.5,4.7,10.8,4.4c1.6,0.5,2.8,0.5,3.8,0.4
			c-1.3,1.5-2.3,2.1-3.3,2.4c0.2,1.5,0.2,3.2,0.2,3.8c-1.3-2-4.4-5-5.7-5.7c-0.1,1.9,0.5,4.4,1.3,5.2c-1.8-0.4-2.6-0.9-3.3-1.9
			c-0.5,0.6-1.8,1.9-3.3,1.5c0.9-1.6,1.5-3.4,1.4-5.7c-1.5-0.3-4.1-1.7-4-6.9c0-2.1-1.5-2.7-2.3-3.6
			C109.8,17.7,111.2,16.3,112.3,16.3 M94.4,16.3c1.2,0,3,0.4,3.2,4c0.7,1,1.7,1.8,3,2.5c2.2,0.4,4.6,0.4,7.2,0.2
			c-0.3,0.7-2.9,2.6-2.8,2.6c1.2,0.8,4.1,1.4,4.1,1.4s-2,0.9-3.8,0.9c0,0,0,0,0,0c-6.3,0.1-8.9-2.2-9.1-3.6
			c-0.1-0.7,0.3-1.3,1.3-1.5c0.7-0.1,0.4-1.1-0.2-1c-1.4,0.3-2.3,1.3-2.1,2.6c0.3,2.1,3.5,4.7,10.8,4.4c1.6,0.5,2.8,0.5,3.8,0.4
			c-1.3,1.5-2.3,2.1-3.3,2.4c0.2,1.5,0.2,3.2,0.2,3.8c-1.3-2-4.4-5-5.7-5.7c-0.1,1.9,0.5,4.4,1.3,5.2c-1.8-0.4-2.5-0.9-3.3-1.9
			c-0.5,0.6-1.8,1.9-3.3,1.5c0.9-1.6,1.5-3.4,1.4-5.7c-1.5-0.3-4.1-1.7-4-6.9c0-2.1-1.5-2.7-2.3-3.6C91.9,17.7,93.3,16.3,94.4,16.3
			 M76.4,16.3c1.2,0,3,0.4,3.2,4c0.7,1,1.7,1.8,3,2.5c2.2,0.4,4.6,0.4,7.2,0.2c-0.3,0.7-2.9,2.6-2.8,2.6C88.1,26.4,91,27,91,27
			s-2,0.9-3.8,0.9c0,0,0,0,0,0c-6.3,0.1-8.9-2.2-9.1-3.6c-0.1-0.7,0.4-1.3,1.3-1.5c0.7-0.1,0.4-1.1-0.2-1c-1.4,0.3-2.3,1.3-2.1,2.6
			c0.3,2.1,3.5,4.7,10.8,4.4c1.6,0.5,2.8,0.5,3.8,0.4c-1.3,1.5-2.3,2.1-3.3,2.4c0.2,1.5,0.2,3.2,0.2,3.8c-1.3-2-4.4-5-5.7-5.7
			c-0.1,1.9,0.6,4.4,1.3,5.2c-1.8-0.4-2.5-0.9-3.3-1.9c-0.5,0.6-1.8,1.9-3.3,1.5c0.9-1.6,1.5-3.4,1.4-5.7c-1.5-0.3-4.1-1.7-4-6.9
			c0-2.1-1.5-2.7-2.3-3.6C73.9,17.7,75.3,16.3,76.4,16.3 M100.9,87.3c-0.4,0-0.7,0-1.1,0c-0.3,0-0.7,0-1.1,0
			c-2.9-0.2-6.3-1.4-9.8-3.4h21.7C107.2,85.9,103.7,87.1,100.9,87.3 M118.8,77.6c-1.8,1.8-3.8,3.4-5.8,4.8c-0.1,0.1-0.2,0.1-0.3,0.2
			H86.5c-0.1-0.1-0.2-0.1-0.3-0.2c-2-1.3-4-2.9-5.8-4.8c-0.4-0.4-0.7-0.8-1.1-1.1h40.7C119.6,76.9,119.2,77.3,118.8,77.6
			 M129.6,45.3h-10.5c0.3,0.4,0.7,0.9,1.3,1.4h9.2c0,0.2,0,6,0,6.1h-6.4l-0.1,1.4h6.4c-0.1,1.2-0.2,2.5-0.4,3.6
			c-0.1,0.5-0.2,0.9-0.2,1.4c-0.1,0.3-0.1,0.7-0.2,1h-5.9l-0.1,1.4h5.6c-0.2,0.8-0.5,1.6-0.7,2.3c-0.2,0.5-0.3,0.9-0.5,1.4
			c-0.3,0.8-0.7,1.6-1.1,2.3h-3.6l-0.1,1.4h2.9c-0.2,0.3-0.4,0.7-0.6,1c-0.3,0.5-0.6,0.9-0.9,1.4c-0.8,1.3-1.8,2.5-2.7,3.6H78.2
			c-1-1.1-1.9-2.4-2.7-3.6c-0.3-0.5-0.6-0.9-0.9-1.4c-0.2-0.3-0.4-0.7-0.6-1h3.1L77,67.7h-3.7c-0.4-0.8-0.7-1.5-1.1-2.3
			c-0.2-0.5-0.4-0.9-0.5-1.4c-0.3-0.8-0.5-1.5-0.7-2.3h5.8l-0.1-1.4h-6.1c-0.1-0.3-0.2-0.7-0.2-1c-0.1-0.5-0.2-0.9-0.2-1.4
			c-0.2-1.2-0.3-2.4-0.4-3.6h6.6l-0.1-1.4h-6.6c0,0,0-0.1,0-0.1v-1.1v-4.1v-0.8h9.5c0.6-0.5,1-1,1.3-1.4H69.7v-7h59.9V45.3z"/>
	</g>
	<g>
		<path class="st0" d="M19.8,184c-0.8,0.4-2.4,0.8-4.4,0.8c-4.7,0-8.2-2.9-8.2-8.4c0-5.2,3.5-8.7,8.7-8.7c2.1,0,3.4,0.4,3.9,0.7
			l-0.5,1.7c-0.8-0.4-2-0.7-3.3-0.7c-3.9,0-6.5,2.5-6.5,6.8c0,4.1,2.3,6.7,6.4,6.7c1.3,0,2.6-0.3,3.5-0.7L19.8,184z"/>
		<path class="st0" d="M32.9,178.5c0,4.4-3,6.3-5.9,6.3c-3.2,0-5.7-2.4-5.7-6.1c0-4,2.6-6.3,5.9-6.3
			C30.6,172.4,32.9,174.9,32.9,178.5z M23.5,178.7c0,2.6,1.5,4.6,3.6,4.6c2.1,0,3.6-1.9,3.6-4.6c0-2-1-4.6-3.6-4.6
			C24.6,174,23.5,176.4,23.5,178.7z"/>
		<path class="st0" d="M35.7,175.9c0-1.2,0-2.2-0.1-3.2h1.9l0.1,1.9h0.1c0.7-1.1,1.8-2.2,3.7-2.2c1.6,0,2.9,1,3.4,2.4h0
			c0.4-0.7,0.8-1.2,1.3-1.5c0.7-0.5,1.5-0.8,2.6-0.8c1.6,0,3.9,1,3.9,5.2v7h-2.1v-6.7c0-2.3-0.8-3.7-2.6-3.7c-1.2,0-2.2,0.9-2.6,2
			c-0.1,0.3-0.2,0.7-0.2,1.1v7.4h-2.1v-7.1c0-1.9-0.8-3.3-2.5-3.3c-1.4,0-2.3,1.1-2.7,2.2c-0.1,0.3-0.2,0.7-0.2,1.1v7.2h-2.1V175.9z
			"/>
		<path class="st0" d="M56.2,176.6c0-1.5,0-2.8-0.1-3.9H58l0.1,2h0c0.9-1.5,2.3-2.3,4.2-2.3c2.9,0,5,2.4,5,6c0,4.3-2.6,6.4-5.4,6.4
			c-1.6,0-3-0.7-3.7-1.9h0v6.5h-2.1V176.6z M58.3,179.7c0,0.3,0,0.6,0.1,0.9c0.4,1.5,1.7,2.5,3.2,2.5c2.3,0,3.6-1.9,3.6-4.6
			c0-2.4-1.3-4.4-3.5-4.4c-1.5,0-2.9,1.1-3.3,2.7c-0.1,0.3-0.1,0.6-0.1,0.9V179.7z"/>
		<path class="st0" d="M80.1,181.3c0,1.2,0,2.3,0.1,3.2h-1.9l-0.1-1.9h0c-0.6,1-1.8,2.2-3.9,2.2c-1.9,0-4.1-1-4.1-5.2v-7h2.2v6.6
			c0,2.3,0.7,3.8,2.7,3.8c1.5,0,2.5-1,2.9-2c0.1-0.3,0.2-0.7,0.2-1.1v-7.3h2.2V181.3z"/>
		<path class="st0" d="M86.3,169.3v3.4h3.1v1.6h-3.1v6.4c0,1.5,0.4,2.3,1.6,2.3c0.6,0,1-0.1,1.3-0.1l0.1,1.6
			c-0.4,0.2-1.1,0.3-1.9,0.3c-1,0-1.8-0.3-2.3-0.9c-0.6-0.6-0.8-1.7-0.8-3.1v-6.5h-1.8v-1.6h1.8v-2.9L86.3,169.3z"/>
		<path class="st0" d="M92.9,179c0,2.9,1.9,4.1,4.1,4.1c1.5,0,2.5-0.3,3.3-0.6l0.4,1.5c-0.8,0.3-2.1,0.7-4,0.7c-3.7,0-5.9-2.4-5.9-6
			c0-3.6,2.1-6.4,5.6-6.4c3.9,0,4.9,3.4,4.9,5.6c0,0.4,0,0.8-0.1,1H92.9z M99.2,177.5c0-1.4-0.6-3.5-3-3.5c-2.2,0-3.1,2-3.3,3.5
			H99.2z"/>
		<path class="st0" d="M104,176.4c0-1.4,0-2.6-0.1-3.7h1.9l0.1,2.3h0.1c0.5-1.6,1.8-2.6,3.3-2.6c0.2,0,0.4,0,0.6,0.1v2
			c-0.2,0-0.4-0.1-0.7-0.1c-1.5,0-2.6,1.2-2.9,2.8c0,0.3-0.1,0.6-0.1,1v6.3H104V176.4z"/>
		<path class="st0" d="M117,182c1,0.6,2.4,1.1,3.8,1.1c2.2,0,3.5-1.2,3.5-2.8c0-1.5-0.9-2.4-3.1-3.3c-2.7-1-4.4-2.4-4.4-4.7
			c0-2.6,2.1-4.5,5.4-4.5c1.7,0,2.9,0.4,3.7,0.8l-0.6,1.7c-0.5-0.3-1.6-0.8-3.1-0.8c-2.3,0-3.1,1.4-3.1,2.5c0,1.5,1,2.3,3.3,3.2
			c2.8,1.1,4.2,2.4,4.2,4.9c0,2.6-1.9,4.8-5.8,4.8c-1.6,0-3.3-0.5-4.2-1.1L117,182z"/>
		<path class="st0" d="M138,184.1c-0.6,0.3-1.8,0.7-3.4,0.7c-3.6,0-5.9-2.4-5.9-6.1c0-3.7,2.5-6.3,6.4-6.3c1.3,0,2.4,0.3,3,0.6
			l-0.5,1.7c-0.5-0.3-1.3-0.6-2.5-0.6c-2.7,0-4.2,2-4.2,4.5c0,2.8,1.8,4.5,4.1,4.5c1.2,0,2-0.3,2.7-0.6L138,184.1z"/>
		<path class="st0" d="M142.9,169.3c0,0.7-0.5,1.3-1.4,1.3c-0.8,0-1.3-0.6-1.3-1.3c0-0.8,0.6-1.4,1.4-1.4
			C142.4,168,142.9,168.6,142.9,169.3z M140.5,184.6v-11.9h2.2v11.9H140.5z"/>
		<path class="st0" d="M147.5,179c0,2.9,1.9,4.1,4.1,4.1c1.5,0,2.5-0.3,3.3-0.6l0.4,1.5c-0.8,0.3-2.1,0.7-4,0.7
			c-3.7,0-5.9-2.4-5.9-6c0-3.6,2.1-6.4,5.6-6.4c3.9,0,4.9,3.4,4.9,5.6c0,0.4,0,0.8-0.1,1H147.5z M153.8,177.5c0-1.4-0.6-3.5-3-3.5
			c-2.2,0-3.1,2-3.3,3.5H153.8z"/>
		<path class="st0" d="M158.6,175.9c0-1.2,0-2.2-0.1-3.2h1.9l0.1,2h0c0.6-1.1,2-2.2,3.9-2.2c1.6,0,4.2,1,4.2,5.1v7.1h-2.2v-6.9
			c0-1.9-0.7-3.5-2.8-3.5c-1.4,0-2.5,1-2.9,2.2c-0.1,0.3-0.1,0.6-0.1,1v7.2h-2.2V175.9z"/>
		<path class="st0" d="M180.7,184.1c-0.6,0.3-1.8,0.7-3.4,0.7c-3.6,0-5.9-2.4-5.9-6.1c0-3.7,2.5-6.3,6.4-6.3c1.3,0,2.4,0.3,3,0.6
			l-0.5,1.7c-0.5-0.3-1.3-0.6-2.5-0.6c-2.7,0-4.2,2-4.2,4.5c0,2.8,1.8,4.5,4.1,4.5c1.2,0,2-0.3,2.7-0.6L180.7,184.1z"/>
		<path class="st0" d="M184.3,179c0,2.9,1.9,4.1,4.1,4.1c1.5,0,2.5-0.3,3.3-0.6l0.4,1.5c-0.8,0.3-2.1,0.7-4,0.7
			c-3.7,0-5.9-2.4-5.9-6c0-3.6,2.1-6.4,5.6-6.4c3.9,0,4.9,3.4,4.9,5.6c0,0.4,0,0.8-0.1,1H184.3z M190.7,177.5c0-1.4-0.6-3.5-3-3.5
			c-2.2,0-3.1,2-3.3,3.5H190.7z"/>
	</g>
</g>
</svg>
