<svg id="Layer_1" xmlns="http://www.w3.org/2000/svg" viewBox="0 0 545.3 480"><style>.st0{fill:#fff}</style><path class="st0" d="M384.6 112.2c.6 0 1.2-.2 1.8-.6l13.2-9.5c1.3-1 1.6-2.8.7-4.2-1-1.3-2.8-1.6-4.2-.7l-13.2 9.5c-1.3 1-1.6 2.8-.7 4.2.5.8 1.4 1.3 2.4 1.3M365.5 90.8c.8 0 1.6-.3 2.2-1l10.9-12c1.1-1.2 1-3.1-.2-4.2s-3.1-1-4.2.2l-10.9 12c-1.1 1.2-1 3.1.2 4.2.6.5 1.3.8 2 .8M341 73.5c.5.3 1 .4 1.5.4 1 0 2-.5 2.6-1.5l8.2-14.1c.8-1.4.3-3.3-1.1-4.1-1.4-.8-3.3-.3-4.1 1.1l-8.2 14.1c-.8 1.4-.3 3.2 1.1 4.1M315.5 62c.3.1.6.2.9.2 1.3 0 2.4-.8 2.9-2.1l5.1-15.4c.5-1.6-.3-3.3-1.9-3.8-1.6-.5-3.3.3-3.8 1.9l-5.1 15.4c-.5 1.5.3 3.2 1.9 3.8M229.1 59.6c.4 1.3 1.6 2.1 2.9 2.1.3 0 .6 0 .9-.1 1.6-.5 2.4-2.2 1.9-3.8l-5-15.5c-.5-1.6-2.2-2.4-3.8-1.9-1.6.5-2.4 2.2-1.9 3.8l5 15.4zM203.2 71.6c.6 1 1.6 1.5 2.6 1.5.5 0 1-.1 1.5-.4 1.4-.8 1.9-2.7 1.1-4.1l-8.1-14.1c-.8-1.4-2.7-1.9-4.1-1.1-1.4.8-1.9 2.7-1.1 4.1l8.1 14.1zM180.3 88.8c.6.7 1.4 1 2.2 1 .7 0 1.4-.3 2-.8 1.2-1.1 1.3-3 .2-4.2L174 72.7c-1.1-1.2-3-1.3-4.2-.2-1.2 1.1-1.3 3-.2 4.2l10.7 12.1zM148.4 100.8l13.1 9.6c.5.4 1.2.6 1.8.6.9 0 1.8-.4 2.4-1.2 1-1.3.7-3.2-.6-4.2L152 95.9c-1.3-1-3.2-.7-4.2.6-1 1.4-.7 3.3.6 4.3M208.5 190.5l-6-17.3h12.7l-6.5-26.6H158c-1.1 0-2.1.6-2.7 1.6-.5 1-.5 2.2.2 3.1l50.4 74.2-13.6-35.1h16.2zM386.5 146.7h-49.3l-6.5 26.6h12.7l-6 17.3h16.1L341.3 222l47.6-70.5c.6-.9.7-2.1.2-3.1-.5-1.1-1.5-1.7-2.6-1.7"/><path class="st0" d="M468.8 327.8c-.1-.3-3.4-8-8.5-15.8-7.1-10.9-14.2-16.5-21.2-16.6-.4-.7-.8-1.4-1.3-2.1-7.2-11.1-14.5-16.7-21.5-16.7H402c-.5-.8-1-1.5-1.5-2.3-6.4-9.8-12.8-15.3-19-16.4 11.9-19.3 18.7-42.1 18.7-66.4 0-5.2-.3-10.3-1-15.3l24.7-36.6c1.4.5 2.9.8 4.5.8 7 0 12.7-5.7 12.7-12.7 0-7-5.7-12.7-12.7-12.7-5.9 0-10.9 4.1-12.3 9.6H381c-18.5-29.9-49.1-51.5-84.8-58.2l-11.1-14.6c-2.9-17-7.3-43.3-7.6-46-.2-3.2-2.8-5.7-6-5.7s-5.8 2.5-6 5.7c-.3 2.8-4.7 29-7.6 46L246.3 67c-34.5 7.3-63.9 28.6-81.9 57.6h-34.5c-1.4-5.5-6.4-9.6-12.3-9.6-7 0-12.7 5.7-12.7 12.7 0 7 5.7 12.7 12.7 12.7 1.5 0 2.9-.3 4.3-.8l24.5 36c-.6 5.2-1 10.5-1 15.9 0 24.2 6.8 46.9 18.6 66.2-6.9.2-13.9 5.8-21 16.6-.5.8-1 1.6-1.5 2.3h-14.3c-7 0-14.3 5.6-21.5 16.7-.5.7-.9 1.4-1.3 2.1-6.9.2-14 5.8-21.2 16.6-5.1 7.8-8.3 15.5-8.5 15.8-.4.9-.3 2 .3 2.8.6.8 1.5 1.3 2.5 1.3h133.9c.8 0 1.5-.3 2.1-.8l19-17.9h1.4c.3 0 .6-.1.9-.2 2 .6 4.1 1.2 6.2 1.8l23 33.9c-1.9 2.2-3 5.1-3 8.2 0 7 5.7 12.7 12.7 12.7 7 0 12.7-5.7 12.7-12.7 0-3.4-1.3-6.4-3.4-8.7l22.8-33.7c1.5-.4 2.9-.8 4.4-1.3h.8l19 17.9c.6.5 1.3.8 2.1.8H466c1 0 1.9-.5 2.5-1.3.6-.8.7-1.9.3-2.8m-40.2-206.9a6.7 6.7 0 1 1-6.7 6.7c-.1-3.6 3-6.7 6.7-6.7m-310.8 13.5a6.7 6.7 0 1 1 0-13.4 6.7 6.7 0 0 1 0 13.4m298.6 148.3c5.3 0 11 6 15.6 12.7h-85.4c5.4-3.8 10.5-8.1 15.2-12.7h54.6zm-21.5-6.1h-27.3c3.7-4.1 7.1-8.4 10.2-13h1.3c5.4.1 11.1 6.2 15.8 13m-20.8-152.1h-11.2c-13-17.6-31-31.3-51.9-39l-9-11.9c29.9 7.5 55.5 26 72.1 50.9m-64.4-2.2c1.3.7 2.7 1.5 3.9 2.3h-4.3l.4-2.3zm.3-2.3l.4-2.5c3.9 2 7.7 4.4 11.3 7h-4.1c-2.5-1.6-5-3.1-7.6-4.5m.7-4.8l.3-2.4c6.4 3.2 12.4 7.1 17.8 11.7h-3.6c-4.5-3.6-9.3-6.7-14.5-9.3m.7-4.7l.3-2.3c8.8 4.2 16.8 9.7 23.8 16.3h-3.2c-6.2-5.6-13.3-10.3-20.9-14m.6-4.7l.3-2.2c10.5 4.8 20 11.4 28.1 19.5.5.5 1 1 1.4 1.5h-2.9c-7.7-7.8-16.8-14.2-26.9-18.8m.7-4.8l.3-2.1c11.5 5.1 21.8 12.2 30.6 20.9 1.5 1.5 2.9 3.1 4.4 4.7h-2.7c-9.1-9.9-20.2-17.9-32.6-23.5m.7-4.6l.3-2.1c12.5 5.3 23.7 12.9 33.1 22.4 2.5 2.5 4.9 5.1 7.1 7.8h-2.6c-10.2-12.1-23.2-21.8-37.9-28.1m.6-4.8c0-.8-.1-1.5-.4-2.2 13.7 5.5 26.1 13.8 36.4 24.1 3.4 3.4 6.6 7.1 9.6 11h-2.4C345.9 110.2 331 98.8 314 91.6m-50.2-37.5s7.9-46.5 7.9-48.1c0 1.6 7.9 48.1 7.9 48.1L308 91.5l-12.6 88.8 29.2 30-17.1 48-3.9-34.8-15-11.2-.1.3-.2-.1-2.4 7.5-14.2 1.5-14.2-1.5-1.4-4.3h.3l-1-3.3-.3.2v-.1l-15 11.2-3.9 34.6-17.2-48.1 29.2-30-4.8-33.6h-.3l-2.3-16.2h.3l-.9-6-.3-1.9c-.1 0-.2.1-.3.1l-.4-2.5c.1 0 .2-.1.3-.1l-.3-2.2c-.1 0-.2.1-.3.1l-.3-2.4c.1 0 .2-.1.3-.1l-.3-2.3c-.1 0-.2.1-.3.1l-.3-2.4c.1 0 .2-.1.3-.1l-.3-2.3c-.1 0-.2.1-.3.1l-.3-2.3c.1 0 .2-.1.3-.1l-.3-2.4c-.1 0-.2.1-.3.1l-.3-2.2c.1 0 .2-.1.3-.1l-.4-2.5c-.1 0-.2.1-.3.1l-.3-2.1c.1 0 .2-.1.3-.1l-.4-2.5c-.1 0-.2.1-.3.1l-.3-2c.1 0 .2-.1.3-.1l-.2-1.1 1.6-2.1c-.1 0-.2.1-.3.1l2-2.7c.1 0 .2-.1.3-.1l2.7-3.6c-.1 0-.2.1-.2.1l8.1-10.7h.2l5.3-6.9h-.2l8.8-11.3zm33.3 239.2l-8 1.4-2.7-68.8h.1c.4 0 .9-.2 1.3-.3l9.3 67.7zm-25.5 20.1c1.7 0 3-1.3 3-3v-83.2l5.9-.6 2.7 69.2.2 6 .5 13.9-12.1 4.9-12.6-6.1.6-15 .2-4.4 2.7-68.5 5.9.6v83.2c0 1.7 1.4 3 3 3m-14.9-87.5l-2.7 68-8-1.7 9.3-66.6c.5.1 1 .3 1.4.3m-68.8-101.4h-2.4c3-3.9 6.2-7.6 9.6-11 9.8-9.8 21.5-17.7 34.4-23.3-.2.7-.2 1.4-.1 2.1-16.3 7.2-30.6 18.3-41.5 32.2m10.4-7.8c9-9 19.7-16.4 31.5-21.7l.3 2.1c-14.1 6.4-26.5 15.8-36.3 27.4h-2.6c2.3-2.7 4.6-5.3 7.1-7.8m3.2 3.1c8.3-8.3 18.2-15.2 29-20.2l.3 2.1a96.99 96.99 0 0 0-30.9 22.8h-2.7c1.3-1.6 2.8-3.2 4.3-4.7m3.2 3.2c7.7-7.7 16.6-14 26.5-18.7l.3 2.2c-9.4 4.6-18 10.7-25.3 18h-2.9c.4-.5.9-1 1.4-1.5m27.1-14l.3 2.3c-7 3.6-13.5 8-19.3 13.2h-3.2c6.5-6.2 14-11.4 22.2-15.5m.7 4.6l.3 2.4c-4.6 2.4-8.9 5.2-12.9 8.4h-3.6c4.9-4.1 10.4-7.7 16.2-10.8m.6 4.8l.3 2.5c-2 1.1-4 2.4-5.9 3.7h-4.1c3.1-2.3 6.4-4.4 9.7-6.2m.7 4.8l.2 1.4h-2.6c.8-.6 1.6-1 2.4-1.4m7-48.7l-9.1 12c-19.9 7.8-37 21.1-49.5 38h-10.4c16-24.1 40.4-42.1 69-50m-76.2 189.2h3.4c3.1 4.5 6.6 8.9 10.2 13h-29.4c4.7-6.9 10.4-13 15.8-13m-37.3 19h56.8c4.7 4.6 9.8 8.9 15.2 12.7h-87.6c4.7-6.8 10.3-12.7 15.6-12.7m83.1 43.2h-128c4.5-9.2 13.9-24.6 22.5-24.6h103.7c5.9 3.4 12 6.4 18.4 8.9l-16.6 15.7zm-58.8-134.4c0-2.7.1-5.4.3-8.1l8.7 12.8c2 43.2 28.5 80 65.9 96.9l9.5 14c-49-15.7-84.4-61.6-84.4-115.6m28.6 33.6c5.6 15 14.7 28.4 26.4 38.9l4.2 6.2c-3.3-2.6-6.4-5.3-9.4-8.2-11.8-11.8-20.6-26.5-25.4-43l4.2 6.1zm8.2 12.1l10 14.8c-3.7-4.6-7.1-9.5-10-14.8m-16.5-24.3c5.7 26.3 21.5 48.9 43.1 63.5l2.8 4.2c-7.1-4.4-13.7-9.5-19.6-15.4-15-15-25.5-34.5-29.2-56.4l2.9 4.1zm-6.1-9c4.2 35.3 25.5 65.3 55.4 81.6l2.2 3.3c-10.5-5.3-20.1-12.2-28.3-20.4-17.7-17.7-29.3-41.4-31.6-67.7l2.3 3.2zm108.1 159.7a6.7 6.7 0 1 1 6.7-6.7c.1 3.7-3 6.7-6.7 6.7m4.3-18.7c-1.3-.5-2.8-.7-4.3-.7-1.7 0-3.4.4-4.9 1L127.1 136.3c1.5-1.6 2.6-3.6 3.1-5.8h104.7l2.3 16.2H215l7.9 32.6H211l6 17.3h-15.8l20 51.3 20.8 30.6-2.2 15.8c-.2 1.6.8 3 2.4 3.4l11.7 2.4-.6 14.3c-.1 2.4 1.2 4.6 3.4 5.6l12.6 6.1c.8.4 1.7.6 2.6.6.8 0 1.5-.1 2.2-.4l12.1-4.9c2.4-.9 3.9-3.3 3.8-5.8l-.6-14.7 11.6-2c1.6-.3 2.7-1.8 2.5-3.4l-2-14.4 24.7-36.6 18.7-47.9h-15.8l6-17.3h-11.9l7.9-32.6h-24.8l2.3-16.2h107.7c.5 2.1 1.5 4 2.9 5.6l-141 208.8zm64.8-85.3c8.2-8.4 14.9-18.3 19.7-29.2l5.1-7.6c-5 14.9-13.4 28.2-24.2 39.1-1.8 1.8-3.8 3.6-5.7 5.3l5.1-7.6zm-9.8 14.5c19.2-14 33.3-34.4 39.2-58.1l3-4.5c-4.1 20.7-14.3 39.3-28.7 53.7-5 5-10.6 9.6-16.6 13.5l3.1-4.6zm-6.5 9.8c27.8-16.2 47.6-44.4 52.4-77.6l2.4-3.5c-2.8 25.5-14.2 48.3-31.4 65.5-7.6 7.5-16.2 14-25.7 19.1l2.3-3.5zm-5.5 8.1c35.5-17.1 60.5-52.3 63.2-93.7L394 184c.2 2.5.3 5 .3 7.5 0 53.5-34.8 99-83 115.1l9.9-14.6zm12.2 33.9l-16-15.1c7-2.6 13.6-5.8 19.9-9.5h101.6c8.6 0 17.9 15.4 22.5 24.6h-128z"/><path class="st0" d="M271.5 121.4c11.1 0 20.1-8.8 20.1-19.7s-9-19.7-20.1-19.7c-11.1 0-20.1 8.8-20.1 19.7s9 19.7 20.1 19.7m0-33.4c7.8 0 14.1 6.1 14.1 13.7s-6.3 13.7-14.1 13.7-14.1-6.1-14.1-13.7S263.7 88 271.5 88M271.5 132.7c-8.5 0-15.4 6.8-15.4 15.1s6.9 15.1 15.4 15.1 15.4-6.8 15.4-15.1-6.9-15.1-15.4-15.1m0 24.3c-5.2 0-9.4-4.1-9.4-9.1s4.2-9.1 9.4-9.1 9.4 4.1 9.4 9.1-4.2 9.1-9.4 9.1"/><g><path class="st0" d="M0 408.2h11.1l15.6 54.3h.2l15.7-54.3h11.1l-22.8 71.2h-8.2zM240.5 479.4h-11.1l-17.8-54.2h-.1l-17.8 54.2h-11.1l24.9-71.2h8.1zM113 408.2h10.4v71.3H113zM304.4 417.7h-18.9v-9.5h48.3v9.5h-18.9v61.7h-10.5zM545.3 459.5c-1.5 6.6-4.4 11.7-8.7 15.2-4.4 3.5-9.6 5.3-15.6 5.3-5.4-.1-10-1.5-13.6-4.1-3.7-2.5-6.4-5.4-8-8.7-.5-1.1-1-2.1-1.4-3.1-.4-1-.7-2.3-.9-3.8-.5-2.9-.7-8.4-.7-16.5 0-8.3.2-13.8.7-16.6.5-2.8 1.3-5.1 2.3-6.8 1.7-3.3 4.4-6.2 8-8.8 3.6-2.6 8.2-3.9 13.6-4 6.7.1 12.1 2.1 16.3 6.1 4.2 4 6.8 9 8 15h-11.1c-.9-2.9-2.4-5.3-4.6-7.3-2.3-1.9-5.2-2.9-8.5-3-2.5.1-4.6.6-6.4 1.5-1.8 1-3.3 2.2-4.4 3.7-1.4 1.5-2.3 3.5-2.7 5.9-.5 2.5-.8 7.3-.8 14.3 0 7 .3 11.8.8 14.3.4 2.5 1.3 4.5 2.7 6 1.1 1.5 2.6 2.7 4.4 3.6 1.8 1.1 3.9 1.6 6.4 1.6 5.9 0 10.3-3.2 13.2-9.7h11zM393.5 438.7H437v9.6h-43.5zM393.5 469.3H437v10.2h-43.5zM393.5 408.2H437v10.2h-43.5z"/></g></svg>