<?xml version="1.0" encoding="utf-8"?>
<!-- Generator: Adobe Illustrator 19.2.0, SVG Export Plug-In . SVG Version: 6.00 Build 0)  -->
<svg version="1.1" id="Layer_1" xmlns="http://www.w3.org/2000/svg" xmlns:xlink="http://www.w3.org/1999/xlink" x="0px" y="0px"
	 viewBox="0 0 1280 1280" style="enable-background:new 0 0 1280 1280;" xml:space="preserve">
<style type="text/css">
	.st0{opacity:0.7;fill:#FFFFFF;enable-background:new    ;}
	.st1{fill:#FFFFFF;}
	.st2{opacity:0.3;fill:#FFFFFF;enable-background:new    ;}
	.st3{opacity:0.5;fill:#FFFFFF;enable-background:new    ;}
	.st4{opacity:0.8;fill:#FFFFFF;enable-background:new    ;}
</style>
<path class="st0" d="M79.7,262.2c1.8,0,3.2,1.4,3.2,3.2c0-1.8,1.5-3.2,3.3-3.2c-1.8,0-3.3-1.4-3.2-3.2
	C83,260.7,81.5,262.2,79.7,262.2z"/>
<path class="st1" d="M3.1,316.5c2.2,0,4.1,1.8,4.1,4.1c0-2.2,1.8-4.1,4.1-4.1c-2.2,0-4.1-1.8-4.1-4.1C7.1,314.7,5.3,316.5,3.1,316.5
	z"/>
<path class="st2" d="M33.9,383.8c1.3,0,2.3,1.1,2.3,2.6c0-1.4,1-2.5,2.3-2.5c-1.3,0-2.3-1.1-2.3-2.6
	C36.2,382.7,35.2,383.8,33.9,383.8z"/>
<path class="st3" d="M84.9,313c1.4,0,2.5,1.2,2.5,2.6c0-1.4,1.1-2.6,2.5-2.6c-1.4,0-2.5-1.2-2.5-2.6C87.4,311.8,86.3,313,84.9,313z"
	/>
<path class="st0" d="M202.7,372.2c1.8,0,3.2,1.4,3.2,3.2c0-1.8,1.5-3.2,3.3-3.2c-1.8,0-3.2-1.4-3.2-3.2
	C205.9,370.8,204.5,372.2,202.7,372.2z"/>
<path class="st4" d="M143.6,245.1c1.8,0,3.2,1.4,3.2,3.2c0-1.8,1.4-3.2,3.2-3.2c-1.8,0-3.2-1.4-3.2-3.2
	C146.8,243.7,145.4,245.1,143.6,245.1z"/>
<path class="st1" d="M312.7,403.5c2.2,0,4.1,1.8,4.1,4.1c0-2.2,1.8-4.1,4.1-4.1c-2.2,0-4.1-1.8-4.1-4.1
	C316.8,401.6,315,403.5,312.7,403.5z M247.7,345.3c2.2,0,4.1,1.8,4.1,4.1c0-2.2,1.8-4.1,4.1-4.1c-2.2,0-4.1-1.8-4.1-4.1
	C251.8,343.5,250,345.3,247.7,345.3z M153.1,209.4c2.8,0,5.1,2.3,5.1,5.1c0-2.8,2.3-5.1,5.1-5.1c-2.8,0-5.1-2.3-5.1-5.1
	C158.1,207.1,155.9,209.4,153.1,209.4z"/>
<path class="st2" d="M80.1,313.6c1.3,0,2.3,1.1,2.3,2.5c0-1.4,1-2.5,2.3-2.5c-1.3,0-2.3-1.1-2.3-2.6
	C82.4,312.5,81.3,313.6,80.1,313.6z"/>
<path class="st3" d="M280.7,388.4c1.4,0,2.5,1.2,2.5,2.6c0-1.4,1.1-2.6,2.5-2.6c-1.4,0-2.5-1.1-2.5-2.6
	C283.3,387.2,282.2,388.4,280.7,388.4z"/>
<path class="st0" d="M456.1,361.3c1.8,0,3.2,1.4,3.2,3.2c0-1.8,1.5-3.2,3.3-3.2c-1.8,0-3.3-1.4-3.3-3.2
	C459.3,359.9,457.9,361.3,456.1,361.3z"/>
<path class="st4" d="M339.8,316.5c1.8,0,3.2,1.4,3.2,3.2c0-1.8,1.4-3.2,3.2-3.2c-1.8,0-3.2-1.4-3.2-3.2
	C343,315.1,341.6,316.5,339.8,316.5z"/>
<path class="st1" d="M470,320.9c2.2,0,4.1,1.8,4.1,4.1c0-2.2,1.8-4.1,4.1-4.1c-2.2,0-4.1-1.8-4.1-4.1
	C474.1,319,472.3,320.9,470,320.9z M418.7,253.7c2.2,0,4.1,1.8,4.1,4.1c0-2.2,1.8-4.1,4.1-4.1c-2.2,0-4.1-1.8-4.1-4.1
	C422.7,251.9,420.9,253.7,418.7,253.7L418.7,253.7z M463.1,353.6c2.8,0,5.1,2.3,5.1,5.1c0-2.8,2.3-5.1,5.1-5.1
	c-2.8,0-5.1-2.3-5.1-5.1C468.2,351.3,465.9,353.6,463.1,353.6z"/>
<path class="st2" d="M517.5,293.7c1.3,0,2.3,1.1,2.3,2.5c0-1.4,1-2.5,2.3-2.5c-1.3,0-2.3-1.1-2.3-2.6
	C519.8,292.5,518.7,293.7,517.5,293.7z"/>
<path class="st3" d="M534.2,386.6c1.4,0,2.5,1.2,2.5,2.6c0-1.4,1.1-2.6,2.5-2.6c-1.4,0-2.5-1.1-2.5-2.6
	C536.7,385.5,535.6,386.6,534.2,386.6z"/>
<path class="st2" d="M70.5,59.3c1.3,0,2.3,1.1,2.3,2.5c0-1.4,1-2.5,2.3-2.5c-1.3,0-2.3-1.1-2.3-2.6C72.8,58.1,71.7,59.3,70.5,59.3z"
	/>
<path class="st0" d="M155.9,138.8c1.8,0,3.2,1.4,3.2,3.2c0-1.8,1.5-3.2,3.3-3.2c-1.8,0-3.2-1.4-3.2-3.2
	C159.1,137.3,157.7,138.8,155.9,138.8z"/>
<path class="st4" d="M366.3,219.3c1.8,0,3.2,1.4,3.2,3.2c0-1.8,1.4-3.2,3.2-3.2c-1.8,0-3.2-1.4-3.2-3.2
	C369.4,217.9,368,219.3,366.3,219.3z"/>
<path class="st1" d="M289.7,252.6c2.2,0,4.1,1.8,4.1,4.1c0-2.2,1.8-4.1,4.1-4.1c-2.2,0-4.1-1.8-4.1-4.1
	C293.8,250.8,292,252.6,289.7,252.6z M185.2,133.1c2.2,0,4.1,1.8,4.1,4.1c0-2.2,1.8-4.1,4.1-4.1c-2.2,0-4.1-1.8-4.1-4.1
	C189.3,131.2,187.4,133.1,185.2,133.1z M81,105.3c2.8,0,5.1,2.3,5.1,5.1c0-2.8,2.3-5.1,5.1-5.1c-2.8,0-5.1-2.3-5.1-5.1
	C86.1,103,83.8,105.3,81,105.3z"/>
<path class="st2" d="M83.2,129.9c1.3,0,2.3,1.1,2.3,2.5c0-1.4,1-2.5,2.3-2.5c-1.3,0-2.3-1.1-2.3-2.6
	C85.5,128.8,84.4,129.9,83.2,129.9z"/>
<path class="st3" d="M248.4,255.8c1.4,0,2.5,1.2,2.5,2.6c0-1.4,1.1-2.6,2.5-2.6c-1.4,0-2.5-1.2-2.5-2.6
	C250.9,254.7,249.8,255.8,248.4,255.8L248.4,255.8z"/>
<path class="st0" d="M580,126.4c1.8,0,3.2,1.4,3.2,3.2c0-1.8,1.5-3.2,3.3-3.2c-1.8,0-3.2-1.4-3.2-3.2
	C583.3,125,581.8,126.4,580,126.4z"/>
<path class="st4" d="M586.4,6.1c1.8,0,3.2,1.4,3.2,3.2c0-1.8,1.4-3.2,3.2-3.2c-1.8,0-3.2-1.4-3.2-3.2C589.6,4.7,588.2,6.1,586.4,6.1
	z"/>
<path class="st1" d="M370.7,233.5c2.2,0,4.1,1.8,4.1,4.1c0-2.2,1.8-4.1,4.1-4.1c-2.2,0-4.1-1.8-4.1-4.1
	C374.8,231.7,373,233.5,370.7,233.5z M523.1,244.7c2.2,0,4.1,1.8,4.1,4.1c0-2.2,1.8-4.1,4.1-4.1c-2.2,0-4.1-1.8-4.1-4.1
	C527.1,242.9,525.3,244.7,523.1,244.7z M466.5,213.5c2.8,0,5.1,2.3,5.1,5.1c0-2.8,2.3-5.1,5.1-5.1c-2.8,0-5.1-2.3-5.1-5.1
	C471.6,211.2,469.3,213.5,466.5,213.5z"/>
<path class="st2" d="M385.7,294c1.3,0,2.3,1.1,2.3,2.5c0-1.4,1-2.5,2.3-2.5c-1.3,0-2.3-1.1-2.3-2.6C387.9,292.9,386.9,294,385.7,294
	z"/>
<path class="st0" d="M46.4,559.9c1.8,0,3.2,1.4,3.2,3.2c0-1.8,1.5-3.2,3.3-3.2c-1.8,0-3.2-1.4-3.2-3.2
	C49.6,558.4,48.1,559.9,46.4,559.9z"/>
<path class="st1" d="M42.8,647.4c2.2,0,4.1,1.8,4.1,4.1c0-2.2,1.8-4.1,4.1-4.1c-2.2,0-4.1-1.8-4.1-4.1
	C46.8,645.6,45,647.4,42.8,647.4z"/>
<path class="st2" d="M21.3,595c1.3,0,2.3,1.1,2.3,2.5c0-1.4,1-2.5,2.3-2.5c-1.3,0-2.3-1.1-2.3-2.6C23.6,593.9,22.5,595,21.3,595z"/>
<path class="st0" d="M202.2,532.8c1.8,0,3.2,1.4,3.2,3.2c0-1.8,1.5-3.2,3.2-3.2c-1.8,0-3.2-1.4-3.2-3.2
	C205.4,531.3,204,532.8,202.2,532.8z"/>
<path class="st4" d="M222.3,503.3c1.8,0,3.2,1.4,3.2,3.2c0-1.8,1.4-3.2,3.2-3.2c-1.8,0-3.2-1.4-3.2-3.2
	C225.5,501.9,224.1,503.3,222.3,503.3z"/>
<path class="st1" d="M287.1,637.7c2.2,0,4.1,1.8,4.1,4.1c0-2.2,1.8-4.1,4.1-4.1c-2.2,0-4.1-1.8-4.1-4.1
	C291.2,635.8,289.4,637.7,287.1,637.7z M209.9,660.4c2.2,0,4.1,1.8,4.1,4.1c0-2.2,1.8-4.1,4.1-4.1c-2.2,0-4.1-1.8-4.1-4.1
	C214,658.5,212.2,660.4,209.9,660.4z"/>
<path class="st2" d="M229,539.9c1.3,0,2.3,1.1,2.3,2.5c0-1.4,1-2.5,2.3-2.5c-1.3,0-2.3-1.1-2.3-2.6
	C231.3,538.8,230.2,539.9,229,539.9z"/>
<path class="st4" d="M512.9,453.5c1.8,0,3.2,1.4,3.2,3.2c0-1.8,1.4-3.2,3.2-3.2c-1.8,0-3.2-1.4-3.2-3.2
	C516.1,452,514.7,453.5,512.9,453.5z"/>
<path class="st1" d="M372.6,550.9c2.2,0,4.1,1.8,4.1,4.1c0-2.2,1.8-4.1,4.1-4.1c-2.2,0-4.1-1.8-4.1-4.1
	C376.7,549.1,374.9,550.9,372.6,550.9z M517.5,497.4c2.8,0,5.1,2.3,5.1,5.1c0-2.8,2.3-5.1,5.1-5.1c-2.8,0-5.1-2.3-5.1-5.1
	C522.6,495.2,520.3,497.4,517.5,497.4z"/>
<path class="st3" d="M486.4,615.1c1.4,0,2.5,1.2,2.5,2.6c0-1.4,1.1-2.6,2.5-2.6c-1.4,0-2.5-1.1-2.5-2.6
	C488.9,613.9,487.8,615.1,486.4,615.1z"/>
<path class="st4" d="M20.9,531.2c1.8,0,3.2,1.4,3.2,3.2c0-1.8,1.4-3.2,3.2-3.2c-1.8,0-3.2-1.4-3.2-3.2
	C24.1,529.8,22.7,531.2,20.9,531.2z"/>
<path class="st3" d="M19.5,469.1c1.4,0,2.5,1.2,2.5,2.6c0-1.4,1.1-2.6,2.5-2.6c-1.4,0-2.5-1.1-2.5-2.6C22,468,20.9,469.1,19.5,469.1
	z"/>
<path class="st0" d="M254.7,536.2c1.8,0,3.2,1.4,3.2,3.2c0-1.8,1.5-3.2,3.3-3.2c-1.8,0-3.2-1.4-3.2-3.2
	C258,534.8,256.5,536.2,254.7,536.2L254.7,536.2z"/>
<path class="st4" d="M273.5,452.4c1.8,0,3.2,1.4,3.2,3.2c0-1.8,1.4-3.2,3.2-3.2c-1.8,0-3.2-1.4-3.2-3.2
	C276.7,451,275.2,452.4,273.5,452.4z"/>
<path class="st1" d="M348,460.7c2.2,0,4.1,1.8,4.1,4.1c0-2.2,1.8-4.1,4.1-4.1c-2.2,0-4.1-1.8-4.1-4.1
	C352.1,458.9,350.3,460.7,348,460.7z M279,346.5c2.2,0,4.1,1.8,4.1,4.1c0-2.2,1.8-4.1,4.1-4.1c-2.2,0-4.1-1.8-4.1-4.1
	C283,344.7,281.2,346.5,279,346.5z M332.9,386.8c2.8,0,5.1,2.3,5.1,5.1c0-2.8,2.3-5.1,5.1-5.1c-2.8,0-5.1-2.3-5.1-5.1
	C338,384.5,335.7,386.8,332.9,386.8z"/>
<path class="st2" d="M251.7,350.6c1.3,0,2.3,1.1,2.3,2.5c0-1.4,1-2.5,2.3-2.5c-1.3,0-2.3-1.1-2.3-2.6
	C253.9,349.5,252.9,350.6,251.7,350.6L251.7,350.6z"/>
<path class="st3" d="M207.9,404.8c1.4,0,2.5,1.2,2.5,2.6c0-1.4,1.1-2.6,2.5-2.6c-1.4,0-2.5-1.1-2.5-2.6
	C210.4,403.6,209.3,404.8,207.9,404.8z"/>
<path class="st0" d="M487.1,313.1c1.8,0,3.2,1.4,3.2,3.2c0-1.8,1.5-3.2,3.3-3.2c-1.8,0-3.2-1.4-3.2-3.2
	C490.3,311.7,488.8,313.1,487.1,313.1z"/>
<path class="st4" d="M503.4,514.2c1.8,0,3.2,1.4,3.2,3.2c0-1.8,1.4-3.2,3.2-3.2c-1.8,0-3.2-1.4-3.2-3.2
	C506.5,512.7,505.1,514.2,503.4,514.2z"/>
<path class="st1" d="M377.6,366c2.2,0,4.1,1.8,4.1,4.1c0-2.2,1.8-4.1,4.1-4.1c-2.2,0-4.1-1.8-4.1-4.1
	C381.6,364.2,379.8,366,377.6,366z M564.4,462.4c2.2,0,4.1,1.8,4.1,4.1c0-2.2,1.8-4.1,4.1-4.1c-2.2,0-4.1-1.8-4.1-4.1
	C568.4,460.6,566.6,462.4,564.4,462.4z M629.7,342.5c2.8,0,5.1,2.3,5.1,5.1c0-2.8,2.3-5.1,5.1-5.1c-2.8,0-5.1-2.3-5.1-5.1
	C634.8,340.2,632.5,342.5,629.7,342.5z"/>
<path class="st2" d="M353.1,498.9c1.3,0,2.3,1.1,2.3,2.5c0-1.4,1-2.5,2.3-2.5c-1.3,0-2.3-1.1-2.3-2.6
	C355.4,497.7,354.4,498.9,353.1,498.9z"/>
<path class="st3" d="M351.3,310.7c1.4,0,2.5,1.2,2.5,2.6c0-1.4,1.1-2.6,2.5-2.6c-1.4,0-2.5-1.1-2.5-2.6
	C353.9,309.6,352.7,310.7,351.3,310.7z"/>
<path class="st0" d="M6.2,49c1.8,0,3.2,1.4,3.2,3.2c0-1.8,1.5-3.2,3.3-3.2c-1.8,0-3.3-1.4-3.2-3.2C9.4,47.5,8,49,6.2,49z"/>
<path class="st4" d="M191.1,20.2c1.8,0,3.2,1.4,3.2,3.2c0-1.8,1.4-3.2,3.2-3.2c-1.8,0-3.2-1.4-3.2-3.2
	C194.2,18.8,192.8,20.2,191.1,20.2z"/>
<path class="st1" d="M246.4,100.2c2.2,0,4.1,1.8,4.1,4.1c0-2.2,1.8-4.1,4.1-4.1c-2.2,0-4.1-1.8-4.1-4.1
	C250.5,98.4,248.7,100.2,246.4,100.2z"/>
<path class="st0" d="M397.1,39.6c1.8,0,3.2,1.4,3.2,3.2c0-1.8,1.5-3.2,3.3-3.2c-1.8,0-3.2-1.4-3.2-3.2
	C400.4,38.2,398.9,39.6,397.1,39.6z"/>
<path class="st1" d="M460.3,25c2.8,0,5.1,2.3,5.1,5.1c0-2.8,2.3-5.1,5.1-5.1c-2.8,0-5.1-2.3-5.1-5.1C465.3,22.7,463.1,25,460.3,25z"
	/>
<path class="st2" d="M425.7,27.6c1.3,0,2.3,1.1,2.3,2.5c0-1.4,1-2.5,2.3-2.5c-1.3,0-2.3-1.1-2.3-2.6C428,26.4,426.9,27.6,425.7,27.6
	z"/>
<path class="st0" d="M10,174.5c1.8,0,3.2,1.4,3.2,3.2c0-1.8,1.5-3.2,3.3-3.2c-1.8,0-3.2-1.4-3.2-3.2C13.2,173,11.8,174.5,10,174.5z"
	/>
<path class="st1" d="M62.8,101.7c2.2,0,4.1,1.8,4.1,4.1c0-2.2,1.8-4.1,4.1-4.1c-2.2,0-4.1-1.8-4.1-4.1
	C66.8,99.9,65,101.7,62.8,101.7z"/>
<path class="st0" d="M344.3,7.9c1.8,0,3.3,1.4,3.2,3.2c0-1.8,1.5-3.2,3.2-3.2c-1.8,0-3.2-1.4-3.2-3.2C347.6,6.5,346.1,7.9,344.3,7.9
	z"/>
<path class="st1" d="M222.2,7.1c2.2,0,4.1,1.8,4.1,4.1c0-2.2,1.8-4.1,4.1-4.1c-2.2,0-4.1-1.8-4.1-4.1C226.3,5.2,224.5,7.1,222.2,7.1
	z M309.5,65.7c2.2,0,4.1,1.8,4.1,4.1c0-2.2,1.8-4.1,4.1-4.1c-2.2,0-4.1-1.8-4.1-4.1C313.5,63.8,311.7,65.7,309.5,65.7z M189.6,139.3
	c2.8,0,5.1,2.3,5.1,5.1c0-2.8,2.3-5.1,5.1-5.1c-2.8,0-5.1-2.3-5.1-5.1C194.7,137,192.4,139.3,189.6,139.3z"/>
<path class="st2" d="M262.3,39c1.3,0,2.3,1.1,2.3,2.5c0-1.4,1-2.5,2.3-2.5c-1.3,0-2.3-1.1-2.3-2.6C264.6,37.8,263.5,39,262.3,39z"/>
<path class="st1" d="M599.8,24.5c2.2,0,4.1,1.8,4.1,4.1c0-2.2,1.8-4.1,4.1-4.1c-2.2,0-4.1-1.8-4.1-4.1
	C603.8,22.7,602,24.5,599.8,24.5z"/>
<path class="st0" d="M798.3,177.8c1.8,0,3.2,1.4,3.2,3.2c0-1.8,1.5-3.2,3.3-3.2c-1.8,0-3.2-1.4-3.2-3.2
	C801.6,176.4,800.1,177.8,798.3,177.8z"/>
<path class="st4" d="M818.4,277.4c1.8,0,3.2,1.4,3.2,3.2c0-1.8,1.4-3.2,3.2-3.2c-1.8,0-3.2-1.4-3.2-3.2
	C821.6,276,820.2,277.4,818.4,277.4z"/>
<path class="st1" d="M877.1,249.9c2.2,0,4.1,1.8,4.1,4.1c0-2.2,1.8-4.1,4.1-4.1c-2.2,0-4.1-1.8-4.1-4.1
	C881.2,248.1,879.4,249.9,877.1,249.9z M652.7,204.1c2.2,0,4.1,1.8,4.1,4.1c0-2.2,1.8-4.1,4.1-4.1c-2.2,0-4.1-1.8-4.1-4.1
	C656.8,202.3,654.9,204.1,652.7,204.1z M788.7,409.1c2.8,0,5.1,2.3,5.1,5.1c0-2.8,2.3-5.1,5.1-5.1c-2.8,0-5.1-2.3-5.1-5.1
	C793.7,406.8,791.5,409.1,788.7,409.1z"/>
<path class="st2" d="M639.7,123.2c1.3,0,2.3,1.1,2.3,2.5c0-1.4,1-2.5,2.3-2.5c-1.3,0-2.3-1.1-2.3-2.6
	C642,122.1,641,123.2,639.7,123.2z"/>
<path class="st3" d="M665.6,294.2c1.4,0,2.5,1.2,2.5,2.6c0-1.4,1.1-2.6,2.5-2.6c-1.4,0-2.5-1.2-2.5-2.6
	C668.1,293,667,294.2,665.6,294.2z"/>
<path class="st0" d="M1083.5,191.4c1.8,0,3.2,1.4,3.2,3.2c0-1.8,1.5-3.2,3.3-3.2c-1.8,0-3.2-1.4-3.2-3.2
	C1086.7,189.9,1085.3,191.4,1083.5,191.4z"/>
<path class="st4" d="M923.1,441c1.8,0,3.2,1.4,3.2,3.2c0-1.8,1.4-3.2,3.2-3.2c-1.8,0-3.2-1.4-3.2-3.2
	C926.3,439.6,924.8,441,923.1,441z"/>
<path class="st1" d="M1147.2,242.7c2.2,0,4.1,1.8,4.1,4.1c0-2.2,1.8-4.1,4.1-4.1c-2.2,0-4.1-1.8-4.1-4.1
	C1151.3,240.9,1149.4,242.7,1147.2,242.7z M891,279.8c2.2,0,4.1,1.8,4.1,4.1c0-2.2,1.8-4.1,4.1-4.1c-2.2,0-4.1-1.8-4.1-4.1
	C895,278,893.2,279.8,891,279.8z M911.4,192.5c2.8,0,5.1,2.3,5.1,5.1c0-2.8,2.3-5.1,5.1-5.1c-2.8,0-5.1-2.3-5.1-5.1
	C916.5,190.3,914.2,192.5,911.4,192.5z"/>
<path class="st2" d="M1113.5,168.3c1.3,0,2.3,1.1,2.3,2.6c0-1.4,1-2.5,2.3-2.5c-1.3,0-2.3-1.1-2.3-2.6
	C1115.8,167.2,1114.8,168.3,1113.5,168.3z"/>
<path class="st3" d="M981.5,336.4c1.4,0,2.5,1.2,2.5,2.6c0-1.4,1.1-2.6,2.5-2.6c-1.4,0-2.5-1.1-2.5-2.6
	C984.1,335.3,982.9,336.4,981.5,336.4z"/>
<path class="st4" d="M1129.1,345.2c1.8,0,3.2,1.4,3.2,3.2c0-1.8,1.4-3.2,3.2-3.2c-1.8,0-3.2-1.4-3.2-3.2
	C1132.3,343.7,1130.9,345.2,1129.1,345.2z"/>
<path class="st1" d="M1259.1,211.4c2.2,0,4.1,1.8,4.1,4.1c0-2.2,1.8-4.1,4.1-4.1c-2.2,0-4.1-1.8-4.1-4.1
	C1263.2,209.6,1261.3,211.4,1259.1,211.4z M1185.9,422.1c2.8,0,5.1,2.3,5.1,5.1c0-2.8,2.3-5.1,5.1-5.1c-2.8,0-5.1-2.3-5.1-5.1
	C1191,419.8,1188.7,422.1,1185.9,422.1z"/>
<path class="st0" d="M824.1,310.2c1.8,0,3.2,1.4,3.2,3.2c0-1.8,1.5-3.2,3.3-3.2c-1.8,0-3.2-1.4-3.2-3.2
	C827.3,308.8,825.9,310.2,824.1,310.2z"/>
<path class="st4" d="M839.6,99.1c1.8,0,3.2,1.4,3.2,3.2c0-1.8,1.4-3.2,3.2-3.2c-1.8,0-3.2-1.4-3.2-3.2
	C842.8,97.7,841.4,99.1,839.6,99.1z"/>
<path class="st1" d="M762.1,103.4c2.2,0,4.1,1.8,4.1,4.1c0-2.2,1.8-4.1,4.1-4.1c-2.2,0-4.1-1.8-4.1-4.1
	C766.1,101.6,764.3,103.4,762.1,103.4z M848.4,190.6c2.2,0,4.1,1.8,4.1,4.1c0-2.2,1.8-4.1,4.1-4.1c-2.2,0-4.1-1.8-4.1-4.1
	C852.4,188.8,850.6,190.6,848.4,190.6z M693.7,50.2c2.8,0,5.1,2.3,5.1,5.1c0-2.8,2.3-5.1,5.1-5.1c-2.8,0-5.1-2.3-5.1-5.1
	C698.8,47.9,696.5,50.2,693.7,50.2z"/>
<path class="st3" d="M797.1,90.5c1.4,0,2.5,1.2,2.5,2.6c0-1.4,1.1-2.6,2.5-2.6c-1.4,0-2.5-1.1-2.5-2.6
	C799.7,89.4,798.5,90.5,797.1,90.5z"/>
<path class="st0" d="M1002.9,242.2c1.8,0,3.2,1.4,3.2,3.2c0-1.8,1.5-3.2,3.3-3.2c-1.8,0-3.2-1.4-3.2-3.2
	C1006.2,240.8,1004.7,242.2,1002.9,242.2z"/>
<path class="st4" d="M911.8,120.5c1.8,0,3.2,1.4,3.2,3.2c0-1.8,1.4-3.2,3.2-3.2c-1.8,0-3.2-1.4-3.2-3.2
	C915,119.1,913.6,120.5,911.8,120.5z"/>
<path class="st1" d="M1091.7,12.3c2.2,0,4.1,1.8,4.1,4.1c0-2.2,1.8-4.1,4.1-4.1c-2.2,0-4.1-1.8-4.1-4.1
	C1095.8,10.5,1094,12.3,1091.7,12.3z M1092.1,122.5c2.2,0,4.1,1.8,4.1,4.1c0-2.2,1.8-4.1,4.1-4.1c-2.2,0-4.1-1.8-4.1-4.1
	C1096.1,120.7,1094.3,122.5,1092.1,122.5z M978.8,40.8c2.8,0,5.1,2.3,5.1,5.1c0-2.8,2.3-5.1,5.1-5.1c-2.8,0-5.1-2.3-5.1-5.1
	C983.8,38.5,981.6,40.8,978.8,40.8z"/>
<path class="st2" d="M958.1,244.5c1.3,0,2.3,1.1,2.3,2.5c0-1.4,1-2.5,2.3-2.5c-1.3,0-2.3-1.1-2.3-2.6
	C960.4,243.3,959.3,244.5,958.1,244.5z"/>
<path class="st3" d="M1138,72.1c1.4,0,2.5,1.2,2.5,2.6c0-1.4,1.1-2.6,2.5-2.6c-1.4,0-2.5-1.2-2.5-2.6
	C1140.5,70.9,1139.4,72.1,1138,72.1z"/>
<path class="st4" d="M1221.7,159.1c1.8,0,3.2,1.4,3.2,3.2c0-1.8,1.4-3.2,3.2-3.2c-1.8,0-3.2-1.4-3.2-3.2
	C1224.9,157.7,1223.5,159.1,1221.7,159.1z"/>
<path class="st1" d="M1169.7,223.7c2.2,0,4.1,1.8,4.1,4.1c0-2.2,1.8-4.1,4.1-4.1c-2.2,0-4.1-1.8-4.1-4.1
	C1173.8,221.9,1172,223.7,1169.7,223.7z M1153.2,107.5c2.2,0,4.1,1.8,4.1,4.1c0-2.2,1.8-4.1,4.1-4.1c-2.2,0-4.1-1.8-4.1-4.1
	C1157.2,105.7,1155.4,107.5,1153.2,107.5z"/>
<path class="st3" d="M1249.4,189.6c1.4,0,2.5,1.2,2.5,2.6c0-1.4,1.1-2.6,2.5-2.6c-1.4,0-2.5-1.1-2.5-2.6
	C1252,188.5,1250.8,189.6,1249.4,189.6z"/>
<path class="st4" d="M674,474.8c1.8,0,3.2,1.4,3.2,3.2c0-1.8,1.4-3.2,3.2-3.2c-1.8,0-3.2-1.4-3.2-3.2
	C677.2,473.3,675.8,474.8,674,474.8z"/>
<path class="st1" d="M782.1,604.4c2.8,0,5.1,2.3,5.1,5.1c0-2.8,2.3-5.1,5.1-5.1c-2.8,0-5.1-2.3-5.1-5.1
	C787.1,602.2,784.9,604.4,782.1,604.4z"/>
<path class="st2" d="M703.3,573.3c1.3,0,2.3,1.1,2.3,2.5c0-1.4,1-2.5,2.3-2.5c-1.3,0-2.3-1.1-2.3-2.6
	C705.6,572.2,704.6,573.3,703.3,573.3z"/>
<path class="st3" d="M853.7,552.5c1.4,0,2.5,1.2,2.5,2.6c0-1.4,1.1-2.6,2.5-2.6c-1.4,0-2.5-1.1-2.5-2.6
	C856.3,551.4,855.2,552.5,853.7,552.5z"/>
<path class="st0" d="M1086.3,601.2c1.8,0,3.2,1.4,3.2,3.2c0-1.8,1.5-3.2,3.3-3.2c-1.8,0-3.2-1.4-3.2-3.2
	C1089.6,599.7,1088.1,601.2,1086.3,601.2z"/>
<path class="st4" d="M1050.9,631.6c1.8,0,3.2,1.4,3.2,3.2c0-1.8,1.4-3.2,3.2-3.2c-1.8,0-3.2-1.4-3.2-3.2
	C1054.1,630.2,1052.6,631.6,1050.9,631.6z"/>
<path class="st1" d="M1000.2,481.4c2.2,0,4.1,1.8,4.1,4.1c0-2.2,1.8-4.1,4.1-4.1c-2.2,0-4.1-1.8-4.1-4.1
	C1004.3,479.6,1002.5,481.4,1000.2,481.4z M971.8,503.6c2.2,0,4.1,1.8,4.1,4.1c0-2.2,1.8-4.1,4.1-4.1c-2.2,0-4.1-1.8-4.1-4.1
	C975.8,501.8,974,503.6,971.8,503.6z M996.4,510.8c2.8,0,5.1,2.3,5.1,5.1c0-2.8,2.3-5.1,5.1-5.1c-2.8,0-5.1-2.3-5.1-5.1
	C1001.5,508.5,999.2,510.8,996.4,510.8L996.4,510.8z M1242,673c2.2,0,4.1,1.8,4.1,4.1c0-2.2,1.8-4.1,4.1-4.1c-2.2,0-4.1-1.8-4.1-4.1
	C1246.1,671.2,1244.3,673,1242,673z M1188,652.5c2.8,0,5.1,2.3,5.1,5.1c0-2.8,2.3-5.1,5.1-5.1c-2.8,0-5.1-2.3-5.1-5.1
	C1193,650.2,1190.8,652.5,1188,652.5z"/>
<path class="st2" d="M1221.4,595.5c1.3,0,2.3,1.1,2.3,2.5c0-1.4,1-2.5,2.3-2.5c-1.3,0-2.3-1.1-2.3-2.6
	C1223.7,594.3,1222.7,595.5,1221.4,595.5z"/>
<path class="st3" d="M1210.2,625.7c1.4,0,2.5,1.2,2.5,2.6c0-1.4,1.1-2.6,2.5-2.6c-1.4,0-2.5-1.1-2.5-2.6
	C1212.8,624.5,1211.6,625.7,1210.2,625.7z"/>
<path class="st0" d="M761.4,376.3c1.8,0,3.2,1.4,3.2,3.2c0-1.8,1.5-3.2,3.3-3.2c-1.8,0-3.2-1.4-3.2-3.2
	C764.6,374.9,763.2,376.3,761.4,376.3z"/>
<path class="st4" d="M572.5,509.1c1.8,0,3.2,1.4,3.2,3.2c0-1.8,1.4-3.2,3.2-3.2c-1.8,0-3.2-1.4-3.2-3.2
	C575.6,507.7,574.2,509.1,572.5,509.1L572.5,509.1z"/>
<path class="st1" d="M764.4,498c2.2,0,4.1,1.8,4.1,4.1c0-2.2,1.8-4.1,4.1-4.1c-2.2,0-4.1-1.8-4.1-4.1
	C768.5,496.2,766.6,498,764.4,498z M826.6,458.7c2.2,0,4.1,1.8,4.1,4.1c0-2.2,1.8-4.1,4.1-4.1c-2.2,0-4.1-1.8-4.1-4.1
	C830.7,456.9,828.9,458.7,826.6,458.7z M758.7,332.6c2.8,0,5.1,2.3,5.1,5.1c0-2.8,2.3-5.1,5.1-5.1c-2.8,0-5.1-2.3-5.1-5.1
	C763.8,330.4,761.5,332.6,758.7,332.6z"/>
<path class="st2" d="M645.8,358.8c1.3,0,2.3,1.1,2.3,2.5c0-1.4,1-2.5,2.3-2.5c-1.3,0-2.3-1.1-2.3-2.6
	C648.1,357.6,647,358.8,645.8,358.8z"/>
<path class="st3" d="M686.2,453.4c1.4,0,2.5,1.2,2.5,2.6c0-1.4,1.1-2.6,2.5-2.6c-1.4,0-2.5-1.1-2.5-2.6
	C688.7,452.3,687.6,453.5,686.2,453.4z"/>
<path class="st0" d="M991.8,512.6c1.8,0,3.2,1.4,3.2,3.2c0-1.8,1.5-3.2,3.3-3.2c-1.8,0-3.2-1.4-3.2-3.2
	C995,511.1,993.6,512.6,991.8,512.6z"/>
<path class="st4" d="M1005.6,383.9c1.8,0,3.2,1.4,3.2,3.2c0-1.8,1.4-3.2,3.2-3.2c-1.8,0-3.2-1.4-3.2-3.2
	C1008.8,382.5,1007.4,383.9,1005.6,383.9z"/>
<path class="st1" d="M1171.3,369.8c2.2,0,4.1,1.8,4.1,4.1c0-2.2,1.8-4.1,4.1-4.1c-2.2,0-4.1-1.8-4.1-4.1
	C1175.3,367.9,1173.5,369.8,1171.3,369.8z M962.4,437.3c2.2,0,4.1,1.8,4.1,4.1c0-2.2,1.8-4.1,4.1-4.1c-2.2,0-4.1-1.8-4.1-4.1
	C966.5,435.5,964.7,437.3,962.4,437.3z M862.6,382c2.8,0,5.1,2.3,5.1,5.1c0-2.8,2.3-5.1,5.1-5.1c-2.8,0-5.1-2.3-5.1-5.1
	C867.7,379.7,865.4,382,862.6,382z"/>
<path class="st2" d="M809.1,296.8c1.3,0,2.3,1.1,2.3,2.6c0-1.4,1-2.6,2.3-2.5c-1.3,0-2.3-1.1-2.3-2.6
	C811.4,295.7,810.4,296.8,809.1,296.8z"/>
<path class="st3" d="M1118.1,569.7c1.4,0,2.5,1.2,2.5,2.6c0-1.4,1.1-2.6,2.5-2.6c-1.4,0-2.5-1.1-2.5-2.6
	C1120.7,568.6,1119.5,569.7,1118.1,569.7z"/>
<path class="st0" d="M1261.2,437.9c1.8,0,3.2,1.4,3.2,3.2c0-1.8,1.5-3.2,3.3-3.2c-1.8,0-3.3-1.4-3.2-3.2
	C1264.5,436.5,1263,437.9,1261.2,437.9z"/>
<path class="st4" d="M1215.3,493.8c1.8,0,3.2,1.4,3.2,3.2c0-1.8,1.4-3.2,3.2-3.2c-1.8,0-3.2-1.4-3.2-3.2
	C1218.4,492.4,1217,493.8,1215.3,493.8z"/>
<path class="st1" d="M1142.3,330.3c2.2,0,4.1,1.8,4.1,4.1c0-2.2,1.8-4.1,4.1-4.1c-2.2,0-4.1-1.8-4.1-4.1
	C1146.4,328.5,1144.5,330.3,1142.3,330.3z M1117.8,367.8c2.2,0,4.1,1.8,4.1,4.1c0-2.2,1.8-4.1,4.1-4.1c-2.2,0-4.1-1.8-4.1-4.1
	C1121.9,365.9,1120.1,367.8,1117.8,367.8z M1182.4,542.6c2.8,0,5.1,2.3,5.1,5.1c0-2.8,2.3-5.1,5.1-5.1c-2.8,0-5.1-2.3-5.1-5.1
	C1187.5,540.4,1185.2,542.6,1182.4,542.6z"/>
<path class="st2" d="M1170.2,469.7c1.3,0,2.3,1.1,2.3,2.5c0-1.4,1-2.5,2.3-2.5c-1.3,0-2.3-1.1-2.3-2.6
	C1172.5,468.6,1171.5,469.7,1170.2,469.7z"/>
<path class="st1" d="M627.7,4c2.2,0,4.1,1.8,4.1,4.1c0-2.2,1.8-4.1,4.1-4.1c-2.2,0-4.1-1.8-4.1-4.1C631.8,2.2,629.9,4,627.7,4z"/>
<path class="st2" d="M979.1-0.3c1.3,0,2.3,1.1,2.3,2.5c0-1.4,1-2.5,2.3-2.5c-1.3,0-2.3-1.1-2.3-2.6C981.4-1.4,980.4-0.3,979.1-0.3z"
	/>
<path class="st4" d="M1218.7,60c1.8,0,3.2,1.4,3.2,3.2c0-1.8,1.4-3.2,3.2-3.2c-1.8,0-3.2-1.4-3.2-3.2
	C1221.9,58.6,1220.5,60,1218.7,60z"/>
<path class="st1" d="M1267,49.1c2.2,0,4.1,1.8,4.1,4.1c0-2.2,1.8-4.1,4.1-4.1c-2.2,0-4.1-1.8-4.1-4.1
	C1271,47.3,1269.2,49.1,1267,49.1z"/>
<path class="st2" d="M1176.4,45c1.3,0,2.3,1.1,2.3,2.5c0-1.4,1-2.5,2.3-2.5c-1.3,0-2.3-1.1-2.3-2.6C1178.7,43.9,1177.7,45,1176.4,45
	z"/>
<path class="st0" d="M853.4,108.9c1.8,0,3.2,1.4,3.2,3.2c0-1.8,1.5-3.2,3.3-3.2c-1.8,0-3.2-1.4-3.2-3.2
	C856.7,107.5,855.2,108.9,853.4,108.9z"/>
<path class="st4" d="M664.4,14.8c1.8,0,3.2,1.4,3.2,3.2c0-1.8,1.4-3.2,3.2-3.2c-1.8,0-3.2-1.4-3.2-3.2
	C667.6,13.4,666.1,14.8,664.4,14.8z"/>
<path class="st1" d="M859.1,145.4c2.2,0,4.1,1.8,4.1,4.1c0-2.2,1.8-4.1,4.1-4.1c-2.2,0-4.1-1.8-4.1-4.1
	C863.1,143.6,861.3,145.4,859.1,145.4z M758,36.9c2.8,0,5.1,2.3,5.1,5.1c0-2.8,2.3-5.1,5.1-5.1c-2.8,0-5.1-2.3-5.1-5.1
	C763,34.7,760.8,36.9,758,36.9z"/>
<path class="st2" d="M676.7,57.5c1.3,0,2.3,1.1,2.3,2.5c0-1.4,1-2.5,2.3-2.5c-1.3,0-2.3-1.1-2.3-2.6C679,56.4,677.9,57.5,676.7,57.5
	z"/>
<path class="st3" d="M654.4,101.3c1.4,0,2.5,1.2,2.5,2.6c0-1.4,1.1-2.6,2.5-2.6c-1.4,0-2.5-1.1-2.5-2.6
	C656.9,100.2,655.8,101.3,654.4,101.3z"/>
<path class="st0" d="M913.6,96.2c1.8,0,3.2,1.4,3.2,3.2c0-1.8,1.5-3.2,3.3-3.2c-1.8,0-3.2-1.4-3.2-3.2
	C916.9,94.8,915.4,96.2,913.6,96.2z"/>
<path class="st4" d="M999.4,56.5c1.8,0,3.2,1.4,3.2,3.2c0-1.8,1.4-3.2,3.2-3.2c-1.8,0-3.2-1.4-3.2-3.2
	C1002.5,55.1,1001.1,56.5,999.4,56.5z"/>
<path class="st1" d="M946,86.8c2.2,0,4.1,1.8,4.1,4.1c0-2.2,1.8-4.1,4.1-4.1c-2.2,0-4.1-1.8-4.1-4.1C950.1,85,948.3,86.8,946,86.8z
	 M992.6,101.2c2.2,0,4.1,1.8,4.1,4.1c0-2.2,1.8-4.1,4.1-4.1c-2.2,0-4.1-1.8-4.1-4.1C996.7,99.4,994.9,101.2,992.6,101.2z
	 M1080.4,129.3c2.8,0,5.1,2.3,5.1,5.1c0-2.8,2.3-5.1,5.1-5.1c-2.8,0-5.1-2.3-5.1-5.1C1085.5,127,1083.2,129.3,1080.4,129.3z"/>
<path class="st2" d="M953.2,162.2c1.3,0,2.3,1.1,2.3,2.5c0-1.4,1-2.5,2.3-2.5c-1.3,0-2.3-1.1-2.3-2.6
	C955.5,161,954.5,162.2,953.2,162.2z"/>
<path class="st3" d="M912,99.2c1.4,0,2.5,1.2,2.5,2.6c0-1.4,1.1-2.6,2.5-2.6c-1.4,0-2.5-1.1-2.5-2.6C914.6,98.1,913.4,99.2,912,99.2
	z"/>
<path class="st1" d="M1239.3,167.6c2.2,0,4.1,1.8,4.1,4.1c0-2.2,1.8-4.1,4.1-4.1c-2.2,0-4.1-1.8-4.1-4.1
	C1243.4,165.8,1241.6,167.6,1239.3,167.6z M1126,97.3c2.8,0,5.1,2.3,5.1,5.1c0-2.8,2.3-5.1,5.1-5.1c-2.8,0-5.1-2.3-5.1-5.1
	C1131.1,95.1,1128.8,97.3,1126,97.3z"/>
<path class="st3" d="M1242.4,178.2c1.4,0,2.5,1.2,2.5,2.6c0-1.4,1.1-2.6,2.5-2.6c-1.4,0-2.5-1.2-2.5-2.6
	C1244.9,177.1,1243.8,178.2,1242.4,178.2z"/>
<path class="st0" d="M105.2,918.5c1.8,0,3.2,1.4,3.2,3.2c0-1.8,1.5-3.2,3.3-3.2c-1.8,0-3.3-1.4-3.2-3.2
	C108.4,917.1,106.9,918.5,105.2,918.5z"/>
<path class="st1" d="M47.7,1126.4c2.2,0,4.1,1.8,4.1,4.1c0-2.2,1.8-4.1,4.1-4.1c-2.2,0-4.1-1.8-4.1-4.1
	C51.7,1124.6,49.9,1126.4,47.7,1126.4z"/>
<path class="st2" d="M58.8,1068.9c1.3,0,2.3,1.1,2.3,2.6c0-1.4,1-2.5,2.3-2.5c-1.3,0-2.3-1.1-2.3-2.6
	C61.1,1067.8,60,1068.9,58.8,1068.9z"/>
<path class="st3" d="M79,1069.5c1.4,0,2.5,1.2,2.5,2.6c0-1.4,1.1-2.6,2.5-2.6c-1.4,0-2.5-1.2-2.5-2.6
	C81.5,1068.4,80.4,1069.5,79,1069.5z"/>
<path class="st0" d="M205.6,1039c1.8,0,3.2,1.4,3.2,3.2c0-1.8,1.5-3.2,3.3-3.2c-1.8,0-3.2-1.4-3.2-3.2
	C208.9,1037.6,207.4,1039,205.6,1039z"/>
<path class="st4" d="M177.4,977.3c1.8,0,3.2,1.4,3.2,3.2c0-1.8,1.4-3.2,3.2-3.2c-1.8,0-3.2-1.4-3.2-3.2
	C180.6,975.9,179.2,977.3,177.4,977.3z"/>
<path class="st1" d="M282.6,1077.3c2.2,0,4.1,1.8,4.1,4.1c0-2.2,1.8-4.1,4.1-4.1c-2.2,0-4.1-1.8-4.1-4.1
	C286.7,1075.5,284.9,1077.3,282.6,1077.3z M238.4,1094.8c2.2,0,4.1,1.8,4.1,4.1c0-2.2,1.8-4.1,4.1-4.1c-2.2,0-4.1-1.8-4.1-4.1
	C242.5,1093,240.7,1094.8,238.4,1094.8z M192.9,928.6c2.8,0,5.1,2.3,5.1,5.1c0-2.8,2.3-5.1,5.1-5.1c-2.8,0-5.1-2.3-5.1-5.1
	C198,926.3,195.7,928.6,192.9,928.6z"/>
<path class="st2" d="M169.4,1084.8c1.3,0,2.3,1.1,2.3,2.5c0-1.4,1-2.5,2.3-2.5c-1.3,0-2.3-1.1-2.3-2.6
	C171.7,1083.7,170.7,1084.8,169.4,1084.8z"/>
<path class="st3" d="M306.8,1119.4c1.4,0,2.5,1.2,2.5,2.6c0-1.4,1.1-2.6,2.5-2.6c-1.4,0-2.5-1.1-2.5-2.6
	C309.4,1118.2,308.2,1119.4,306.8,1119.4z"/>
<path class="st0" d="M440.9,1142.5c1.8,0,3.2,1.4,3.2,3.2c0-1.8,1.5-3.2,3.3-3.2c-1.8,0-3.3-1.4-3.3-3.2
	C444.2,1141,442.7,1142.5,440.9,1142.5z"/>
<path class="st4" d="M393.5,1030.9c1.8,0,3.2,1.4,3.2,3.2c0-1.8,1.4-3.2,3.2-3.2c-1.8,0-3.2-1.4-3.2-3.2
	C396.6,1029.5,395.2,1030.9,393.5,1030.9z"/>
<path class="st1" d="M445.4,967.7c2.2,0,4.1,1.8,4.1,4.1c0-2.2,1.8-4.1,4.1-4.1c-2.2,0-4.1-1.8-4.1-4.1
	C449.5,965.9,447.7,967.7,445.4,967.7z M390.5,1068.5c2.2,0,4.1,1.8,4.1,4.1c0-2.2,1.8-4.1,4.1-4.1c-2.2,0-4.1-1.8-4.1-4.1
	C394.6,1066.7,392.8,1068.5,390.5,1068.5z M477.6,1035.3c2.8,0,5.1,2.3,5.1,5.1c0-2.8,2.3-5.1,5.1-5.1c-2.8,0-5.1-2.3-5.1-5.1
	C482.7,1033,480.4,1035.3,477.6,1035.3z"/>
<path class="st2" d="M484.2,973.1c1.3,0,2.3,1.1,2.3,2.5c0-1.4,1-2.5,2.3-2.5c-1.3,0-2.3-1.1-2.3-2.6
	C486.5,971.9,485.4,973.1,484.2,973.1z"/>
<path class="st3" d="M557.8,1194.6c1.4,0,2.5,1.2,2.5,2.6c0-1.4,1.1-2.6,2.5-2.6c-1.4,0-2.5-1.1-2.5-2.6
	C560.4,1193.5,559.2,1194.6,557.8,1194.6z"/>
<path class="st1" d="M3.3,730.8c2.8,0,5.1,2.3,5.1,5.1c0-2.8,2.3-5.1,5.1-5.1c-2.8,0-5.1-2.3-5.1-5.1C8.4,728.5,6.1,730.8,3.3,730.8
	z"/>
<path class="st2" d="M94.8,778.4c1.3,0,2.3,1.1,2.3,2.5c0-1.4,1-2.5,2.3-2.5c-1.3,0-2.3-1.1-2.3-2.6C97.1,777.2,96,778.4,94.8,778.4
	z"/>
<path class="st0" d="M206.9,799c1.8,0,3.2,1.4,3.2,3.2c0-1.8,1.5-3.2,3.3-3.2c-1.8,0-3.2-1.4-3.2-3.2
	C210.1,797.6,208.6,799,206.9,799z"/>
<path class="st4" d="M349.5,960.4c1.8,0,3.2,1.4,3.2,3.2c0-1.8,1.4-3.2,3.2-3.2c-1.8,0-3.2-1.4-3.2-3.2
	C352.6,959,351.2,960.4,349.5,960.4z"/>
<path class="st1" d="M289.9,1021.3c2.2,0,4.1,1.8,4.1,4.1c0-2.2,1.8-4.1,4.1-4.1c-2.2,0-4.1-1.8-4.1-4.1
	C293.9,1019.5,292.1,1021.3,289.9,1021.3L289.9,1021.3z M201.3,862.4c2.2,0,4.1,1.8,4.1,4.1c0-2.2,1.8-4.1,4.1-4.1
	c-2.2,0-4.1-1.8-4.1-4.1C205.4,860.6,203.6,862.4,201.3,862.4z M153.7,815.2c2.8,0,5.1,2.3,5.1,5.1c0-2.8,2.3-5.1,5.1-5.1
	c-2.8,0-5.1-2.3-5.1-5.1C158.7,812.9,156.5,815.2,153.7,815.2z"/>
<path class="st2" d="M155,846c1.3,0,2.3,1.1,2.3,2.5c0-1.4,1-2.5,2.3-2.5c-1.3,0-2.3-1.1-2.3-2.6C157.2,844.9,156.2,846,155,846z"/>
<path class="st3" d="M229.4,982.5c1.4,0,2.5,1.2,2.5,2.6c0-1.4,1.1-2.6,2.5-2.6c-1.4,0-2.5-1.2-2.5-2.6
	C232,981.3,230.8,982.5,229.4,982.5z"/>
<path class="st0" d="M615.7,932.5c1.8,0,3.2,1.4,3.2,3.2c0-1.8,1.5-3.2,3.3-3.2c-1.8,0-3.2-1.4-3.2-3.2
	C619,931.1,617.5,932.5,615.7,932.5z"/>
<path class="st4" d="M548.6,807.8c1.8,0,3.2,1.4,3.2,3.2c0-1.8,1.4-3.2,3.2-3.2c-1.8,0-3.2-1.4-3.2-3.2
	C551.7,806.4,550.3,807.8,548.6,807.8z"/>
<path class="st1" d="M419.7,984c2.2,0,4.1,1.8,4.1,4.1c0-2.2,1.8-4.1,4.1-4.1c-2.2,0-4.1-1.8-4.1-4.1
	C423.7,982.2,421.9,984,419.7,984z M512.4,964.7c2.2,0,4.1,1.8,4.1,4.1c0-2.2,1.8-4.1,4.1-4.1c-2.2,0-4.1-1.8-4.1-4.1
	C516.5,962.9,514.7,964.7,512.4,964.7z M487.1,922.4c2.8,0,5.1,2.3,5.1,5.1c0-2.8,2.3-5.1,5.1-5.1c-2.8,0-5.1-2.3-5.1-5.1
	C492.2,920.1,489.9,922.4,487.1,922.4z"/>
<path class="st2" d="M371,1025.5c1.3,0,2.3,1.1,2.3,2.5c0-1.4,1-2.5,2.3-2.5c-1.3,0-2.3-1.1-2.3-2.6
	C373.3,1024.4,372.3,1025.5,371,1025.5z"/>
<path class="st4" d="M531.5,1169.8c1.8,0,3.2,1.4,3.2,3.2c0-1.8,1.4-3.2,3.2-3.2c-1.8,0-3.2-1.4-3.2-3.2
	C534.7,1168.4,533.3,1169.8,531.5,1169.8z"/>
<path class="st1" d="M457.3,1208.8c2.2,0,4.1,1.8,4.1,4.1c0-2.2,1.8-4.1,4.1-4.1c-2.2,0-4.1-1.8-4.1-4.1
	C461.4,1207,459.6,1208.8,457.3,1208.8z M516,1231.1c2.8,0,5.1,2.3,5.1,5.1c0-2.8,2.3-5.1,5.1-5.1c-2.8,0-5.1-2.3-5.1-5.1
	C521,1228.8,518.8,1231.1,516,1231.1z"/>
<path class="st0" d="M317.2,1235.7c1.8,0,3.2,1.4,3.2,3.2c0-1.8,1.5-3.2,3.3-3.2c-1.8,0-3.2-1.4-3.2-3.2
	C320.4,1234.2,319,1235.7,317.2,1235.7z"/>
<path class="st4" d="M262.2,1193c1.8,0,3.2,1.4,3.2,3.2c0-1.8,1.4-3.2,3.2-3.2c-1.8,0-3.2-1.4-3.2-3.2
	C265.4,1191.6,264,1193,262.2,1193z"/>
<path class="st1" d="M314.1,1231.4c2.2,0,4.1,1.8,4.1,4.1c0-2.2,1.8-4.1,4.1-4.1c-2.2,0-4.1-1.8-4.1-4.1
	C318.1,1229.6,316.3,1231.4,314.1,1231.4z M280.5,1095.9c2.2,0,4.1,1.8,4.1,4.1c0-2.2,1.8-4.1,4.1-4.1c-2.2,0-4.1-1.8-4.1-4.1
	C284.6,1094,282.7,1095.9,280.5,1095.9z M297.6,1155c2.8,0,5.1,2.3,5.1,5.1c0-2.8,2.3-5.1,5.1-5.1c-2.8,0-5.1-2.3-5.1-5.1
	C302.7,1152.7,300.4,1155,297.6,1155z"/>
<path class="st2" d="M266.2,1139.3c1.3,0,2.3,1.1,2.3,2.6c0-1.4,1-2.5,2.3-2.5c-1.3,0-2.3-1.1-2.3-2.6
	C268.5,1138.2,267.5,1139.3,266.2,1139.3z"/>
<path class="st3" d="M156.2,1169.8c1.4,0,2.5,1.2,2.5,2.6c0-1.4,1.1-2.6,2.5-2.6c-1.4,0-2.5-1.1-2.5-2.6
	C158.7,1168.7,157.6,1169.8,156.2,1169.8z"/>
<path class="st0" d="M484.1,1088.3c1.8,0,3.2,1.4,3.2,3.2c0-1.8,1.5-3.2,3.3-3.2c-1.8,0-3.2-1.4-3.2-3.2
	C487.4,1086.8,485.9,1088.3,484.1,1088.3z"/>
<path class="st4" d="M496.8,1201.2c1.8,0,3.2,1.4,3.2,3.2c0-1.8,1.4-3.2,3.2-3.2c-1.8,0-3.2-1.4-3.2-3.2
	C500,1199.8,498.6,1201.2,496.8,1201.2z"/>
<path class="st1" d="M413.7,1150.1c2.2,0,4.1,1.8,4.1,4.1c0-2.2,1.8-4.1,4.1-4.1c-2.2,0-4.1-1.8-4.1-4.1
	C417.8,1148.3,416,1150.1,413.7,1150.1z M540.4,1237c2.2,0,4.1,1.8,4.1,4.1c0-2.2,1.8-4.1,4.1-4.1c-2.2,0-4.1-1.8-4.1-4.1
	C544.5,1235.2,542.7,1237,540.4,1237z M579.2,1054.1c2.8,0,5.1,2.3,5.1,5.1c0-2.8,2.3-5.1,5.1-5.1c-2.8,0-5.1-2.3-5.1-5.1
	C584.3,1051.8,582,1054.1,579.2,1054.1z"/>
<path class="st2" d="M336.7,1244.5c1.3,0,2.3,1.1,2.3,2.5c0-1.4,1-2.5,2.3-2.5c-1.3,0-2.3-1.1-2.3-2.6
	C339,1243.4,338,1244.5,336.7,1244.5z"/>
<path class="st3" d="M349.1,1048.6c1.4,0,2.5,1.2,2.5,2.6c0-1.4,1.1-2.6,2.5-2.6c-1.4,0-2.5-1.1-2.5-2.6
	C351.6,1047.5,350.5,1048.6,349.1,1048.6z"/>
<path class="st0" d="M31,741.3c1.8,0,3.2,1.4,3.2,3.2c0-1.8,1.5-3.2,3.3-3.2c-1.8,0-3.3-1.4-3.2-3.2C34.3,739.8,32.8,741.3,31,741.3
	z"/>
<path class="st3" d="M29.8,790.3c1.4,0,2.5,1.2,2.5,2.6c0-1.4,1.1-2.6,2.5-2.6c-1.4,0-2.5-1.1-2.5-2.6
	C32.3,789.2,31.2,790.3,29.8,790.3z"/>
<path class="st4" d="M186.7,709.9c1.8,0,3.2,1.4,3.2,3.2c0-1.8,1.4-3.2,3.2-3.2c-1.8,0-3.2-1.4-3.2-3.2
	C189.9,708.5,188.5,709.9,186.7,709.9z"/>
<path class="st1" d="M320.7,807c2.2,0,4.1,1.8,4.1,4.1c0-2.2,1.8-4.1,4.1-4.1c-2.2,0-4.1-1.8-4.1-4.1C324.8,805.2,323,807,320.7,807
	z M176.7,683.2c2.8,0,5.1,2.3,5.1,5.1c0-2.8,2.3-5.1,5.1-5.1c-2.8,0-5.1-2.3-5.1-5.1C181.8,680.9,179.5,683.2,176.7,683.2z"/>
<path class="st2" d="M47.2,766.2c1.3,0,2.3,1.1,2.3,2.5c0-1.4,1-2.5,2.3-2.5c-1.3,0-2.3-1.1-2.3-2.6C49.5,765,48.4,766.2,47.2,766.2
	z"/>
<path class="st3" d="M241.7,725.9c1.4,0,2.5,1.2,2.5,2.6c0-1.4,1.1-2.6,2.5-2.6c-1.4,0-2.5-1.1-2.5-2.6
	C244.2,724.7,243.1,725.9,241.7,725.9z"/>
<path class="st0" d="M399.5,789.3c1.8,0,3.2,1.4,3.2,3.2c0-1.8,1.5-3.2,3.3-3.2c-1.8,0-3.2-1.4-3.2-3.2
	C402.8,787.9,401.3,789.3,399.5,789.3z"/>
<path class="st4" d="M462.6,766.8c1.8,0,3.2,1.4,3.2,3.2c0-1.8,1.4-3.2,3.2-3.2c-1.8,0-3.2-1.4-3.2-3.2
	C465.7,765.4,464.3,766.8,462.6,766.8z"/>
<path class="st1" d="M613.4,717.4c2.2,0,4.1,1.8,4.1,4.1c0-2.2,1.8-4.1,4.1-4.1c-2.2,0-4.1-1.8-4.1-4.1
	C617.4,715.6,615.6,717.4,613.4,717.4z M532.2,719.9c2.2,0,4.1,1.8,4.1,4.1c0-2.2,1.8-4.1,4.1-4.1c-2.2,0-4.1-1.8-4.1-4.1
	C536.2,718.1,534.4,719.9,532.2,719.9z M489.7,805.5c2.8,0,5.1,2.3,5.1,5.1c0-2.8,2.3-5.1,5.1-5.1c-2.8,0-5.1-2.3-5.1-5.1
	C494.7,803.2,492.5,805.5,489.7,805.5z"/>
<path class="st2" d="M458.5,788.1c1.3,0,2.3,1.1,2.3,2.5c0-1.4,1-2.5,2.3-2.5c-1.3,0-2.3-1.1-2.3-2.6
	C460.8,787,459.8,788.1,458.5,788.1z"/>
<path class="st3" d="M508,647.9c1.4,0,2.5,1.2,2.5,2.6c0-1.4,1.1-2.6,2.5-2.6c-1.4,0-2.5-1.1-2.5-2.6
	C510.6,646.8,509.4,647.9,508,647.9z"/>
<path class="st0" d="M35,878.8c1.8,0,3.2,1.4,3.2,3.2c0-1.8,1.5-3.2,3.3-3.2c-1.8,0-3.2-1.4-3.2-3.2C38.2,877.4,36.7,878.8,35,878.8
	z"/>
<path class="st1" d="M2.4,894.3c2.2,0,4.1,1.8,4.1,4.1c0-2.2,1.8-4.1,4.1-4.1c-2.2,0-4.1-1.8-4.1-4.1C6.5,892.4,4.6,894.3,2.4,894.3
	z"/>
<path class="st2" d="M14.4,667.2c1.3,0,2.3,1.1,2.3,2.5c0-1.4,1-2.5,2.3-2.5c-1.3,0-2.3-1.1-2.3-2.6C16.6,666,15.6,667.2,14.4,667.2
	z"/>
<path class="st0" d="M309.7,676.9c1.8,0,3.3,1.4,3.2,3.2c0-1.8,1.5-3.2,3.2-3.2c-1.8,0-3.2-1.4-3.2-3.2
	C312.9,675.5,311.5,677,309.7,676.9z"/>
<path class="st4" d="M167.2,705.4c1.8,0,3.2,1.4,3.2,3.2c0-1.8,1.4-3.2,3.2-3.2c-1.8,0-3.2-1.4-3.2-3.2
	C170.3,704,168.9,705.4,167.2,705.4z"/>
<path class="st1" d="M251.9,737c2.2,0,4.1,1.8,4.1,4.1c0-2.2,1.8-4.1,4.1-4.1c-2.2,0-4.1-1.8-4.1-4.1
	C255.9,735.2,254.1,737,251.9,737z M311.4,742.2c2.2,0,4.1,1.8,4.1,4.1c0-2.2,1.8-4.1,4.1-4.1c-2.2,0-4.1-1.8-4.1-4.1
	C315.5,740.4,313.6,742.2,311.4,742.2z M110.3,871.2c2.8,0,5.1,2.3,5.1,5.1c0-2.8,2.3-5.1,5.1-5.1c-2.8,0-5.1-2.3-5.1-5.1
	C115.4,868.9,113.1,871.2,110.3,871.2z"/>
<path class="st2" d="M254.8,718.2c1.3,0,2.3,1.1,2.3,2.5c0-1.4,1-2.5,2.3-2.5c-1.3,0-2.3-1.1-2.3-2.6
	C257.1,717,256,718.2,254.8,718.2z"/>
<path class="st3" d="M271.5,705.5c1.4,0,2.5,1.2,2.5,2.6c0-1.4,1.1-2.6,2.5-2.6c-1.4,0-2.5-1.1-2.5-2.6
	C274.1,704.3,273,705.5,271.5,705.5z"/>
<path class="st0" d="M440.1,708.3c1.8,0,3.2,1.4,3.2,3.2c0-1.8,1.5-3.2,3.3-3.2c-1.8,0-3.2-1.4-3.2-3.2
	C443.4,706.8,441.9,708.3,440.1,708.3z"/>
<path class="st4" d="M313.7,665.2c1.8,0,3.2,1.4,3.2,3.2c0-1.8,1.4-3.2,3.2-3.2c-1.8,0-3.2-1.4-3.2-3.2
	C316.9,663.8,315.5,665.2,313.7,665.2z"/>
<path class="st1" d="M486.3,735.4c2.2,0,4.1,1.8,4.1,4.1c0-2.2,1.8-4.1,4.1-4.1c-2.2,0-4.1-1.8-4.1-4.1
	C490.4,733.6,488.6,735.4,486.3,735.4z M598.9,666.1c2.2,0,4.1,1.8,4.1,4.1c0-2.2,1.8-4.1,4.1-4.1c-2.2,0-4.1-1.8-4.1-4.1
	C603,664.3,601.2,666.1,598.9,666.1z M508.4,653.8c2.8,0,5.1,2.3,5.1,5.1c0-2.8,2.3-5.1,5.1-5.1c-2.8,0-5.1-2.3-5.1-5.1
	C513.5,651.5,511.2,653.8,508.4,653.8z"/>
<path class="st2" d="M455,707.1c1.3,0,2.3,1.1,2.3,2.5c0-1.4,1-2.5,2.3-2.5c-1.3,0-2.3-1.1-2.3-2.6C457.3,706,456.3,707.1,455,707.1
	z"/>
<path class="st3" d="M530.1,667c1.4,0,2.5,1.2,2.5,2.6c0-1.4,1.1-2.6,2.5-2.6c-1.4,0-2.5-1.1-2.5-2.6
	C532.6,665.9,531.5,667,530.1,667z"/>
<path class="st0" d="M814.9,939.4c1.8,0,3.2,1.4,3.2,3.2c0-1.8,1.5-3.2,3.3-3.2c-1.8,0-3.2-1.4-3.2-3.2
	C818.1,938,816.7,939.4,814.9,939.4z"/>
<path class="st4" d="M840.5,1058.5c1.8,0,3.2,1.4,3.2,3.2c0-1.8,1.4-3.2,3.2-3.2c-1.8,0-3.2-1.4-3.2-3.2
	C843.6,1057.1,842.2,1058.5,840.5,1058.5z"/>
<path class="st1" d="M840.1,1023.6c2.2,0,4.1,1.8,4.1,4.1c0-2.2,1.8-4.1,4.1-4.1c-2.2,0-4.1-1.8-4.1-4.1
	C844.2,1021.8,842.3,1023.6,840.1,1023.6z M653.4,1001.9c2.2,0,4.1,1.8,4.1,4.1c0-2.2,1.8-4.1,4.1-4.1c-2.2,0-4.1-1.8-4.1-4.1
	C657.5,1000,655.7,1001.9,653.4,1001.9z M749.1,1080.3c2.8,0,5.1,2.3,5.1,5.1c0-2.8,2.3-5.1,5.1-5.1c-2.8,0-5.1-2.3-5.1-5.1
	C754.1,1078,751.9,1080.3,749.1,1080.3z"/>
<path class="st2" d="M650.5,923.7c1.3,0,2.3,1.1,2.3,2.5c0-1.4,1-2.5,2.3-2.5c-1.3,0-2.3-1.1-2.3-2.6
	C652.8,922.6,651.7,923.7,650.5,923.7z"/>
<path class="st3" d="M706.9,1062.5c1.4,0,2.5,1.2,2.5,2.6c0-1.4,1.1-2.6,2.5-2.6c-1.4,0-2.5-1.2-2.5-2.6
	C709.4,1061.4,708.3,1062.5,706.9,1062.5z"/>
<path class="st0" d="M1044.4,997.5c1.8,0,3.2,1.4,3.2,3.2c0-1.8,1.5-3.2,3.3-3.2c-1.8,0-3.2-1.4-3.2-3.2
	C1047.6,996,1046.2,997.5,1044.4,997.5z"/>
<path class="st4" d="M966.7,1116.5c1.8,0,3.2,1.4,3.2,3.2c0-1.8,1.4-3.2,3.2-3.2c-1.8,0-3.2-1.4-3.2-3.2
	C969.9,1115.1,968.4,1116.5,966.7,1116.5z"/>
<path class="st1" d="M1093.5,1026.9c2.2,0,4.1,1.8,4.1,4.1c0-2.2,1.8-4.1,4.1-4.1c-2.2,0-4.1-1.8-4.1-4.1
	C1097.6,1025.1,1095.8,1026.9,1093.5,1026.9z M914.2,1041.5c2.2,0,4.1,1.8,4.1,4.1c0-2.2,1.8-4.1,4.1-4.1c-2.2,0-4.1-1.8-4.1-4.1
	C918.2,1039.7,916.4,1041.5,914.2,1041.5z M973.2,911.3c2.8,0,5.1,2.3,5.1,5.1c0-2.8,2.3-5.1,5.1-5.1c-2.8,0-5.1-2.3-5.1-5.1
	C978.3,909.1,976,911.3,973.2,911.3z"/>
<path class="st2" d="M1080.1,985.3c1.3,0,2.3,1.1,2.3,2.5c0-1.4,1-2.5,2.3-2.5c-1.3,0-2.3-1.1-2.3-2.6
	C1082.3,984.1,1081.3,985.3,1080.1,985.3z"/>
<path class="st3" d="M995.1,1108.1c1.4,0,2.5,1.2,2.5,2.6c0-1.4,1.1-2.6,2.5-2.6c-1.4,0-2.5-1.1-2.5-2.6
	C997.6,1106.9,996.5,1108.1,995.1,1108.1z"/>
<path class="st4" d="M1161.2,1089.2c1.8,0,3.2,1.4,3.2,3.2c0-1.8,1.4-3.2,3.2-3.2c-1.8,0-3.2-1.4-3.2-3.2
	C1164.4,1087.7,1163,1089.2,1161.2,1089.2z"/>
<path class="st1" d="M1243.8,951.1c2.2,0,4.1,1.8,4.1,4.1c0-2.2,1.8-4.1,4.1-4.1c-2.2,0-4.1-1.8-4.1-4.1
	C1247.8,949.3,1246,951.1,1243.8,951.1z M1247.8,1149.5c2.8,0,5.1,2.3,5.1,5.1c0-2.8,2.3-5.1,5.1-5.1c-2.8,0-5.1-2.3-5.1-5.1
	C1252.9,1147.3,1250.6,1149.5,1247.8,1149.5z"/>
<path class="st0" d="M770.4,980.4c1.8,0,3.2,1.4,3.2,3.2c0-1.8,1.5-3.2,3.3-3.2c-1.8,0-3.2-1.4-3.2-3.2
	C773.7,979,772.2,980.4,770.4,980.4z"/>
<path class="st4" d="M825,856.6c1.8,0,3.2,1.4,3.2,3.2c0-1.8,1.4-3.2,3.2-3.2c-1.8,0-3.2-1.4-3.2-3.2
	C828.2,855.2,826.8,856.6,825,856.6z"/>
<path class="st1" d="M714.9,912.7c2.2,0,4.1,1.8,4.1,4.1c0-2.2,1.8-4.1,4.1-4.1c-2.2,0-4.1-1.8-4.1-4.1
	C719,910.9,717.2,912.7,714.9,912.7z M778.7,947.7c2.2,0,4.1,1.8,4.1,4.1c0-2.2,1.8-4.1,4.1-4.1c-2.2,0-4.1-1.8-4.1-4.1
	C782.7,945.9,780.9,947.7,778.7,947.7z M625.1,793.1c2.8,0,5.1,2.3,5.1,5.1c0-2.8,2.3-5.1,5.1-5.1c-2.8,0-5.1-2.3-5.1-5.1
	C630.2,790.9,627.9,793.1,625.1,793.1z"/>
<path class="st3" d="M844.6,892.4c1.4,0,2.5,1.2,2.5,2.6c0-1.4,1.1-2.6,2.5-2.6c-1.4,0-2.5-1.1-2.5-2.6
	C847.1,891.3,846,892.4,844.6,892.4z"/>
<path class="st0" d="M1067.8,920c1.8,0,3.2,1.4,3.2,3.2c0-1.8,1.5-3.2,3.3-3.2c-1.8,0-3.2-1.4-3.2-3.2
	C1071.1,918.5,1069.6,920,1067.8,920z"/>
<path class="st4" d="M891.9,918.8c1.8,0,3.2,1.4,3.2,3.2c0-1.8,1.4-3.2,3.2-3.2c-1.8,0-3.2-1.4-3.2-3.2
	C895.1,917.4,893.7,918.8,891.9,918.8z"/>
<path class="st1" d="M1127.1,747.8c2.2,0,4.1,1.8,4.1,4.1c0-2.2,1.8-4.1,4.1-4.1c-2.2,0-4.1-1.8-4.1-4.1
	C1131.2,746,1129.3,747.8,1127.1,747.8z M1094.3,896.7c2.2,0,4.1,1.8,4.1,4.1c0-2.2,1.8-4.1,4.1-4.1c-2.2,0-4.1-1.8-4.1-4.1
	C1098.4,894.8,1096.6,896.7,1094.3,896.7z M915.4,756.3c2.8,0,5.1,2.3,5.1,5.1c0-2.8,2.3-5.1,5.1-5.1c-2.8,0-5.1-2.3-5.1-5.1
	C920.5,754,918.2,756.3,915.4,756.3z"/>
<path class="st2" d="M988.8,884.8c1.3,0,2.3,1.1,2.3,2.5c0-1.4,1-2.5,2.3-2.5c-1.3,0-2.3-1.1-2.3-2.6
	C991.1,883.7,990.1,884.8,988.8,884.8z"/>
<path class="st3" d="M1124.8,828.5c1.4,0,2.5,1.2,2.5,2.6c0-1.4,1.1-2.6,2.5-2.6c-1.4,0-2.5-1.2-2.5-2.6
	C1127.3,827.3,1126.2,828.5,1124.8,828.5z"/>
<path class="st4" d="M1162.2,858.6c1.8,0,3.2,1.4,3.2,3.2c0-1.8,1.4-3.2,3.2-3.2c-1.8,0-3.2-1.4-3.2-3.2
	C1165.4,857.2,1164,858.6,1162.2,858.6z"/>
<path class="st1" d="M1133.7,905.6c2.2,0,4.1,1.8,4.1,4.1c0-2.2,1.8-4.1,4.1-4.1c-2.2,0-4.1-1.8-4.1-4.1
	C1137.7,903.8,1135.9,905.6,1133.7,905.6z M1154.9,858.5c2.2,0,4.1,1.8,4.1,4.1c0-2.2,1.8-4.1,4.1-4.1c-2.2,0-4.1-1.8-4.1-4.1
	C1158.9,856.7,1157.1,858.5,1154.9,858.5z M1251.3,749.8c2.8,0,5.1,2.3,5.1,5.1c0-2.8,2.3-5.1,5.1-5.1c-2.8,0-5.1-2.3-5.1-5.1
	C1256.4,747.5,1254.1,749.8,1251.3,749.8z"/>
<path class="st3" d="M1198.2,849c1.4,0,2.5,1.2,2.5,2.6c0-1.4,1.1-2.6,2.5-2.6c-1.4,0-2.5-1.1-2.5-2.6
	C1200.7,847.9,1199.6,849,1198.2,849z"/>
<path class="st4" d="M702.4,1273.1c1.8,0,3.2,1.4,3.2,3.2c0-1.8,1.4-3.2,3.2-3.2c-1.8,0-3.2-1.4-3.2-3.2
	C705.6,1271.7,704.2,1273.1,702.4,1273.1z"/>
<path class="st2" d="M653.1,1240.2c1.3,0,2.3,1.1,2.3,2.5c0-1.4,1-2.5,2.3-2.5c-1.3,0-2.3-1.1-2.3-2.6
	C655.4,1239.1,654.4,1240.2,653.1,1240.2z"/>
<path class="st1" d="M992.7,1262.5c2.2,0,4.1,1.8,4.1,4.1c0-2.2,1.8-4.1,4.1-4.1c-2.2,0-4.1-1.8-4.1-4.1
	C996.7,1260.7,994.9,1262.5,992.7,1262.5z M1017.4,1258.3c2.2,0,4.1,1.8,4.1,4.1c0-2.2,1.8-4.1,4.1-4.1c-2.2,0-4.1-1.8-4.1-4.1
	C1021.5,1256.4,1019.7,1258.3,1017.4,1258.3z M1002.4,1250.7c2.8,0,5.1,2.3,5.1,5.1c0-2.8,2.3-5.1,5.1-5.1c-2.8,0-5.1-2.3-5.1-5.1
	C1007.5,1248.4,1005.2,1250.7,1002.4,1250.7z"/>
<path class="st0" d="M744.7,1077.3c1.8,0,3.2,1.4,3.2,3.2c0-1.8,1.5-3.2,3.3-3.2c-1.8,0-3.2-1.4-3.2-3.2
	C748,1075.9,746.5,1077.3,744.7,1077.3z"/>
<path class="st4" d="M623.6,1236.9c1.8,0,3.2,1.4,3.2,3.2c0-1.8,1.4-3.2,3.2-3.2c-1.8,0-3.2-1.4-3.2-3.2
	C626.8,1235.5,625.4,1236.9,623.6,1236.9z"/>
<path class="st1" d="M775.4,1209.6c2.2,0,4.1,1.8,4.1,4.1c0-2.2,1.8-4.1,4.1-4.1c-2.2,0-4.1-1.8-4.1-4.1
	C779.4,1207.8,777.6,1209.6,775.4,1209.6z M748.7,1134.9c2.2,0,4.1,1.8,4.1,4.1c0-2.2,1.8-4.1,4.1-4.1c-2.2,0-4.1-1.8-4.1-4.1
	C752.8,1133.1,751,1134.9,748.7,1134.9z M752.1,1105.3c2.8,0,5.1,2.3,5.1,5.1c0-2.8,2.3-5.1,5.1-5.1c-2.8,0-5.1-2.3-5.1-5.1
	C757.2,1103,754.9,1105.3,752.1,1105.3z"/>
<path class="st2" d="M571.7,1078.9c1.3,0,2.3,1.1,2.3,2.6c0-1.4,1-2.5,2.3-2.5c-1.3,0-2.3-1.1-2.3-2.6
	C574,1077.8,572.9,1078.9,571.7,1078.9z"/>
<path class="st3" d="M638.4,1159.8c1.4,0,2.5,1.2,2.5,2.6c0-1.4,1.1-2.6,2.5-2.6c-1.4,0-2.5-1.1-2.5-2.6
	C640.9,1158.6,639.8,1159.8,638.4,1159.8z"/>
<path class="st0" d="M989.5,1184.7c1.8,0,3.2,1.4,3.2,3.2c0-1.8,1.5-3.2,3.3-3.2c-1.8,0-3.2-1.4-3.2-3.2
	C992.8,1183.2,991.3,1184.7,989.5,1184.7z"/>
<path class="st4" d="M994.9,1089.7c1.8,0,3.2,1.4,3.2,3.2c0-1.8,1.4-3.2,3.2-3.2c-1.8,0-3.2-1.4-3.2-3.2
	C998.1,1088.3,996.7,1089.7,994.9,1089.7z"/>
<path class="st1" d="M1105.9,1141.5c2.2,0,4.1,1.8,4.1,4.1c0-2.2,1.8-4.1,4.1-4.1c-2.2,0-4.1-1.8-4.1-4.1
	C1110,1139.6,1108.1,1141.5,1105.9,1141.5z M962.2,1135.2c2.2,0,4.1,1.8,4.1,4.1c0-2.2,1.8-4.1,4.1-4.1c-2.2,0-4.1-1.8-4.1-4.1
	C966.2,1133.4,964.4,1135.2,962.2,1135.2z M870.3,1130.5c2.8,0,5.1,2.3,5.1,5.1c0-2.8,2.3-5.1,5.1-5.1c-2.8,0-5.1-2.3-5.1-5.1
	C875.3,1128.2,873.1,1130.5,870.3,1130.5z"/>
<path class="st2" d="M893.1,1102.3c1.3,0,2.3,1.1,2.3,2.6c0-1.4,1-2.6,2.3-2.5c-1.3,0-2.3-1.1-2.3-2.6
	C895.4,1101.2,894.3,1102.3,893.1,1102.3z"/>
<path class="st3" d="M1092.7,1254.1c1.4,0,2.5,1.2,2.5,2.6c0-1.4,1.1-2.6,2.5-2.6c-1.4,0-2.5-1.1-2.5-2.6
	C1095.3,1253,1094.1,1254.1,1092.7,1254.1z"/>
<path class="st0" d="M1221.5,1148c1.8,0,3.2,1.4,3.2,3.2c0-1.8,1.5-3.2,3.3-3.2c-1.8,0-3.3-1.4-3.2-3.2
	C1224.7,1146.6,1223.3,1148,1221.5,1148z"/>
<path class="st4" d="M1207.9,1269.9c1.8,0,3.2,1.4,3.2,3.2c0-1.8,1.4-3.2,3.2-3.2c-1.8,0-3.2-1.4-3.2-3.2
	C1211.1,1268.5,1209.7,1269.9,1207.9,1269.9z"/>
<path class="st1" d="M1120,1044.6c2.2,0,4.1,1.8,4.1,4.1c0-2.2,1.8-4.1,4.1-4.1c-2.2,0-4.1-1.8-4.1-4.1
	C1124,1042.7,1122.2,1044.6,1120,1044.6z M1148.4,1065.5c2.2,0,4.1,1.8,4.1,4.1c0-2.2,1.8-4.1,4.1-4.1c-2.2,0-4.1-1.8-4.1-4.1
	C1152.5,1063.7,1150.6,1065.5,1148.4,1065.5z M1110.3,1246.9c2.8,0,5.1,2.3,5.1,5.1c0-2.8,2.3-5.1,5.1-5.1c-2.8,0-5.1-2.3-5.1-5.1
	C1115.4,1244.6,1113.1,1246.9,1110.3,1246.9z"/>
<path class="st2" d="M1151.6,1232.8c1.3,0,2.3,1.1,2.3,2.5c0-1.4,1-2.5,2.3-2.5c-1.3,0-2.3-1.1-2.3-2.6
	C1153.9,1231.7,1152.9,1232.8,1151.6,1232.8z"/>
<path class="st3" d="M1247.2,1144.9c1.4,0,2.5,1.2,2.5,2.6c0-1.4,1.1-2.6,2.5-2.6c-1.4,0-2.5-1.1-2.5-2.6
	C1249.8,1143.7,1248.6,1144.9,1247.2,1144.9z"/>
<path class="st0" d="M733,714.2c1.8,0,3.2,1.4,3.2,3.2c0-1.8,1.5-3.2,3.3-3.2c-1.8,0-3.2-1.4-3.2-3.2
	C736.2,712.7,734.8,714.2,733,714.2z"/>
<path class="st4" d="M782.7,677.2c1.8,0,3.2,1.4,3.2,3.2c0-1.8,1.4-3.2,3.2-3.2c-1.8,0-3.2-1.4-3.2-3.2
	C785.9,675.8,784.5,677.2,782.7,677.2z"/>
<path class="st1" d="M854.9,716.8c2.2,0,4.1,1.8,4.1,4.1c0-2.2,1.8-4.1,4.1-4.1c-2.2,0-4.1-1.8-4.1-4.1
	C859,714.9,857.1,716.8,854.9,716.8z M620.6,780.1c2.2,0,4.1,1.8,4.1,4.1c0-2.2,1.8-4.1,4.1-4.1c-2.2,0-4.1-1.8-4.1-4.1
	C624.6,778.2,622.8,780.1,620.6,780.1z"/>
<path class="st3" d="M848.6,628.2c1.4,0,2.5,1.2,2.5,2.6c0-1.4,1.1-2.6,2.5-2.6c-1.4,0-2.5-1.2-2.5-2.6
	C851.1,627,850,628.2,848.6,628.2z"/>
<path class="st0" d="M948.5,747.7c1.8,0,3.2,1.4,3.2,3.2c0-1.8,1.5-3.2,3.3-3.2c-1.8,0-3.2-1.4-3.2-3.2
	C951.8,746.2,950.3,747.7,948.5,747.7z"/>
<path class="st4" d="M1104.6,725.7c1.8,0,3.2,1.4,3.2,3.2c0-1.8,1.4-3.2,3.2-3.2c-1.8,0-3.2-1.4-3.2-3.2
	C1107.8,724.3,1106.4,725.7,1104.6,725.7z"/>
<path class="st1" d="M1072.4,706.8c2.2,0,4.1,1.8,4.1,4.1c0-2.2,1.8-4.1,4.1-4.1c-2.2,0-4.1-1.8-4.1-4.1
	C1076.5,705,1074.6,706.8,1072.4,706.8z M1050.1,687.9c2.2,0,4.1,1.8,4.1,4.1c0-2.2,1.8-4.1,4.1-4.1c-2.2,0-4.1-1.8-4.1-4.1
	C1054.2,686.1,1052.4,687.9,1050.1,687.9z M857.6,616c2.8,0,5.1,2.3,5.1,5.1c0-2.8,2.3-5.1,5.1-5.1c-2.8,0-5.1-2.3-5.1-5.1
	C862.7,613.7,860.4,616,857.6,616z"/>
<path class="st2" d="M1044.9,797.2c1.3,0,2.3,1.1,2.3,2.5c0-1.4,1-2.5,2.3-2.5c-1.3,0-2.3-1.1-2.3-2.6
	C1047.2,796.1,1046.2,797.2,1044.9,797.2z"/>
<path class="st3" d="M986.6,636.1c1.4,0,2.5,1.2,2.5,2.6c0-1.4,1.1-2.6,2.5-2.6c-1.4,0-2.5-1.2-2.5-2.6
	C989.1,634.9,988,636.1,986.6,636.1z"/>
<path class="st4" d="M1236.1,757.2c1.8,0,3.2,1.4,3.2,3.2c0-1.8,1.4-3.2,3.2-3.2c-1.8,0-3.2-1.4-3.2-3.2
	C1239.2,755.8,1237.8,757.2,1236.1,757.2z"/>
<path class="st1" d="M1268.3,785.2c2.2,0,4.1,1.8,4.1,4.1c0-2.2,1.8-4.1,4.1-4.1c-2.2,0-4.1-1.8-4.1-4.1
	C1272.4,783.4,1270.6,785.2,1268.3,785.2z M1147.7,614.8c2.2,0,4.1,1.8,4.1,4.1c0-2.2,1.8-4.1,4.1-4.1c-2.2,0-4.1-1.8-4.1-4.1
	C1151.8,613,1149.9,614.8,1147.7,614.8z"/>
<path class="st2" d="M1197.7,802.5c1.3,0,2.3,1.1,2.3,2.5c0-1.4,1-2.5,2.3-2.5c-1.3,0-2.3-1.1-2.3-2.6
	C1200,801.4,1198.9,802.5,1197.7,802.5z"/>
<path class="st0" d="M896.1,763.5c1.8,0,3.2,1.4,3.2,3.2c0-1.8,1.5-3.2,3.3-3.2c-1.8,0-3.2-1.4-3.2-3.2
	C899.4,762.1,897.9,763.5,896.1,763.5z"/>
<path class="st4" d="M663.9,753.5c1.8,0,3.2,1.4,3.2,3.2c0-1.8,1.4-3.2,3.2-3.2c-1.8,0-3.2-1.4-3.2-3.2
	C667.1,752.1,665.7,753.5,663.9,753.5z"/>
<path class="st1" d="M910.9,860.4c2.2,0,4.1,1.8,4.1,4.1c0-2.2,1.8-4.1,4.1-4.1c-2.2,0-4.1-1.8-4.1-4.1
	C915,858.6,913.2,860.4,910.9,860.4z M772.2,769.7c2.2,0,4.1,1.8,4.1,4.1c0-2.2,1.8-4.1,4.1-4.1c-2.2,0-4.1-1.8-4.1-4.1
	C776.2,767.9,774.4,769.7,772.2,769.7z M690.9,765.7c2.8,0,5.1,2.3,5.1,5.1c0-2.8,2.3-5.1,5.1-5.1c-2.8,0-5.1-2.3-5.1-5.1
	C695.9,763.4,693.7,765.7,690.9,765.7z"/>
<path class="st2" d="M715.7,799.4c1.3,0,2.3,1.1,2.3,2.5c0-1.4,1-2.5,2.3-2.5c-1.3,0-2.3-1.1-2.3-2.6
	C718,798.2,716.9,799.4,715.7,799.4z"/>
<path class="st3" d="M650.5,884.7c1.4,0,2.5,1.2,2.5,2.6c0-1.4,1.1-2.6,2.5-2.6c-1.4,0-2.5-1.1-2.5-2.6
	C653,883.5,651.9,884.7,650.5,884.7z"/>
<path class="st0" d="M978.7,884.7c1.8,0,3.2,1.4,3.2,3.2c0-1.8,1.5-3.2,3.3-3.2c-1.8,0-3.2-1.4-3.2-3.2
	C982,883.3,980.5,884.7,978.7,884.7z"/>
<path class="st4" d="M1012.7,749.9c1.8,0,3.2,1.4,3.2,3.2c0-1.8,1.4-3.2,3.2-3.2c-1.8,0-3.2-1.4-3.2-3.2
	C1015.8,748.5,1014.4,749.9,1012.7,749.9z"/>
<path class="st1" d="M937.1,809.8c2.2,0,4.1,1.8,4.1,4.1c0-2.2,1.8-4.1,4.1-4.1c-2.2,0-4.1-1.8-4.1-4.1
	C941.1,808,939.3,809.8,937.1,809.8z M923.3,764.7c2.2,0,4.1,1.8,4.1,4.1c0-2.2,1.8-4.1,4.1-4.1c-2.2,0-4.1-1.8-4.1-4.1
	C927.4,762.9,925.6,764.7,923.3,764.7z M1072.7,872.7c2.8,0,5.1,2.3,5.1,5.1c0-2.8,2.3-5.1,5.1-5.1c-2.8,0-5.1-2.3-5.1-5.1
	C1077.8,870.4,1075.5,872.7,1072.7,872.7z"/>
<path class="st2" d="M1034.4,912.6c1.3,0,2.3,1.1,2.3,2.5c0-1.4,1-2.5,2.3-2.5c-1.3,0-2.3-1.1-2.3-2.6
	C1036.7,911.5,1035.7,912.6,1034.4,912.6z"/>
<path class="st3" d="M974.4,805.4c1.4,0,2.5,1.2,2.5,2.6c0-1.4,1.1-2.6,2.5-2.6c-1.4,0-2.5-1.1-2.5-2.6
	C976.9,804.2,975.8,805.4,974.4,805.4z"/>
<path class="st0" d="M1270.8,867c1.8,0,3.2,1.4,3.2,3.2c0-1.8,1.5-3.2,3.3-3.2c-1.8,0-3.2-1.4-3.2-3.2
	C1274,865.5,1272.5,867,1270.8,867z"/>
<path class="st4" d="M1228.8,726.6c1.8,0,3.2,1.4,3.2,3.2c0-1.8,1.4-3.2,3.2-3.2c-1.8,0-3.2-1.4-3.2-3.2
	C1232,725.2,1230.5,726.6,1228.8,726.6z"/>
<path class="st1" d="M1148.9,776.6c2.8,0,5.1,2.3,5.1,5.1c0-2.8,2.3-5.1,5.1-5.1c-2.8,0-5.1-2.3-5.1-5.1
	C1154,774.4,1151.7,776.6,1148.9,776.6z"/>
<path class="st3" d="M1248.4,915.3c1.4,0,2.5,1.2,2.5,2.6c0-1.4,1.1-2.6,2.5-2.6c-1.4,0-2.5-1.2-2.5-2.6
	C1250.9,914.2,1249.8,915.3,1248.4,915.3z"/>
</svg>
